<?xml version="1.0" encoding="UTF-8" standalone="no"?><!DOCTYPE svg PUBLIC "-//W3C//DTD SVG 1.1//EN" "http://www.w3.org/Graphics/SVG/1.1/DTD/svg11.dtd"><svg width="100%" height="100%" viewBox="0 0 408 90" version="1.1" xmlns="http://www.w3.org/2000/svg" xmlns:xlink="http://www.w3.org/1999/xlink" xml:space="preserve" xmlns:serif="http://www.serif.com/" style="fill-rule:evenodd;clip-rule:evenodd;stroke-linejoin:round;stroke-miterlimit:2;"><path d="M384.172,89.5l-360.344,0c-13.159,0 -23.828,-10.668 -23.828,-23.828l0,-41.844c0,-13.16 10.669,-23.828 23.828,-23.828l360.344,0c13.16,0 23.828,10.668 23.828,23.828l0,41.844c0,13.16 -10.668,23.828 -23.828,23.828" style="fill:#c5172b;fill-rule:nonzero;"/><path d="M68.954,16.114c0,-0.939 0.425,-1.409 1.275,-1.409l38.171,0c0.895,0 1.342,0.448 1.342,1.342l0,1.006c0,0.939 -0.447,1.409 -1.342,1.409l-6.708,0c-0.761,0 -1.141,0.358 -1.141,1.073l0,18.248c0,0.76 0.358,1.14 1.074,1.14l7.782,0c0.894,0 1.341,0.447 1.341,1.342l0,0.402c0,0.94 -0.447,1.409 -1.341,1.409l-7.715,0c-0.761,0 -1.141,0.358 -1.141,1.074l0,31.329c0,0.939 -0.447,1.408 -1.341,1.408l-2.55,0c-0.939,0 -1.408,-0.447 -1.408,-1.341l0,-31.396c0,-0.716 -0.358,-1.074 -1.074,-1.074l-9.66,0c-0.76,0 -1.141,0.358 -1.141,1.074c0.045,6.708 -0.581,12.679 -1.878,17.912c-1.163,4.606 -4.361,8.922 -9.593,12.947c-1.074,0.895 -1.879,1.364 -2.415,1.409c-0.358,-0.045 -0.224,-0.447 0.402,-1.208c1.476,-1.789 2.885,-3.578 4.227,-5.367c1.073,-1.565 1.99,-3.354 2.75,-5.366c0.716,-2.863 1.118,-5.949 1.208,-9.258l0,-11.069c0,-0.716 -0.358,-1.074 -1.074,-1.074l-8.251,0c-0.94,0 -1.409,-0.447 -1.409,-1.341l0,-0.47c0,-0.895 0.447,-1.342 1.342,-1.342l8.855,0c0.715,0 1.073,-0.358 1.073,-1.073l0,-18.315c0,-0.715 -0.358,-1.073 -1.073,-1.073l-7.178,0c-0.939,0 -1.409,-0.447 -1.409,-1.342l0,-1.006Zm26.298,3.421c0,-0.715 -0.358,-1.073 -1.074,-1.073l-9.66,0c-0.76,0 -1.141,0.358 -1.141,1.073l0,18.248c0,0.76 0.358,1.14 1.074,1.14l9.727,0c0.716,0 1.074,-0.358 1.074,-1.073l0,-18.315Z" style="fill:#f9f9f9;fill-rule:nonzero;"/><path d="M145.998,13.162c0.089,-1.073 0.559,-1.61 1.409,-1.61l1.543,0c0.894,0 1.319,0.448 1.274,1.342l-0.872,12.478c0,0.805 0.313,1.207 0.939,1.207l2.147,0c0.716,0 1.163,-0.447 1.342,-1.341l0.134,-0.604c0.179,-0.894 0.716,-1.342 1.61,-1.342l2.013,0c0.894,0 1.341,0.448 1.341,1.342c-0.223,6.664 -0.715,13.864 -1.476,21.602c-0.268,3.354 -0.849,6.596 -1.744,9.727c-0.313,0.76 -0.067,1.386 0.738,1.878c0.716,0.358 1.454,0.761 2.214,1.208c0.894,0.492 1.319,1.185 1.275,2.08l-0.269,5.769c-0.089,0.939 -0.603,0.917 -1.543,-0.067l-4.025,-4.361c-0.671,-0.715 -1.252,-0.648 -1.744,0.202c-1.386,2.236 -2.594,4.025 -3.623,5.366c-1.476,2.102 -3.667,4.495 -6.574,7.179c-0.939,0.805 -1.588,1.118 -1.946,0.939c-0.313,-0.179 -0.111,-0.716 0.604,-1.61c3.891,-5.054 6.932,-10.309 9.124,-15.765c0.313,-0.716 0.223,-1.432 -0.268,-2.147l-1.678,-2.147c-0.581,-0.805 -0.894,-0.76 -0.939,0.134c-0.134,0.85 -0.223,1.722 -0.268,2.617c-0.09,0.984 -0.559,1.476 -1.409,1.476l-1.61,0c-0.895,0 -1.319,-0.448 -1.275,-1.342c0.582,-9.034 1.208,-18.069 1.879,-27.103c0.044,-0.715 -0.291,-1.073 -1.007,-1.073l-1.207,0c-0.939,0 -1.409,-0.425 -1.409,-1.275c0,-0.894 0.447,-1.342 1.342,-1.342l1.811,0c0.716,0 1.118,-0.447 1.208,-1.341l0.939,-12.076Zm20.864,0c0.134,-1.073 0.626,-1.61 1.475,-1.61l2.684,0c0.894,0 1.319,0.448 1.274,1.342c-0.536,6.351 -2.258,11.718 -5.165,16.101c-1.118,1.61 -2.549,3.063 -4.294,4.36c-0.805,0.716 -0.782,1.051 0.067,1.006c4.831,-0.402 9.057,-1.587 12.68,-3.555c0.715,-0.358 1.006,-0.917 0.872,-1.677c-0.537,-2.728 -0.872,-5.322 -1.006,-7.782l0,-3.69l0.067,-0.47c0.044,-0.894 0.156,-1.431 0.335,-1.61c0.134,-0.178 0.268,0.179 0.403,1.074l0.805,5.098c0.044,0.626 0.156,1.074 0.335,1.342c1.923,2.952 3.779,5.412 5.568,7.379c0.85,0.94 1.096,1.856 0.738,2.751c-0.581,1.923 -0.827,3.846 -0.738,5.769c0.045,0.895 -0.402,0.828 -1.342,-0.201c-2.012,-1.968 -3.376,-4.092 -4.092,-6.373c-0.223,-0.76 -0.76,-0.76 -1.61,0c-4.696,3.936 -9.526,6.507 -14.49,7.715c-0.895,0.223 -1.476,-0.112 -1.745,-1.006c-0.268,-0.984 -0.514,-1.968 -0.738,-2.952c-0.313,-1.029 -0.044,-1.543 0.805,-1.543c0.895,0 1.588,-0.447 2.08,-1.342c1.834,-3.488 3.086,-7.066 3.757,-10.734c0.581,-3.086 1.006,-6.216 1.275,-9.392Zm-13.283,17.107c0,-0.715 -0.358,-1.073 -1.074,-1.073l-2.079,0c-0.716,0 -1.141,0.447 -1.275,1.342c-0.671,6.842 -1.297,13.73 -1.878,20.662c-0.09,0.716 0.313,1.342 1.207,1.878l1.073,0.604c0.895,0.537 1.476,0.358 1.745,-0.537c0.984,-3.443 1.565,-7.021 1.744,-10.733c0.402,-4.92 0.581,-8.967 0.537,-12.143Zm9.123,15.9c0,-0.94 0.425,-1.409 1.275,-1.409l1.677,0c0.894,0 1.342,0.268 1.342,0.805c0,0.581 0.358,0.872 1.073,0.872l6.44,0c0.716,0 1.074,-0.268 1.074,-0.805c0,-0.582 0.447,-0.872 1.341,-0.872l2.684,0c0.894,0 1.342,0.447 1.342,1.341l0,28.914c0,0.94 -0.448,1.409 -1.342,1.409l-2.617,0c-0.939,0 -1.408,-0.447 -1.408,-1.342l0,-2.415c0,-0.715 -0.358,-1.073 -1.074,-1.073l-6.373,0c-0.76,0 -1.14,0.358 -1.14,1.073l0,2.348c0,0.94 -0.448,1.409 -1.342,1.409l-1.543,0c-0.939,0 -1.409,-0.447 -1.409,-1.342l0,-28.913Zm13.417,4.025c0,-0.761 -0.335,-1.141 -1.006,-1.141l-6.977,0c-0.76,0 -1.14,0.358 -1.14,1.074l0,17.71c0,0.761 0.358,1.141 1.073,1.141l6.977,0c0.716,0 1.073,-0.358 1.073,-1.074l0,-17.71Z" style="fill:#f9f9f9;fill-rule:nonzero;"/><path d="M219.889,13.431c0.045,-0.895 0.514,-1.342 1.409,-1.342l2.683,0c0.895,0 1.275,0.447 1.14,1.342c-0.268,1.431 -0.491,2.884 -0.67,4.36c-0.135,0.805 0.134,1.208 0.805,1.208l7.782,0c0.894,0 1.341,0.335 1.341,1.006c0,0.76 -0.447,1.141 -1.341,1.141l-8.722,0c-0.715,0 -1.341,0.447 -1.878,1.341c-0.984,1.789 -2.035,3.578 -3.153,5.367c-1.118,1.7 -2.37,3.265 -3.757,4.696c-0.984,0.984 -1.655,1.387 -2.012,1.208c-0.358,-0.179 -0.246,-0.716 0.335,-1.61c2.281,-3.847 3.846,-7.29 4.696,-10.332c0.671,-2.907 1.118,-5.702 1.342,-8.385Zm18.65,0.268c0.134,-1.073 0.648,-1.61 1.543,-1.61l2.683,0c0.895,0 1.208,0.447 0.939,1.342l-1.409,4.36c-0.268,0.805 -0.067,1.208 0.604,1.208l11.136,0c0.895,0 1.342,0.335 1.342,1.006c0,0.76 -0.447,1.141 -1.342,1.141l-9.19,0c-0.716,0 -0.649,0.402 0.201,1.207l4.025,3.489c0.939,0.849 1.163,1.699 0.671,2.549l-2.147,3.69c-0.536,0.894 -1.028,0.894 -1.476,0c-1.654,-2.952 -2.951,-6.239 -3.891,-9.862c-0.179,-0.716 -0.38,-1.073 -0.603,-1.073c-0.135,0 -0.425,0.447 -0.873,1.341c-1.118,2.192 -2.37,3.757 -3.756,4.696l-2.013,1.677c-0.76,0.627 -0.693,0.94 0.201,0.94c0.94,0 1.32,0.156 1.141,0.469c-0.179,0.313 -0.201,0.492 -0.067,0.537c0.268,-0.09 0.492,0.112 0.671,0.604c2.817,4.338 6.127,7.715 9.928,10.13c2.46,1.431 5.367,2.594 8.721,3.488c0.895,0.224 1.186,0.783 0.873,1.677c-0.492,1.655 -0.716,3.399 -0.671,5.233c0.044,0.894 -0.38,1.096 -1.275,0.604c-2.862,-1.61 -5.792,-3.534 -8.788,-5.77c-0.76,-0.671 -1.141,-0.559 -1.141,0.336c0,0.939 -0.447,1.409 -1.341,1.409l-18.114,0c-0.939,0 -1.408,-0.269 -1.408,-0.806c0,-0.536 -0.448,-0.514 -1.342,0.068c-3.131,1.878 -5.814,3.6 -8.05,5.165c-0.895,0.626 -1.431,0.85 -1.61,0.671c-0.179,-0.179 0.246,-0.693 1.274,-1.543c8.319,-6.977 13.44,-13.551 15.363,-19.723l0.402,-1.208c0.313,-0.894 0.917,-1.341 1.812,-1.341l0.671,0c0.715,0 1.341,-0.448 1.878,-1.342c0.939,-1.7 1.699,-3.489 2.281,-5.367c0.984,-3.712 1.699,-6.843 2.147,-9.392Zm-14.088,8.922c-0.135,-0.984 0.201,-1.095 1.006,-0.335c1.431,1.342 2.907,2.683 4.428,4.025c0.894,0.85 1.051,1.722 0.469,2.616l-1.945,2.952c-0.626,1.074 -1.118,1.163 -1.476,0.269c-1.252,-3.042 -2.08,-6.217 -2.482,-9.527Zm11.941,9.795c-0.224,-0.76 -0.559,-0.716 -1.006,0.134c-1.7,3.131 -3.399,5.814 -5.099,8.05c-0.894,1.253 -2.303,2.684 -4.226,4.294c-0.94,0.671 -1.029,1.006 -0.269,1.006l17.107,0c0.716,0 0.716,-0.447 0,-1.342c-3.086,-3.712 -5.255,-7.759 -6.507,-12.142Zm-16.436,22.943c0,-0.939 0.425,-1.409 1.275,-1.409l2.146,0c0.895,0 1.342,0.246 1.342,0.738c0,0.582 0.358,0.873 1.073,0.873l16.168,0c0.716,0 1.073,-0.269 1.073,-0.806c0,-0.536 0.448,-0.805 1.342,-0.805l2.684,0c0.894,0 1.341,0.448 1.341,1.342l0,19.723c0,0.94 -0.447,1.409 -1.341,1.409l-2.617,0c-0.939,0 -1.409,-0.447 -1.409,-1.342l0,-1.341c0,-0.716 -0.357,-1.074 -1.073,-1.074l-16.101,0c-0.76,0 -1.14,0.358 -1.14,1.074l0,1.274c0,0.94 -0.447,1.409 -1.342,1.409l-2.012,0c-0.94,0 -1.409,-0.447 -1.409,-1.342l0,-19.723Zm23.077,3.958c0,-0.76 -0.335,-1.14 -1.006,-1.14l-16.168,0c-0.76,0 -1.14,0.358 -1.14,1.073l0,10.13c0,0.76 0.358,1.141 1.073,1.141l16.168,0c0.716,0 1.073,-0.358 1.073,-1.074l0,-10.13Z" style="fill:#f9f9f9;fill-rule:nonzero;"/><path d="M287.943,12.424c0,-0.939 0.425,-1.408 1.275,-1.408l2.147,0c0.894,0 1.341,0.424 1.341,1.274c0,0.939 0.358,1.409 1.074,1.409l5.434,0c0.715,0 1.073,-0.447 1.073,-1.342c0,-0.894 0.447,-1.341 1.342,-1.341l1.543,0c0.894,0 1.341,0.447 1.341,1.341l0,22.944c0,0.939 -0.447,1.408 -1.341,1.408l-1.476,0c-0.939,0 -1.409,-0.447 -1.409,-1.341c0,-0.895 -0.358,-1.342 -1.073,-1.342l-5.367,0c-0.76,0 -1.141,0.425 -1.141,1.275c0,0.939 -0.447,1.408 -1.341,1.408l-2.013,0c-0.939,0 -1.409,-0.447 -1.409,-1.341l0,-22.944Zm18.784,2.013c0,-0.85 0.448,-1.275 1.342,-1.275l20.394,0c0.895,0 1.342,0.425 1.342,1.275c0,0.894 -0.447,1.342 -1.342,1.342l-6.641,0c-0.716,0 -1.253,0.447 -1.61,1.341c-1.163,2.997 -2.326,5.233 -3.489,6.709c-0.939,1.029 -1.409,1.096 -1.409,0.201l0,-7.178c0,-0.716 -0.358,-1.073 -1.073,-1.073l-6.105,0c-0.939,0 -1.409,-0.448 -1.409,-1.342Zm-6.44,2.952c0,-0.716 -0.358,-1.074 -1.073,-1.074l-5.367,0c-0.76,0 -1.141,0.358 -1.141,1.074l0,4.293c0,0.761 0.358,1.141 1.074,1.141l1.878,0c0.895,0 1.342,0.425 1.342,1.274c0,0.895 -0.447,1.342 -1.342,1.342l-1.811,0c-0.76,0 -1.141,0.358 -1.141,1.073l0,3.757c0,0.76 0.358,1.141 1.074,1.141l5.434,0c0.715,0 1.073,-0.358 1.073,-1.074l0,-12.947Zm8.05,6.775c0,-0.894 0.448,-1.341 1.342,-1.341l1.61,0c0.895,0 1.342,0.425 1.342,1.274c0,0.939 0.358,1.409 1.073,1.409l7.514,0c0.715,0 1.073,-0.447 1.073,-1.342c0,-0.894 0.447,-1.341 1.342,-1.341l1.61,0c0.894,0 1.342,0.447 1.342,1.341l0,26.03c-0.582,2.504 -1.364,4.74 -2.348,6.708c-0.135,0.626 -0.582,1.029 -1.342,1.208c-0.805,0.402 -0.76,0.76 0.134,1.073c1.252,0.582 2.527,1.118 3.824,1.61c0.894,0.447 1.342,1.118 1.342,2.013c0.044,0.894 0,1.52 -0.134,1.878c0,0.805 0.067,1.744 0.201,2.818c0.268,0.894 -0.045,1.073 -0.939,0.536c-5.233,-3.13 -8.073,-6.909 -8.52,-11.337c-0.045,-1.118 0.246,-1.252 0.872,-0.403c0.358,0.537 0.671,0.94 0.939,1.208c0.716,0.492 1.14,0.291 1.275,-0.604l0.402,-2.817l0,-24.889c0,-0.716 -0.358,-1.074 -1.073,-1.074l-7.447,0c-0.76,0 -1.14,0.358 -1.14,1.074l0,25.962c0,0.939 -0.447,1.409 -1.342,1.409l-1.543,0c-0.939,0 -1.409,-0.447 -1.409,-1.342l0,-31.061Zm6.977,8.722c0.045,-0.984 0.447,-1.476 1.208,-1.476l1.14,0c0.895,0 1.342,0.447 1.342,1.341l0,13.418c-0.045,2.415 -0.179,4.986 -0.403,7.714c-0.983,5.144 -4.696,10.019 -11.136,14.625c-0.805,0.626 -1.386,0.85 -1.744,0.671c-0.403,-0.179 -0.179,-0.671 0.671,-1.476c3.801,-3.667 6.395,-7.312 7.782,-10.935c0.581,-1.342 0.872,-3.936 0.872,-7.782l0,-6.91c0.179,-4.517 0.268,-7.58 0.268,-9.19Zm-30.591,8.385c0,-0.85 0.447,-1.274 1.342,-1.274l19.321,0c0.894,0 1.341,0.424 1.341,1.274c0,0.895 -0.447,1.342 -1.341,1.342l-4.026,0c-0.76,0 -1.14,0.358 -1.14,1.073l0,6.977c0,0.761 0.358,1.141 1.073,1.141l2.952,0c0.895,0 1.342,0.425 1.342,1.274c0,0.895 -0.447,1.342 -1.342,1.342l-2.885,0c-0.76,0 -1.14,0.358 -1.14,1.073l0,13.35c0,0.716 0.447,1.163 1.342,1.342c2.594,0.447 6.149,0.761 10.666,0.939c1.789,0 3.601,-0.044 5.434,-0.134c3.936,-0.179 7.872,-0.313 11.807,-0.402c0.895,0 1.029,0.447 0.403,1.341c-0.582,0.671 -0.984,1.566 -1.208,2.684c-0.044,0.402 0.134,0.827 0.537,1.274c0.313,0.358 0.022,0.537 -0.872,0.537l-5.032,0c-4.069,-0.134 -8.117,-0.223 -12.142,-0.268c-4.025,-0.179 -8.05,-0.738 -12.076,-1.677c-0.76,0 -1.654,-0.537 -2.683,-1.61c-1.699,-1.521 -2.929,-3.31 -3.69,-5.367c-0.313,-0.85 -0.603,-1.7 -0.872,-2.549c-0.134,-0.224 -0.358,0.134 -0.671,1.073c-0.581,2.415 -2.213,5.434 -4.897,9.056c-0.671,0.895 -1.185,1.342 -1.543,1.342c-0.358,0 -0.335,-0.447 0.067,-1.342c0.761,-0.983 1.431,-2.102 2.013,-3.354c0.626,-3.086 1.006,-6.53 1.14,-10.331l0,-12.545c0,-0.895 0.448,-1.342 1.342,-1.342l2.08,0c0.894,0 1.341,0.447 1.341,1.342c-0.179,4.428 -0.313,8.855 -0.402,13.283c-0.045,0.492 0.134,1.163 0.537,2.012c0.536,0.806 1.14,1.588 1.811,2.348c0.894,0.895 1.342,0.984 1.342,0.269l0,-23.078c0,-0.715 -0.358,-1.073 -1.074,-1.073l-8.788,0c-0.939,0 -1.409,-0.447 -1.409,-1.342Z" style="fill:#f9f9f9;fill-rule:nonzero;"/></svg>