<?xml version="1.0" encoding="UTF-8" standalone="no"?><!DOCTYPE svg PUBLIC "-//W3C//DTD SVG 1.1//EN" "http://www.w3.org/Graphics/SVG/1.1/DTD/svg11.dtd"><svg width="100%" height="100%" viewBox="0 0 408 90" version="1.1" xmlns="http://www.w3.org/2000/svg" xmlns:xlink="http://www.w3.org/1999/xlink" xml:space="preserve" xmlns:serif="http://www.serif.com/" style="fill-rule:evenodd;clip-rule:evenodd;stroke-linejoin:round;stroke-miterlimit:2;"><path d="M384.172,89.5l-360.344,0c-13.159,0 -23.828,-10.668 -23.828,-23.828l0,-41.844c0,-13.16 10.669,-23.828 23.828,-23.828l360.344,0c13.16,0 23.828,10.668 23.828,23.828l0,41.844c0,13.16 -10.668,23.828 -23.828,23.828" style="fill:#c5172b;fill-rule:nonzero;"/><path d="M91.103,13.431c0,-0.895 0.447,-1.342 1.341,-1.342l2.147,0c0.895,0 1.342,0.447 1.342,1.342l0,10.398c0,0.76 0.358,1.14 1.073,1.14l3.757,0c0.716,0 1.073,-0.357 1.073,-1.073l0,-10.465c0,-0.895 0.448,-1.342 1.342,-1.342l1.61,0c0.895,0 1.342,0.447 1.342,1.342l0,10.398c0,0.76 0.358,1.14 1.073,1.14l3.422,0c0.894,0 1.341,0.425 1.341,1.275c0,0.895 -0.447,1.342 -1.341,1.342l-3.355,0c-0.76,0 -1.14,0.358 -1.14,1.073l0,12.344c0,0.76 0.358,1.14 1.073,1.14l5.032,0c0.894,0 1.341,0.425 1.341,1.275c0,0.894 -0.447,1.342 -1.341,1.342l-4.965,0c-0.76,0 -1.14,0.357 -1.14,1.073l0,20.595c0,0.94 -0.447,1.409 -1.342,1.409l-1.543,0c-0.939,0 -1.409,-0.447 -1.409,-1.342l0,-20.662c0,-0.716 -0.357,-1.073 -1.073,-1.073l-4.226,0c-0.716,0 -1.119,0.447 -1.208,1.341c-0.134,3.489 -0.537,7.067 -1.207,10.734c-0.716,2.997 -2.483,6.127 -5.3,9.392c-0.984,1.074 -1.633,1.61 -1.946,1.61c-0.358,0 -0.313,-0.447 0.134,-1.342c2.058,-3.712 3.288,-7.289 3.69,-10.733c0.313,-3.489 0.447,-6.798 0.403,-9.929c0,-0.716 -0.358,-1.073 -1.074,-1.073l-5.031,0c-0.939,0 -1.409,-0.425 -1.409,-1.275c0,-0.894 0.447,-1.342 1.342,-1.342l5.098,0c0.716,0 1.074,-0.357 1.074,-1.073l0,-12.411c0,-0.715 -0.358,-1.073 -1.074,-1.073l-3.421,0c-0.939,0 -1.409,-0.425 -1.409,-1.275c0,-0.894 0.447,-1.342 1.342,-1.342l3.488,0c0.716,0 1.074,-0.357 1.074,-1.073l0,-10.465Zm-16.503,0.872c-0.269,-1.118 0.111,-1.23 1.14,-0.336l6.038,6.306c0.849,0.895 0.984,1.789 0.402,2.684l-1.945,3.086c-0.626,0.984 -1.118,1.051 -1.476,0.201c-1.61,-3.98 -2.997,-7.961 -4.159,-11.941Zm27.236,14.423c0,-0.76 -0.335,-1.14 -1.006,-1.14l-3.757,0c-0.715,0 -1.118,0.447 -1.207,1.341c-0.179,4.026 -0.313,8.073 -0.403,12.143c0,0.716 0.358,1.073 1.074,1.073l4.226,0c0.716,0 1.073,-0.357 1.073,-1.073l0,-12.344Zm-25.224,4.025c0,-0.894 0.447,-1.341 1.342,-1.341l2.147,0c0.894,0 1.341,0.447 1.341,1.341l0,28.378c0.134,1.923 0.582,3.712 1.342,5.366c0.358,0.895 1.118,1.745 2.281,2.55c2.728,1.297 5.836,1.99 9.325,2.079l3.757,0c5.053,-0.223 10.13,-0.402 15.228,-0.536c0.85,0 0.984,0.492 0.403,1.476c-0.627,1.028 -0.783,2.035 -0.47,3.018c0.179,0.895 -0.179,1.342 -1.073,1.342c-3.712,0 -7.425,-0.089 -11.137,-0.268l-6.708,0c-1.879,-0.045 -3.735,-0.134 -5.568,-0.269c-0.582,-0.044 -1.253,-0.29 -2.013,-0.737c-1.028,-0.582 -1.655,-1.096 -1.878,-1.543c-1.923,-2.729 -3.287,-5.524 -4.092,-8.386c-0.314,-0.76 -0.671,-0.693 -1.074,0.201c-0.581,1.789 -1.342,3.578 -2.281,5.367c-1.297,2.191 -3.265,3.98 -5.903,5.367c-0.895,0.537 -1.297,0.358 -1.208,-0.537c0.045,-0.671 0.134,-1.342 0.268,-2.012c0.045,-0.671 -0.044,-1.678 -0.268,-3.019c-0.134,-1.074 0.224,-1.655 1.074,-1.745c1.341,-0.134 2.705,-0.223 4.092,-0.268c0.715,-0.179 1.073,-0.626 1.073,-1.342l0,-28.914c0,-0.715 -0.358,-1.073 -1.073,-1.073l-3.422,0c-0.939,0 -1.408,-0.425 -1.408,-1.275c0,-0.894 0.447,-1.341 1.341,-1.341l3.489,0c0.715,0 1.073,-0.358 1.073,-1.074l0,-0.805Z" style="fill:#f9f9f9;fill-rule:nonzero;"/><path d="M160.432,12.424c-0.537,-0.939 -0.716,-1.408 -0.537,-1.408c0.179,0 0.693,0.447 1.543,1.341c2.818,3.176 5.121,6.754 6.91,10.734c1.565,3.578 2.616,7.156 3.153,10.734c0.268,1.789 0.492,3.578 0.671,5.367c1.341,9.168 6.373,17.956 15.094,26.364c0.895,0.85 1.096,1.722 0.604,2.617c-0.716,1.162 -1.409,2.37 -2.08,3.622c-0.402,0.582 -0.514,1.029 -0.335,1.342l0.402,1.275c0.134,0.939 -0.268,1.006 -1.207,0.201c-5.144,-5.099 -8.923,-10.376 -11.338,-15.832c-1.028,-2.55 -2.012,-6.128 -2.952,-10.734c-1.073,-5.278 -1.9,-10.264 -2.482,-14.96c-0.134,-0.582 -0.268,-0.447 -0.402,0.402c-0.313,4.965 -1.364,10.376 -3.153,16.235c-1.745,5.054 -3.981,9.526 -6.709,13.417c-1.118,1.655 -2.885,3.533 -5.3,5.635c-2.683,2.237 -5.367,4.428 -8.05,6.575c-0.805,0.715 -1.297,0.984 -1.476,0.805c-0.179,-0.134 0.179,-0.738 1.074,-1.811c1.61,-1.789 3.264,-3.578 4.964,-5.367c2.862,-3.22 4.785,-5.904 5.769,-8.051c5.993,-12.388 9.28,-25.939 9.862,-40.654c0.045,-0.447 -0.067,-0.894 -0.336,-1.341l-3.689,-6.508Z" style="fill:#f9f9f9;fill-rule:nonzero;"/><path d="M231.908,13.431c0,-0.895 0.447,-1.342 1.341,-1.342l2.684,0c0.894,0 1.341,0.447 1.341,1.342l0,6.641c0,0.76 0.358,1.141 1.074,1.141l6.641,0c0.895,0 1.342,0.424 1.342,1.274c0,0.895 -0.447,1.342 -1.342,1.342l-6.574,0c-0.76,0 -1.141,0.358 -1.141,1.073l0,7.514c0,0.76 0.358,1.14 1.074,1.14l3.153,0c0.715,0 1.274,-0.447 1.677,-1.341c0.76,-1.789 1.498,-3.578 2.214,-5.367c0.76,-1.61 1.699,-4.651 2.817,-9.124c0.269,-0.894 0.85,-1.342 1.745,-1.342l3.622,0c0.895,0 1.208,0.448 0.939,1.342c-1.252,4.875 -3.063,9.795 -5.433,14.759c-0.314,0.716 -0.112,1.073 0.603,1.073l9.795,0c0.894,0 1.342,0.425 1.342,1.275c0,0.894 -0.448,1.342 -1.342,1.342l-12.009,0c-0.715,0 -1.453,0.447 -2.213,1.341c-1.7,1.7 -3.355,3.422 -4.965,5.166c-0.536,0.716 -0.447,1.073 0.269,1.073l16.234,0c0.895,0 1.342,0.336 1.342,1.007c0,0.715 -0.447,1.073 -1.342,1.073l-15.698,0c-0.715,0 -1.207,0.447 -1.476,1.342l-0.603,1.342c-0.403,0.894 -1.61,2.124 -3.623,3.689c-0.894,0.761 -0.984,1.141 -0.268,1.141l11.27,0c0.716,0 1.073,-0.425 1.073,-1.275c0,-0.894 0.448,-1.342 1.342,-1.342l2.684,0c0.894,0 1.341,0.448 1.341,1.342l0,16.101c0,0.894 -0.134,1.565 -0.402,2.012c-1.074,1.879 -2.684,3.668 -4.83,5.367c-0.805,0.716 -1.476,1.096 -2.013,1.141l-1.342,0.335c-1.073,0.313 -1.587,0.402 -1.543,0.268c0,-0.358 -0.156,-0.671 -0.469,-0.939c-0.85,-0.537 -1.744,-0.715 -2.684,-0.537c-1.162,0.045 -2.348,0.067 -3.555,0.067c-0.939,0 -1.409,-0.178 -1.409,-0.536c0,-0.403 0.47,-0.693 1.409,-0.872c1.744,-0.403 3.511,-0.895 5.3,-1.476c2.057,-0.537 3.734,-1.387 5.031,-2.549c0.76,-0.671 1.14,-1.342 1.14,-2.013l0,-11.338c0,-0.715 -0.357,-1.073 -1.073,-1.073l-11.337,0c-0.716,0 -1.297,0.157 -1.745,0.47c-0.581,0.402 -0.872,0.179 -0.872,-0.671c-0.044,-1.565 0.447,-3.31 1.476,-5.233l0.47,-1.945c0.089,-0.716 -0.313,-0.761 -1.208,-0.134c-4.919,3.712 -10.063,7.066 -15.43,10.062c-0.894,0.492 -1.52,0.649 -1.878,0.47c-0.402,-0.224 -0.179,-0.649 0.671,-1.275c3.533,-2.549 7.111,-5.389 10.734,-8.52c2.683,-2.325 6.887,-6.328 12.612,-12.008c0.715,-0.715 0.715,-1.073 0,-1.073l-22.139,0c-0.939,0 -1.408,-0.425 -1.408,-1.275c0,-0.894 0.447,-1.342 1.341,-1.342l13.149,0c0.716,0 1.074,-0.357 1.074,-1.073l0,-7.581c0,-0.715 -0.358,-1.073 -1.074,-1.073l-8.788,0c-0.939,0 -1.409,-0.425 -1.409,-1.275c0,-0.894 0.447,-1.341 1.342,-1.341l8.855,0c0.716,0 1.074,-0.358 1.074,-1.074l0,-6.708Z" style="fill:#f9f9f9;fill-rule:nonzero;"/><path d="M318.679,12.424c0,-0.939 0.425,-1.408 1.275,-1.408l2.146,0c0.895,0 1.342,0.447 1.342,1.341l0,13.082c0,0.76 0.358,1.14 1.073,1.14l7.313,0c0.894,0 1.341,0.425 1.341,1.275c0,0.895 -0.447,1.342 -1.341,1.342l-7.38,0c-0.626,0 -0.961,0.469 -1.006,1.409l0,7.647c0.134,4.204 0.403,8.162 0.805,11.875c0.581,4.74 2.393,9.66 5.434,14.758c0.537,0.895 0.872,0.962 1.006,0.202c0.582,-3.891 1.208,-7.805 1.879,-11.74c0.044,-0.358 0.156,-0.626 0.335,-0.805c0.179,-0.135 0.246,0.246 0.201,1.14c-0.134,1.655 -0.223,3.332 -0.268,5.032c-0.179,2.012 -0.224,3.756 -0.134,5.232c0.134,1.029 0.291,2.102 0.469,3.22l0,7.313c0,0.894 -0.447,1.051 -1.341,0.469c-3.041,-1.968 -5.591,-4.383 -7.648,-7.245c-1.7,-2.683 -2.795,-6.015 -3.287,-9.996c-0.045,-0.715 -0.492,-0.626 -1.342,0.269c-0.626,0.67 -1.185,1.364 -1.677,2.079c-1.297,1.297 -2.192,2.326 -2.684,3.086c-0.581,0.895 -1.878,1.901 -3.89,3.019l-4.026,2.214c-0.984,0.358 -1.543,0.089 -1.677,-0.805l-0.604,-3.69c-0.178,-0.894 0.179,-1.409 1.074,-1.543c0.626,-0.134 1.252,-0.223 1.878,-0.268c0.716,-0.09 1.074,-0.492 1.074,-1.208l0,-20.394c0,-0.715 -0.358,-1.073 -1.074,-1.073l-1.811,0c-0.939,0 -1.409,-0.447 -1.409,-1.342l0,-0.537c0,-0.894 0.447,-1.341 1.342,-1.341l9.056,0c0.895,0 1.342,0.447 1.342,1.341l0,0.47c0,0.939 -0.425,1.409 -1.275,1.409c-0.939,0 -1.408,0.358 -1.408,1.073l0,18.784c0,0.761 0.447,0.872 1.341,0.336c1.432,-0.94 2.773,-2.035 4.026,-3.288c0.76,-0.894 1.095,-1.788 1.006,-2.683c-0.671,-5.277 -1.141,-13.059 -1.409,-23.346c-0.045,-0.715 -0.425,-1.073 -1.14,-1.073l-13.619,0c-0.939,0 -1.409,-0.425 -1.409,-1.275c0,-0.894 0.448,-1.342 1.342,-1.342l13.686,0c0.715,0 1.073,-0.357 1.073,-1.073l0,-13.082Zm-24.755,0.537c-0.313,-0.939 -0.38,-1.409 -0.201,-1.409c0.224,0.045 0.559,0.269 1.006,0.671l6.441,5.568c0.894,0.805 1.095,1.655 0.603,2.549l-2.146,3.623c-0.537,0.984 -1.051,1.029 -1.543,0.134c-1.566,-2.817 -2.952,-6.529 -4.16,-11.136Zm31.396,0.47c-0.134,-0.895 0.224,-0.984 1.074,-0.269l4.696,4.025c0.984,0.85 1.252,1.7 0.805,2.55l-1.744,3.287c-0.492,0.894 -0.984,0.85 -1.476,-0.134c-1.521,-2.997 -2.639,-6.15 -3.355,-9.459Zm-30.792,17.107c0,-0.85 0.447,-1.275 1.342,-1.275l2.079,0c0.895,0 1.342,0.447 1.342,1.342l0,31.932c0,0.716 0.447,0.671 1.342,-0.134c1.878,-1.61 3.444,-3.265 4.696,-4.964c0.671,-0.895 1.096,-1.275 1.275,-1.141c0.134,0.179 0,0.716 -0.403,1.611c-1.878,3.577 -3.444,6.171 -4.696,7.781c-1.297,1.789 -2.974,3.377 -5.031,4.764c-1.566,1.028 -3.131,1.9 -4.696,2.616c-1.029,0.447 -1.454,0.447 -1.275,0c0.179,-0.537 0.246,-0.939 0.201,-1.208c-0.134,-0.76 -0.514,-1.856 -1.14,-3.287c-0.269,-0.85 0.112,-1.453 1.14,-1.811c0.895,-0.224 1.812,-0.492 2.751,-0.805c0.715,-0.224 1.073,-0.693 1.073,-1.409l0,-28.914c0,-0.716 -0.358,-1.073 -1.073,-1.073l-3.422,0c-0.939,0 -1.408,-0.448 -1.408,-1.342c0,-0.895 0.447,-1.342 1.341,-1.342l3.489,0c0.715,0 1.073,-0.447 1.073,-1.341Z" style="fill:#f9f9f9;fill-rule:nonzero;"/></svg>