<?xml version="1.0" encoding="UTF-8" standalone="no"?><!DOCTYPE svg PUBLIC "-//W3C//DTD SVG 1.1//EN" "http://www.w3.org/Graphics/SVG/1.1/DTD/svg11.dtd"><svg width="100%" height="100%" viewBox="0 0 249 90" version="1.1" xmlns="http://www.w3.org/2000/svg" xmlns:xlink="http://www.w3.org/1999/xlink" xml:space="preserve" xmlns:serif="http://www.serif.com/" style="fill-rule:evenodd;clip-rule:evenodd;stroke-linejoin:round;stroke-miterlimit:2;"><path d="M203.966,89.5l-159.216,0c-24.715,0 -44.75,-20.035 -44.75,-44.75c0,-24.715 20.035,-44.75 44.75,-44.75l159.216,0c24.715,0 44.75,20.035 44.75,44.75c0,24.715 -20.035,44.75 -44.75,44.75" style="fill:#c5172b;fill-rule:nonzero;"/><path d="M45.459,22.505c0,-0.724 0.362,-1.087 1.086,-1.087l33.904,0c0.724,0 1.086,0.344 1.086,1.033c0,0.724 -0.362,1.086 -1.086,1.086l-15.376,0c-0.616,0 -0.924,0.29 -0.924,0.87l0,45.802c0,0.761 -0.362,1.141 -1.087,1.141l-1.684,0c-0.761,0 -1.141,-0.362 -1.141,-1.087l0,-45.856c0,-0.58 -0.29,-0.87 -0.869,-0.87l-12.769,0c-0.76,0 -1.14,-0.344 -1.14,-1.032Zm23.036,10.866c0,-0.724 0.073,-1.086 0.218,-1.086c0.145,0 0.38,0.398 0.706,1.195c0.833,2.21 1.902,4.383 3.206,6.52c1.412,2.101 3.296,3.912 5.65,5.433c0.688,0.471 0.924,1.087 0.707,1.848c-0.073,0.326 -0.127,0.67 -0.163,1.032c0.108,1.376 0.144,2.735 0.108,4.075c0,0.724 -0.362,0.869 -1.086,0.434c-3.731,-2.39 -6.086,-5.071 -7.064,-8.041c-0.688,-1.702 -1.231,-3.875 -1.63,-6.52c-0.072,-0.652 -0.235,-1.376 -0.489,-2.173c-0.144,-0.688 -0.199,-1.594 -0.163,-2.717Z" style="fill:#f9f9f9;fill-rule:nonzero;"/><path d="M104.868,42.065c0,-0.725 0.362,-1.087 1.086,-1.087l32.98,0c0.725,0 1.087,0.362 1.087,1.087l0,0.326c0,0.76 -0.362,1.141 -1.087,1.141l-32.98,0c-0.724,0 -1.086,-0.363 -1.086,-1.087l0,-0.38Z" style="fill:#f9f9f9;fill-rule:nonzero;"/><path d="M165.581,19.082c0,-0.761 0.344,-1.141 1.032,-1.141l1.739,0c0.724,0 1.087,0.344 1.087,1.032c0,0.761 0.289,1.141 0.869,1.141l4.401,0c0.579,0 0.869,-0.362 0.869,-1.086c0,-0.725 0.362,-1.087 1.087,-1.087l1.249,0c0.725,0 1.087,0.362 1.087,1.087l0,18.581c0,0.761 -0.362,1.141 -1.087,1.141l-1.195,0c-0.761,0 -1.141,-0.362 -1.141,-1.086c0,-0.725 -0.29,-1.087 -0.869,-1.087l-4.347,0c-0.616,0 -0.923,0.344 -0.923,1.032c0,0.761 -0.363,1.141 -1.087,1.141l-1.63,0c-0.761,0 -1.141,-0.362 -1.141,-1.086l0,-18.582Zm15.213,1.63c0,-0.688 0.362,-1.032 1.087,-1.032l16.517,0c0.724,0 1.086,0.344 1.086,1.032c0,0.724 -0.362,1.087 -1.086,1.087l-5.379,0c-0.58,0 -1.014,0.362 -1.304,1.086c-0.942,2.427 -1.884,4.238 -2.825,5.434c-0.761,0.833 -1.141,0.887 -1.141,0.163l0,-5.814c0,-0.58 -0.29,-0.869 -0.87,-0.869l-4.944,0c-0.761,0 -1.141,-0.363 -1.141,-1.087Zm-5.216,2.391c0,-0.58 -0.29,-0.87 -0.869,-0.87l-4.347,0c-0.616,0 -0.923,0.29 -0.923,0.87l0,3.477c0,0.616 0.289,0.924 0.869,0.924l1.521,0c0.725,0 1.087,0.344 1.087,1.032c0,0.724 -0.362,1.087 -1.087,1.087l-1.467,0c-0.616,0 -0.923,0.289 -0.923,0.869l0,3.042c0,0.616 0.289,0.924 0.869,0.924l4.401,0c0.579,0 0.869,-0.29 0.869,-0.869l0,-10.486Zm6.52,5.487c0,-0.724 0.362,-1.086 1.087,-1.086l1.304,0c0.724,0 1.086,0.344 1.086,1.032c0,0.761 0.29,1.141 0.87,1.141l6.085,0c0.579,0 0.869,-0.362 0.869,-1.087c0,-0.724 0.362,-1.086 1.087,-1.086l1.304,0c0.724,0 1.086,0.362 1.086,1.086l0,21.081c-0.47,2.029 -1.104,3.84 -1.901,5.433c-0.109,0.508 -0.471,0.834 -1.087,0.978c-0.652,0.326 -0.616,0.616 0.109,0.87c1.014,0.471 2.046,0.905 3.097,1.304c0.724,0.362 1.086,0.905 1.086,1.63c0.037,0.724 0,1.231 -0.108,1.521c0,0.652 0.054,1.413 0.163,2.282c0.217,0.724 -0.036,0.869 -0.761,0.435c-4.238,-2.536 -6.538,-5.597 -6.9,-9.183c-0.036,-0.905 0.199,-1.014 0.706,-0.326c0.29,0.435 0.544,0.761 0.761,0.978c0.579,0.399 0.924,0.236 1.032,-0.489l0.326,-2.282l0,-20.157c0,-0.579 -0.29,-0.869 -0.869,-0.869l-6.031,0c-0.616,0 -0.924,0.29 -0.924,0.869l0,21.027c0,0.76 -0.362,1.141 -1.086,1.141l-1.25,0c-0.761,0 -1.141,-0.362 -1.141,-1.087l0,-25.156Zm5.651,7.063c0.036,-0.796 0.362,-1.195 0.978,-1.195l0.923,0c0.725,0 1.087,0.362 1.087,1.087l0,10.866c-0.036,1.956 -0.145,4.039 -0.326,6.248c-0.797,4.166 -3.803,8.114 -9.019,11.845c-0.652,0.507 -1.123,0.688 -1.413,0.543c-0.326,-0.145 -0.145,-0.543 0.543,-1.195c3.079,-2.97 5.18,-5.922 6.303,-8.856c0.471,-1.087 0.706,-3.188 0.706,-6.303l0,-5.596c0.145,-3.658 0.218,-6.14 0.218,-7.444Zm-24.776,6.792c0,-0.688 0.362,-1.032 1.087,-1.032l15.647,0c0.725,0 1.087,0.344 1.087,1.032c0,0.724 -0.362,1.087 -1.087,1.087l-3.26,0c-0.615,0 -0.923,0.289 -0.923,0.869l0,5.651c0,0.615 0.29,0.923 0.869,0.923l2.391,0c0.724,0 1.086,0.344 1.086,1.033c0,0.724 -0.362,1.086 -1.086,1.086l-2.337,0c-0.615,0 -0.923,0.29 -0.923,0.869l0,10.813c0,0.579 0.362,0.941 1.086,1.086c2.101,0.362 4.981,0.616 8.639,0.761c1.449,0 2.916,-0.036 4.401,-0.109c3.188,-0.145 6.375,-0.253 9.563,-0.326c0.724,0 0.833,0.362 0.326,1.087c-0.471,0.543 -0.797,1.268 -0.978,2.173c-0.036,0.326 0.108,0.67 0.434,1.033c0.254,0.289 0.019,0.434 -0.706,0.434l-4.075,0c-3.296,-0.108 -6.574,-0.181 -9.834,-0.217c-3.26,-0.145 -6.52,-0.598 -9.78,-1.358c-0.616,0 -1.34,-0.435 -2.173,-1.304c-1.377,-1.232 -2.373,-2.681 -2.988,-4.347c-0.254,-0.688 -0.489,-1.376 -0.707,-2.065c-0.108,-0.181 -0.29,0.109 -0.543,0.87c-0.471,1.956 -1.793,4.401 -3.966,7.335c-0.544,0.724 -0.96,1.086 -1.25,1.086c-0.29,0 -0.272,-0.362 0.054,-1.086c0.616,-0.797 1.159,-1.703 1.63,-2.717c0.507,-2.499 0.815,-5.288 0.924,-8.367l0,-10.16c0,-0.725 0.362,-1.087 1.087,-1.087l1.684,0c0.724,0 1.087,0.362 1.087,1.087c-0.145,3.585 -0.254,7.171 -0.326,10.757c-0.037,0.399 0.108,0.942 0.434,1.63c0.435,0.652 0.924,1.286 1.467,1.902c0.725,0.724 1.087,0.797 1.087,0.217l0,-18.69c0,-0.58 -0.29,-0.869 -0.869,-0.869l-7.118,0c-0.761,0 -1.141,-0.363 -1.141,-1.087Z" style="fill:#f9f9f9;fill-rule:nonzero;"/></svg>