<?xml version="1.0" encoding="UTF-8" standalone="no"?><!DOCTYPE svg PUBLIC "-//W3C//DTD SVG 1.1//EN" "http://www.w3.org/Graphics/SVG/1.1/DTD/svg11.dtd"><svg width="100%" height="100%" viewBox="0 0 478 105" version="1.1" xmlns="http://www.w3.org/2000/svg" xmlns:xlink="http://www.w3.org/1999/xlink" xml:space="preserve" xmlns:serif="http://www.serif.com/" style="fill-rule:evenodd;clip-rule:evenodd;stroke-linejoin:round;stroke-miterlimit:2;"><path d="M33.878,11.33l0.101,-11.33l13.068,0.117c-0.146,1.539 -0.228,3.28 -0.245,5.223c-0.018,1.943 -0.036,3.978 -0.055,6.105l33.362,0.299l-0.651,72.597c-0.028,3.153 -0.266,5.754 -0.713,7.804c-0.447,2.049 -1.172,3.711 -2.173,4.985c-1.002,1.275 -2.281,2.235 -3.838,2.881c-1.557,0.646 -3.425,1.106 -5.606,1.38c-2.511,0.344 -5.038,0.56 -7.579,0.647c-2.542,0.087 -4.572,0.088 -6.089,0.001l-2.544,-14.434c0.923,0.082 2.242,0.185 3.957,0.311c1.715,0.125 3.53,0.16 5.445,0.103c1.386,0.013 2.492,-0.051 3.318,-0.19c0.826,-0.139 1.44,-0.445 1.84,-0.918c0.4,-0.473 0.67,-1.186 0.811,-2.138c0.141,-0.952 0.218,-2.235 0.232,-3.848l0.059,-6.49l0.703,-1.204l-0.687,-0.666l0.242,-26.949l-5.533,9.741c-1.504,-1.48 -3.305,-3.091 -5.402,-4.834c-2.096,-1.742 -4.521,-3.652 -7.275,-5.73c-1.638,-1.261 -3.163,-2.393 -4.573,-3.396c-1.41,-1.003 -2.738,-1.913 -3.985,-2.731c-0.735,1.02 -1.619,2.039 -2.651,3.056c-1.032,1.018 -2.147,2.035 -3.344,3.051l-0.001,0.11c-4.257,3.628 -9.702,7.283 -16.335,10.964l-4.466,-9.831l-0.239,26.729c-0.199,0.072 -0.381,0.144 -0.547,0.215c-0.165,0.072 -0.315,0.144 -0.447,0.216l0.97,2.209l-0.238,26.509l-12.77,-0.114l0.813,-90.747l33.065,0.297Zm-3.806,49.027c2.21,-3.5 3.543,-8.658 4,-15.474l0.001,-0.11l12.771,0.114c-0.369,4.25 -0.93,7.985 -1.685,11.205c1.445,0.82 2.987,1.824 4.626,3.012c1.64,1.188 3.41,2.524 5.311,4.008c2.424,1.928 4.587,3.671 6.487,5.228c1.9,1.557 3.571,2.965 5.011,4.225l-0.016,1.87l-6.83,10.829c-1.372,-1.479 -3.041,-3.125 -5.005,-4.94c-1.963,-1.814 -4.223,-3.796 -6.778,-5.946c-1.506,-1.26 -2.898,-2.427 -4.176,-3.502c-1.277,-1.075 -2.473,-2.021 -3.588,-2.838c-3.745,5.394 -11.289,11.34 -22.634,17.838l-4.559,-10.491l0.024,-2.64c9.217,-4.831 14.897,-8.96 17.04,-12.388Zm0.066,-29.48c1.004,-1.531 1.847,-3.467 2.528,-5.808l-19.206,-0.172l-0.159,17.819c9.082,-4.465 14.695,-8.412 16.837,-11.839Zm15.278,-3.493c1.445,0.819 2.988,1.768 4.628,2.846c1.64,1.078 3.412,2.249 5.315,3.513c4.788,3.343 8.623,6.237 11.505,8.683l0.153,-17.049l-21.086,-0.189l-0.515,2.196Z" style="fill-rule:nonzero;"/><path d="M119.681,26.069l0.058,-6.49l-22.076,-0.198l0.109,-12.209l22.077,0.198l0.065,-7.26l11.978,0.107l-0.065,7.26l15.245,0.136l0.066,-7.259l11.879,0.106l-0.065,7.26l22.175,0.199l-0.109,12.209l-22.175,-0.199l-0.059,6.6l9.8,0.088l-0.105,11.769l0.698,-0.543c3.785,-2.606 6.842,-4.926 9.17,-6.958l6.246,10.066c-2.327,1.959 -5.682,4.349 -10.063,7.17c-1.129,0.797 -2.208,1.484 -3.236,2.061c-1.029,0.578 -2.007,1.119 -2.936,1.624l-0.072,8.14c-0.01,1.026 0.133,1.651 0.428,1.874c0.295,0.222 1.004,0.339 2.126,0.349c1.188,0.01 1.948,-0.111 2.28,-0.365c0.332,-0.254 0.57,-0.967 0.712,-2.139c0.145,-1.392 0.289,-2.766 0.433,-4.121c0.144,-1.355 0.256,-2.729 0.334,-4.122l10.07,3.17c-0.081,1.686 -0.177,3.244 -0.289,4.673c-0.112,1.429 -0.274,2.986 -0.488,4.671c-0.43,3.883 -1.543,6.549 -3.338,8c-1.795,1.451 -4.575,2.269 -8.339,2.455c0.845,1.475 1.771,3.151 2.777,5.03c1.006,1.88 1.995,3.832 2.967,5.857c0.972,2.026 1.894,4.032 2.768,6.02c0.873,1.988 1.665,3.829 2.376,5.522l-11.639,6.166c-0.836,-2.428 -1.755,-4.856 -2.756,-7.285c-1.002,-2.429 -1.988,-4.712 -2.959,-6.847c-0.97,-2.135 -1.894,-4.087 -2.769,-5.855c-0.875,-1.768 -1.605,-3.205 -2.189,-4.31l7.761,-4.33c-3.958,-0.183 -6.903,-1.107 -8.836,-2.775c-1.932,-1.667 -2.878,-4.664 -2.84,-8.991l0.24,-26.728l-35.936,-0.322l-0.329,36.738l-11.285,-0.101l0.046,-5.17l-3.381,1.62c-1.922,0.936 -3.662,1.746 -5.219,2.428c-1.557,0.683 -2.932,1.239 -4.124,1.668l-4.15,-11.917c1.324,-0.428 3.029,-1.036 5.115,-1.824c2.086,-0.788 4.223,-1.686 6.41,-2.693l5.468,-2.591l0.06,-6.71l-13.661,-0.122l0.108,-12.1l13.662,0.123l0.079,-8.91l9.702,0.087Zm34.333,13.398l-0.289,32.339l-29.897,-0.268l0.29,-32.339l29.896,0.268Zm-60.016,57.435c4.229,-7.883 7.799,-15.918 10.711,-24.105l12.437,4.181c-1.559,4.533 -3.265,8.918 -5.118,13.155c-1.853,4.237 -3.922,8.618 -6.206,13.145l-11.824,-6.376Zm37.124,-21.779c0.889,3.895 1.713,7.734 2.471,11.518c0.758,3.783 1.384,7.621 1.877,11.512l-12.296,2.2c-0.246,-2.056 -0.509,-4.001 -0.79,-5.837c-0.28,-1.836 -0.561,-3.654 -0.842,-5.453c-0.281,-1.799 -0.611,-3.599 -0.991,-5.399c-0.38,-1.8 -0.791,-3.766 -1.234,-5.896l11.805,-2.645Zm20.4,-0.587c0.583,1.252 1.213,2.761 1.89,4.527c0.677,1.766 1.354,3.624 2.029,5.574c0.676,1.949 1.318,3.898 1.928,5.847c0.61,1.949 1.105,3.695 1.488,5.239l-11.921,4.513c-0.318,-1.396 -0.732,-3.068 -1.242,-5.016c-0.511,-1.948 -1.071,-3.952 -1.679,-6.011c-0.609,-2.059 -1.235,-4.026 -1.878,-5.902c-0.643,-1.876 -1.19,-3.439 -1.641,-4.69l11.026,-4.081Zm-16.697,-14.89l8.118,0.073l0.078,-8.8l-8.117,-0.073l-0.079,8.8Zm12.102,-35.753l0.036,-4.07l-15.245,-0.137l-0.037,4.07l15.246,0.137Z" style="fill-rule:nonzero;"/><path d="M189.454,95.117c2.812,-4.449 5.062,-8.719 6.748,-12.81c1.687,-4.092 3.047,-8.59 4.081,-13.494c0.761,-3.807 1.379,-8.403 1.856,-13.789c0.478,-5.386 0.748,-11.636 0.812,-18.749l0.255,-28.489c5.545,-0.023 11.222,-0.156 17.032,-0.397c5.811,-0.241 11.886,-0.59 18.227,-1.047c6.341,-0.53 12.385,-1.136 18.134,-1.817c5.748,-0.682 11.233,-1.477 16.456,-2.383l2.942,14.107c-8.658,1.389 -18.866,2.508 -30.622,3.356c-5.944,0.46 -11.36,0.815 -16.246,1.064c-4.887,0.25 -9.508,0.392 -13.865,0.426l-0.086,9.68l65.535,0.587l-0.116,12.979l-65.635,-0.588c-0.186,6.085 -0.533,11.637 -1.04,16.656c-0.507,5.019 -1.175,9.579 -2.003,13.678c-0.964,4.465 -2.342,9.054 -4.133,13.769c-1.792,4.714 -4.129,9.625 -7.013,14.732l-11.319,-7.471Zm84.913,-40.601l-0.41,45.758l-56.922,-0.51l0.41,-45.758l56.922,0.51Zm-45.334,32.155l32.371,0.29l0.172,-19.139l-32.372,-0.29l-0.171,19.139Z" style="fill-rule:nonzero;"/><path d="M346.215,2.577l-0.167,18.59l31.184,0.279l-0.126,14.079l-31.184,-0.279l-0.149,16.609l27.917,0.25l-0.126,14.08l-27.917,-0.25l-0.189,21.119l34.846,0.312l-0.125,13.97l-85.136,-0.763l0.125,-13.97l36.826,0.33l0.19,-21.119l-28.214,-0.253l0.11,-12.319l-0.904,1.422l-11.315,-7.802c4.213,-6.196 7.736,-12.636 10.568,-19.321c2.832,-6.685 5.174,-13.906 7.026,-21.663l12.644,3.084c-0.547,2.195 -1.11,4.28 -1.689,6.255c-0.579,1.975 -1.14,3.876 -1.685,5.705l13.86,0.124l0.166,-18.589l13.464,0.12Zm-32.863,32.377c-1.213,2.776 -2.508,5.533 -3.886,8.271c-1.377,2.737 -2.87,5.493 -4.479,8.265l27.323,0.245l0.148,-16.61l-19.106,-0.171Z" style="fill-rule:nonzero;"/><path d="M477.847,7.387l-0.867,96.796l-82.662,-0.741l0.867,-96.796l82.662,0.741Zm-71.738,83.95l59.001,0.529l0.648,-72.267l-59.002,-0.529l-0.647,72.267Zm24.82,-40.919l0.046,-5.06c4.045,-2.164 7.863,-4.733 11.454,-7.707l-29.501,-0.265l0.113,-12.539l48.112,0.431l-0.112,12.539c-5.584,4.351 -11.461,8.368 -17.632,12.053l-0.006,0.66l20.096,0.18l-0.113,12.649l-20.096,-0.18l-0.093,10.34c-0.019,2.127 -0.184,3.977 -0.495,5.551c-0.311,1.574 -0.868,2.907 -1.67,4c-0.802,1.093 -1.882,1.963 -3.241,2.611c-1.359,0.648 -3.062,1.109 -5.111,1.384c-1.916,0.276 -3.882,0.461 -5.896,0.552c-2.013,0.092 -4.01,0.056 -5.988,-0.108l-2.06,-13.219c1.517,0.16 2.885,0.282 4.105,0.367c1.221,0.084 2.557,0.096 4.01,0.036c1.518,0.013 2.543,-0.271 3.077,-0.853c0.533,-0.582 0.808,-1.826 0.825,-3.733l0.063,-7.039l-22.175,-0.199l0.113,-12.65l22.175,0.199Z" style="fill-rule:nonzero;"/></svg>