<?xml version="1.0" encoding="UTF-8" standalone="no"?><!DOCTYPE svg PUBLIC "-//W3C//DTD SVG 1.1//EN" "http://www.w3.org/Graphics/SVG/1.1/DTD/svg11.dtd"><svg width="100%" height="100%" viewBox="0 0 170 98" version="1.1" xmlns="http://www.w3.org/2000/svg" xmlns:xlink="http://www.w3.org/1999/xlink" xml:space="preserve" xmlns:serif="http://www.serif.com/" style="fill-rule:evenodd;clip-rule:evenodd;stroke-linejoin:round;stroke-miterlimit:2;"><path d="M25.731,96.552c-12.855,0 -21.168,-3.278 -24.041,-9.481c-3.576,-7.721 1.809,-18.964 15.162,-31.658c13.193,-12.542 32.634,-25.087 54.741,-35.326c26.326,-12.192 53.339,-19.471 72.258,-19.471c12.856,0 21.169,3.279 24.042,9.481c3.575,7.721 -1.809,18.964 -15.162,31.657c-13.194,12.542 -32.635,25.088 -54.742,35.326c-26.325,12.193 -53.338,19.472 -72.258,19.472" style="fill:#e77150;fill-rule:nonzero;"/><path d="M143.855,0l-0.004,0c-19.007,0.001 -46.117,7.301 -72.517,19.528c-22.167,10.266 -41.667,22.852 -54.908,35.439c-13.559,12.89 -18.991,24.383 -15.296,32.363c2.981,6.436 11.488,9.838 24.601,9.838c19.005,0 46.114,-7.3 72.517,-19.528c22.166,-10.265 41.666,-22.851 54.907,-35.439c13.56,-12.889 18.992,-24.383 15.297,-32.363c-2.981,-6.436 -11.487,-9.838 -24.597,-9.838m-0.004,1.233c12.111,-0.001 20.63,2.966 23.482,9.123c7.146,15.43 -24.017,45.053 -69.603,66.165c-27.393,12.687 -53.765,19.415 -71.999,19.415c-12.111,0 -20.63,-2.966 -23.482,-9.124c-7.146,-15.43 24.017,-45.053 69.603,-66.165c27.393,-12.687 53.765,-19.413 71.999,-19.414" style="fill:#4a4a4a;fill-rule:nonzero;"/><path d="M34.381,86.837l-10.746,-31.457l4.053,-1.877l4.66,13.619l7.889,-3.653l-4.66,-13.62l4.053,-1.877l10.746,31.458l-4.053,1.877l-5.053,-14.801l-7.889,3.654l5.053,14.8l-4.053,1.877Z" style="fill:#fff;fill-rule:nonzero;"/><path d="M61.623,74.594c-0.603,0.279 -1.167,0.383 -1.691,0.311c-0.524,-0.072 -0.969,-0.273 -1.334,-0.602c-0.364,-0.329 -0.706,-0.742 -1.024,-1.24c-0.148,-0.224 -0.281,-0.463 -0.398,-0.716c-0.134,-0.29 -0.244,-0.591 -0.33,-0.902l-6.21,-18.154l3.836,-1.777l5.807,17c0.094,0.265 0.188,0.499 0.283,0.704c0.234,0.507 0.491,0.872 0.77,1.094c0.395,0.315 0.924,0.319 1.588,0.012c0.832,-0.386 1.615,-1.32 2.349,-2.802l-6.201,-18.136l3.836,-1.777l7.678,22.463l-3.836,1.776l-0.754,-2.244c-1.115,2.494 -2.572,4.158 -4.369,4.99Z" style="fill:#fff;fill-rule:nonzero;"/><path d="M78.386,66.391l-10.727,-31.466l3.836,-1.776l6.446,18.901l2.571,-12.574l4.009,-1.878l-2.065,11.152l9.58,11.385l-3.836,1.777l-7.997,-9.723l-0.892,3.863l2.911,8.563l-3.836,1.776Z" style="fill:#fff;fill-rule:nonzero;"/><path d="M97.007,57.833l-0.927,-2.713l0.932,-19.813l-5.971,2.765l-1.042,-3.011l10.078,-4.668l0.755,2.2l-0.751,20.3l6.496,-3.008l1.033,3.038l-10.603,4.91Z" style="fill:#fff;fill-rule:nonzero;"/><path d="M114.589,49.69l-7.678,-22.462l3.836,-1.776l7.678,22.462l-3.836,1.776Zm-8.792,-25.769l-1.468,-4.309l3.854,-1.785l1.468,4.309l-3.854,1.785Z" style="fill:#fff;fill-rule:nonzero;"/><path d="M129.582,43.12c-0.603,0.28 -1.167,0.383 -1.691,0.311c-0.524,-0.072 -0.969,-0.273 -1.334,-0.602c-0.364,-0.329 -0.706,-0.742 -1.024,-1.24c-0.148,-0.224 -0.281,-0.463 -0.398,-0.716c-0.134,-0.29 -0.244,-0.59 -0.33,-0.902l-6.21,-18.154l3.836,-1.777l5.807,17c0.094,0.265 0.188,0.499 0.283,0.705c0.234,0.506 0.491,0.871 0.77,1.093c0.395,0.315 0.924,0.319 1.588,0.012c0.832,-0.385 1.615,-1.32 2.35,-2.802l-6.202,-18.136l3.836,-1.777l7.678,22.463l-3.836,1.776l-0.754,-2.244c-1.115,2.495 -2.572,4.158 -4.369,4.99Z" style="fill:#fff;fill-rule:nonzero;"/></svg>