<?xml version="1.0" encoding="UTF-8" standalone="no"?><!DOCTYPE svg PUBLIC "-//W3C//DTD SVG 1.1//EN" "http://www.w3.org/Graphics/SVG/1.1/DTD/svg11.dtd"><svg width="100%" height="100%" viewBox="0 0 247 30" version="1.1" xmlns="http://www.w3.org/2000/svg" xmlns:xlink="http://www.w3.org/1999/xlink" xml:space="preserve" xmlns:serif="http://www.serif.com/" style="fill-rule:evenodd;clip-rule:evenodd;stroke-linejoin:round;stroke-miterlimit:2;"><path d="M8.731,1.35c0.4,-0.18 0.64,-0.2 0.72,-0.06c0.08,0.14 -0.08,0.37 -0.48,0.69c-2.72,2.08 -4.63,4.329 -5.729,6.749c-1.16,2.64 -1.52,5.43 -1.08,8.369c0.2,1.58 0.68,3.18 1.439,4.8c1.2,2.44 3,4.629 5.4,6.569c0.38,0.3 0.53,0.52 0.45,0.66c-0.08,0.16 -0.31,0.1 -0.69,-0.18c-5.599,-4.019 -8.519,-8.329 -8.759,-12.929c-0.04,-2.319 0.58,-4.879 1.86,-7.679c1.479,-3.12 3.769,-5.449 6.869,-6.989Z" style="fill:#c5172b;fill-rule:nonzero;"/><path d="M23.58,0.24c0.1,-0.1 0.299,0.03 0.599,0.39l2.46,3c0.28,0.34 0.26,0.74 -0.06,1.2l-0.81,1.169c-0.26,0.36 -0.49,0.31 -0.69,-0.15c-0.66,-1.559 -1.15,-3.159 -1.469,-4.799c-0.08,-0.48 -0.09,-0.75 -0.03,-0.81Zm9.509,0.51c0,-0.42 0.19,-0.63 0.57,-0.63l0.989,0c0.4,0 0.6,0.2 0.6,0.6l0,2.25c0,0.34 0.16,0.51 0.48,0.51l4.17,0c0.4,0 0.6,0.19 0.6,0.57c0,0.4 -0.2,0.6 -0.6,0.6l-4.14,0c-0.34,0 -0.51,0.16 -0.51,0.479l0,0.96c0,0.34 0.16,0.51 0.48,0.51l3.69,0c0.4,0 0.6,0.19 0.6,0.57c0,0.4 -0.2,0.6 -0.6,0.6l-3.66,0c-0.34,0 -0.51,0.16 -0.51,0.48l0,1.44c0,0.34 0.16,0.51 0.48,0.51l4.68,0c0.4,0 0.6,0.19 0.6,0.57c0,0.4 -0.2,0.6 -0.6,0.6l-12.209,0c-0.42,0 -0.63,-0.19 -0.63,-0.57c0,-0.4 0.2,-0.6 0.6,-0.6l4.44,0c0.32,0 0.48,-0.16 0.48,-0.48l0,-1.47c0,-0.32 -0.16,-0.48 -0.48,-0.48l-3.21,0c-0.42,0 -0.63,-0.19 -0.63,-0.57c0,-0.4 0.2,-0.6 0.6,-0.6l3.24,0c0.32,0 0.48,-0.16 0.48,-0.48l0,-0.99c0,-0.319 -0.16,-0.479 -0.48,-0.479l-4.17,0c-0.42,0 -0.63,-0.19 -0.63,-0.57c0,-0.4 0.2,-0.6 0.6,-0.6l4.2,0c0.32,0 0.48,-0.16 0.48,-0.48l0,-2.25Zm-8.88,8.399c0,-0.42 0.2,-0.63 0.6,-0.63l0.72,0c0.4,0 0.6,0.2 0.6,0.6l0,14.219c0,0.34 0.2,0.4 0.6,0.18l1.44,-0.78c0.4,-0.2 0.6,-0.23 0.6,-0.09c0,0.16 -0.22,0.46 -0.66,0.9c-1.72,1.56 -3.64,2.949 -5.759,4.169c-0.06,0 -0.09,-0.2 -0.09,-0.6c-0.08,-0.44 -0.25,-0.99 -0.51,-1.649c-0.1,-0.44 0.05,-0.68 0.45,-0.72l1.53,-0.12c0.319,-0.06 0.479,-0.25 0.479,-0.57l0,-12.449c0,-0.32 -0.16,-0.48 -0.479,-0.48l-2.01,0c-0.42,0 -0.63,-0.19 -0.63,-0.57c0,-0.4 0.2,-0.6 0.6,-0.6l2.04,0c0.319,0 0.479,-0.16 0.479,-0.48l0,-0.33Zm12.959,4.17c0,-0.32 0.2,-0.48 0.6,-0.48l1.2,0c0.4,0 0.6,0.2 0.6,0.6l0,12.628c-0.1,0.82 -0.47,1.62 -1.11,2.4c-0.18,0.26 -0.35,0.43 -0.51,0.51l-0.6,0.3c-0.44,0.22 -0.69,0.23 -0.75,0.03c-0.2,-0.44 -0.56,-0.58 -1.08,-0.42l-0.84,0c-0.42,0 -0.63,-0.07 -0.63,-0.21c0,-0.16 0.2,-0.32 0.6,-0.48c0.92,-0.3 1.72,-0.75 2.4,-1.35c0.32,-0.42 0.44,-0.8 0.36,-1.14l0,-10.259c0,-0.319 -0.16,-0.479 -0.48,-0.479l-4.799,0c-0.34,0 -0.51,0.16 -0.51,0.479l0,1.68c0,0.34 0.16,0.51 0.48,0.51l3.239,0c0.4,0 0.6,0.19 0.6,0.57c0,0.4 -0.2,0.6 -0.6,0.6l-3.209,0c-0.34,0 -0.51,0.16 -0.51,0.48l0,1.44c0,0.34 0.16,0.51 0.48,0.51l3.239,0c0.4,0 0.6,0.19 0.6,0.57c0,0.4 -0.2,0.6 -0.6,0.6l-3.209,0c-0.34,0 -0.51,0.16 -0.51,0.48l0,5.609c0,0.42 -0.2,0.63 -0.6,0.63l-0.9,0c-0.42,0 -0.63,-0.2 -0.63,-0.6l0,-14.848c0,-0.4 0.2,-0.6 0.6,-0.6l0.93,0c0.4,0 0.6,0.11 0.6,0.33c0,0.26 0.16,0.39 0.48,0.39l4.589,0c0.32,0 0.48,-0.16 0.48,-0.48Z" style="fill:#c5172b;fill-rule:nonzero;"/><path d="M55.406,0.99c0,-0.42 0.2,-0.63 0.6,-0.63l0.96,0c0.4,0 0.6,0.2 0.6,0.6l0,5.369c0,0.34 0.16,0.51 0.48,0.51l2.25,0c0.4,0 0.6,0.19 0.6,0.57c0,0.4 -0.2,0.6 -0.6,0.6l-2.22,0c-0.34,0 -0.51,0.16 -0.51,0.48l0,4.32c0,0.32 0.2,0.32 0.6,0c0.62,-0.42 1.52,-1.07 2.7,-1.95c0.2,-0.12 0.33,-0.19 0.39,-0.21c0.08,0.02 -0.09,0.26 -0.51,0.72c-0.9,1 -1.77,2 -2.61,3c-0.38,0.4 -0.57,0.76 -0.57,1.079l0,10.229c0,0.4 -0.05,0.7 -0.15,0.9c-0.34,0.6 -0.74,1.08 -1.2,1.44c-0.38,0.24 -0.77,0.45 -1.17,0.63c-0.38,0.16 -0.619,0.16 -0.719,0c-0.18,-0.28 -0.4,-0.36 -0.66,-0.24c-0.26,0.06 -0.52,0.11 -0.78,0.15c-0.4,0.04 -0.6,-0.05 -0.6,-0.27c0,-0.24 0.2,-0.44 0.6,-0.6c0.4,-0.18 0.8,-0.34 1.2,-0.48c0.379,-0.18 0.739,-0.53 1.079,-1.05c0.16,-0.24 0.24,-0.51 0.24,-0.809l0,-7.95c0,-0.32 -0.2,-0.37 -0.6,-0.15c-0.539,0.3 -1.089,0.62 -1.649,0.96c-0.4,0.24 -0.61,0.16 -0.63,-0.24c-0.08,-0.92 -0.19,-1.64 -0.33,-2.16c-0.08,-0.4 0.08,-0.609 0.48,-0.629c1,-0.14 1.75,-0.31 2.249,-0.51c0.32,-0.14 0.48,-0.37 0.48,-0.69l0,-5.49c0,-0.32 -0.16,-0.48 -0.48,-0.48l-2.009,0c-0.42,0 -0.63,-0.19 -0.63,-0.57c0,-0.4 0.2,-0.6 0.6,-0.6l2.039,0c0.32,0 0.48,-0.16 0.48,-0.48l0,-5.369Zm5.52,1.38c0,-0.4 0.19,-0.6 0.57,-0.6l9.359,0c0.4,0 0.6,0.19 0.6,0.57c0,0.42 -0.2,0.63 -0.6,0.63l-1.53,0c-0.34,0 -0.51,0.16 -0.51,0.48l0,22.467c0,0.4 -0.18,0.8 -0.54,1.2c-0.5,0.56 -0.88,0.94 -1.14,1.14l-0.78,0.54c-0.4,0.22 -0.66,0.23 -0.78,0.03c-0.2,-0.16 -0.5,-0.21 -0.899,-0.15c-0.4,0.04 -0.81,0.09 -1.23,0.15c-0.4,0.02 -0.6,-0.04 -0.6,-0.18c0,-0.16 0.2,-0.32 0.6,-0.48c0.4,-0.2 0.8,-0.38 1.2,-0.54c0.239,-0.08 0.579,-0.3 1.019,-0.66c0.62,-0.58 0.88,-1.13 0.78,-1.649l0,-21.868c0,-0.32 -0.16,-0.48 -0.48,-0.48l-4.409,0c-0.42,0 -0.63,-0.2 -0.63,-0.6Z" style="fill:#c5172b;fill-rule:nonzero;"/><path d="M83.484,2.4c0,-0.42 0.19,-0.63 0.57,-0.63l17.068,0c0.4,0 0.6,0.2 0.6,0.6l0,0.45c0,0.42 -0.2,0.63 -0.6,0.63l-3,0c-0.34,0 -0.51,0.16 -0.51,0.48l0,8.159c0,0.34 0.16,0.51 0.48,0.51l3.48,0c0.4,0 0.6,0.2 0.6,0.6l0,0.18c0,0.42 -0.2,0.63 -0.6,0.63l-3.45,0c-0.34,0 -0.51,0.16 -0.51,0.48l0,14.008c0,0.42 -0.2,0.63 -0.6,0.63l-1.14,0c-0.42,0 -0.629,-0.2 -0.629,-0.6l0,-14.038c0,-0.32 -0.16,-0.48 -0.48,-0.48l-4.32,0c-0.34,0 -0.51,0.16 -0.51,0.48c0.02,2.999 -0.26,5.669 -0.84,8.009c-0.52,2.06 -1.95,3.989 -4.289,5.789c-0.48,0.4 -0.84,0.61 -1.08,0.63c-0.16,-0.02 -0.1,-0.2 0.18,-0.54c0.66,-0.8 1.289,-1.6 1.889,-2.4c0.48,-0.699 0.89,-1.499 1.23,-2.399c0.32,-1.28 0.5,-2.66 0.54,-4.14l0,-4.949c0,-0.32 -0.16,-0.48 -0.48,-0.48l-3.689,0c-0.42,0 -0.63,-0.2 -0.63,-0.6l0,-0.21c0,-0.4 0.2,-0.6 0.6,-0.6l3.959,0c0.32,0 0.48,-0.16 0.48,-0.48l0,-8.189c0,-0.32 -0.16,-0.48 -0.48,-0.48l-3.209,0c-0.42,0 -0.63,-0.2 -0.63,-0.6l0,-0.45Zm11.759,1.53c0,-0.32 -0.16,-0.48 -0.48,-0.48l-4.32,0c-0.34,0 -0.51,0.16 -0.51,0.48l0,8.159c0,0.34 0.16,0.51 0.48,0.51l4.35,0c0.32,0 0.48,-0.16 0.48,-0.48l0,-8.189Z" style="fill:#c5172b;fill-rule:nonzero;"/><path d="M127.939,0.48c0.42,-0.1 0.83,-0.01 1.23,0.27c0.7,0.48 1.4,0.98 2.1,1.5c0.44,0.32 0.47,0.49 0.09,0.51c-2.12,0.2 -4.25,0.42 -6.389,0.66c-0.32,0.04 -0.48,0.22 -0.48,0.54l0,4.769c0,0.34 0.16,0.51 0.48,0.51l5.399,0c0.4,0 0.6,0.19 0.6,0.57c0,0.4 -0.2,0.6 -0.6,0.6l-5.369,0c-0.34,0 -0.51,0.16 -0.51,0.48l0,5.039c0,0.34 0.16,0.51 0.48,0.51l7.589,0c0.4,0 0.6,0.19 0.6,0.57c0,0.4 -0.2,0.6 -0.6,0.6l-7.559,0c-0.34,0 -0.51,0.16 -0.51,0.48l0,7.829c0.16,0.5 -0.2,1.2 -1.08,2.1c-0.66,0.54 -1.16,0.87 -1.5,0.99c-0.48,0.24 -0.73,0.28 -0.75,0.12c-0.02,-0.38 -0.28,-0.54 -0.78,-0.48l-1.98,0.18c-0.4,0.04 -0.64,-0.02 -0.72,-0.18c-0.08,-0.16 0.08,-0.31 0.48,-0.45c1.08,-0.34 1.85,-0.61 2.31,-0.81c0.48,-0.22 0.97,-0.6 1.47,-1.14c0.12,-0.16 0.18,-0.4 0.18,-0.719l0,-7.44c0,-0.32 -0.16,-0.48 -0.48,-0.48l-7.769,0c-0.42,0 -0.63,-0.19 -0.63,-0.57c0,-0.4 0.2,-0.6 0.6,-0.6l7.799,0c0.32,0 0.48,-0.16 0.48,-0.48l0,-5.069c0,-0.32 -0.16,-0.48 -0.48,-0.48l-6.089,0c-0.42,0 -0.63,-0.19 -0.63,-0.57c0,-0.4 0.2,-0.6 0.6,-0.6l6.119,0c0.32,0 0.48,-0.16 0.48,-0.48l0,-4.589c0,-0.32 -0.16,-0.48 -0.48,-0.48l-7.289,0c-0.4,0 -0.61,-0.04 -0.63,-0.12c0,-0.06 0.24,-0.13 0.72,-0.21l4.799,-0.78c1.5,-0.26 3.1,-0.63 4.8,-1.11c1.3,-0.36 2.599,-0.69 3.899,-0.99Z" style="fill:#c5172b;fill-rule:nonzero;"/><path d="M147.077,0.99c0,-0.42 0.2,-0.63 0.6,-0.63l0.93,0c0.4,0 0.6,0.2 0.6,0.6l0,5.369c0,0.34 0.16,0.51 0.48,0.51l2.07,0c0.4,0 0.6,0.19 0.6,0.57c0,0.4 -0.2,0.6 -0.6,0.6l-2.04,0c-0.34,0 -0.51,0.16 -0.51,0.48l0,1.89c0,0.32 0.2,0.66 0.6,1.02l2.4,2.07c0.42,0.38 0.55,0.77 0.39,1.17l-0.69,1.619c-0.18,0.4 -0.38,0.4 -0.6,0c-0.74,-1.359 -1.32,-2.559 -1.74,-3.599c-0.18,-0.38 -0.29,-0.53 -0.33,-0.45c-0.02,0.06 -0.03,0.25 -0.03,0.57l0,15.958c0,0.42 -0.2,0.63 -0.6,0.63l-0.9,0c-0.42,0 -0.63,-0.2 -0.63,-0.6l0,-9.959l0,-0.57c-0.04,-0.06 -0.08,-0.08 -0.12,-0.06c-0.519,1.36 -1.359,2.78 -2.519,4.26c-0.32,0.46 -0.55,0.69 -0.69,0.69c-0.16,0 -0.15,-0.2 0.03,-0.6c0.76,-1.66 1.32,-3.26 1.68,-4.8c0.68,-3.019 1.13,-6.079 1.349,-9.179c0.02,-0.36 -0.11,-0.54 -0.389,-0.54l-1.83,0c-0.42,0 -0.63,-0.19 -0.63,-0.57c0,-0.4 0.2,-0.6 0.6,-0.6l2.04,0c0.319,0 0.479,-0.16 0.479,-0.48l0,-5.369Zm6.24,0.45c0,-0.4 0.2,-0.6 0.6,-0.6l0.96,0c0.4,0 0.6,0.2 0.6,0.6l0,0.33c0,0.34 0.16,0.51 0.48,0.51l1.919,0c0.32,0 0.48,-0.16 0.48,-0.48l0,-0.36c0,-0.4 0.2,-0.6 0.6,-0.6l0.96,0c0.4,0 0.6,0.2 0.6,0.6l0,24.148c0,0.319 0.04,0.579 0.12,0.779c0.18,0.24 0.44,0.33 0.78,0.27c0.36,-0.08 0.6,-0.32 0.72,-0.72c0.2,-0.699 0.36,-1.439 0.48,-2.219c0.14,-1.1 0.29,-2.2 0.45,-3.3c0.08,-0.4 0.19,-0.56 0.33,-0.48c0.14,0.08 0.21,0.32 0.21,0.72l0,1.38c-0.08,0.64 -0.07,1.16 0.03,1.56c0.06,0.46 0.23,0.77 0.51,0.93c0.14,0.06 0.19,0.29 0.15,0.69c-0.08,0.799 -0.18,1.599 -0.3,2.399c-0.1,0.36 -0.22,0.66 -0.36,0.9c-0.32,0.42 -0.67,0.63 -1.05,0.63l-2.49,0c-0.4,0 -0.65,-0.02 -0.75,-0.06c-0.56,-0.3 -0.89,-0.86 -0.99,-1.68l0,-23.457c0,-0.32 -0.16,-0.48 -0.48,-0.48l-1.889,0c-0.34,0 -0.51,0.16 -0.51,0.48l0,12.538c-0.14,0.7 -0.23,1.49 -0.27,2.37l0,1.74c0,1.78 -0.37,3.39 -1.11,4.83c-0.54,1.079 -1.65,2.249 -3.33,3.509c-0.24,0.24 -0.45,0.39 -0.63,0.45c-0.1,0 0,-0.2 0.3,-0.6c1.22,-1.56 2.01,-3.1 2.37,-4.619c0.42,-2.08 0.59,-4.45 0.51,-7.11l0,-15.598Z" style="fill:#c5172b;fill-rule:nonzero;"/><path d="M183.794,0.99c0,-0.42 0.2,-0.63 0.6,-0.63l0.93,0c0.4,0 0.6,0.2 0.6,0.6l0,1.77c0,0.34 0.16,0.51 0.48,0.51l7.799,0c0.4,0 0.6,0.19 0.6,0.57c0,0.4 -0.2,0.6 -0.6,0.6l-7.769,0c-0.34,0 -0.51,0.16 -0.51,0.48l0,2.639c0,0.34 0.16,0.51 0.48,0.51l5.669,0c0.4,0 0.6,0.19 0.6,0.57c0,0.4 -0.2,0.6 -0.6,0.6l-14.848,0c-0.42,0 -0.63,-0.19 -0.63,-0.57c0,-0.4 0.2,-0.6 0.6,-0.6l6.119,0c0.32,0 0.48,-0.16 0.48,-0.48l0,-2.669c0,-0.32 -0.16,-0.48 -0.48,-0.48l-7.769,0c-0.42,0 -0.63,-0.19 -0.63,-0.57c0,-0.4 0.2,-0.6 0.6,-0.6l7.799,0c0.32,0 0.48,-0.16 0.48,-0.48l0,-1.77Zm-6.719,11.009c0,-0.42 0.19,-0.63 0.569,-0.63l0.99,0c0.4,0 0.6,0.2 0.6,0.6c0,0.42 0.16,0.63 0.48,0.63l10.079,0c0.32,0 0.48,-0.16 0.48,-0.48c0,-0.32 0.2,-0.48 0.6,-0.48l0.93,0c0.4,0 0.6,0.2 0.6,0.6l0,8.579c0,0.42 -0.2,0.63 -0.6,0.63l-0.9,0c-0.42,0 -0.63,-0.2 -0.63,-0.6l0,-0.84c0,-0.32 -0.16,-0.48 -0.48,-0.48l-10.079,0c-0.34,0 -0.51,0.2 -0.51,0.6c-0.04,1.92 -0.29,3.54 -0.75,4.86c-0.44,1.119 -1.359,2.519 -2.759,4.199c-0.36,0.44 -0.65,0.66 -0.87,0.66c-0.24,0 -0.27,-0.2 -0.09,-0.6c0.86,-1.5 1.48,-2.64 1.86,-3.42c0.36,-1.839 0.56,-3.869 0.6,-6.089l0,-1.56c-0.06,-1.52 -0.1,-3.069 -0.12,-4.649l0,-1.53Zm6.719,2.28c0,-0.34 -0.15,-0.51 -0.45,-0.51l-3.6,0c-0.34,0 -0.51,0.16 -0.51,0.48l0,3.599c0,0.34 0.16,0.51 0.48,0.51l3.6,0c0.32,0 0.48,-0.16 0.48,-0.48l0,-3.599Zm6.479,0c0,-0.34 -0.15,-0.51 -0.45,-0.51l-3.389,0c-0.34,0 -0.51,0.16 -0.51,0.48l0,3.599c0,0.34 0.16,0.51 0.48,0.51l3.389,0c0.32,0 0.48,-0.16 0.48,-0.48l0,-3.599Z" style="fill:#c5172b;fill-rule:nonzero;"/><path d="M214.451,0.6c-0.1,-0.4 -0.11,-0.6 -0.03,-0.6c0.1,0 0.25,0.06 0.45,0.18l1.8,0.99c0.46,0.26 0.57,0.58 0.33,0.96l-0.54,0.87c-0.16,0.32 -0.08,0.48 0.24,0.48l6.779,0c0.4,0 0.6,0.19 0.6,0.57c0,0.4 -0.2,0.6 -0.6,0.6l-16.018,0c-0.42,0 -0.63,-0.19 -0.63,-0.57c0,-0.4 0.2,-0.6 0.6,-0.6l7.529,0c0.32,0 0.4,-0.2 0.24,-0.6c-0.4,-1.12 -0.65,-1.88 -0.75,-2.28Zm4.169,5.039c0.14,-0.48 0.4,-0.599 0.78,-0.36l0.3,0.21c0.36,0.24 0.44,0.58 0.24,1.02l-1.59,3.42c-0.159,0.34 -0.079,0.51 0.24,0.51l6.6,0c0.4,0 0.6,0.19 0.6,0.57c0,0.4 -0.2,0.6 -0.6,0.6l-19.648,0c-0.42,0 -0.63,-0.19 -0.63,-0.57c0,-0.4 0.2,-0.6 0.6,-0.6l6.599,0c0.32,0 0.4,-0.2 0.24,-0.6c-0.44,-1.3 -0.87,-2.6 -1.29,-3.9c-0.14,-0.4 -0.21,-0.62 -0.21,-0.66c0.04,-0.04 0.26,0.09 0.66,0.39l2.16,1.83c0.4,0.34 0.48,0.71 0.24,1.11c-0.28,0.44 -0.55,0.89 -0.81,1.35c-0.16,0.32 -0.08,0.48 0.24,0.48l3.33,0c0.32,0 0.54,-0.2 0.66,-0.6l1.289,-4.2Zm-10.109,9c0,-0.4 0.2,-0.6 0.6,-0.6l1.17,0c0.4,0 0.6,0.19 0.6,0.57c0,0.4 0.16,0.6 0.48,0.6l7.949,0c0.32,0 0.48,-0.19 0.48,-0.57c0,-0.4 0.2,-0.6 0.6,-0.6l1.17,0c0.4,0 0.6,0.2 0.6,0.6l0,13.858c0,0.42 -0.2,0.63 -0.6,0.63l-1.14,0c-0.42,0 -0.63,-0.2 -0.63,-0.6l0,-1.08c0,-0.32 -0.16,-0.48 -0.48,-0.48l-7.919,0c-0.34,0 -0.51,0.16 -0.51,0.48l0,1.05c0,0.42 -0.2,0.63 -0.6,0.63l-1.17,0c-0.4,0 -0.6,-0.2 -0.6,-0.6l0,-13.888Zm11.279,2.279c0,-0.34 -0.15,-0.51 -0.45,-0.51l-7.949,0c-0.34,0 -0.51,0.16 -0.51,0.48l0,2.88c0,0.34 0.16,0.51 0.48,0.51l7.079,0c0.4,0 0.6,0.19 0.6,0.57c0,0.4 -0.2,0.6 -0.6,0.6l-7.049,0c-0.34,0 -0.51,0.16 -0.51,0.48l0,3.36c0,0.339 0.16,0.509 0.48,0.509l7.949,0c0.32,0 0.48,-0.16 0.48,-0.479l0,-8.4Z" style="fill:#c5172b;fill-rule:nonzero;"/><path d="M236.589,1.05c0.16,-0.14 0.43,-0.09 0.81,0.15c6.539,4.179 9.409,9.159 8.609,14.938c-0.38,2.74 -1.2,5.14 -2.46,7.2c-1.52,2.399 -3.52,4.219 -5.999,5.459c-0.48,0.22 -0.8,0.25 -0.96,0.09c-0.16,-0.16 -0.04,-0.4 0.36,-0.72c4.559,-3.739 6.999,-7.699 7.319,-11.879c0.14,-2.379 -0.41,-5.049 -1.65,-8.009c-0.48,-1.18 -1.21,-2.38 -2.19,-3.599c-1.08,-1.3 -2.229,-2.31 -3.449,-3.03c-0.4,-0.24 -0.53,-0.44 -0.39,-0.6Z" style="fill:#c5172b;fill-rule:nonzero;"/></svg>