<?xml version="1.0" encoding="UTF-8" standalone="no"?><!DOCTYPE svg PUBLIC "-//W3C//DTD SVG 1.1//EN" "http://www.w3.org/Graphics/SVG/1.1/DTD/svg11.dtd"><svg width="100%" height="100%" viewBox="0 0 44 26" version="1.1" xmlns="http://www.w3.org/2000/svg" xmlns:xlink="http://www.w3.org/1999/xlink" xml:space="preserve" xmlns:serif="http://www.serif.com/" style="fill-rule:evenodd;clip-rule:evenodd;stroke-linejoin:round;stroke-miterlimit:2;"><path d="M13.459,0.553c0.002,-0.37 0.17,-0.554 0.505,-0.553l0.871,0.003c0.353,0.002 0.528,0.179 0.527,0.531l-0.056,14.238c-0.001,0.282 0.174,0.397 0.527,0.346l1.295,-0.233c0.335,-0.052 0.572,0.117 0.711,0.505c0.14,0.423 0.033,0.651 -0.319,0.685l-1.797,0.152c-0.282,0.034 -0.424,0.192 -0.425,0.474l-0.032,8.294c-0.002,0.37 -0.179,0.554 -0.531,0.553l-0.819,-0.003c-0.37,-0.002 -0.554,-0.179 -0.552,-0.531l0.031,-8.136c0.002,-0.282 -0.174,-0.397 -0.526,-0.345l-5.577,0.744l-0.315,-0.503c-0.228,-0.354 -0.165,-0.556 0.187,-0.607c1.938,-0.257 3.876,-0.496 5.814,-0.717c0.282,-0.052 0.424,-0.219 0.425,-0.5l0.056,-14.397Zm-8.4,-0.06c0.371,-0.209 0.723,-0.243 1.057,-0.101l1.688,0.773c0.351,0.177 0.351,0.327 -0.002,0.449l-2.116,0.705c-0.317,0.104 -0.477,0.288 -0.478,0.553l-0.016,4.253c-0.001,0.299 0.139,0.449 0.421,0.45l2.192,0.009c0.352,0.001 0.528,0.169 0.527,0.504c-0.002,0.352 -0.179,0.527 -0.531,0.526l-2.166,-0.008c-0.299,-0.002 -0.45,0.139 -0.451,0.421l-0.002,0.633c-0.001,0.282 0.174,0.556 0.525,0.821l2.634,1.913c0.404,0.301 0.517,0.618 0.34,0.952l-0.692,1.265c-0.195,0.352 -0.389,0.351 -0.581,-0.002c-1.05,-1.818 -1.766,-3.212 -2.15,-4.182c-0.053,-0.036 -0.08,0.114 -0.081,0.449l-0.055,14.08c-0.002,0.369 -0.178,0.554 -0.531,0.552l-0.607,-0.002c-0.37,-0.002 -0.554,-0.178 -0.553,-0.531l0.041,-10.487l0.002,-0.475c-0.017,-0.036 -0.097,0.122 -0.24,0.474c-0.196,0.686 -0.489,1.354 -0.879,2.004c-0.266,0.422 -0.806,1.124 -1.62,2.107c-0.301,0.369 -0.513,0.553 -0.636,0.553c-0.141,-0.001 -0.131,-0.177 0.028,-0.529c1.226,-2.566 2.205,-5.38 2.939,-8.441c0.072,-0.388 0.171,-0.775 0.296,-1.162c0.089,-0.281 -0.008,-0.422 -0.289,-0.423l-2.404,-0.01c-0.37,-0.001 -0.554,-0.169 -0.553,-0.504c0.001,-0.352 0.178,-0.528 0.53,-0.526l2.431,0.009c0.281,0.001 0.423,-0.139 0.424,-0.421l0.016,-4.015c0.001,-0.282 -0.175,-0.406 -0.527,-0.372l-2.379,0.387c-0.458,0.069 -0.626,0.042 -0.502,-0.081c0.106,-0.088 0.3,-0.149 0.582,-0.183c0.512,-0.174 1.306,-0.593 2.383,-1.258c0.67,-0.35 1.332,-0.726 1.985,-1.129Zm4.142,1.496c-0.122,-0.37 -0.148,-0.555 -0.077,-0.555c0.07,0 0.281,0.177 0.632,0.531l2.078,2.095c0.351,0.353 0.429,0.706 0.234,1.057c-0.23,0.352 -0.443,0.703 -0.638,1.055c-0.213,0.351 -0.407,0.35 -0.581,-0.003c-0.577,-1.252 -1.126,-2.646 -1.648,-4.18Zm0.318,6.341c0.071,-0.07 0.247,0.072 0.527,0.425l2.024,2.65c0.315,0.423 0.349,0.811 0.101,1.162l-0.664,0.949c-0.284,0.386 -0.486,0.42 -0.608,0.103c-0.558,-1.605 -1.009,-3.156 -1.356,-4.655c-0.086,-0.352 -0.094,-0.564 -0.024,-0.634Z" style="fill:#c0272d;fill-rule:nonzero;"/><path d="M30.388,1.438c0.001,-0.352 0.178,-0.528 0.53,-0.526l1.031,0.004c0.352,0.001 0.527,0.169 0.526,0.504c-0.001,0.37 0.139,0.555 0.421,0.556l8.268,0.033c0.282,0.001 0.423,-0.175 0.425,-0.527c0.001,-0.352 0.178,-0.528 0.53,-0.526l1.03,0.004c0.352,0.001 0.528,0.178 0.526,0.53l-0.091,23.405c-0.002,0.37 -0.179,0.554 -0.531,0.553l-1.004,-0.004c-0.369,-0.002 -0.554,-0.179 -0.552,-0.531l0.003,-0.951c0.002,-0.282 -0.139,-0.423 -0.421,-0.424l-8.241,-0.032c-0.3,-0.002 -0.45,0.139 -0.451,0.42l-0.005,1.348c-0.002,0.37 -0.179,0.554 -0.531,0.552l-1.004,-0.004c-0.37,-0.001 -0.554,-0.178 -0.552,-0.53l0.093,-23.854Zm11.193,2.025c0.001,-0.282 -0.139,-0.423 -0.421,-0.424l-8.242,-0.032c-0.299,-0.002 -0.45,0.139 -0.451,0.42l-0.018,4.65c-0.001,0.299 0.139,0.449 0.421,0.45l6.683,0.027c0.352,0.001 0.528,0.169 0.527,0.504c-0.002,0.352 -0.179,0.527 -0.531,0.526l-6.657,-0.026c-0.299,-0.001 -0.449,0.139 -0.451,0.421l-0.018,4.623c-0.001,0.299 0.139,0.449 0.421,0.45l6.684,0.026c0.352,0.002 0.527,0.17 0.526,0.504c-0.002,0.37 -0.178,0.555 -0.531,0.553l-6.656,-0.026c-0.3,-0.001 -0.45,0.139 -0.451,0.421l-0.022,5.495c-0.001,0.299 0.139,0.449 0.421,0.45l8.268,0.033c0.282,0.001 0.424,-0.14 0.425,-0.421l0.073,-18.624Z" style="fill:#c0272d;fill-rule:nonzero;"/></svg>