<?xml version="1.0" encoding="UTF-8" standalone="no"?><!DOCTYPE svg PUBLIC "-//W3C//DTD SVG 1.1//EN" "http://www.w3.org/Graphics/SVG/1.1/DTD/svg11.dtd"><svg width="100%" height="100%" viewBox="0 0 329 31" version="1.1" xmlns="http://www.w3.org/2000/svg" xmlns:xlink="http://www.w3.org/1999/xlink" xml:space="preserve" xmlns:serif="http://www.serif.com/" style="fill-rule:evenodd;clip-rule:evenodd;stroke-linejoin:round;stroke-miterlimit:2;"><path d="M4.006,0.726c0.062,-0.462 0.264,-0.693 0.606,-0.692l1.478,0.004c0.402,0.001 0.523,0.202 0.361,0.604c-0.203,0.522 -0.395,1.045 -0.578,1.567c-0.061,0.322 0.069,0.483 0.391,0.484l4.164,0.011c0.402,0.001 0.603,0.193 0.602,0.575c-0.001,0.402 -0.203,0.603 -0.605,0.602l-3.198,-0.008c-0.322,-0.001 -0.313,0.2 0.028,0.603l1.083,1.21c0.361,0.403 0.431,0.806 0.208,1.207c-0.303,0.523 -0.596,1.045 -0.879,1.567c-0.161,0.321 -0.081,0.483 0.24,0.483l7.483,0.02c0.322,0.001 0.483,-0.069 0.484,-0.21c0,-0.161 0.161,-0.241 0.483,-0.24c0.342,0.001 0.413,-0.2 0.213,-0.603c-0.48,-1.047 -0.91,-2.215 -1.288,-3.503c-0.08,-0.343 -0.271,-0.514 -0.572,-0.515c-0.322,-0.001 -0.624,0.2 -0.907,0.601c-0.667,0.984 -1.897,2.238 -3.691,3.762c-0.323,0.301 -0.564,0.411 -0.725,0.33c-0.181,-0.081 -0.12,-0.302 0.183,-0.663c1.856,-2.268 2.838,-4.69 2.945,-7.264c0.001,-0.403 0.203,-0.603 0.605,-0.602l1.419,0.004c0.402,0.001 0.572,0.202 0.511,0.604l-0.276,1.569c-0.041,0.321 0.1,0.483 0.421,0.484l4.195,0.011c0.402,0.001 0.603,0.192 0.602,0.574c-0.002,0.403 -0.203,0.603 -0.606,0.602l-3.077,-0.008c-0.322,-0.001 -0.272,0.15 0.15,0.453c0.562,0.404 1.124,0.828 1.686,1.272c0.401,0.303 0.471,0.655 0.208,1.057l-0.969,1.355c-0.202,0.321 -0.142,0.482 0.18,0.483c0.322,0.001 0.482,0.202 0.481,0.605l-0.015,5.733c-0.001,0.422 -0.203,0.633 -0.605,0.632l-0.935,-0.003c-0.423,-0.001 -0.634,-0.122 -0.633,-0.363c0.001,-0.242 -0.16,-0.363 -0.482,-0.364l-3.621,-0.009c-0.341,-0.001 -0.513,0.159 -0.514,0.481l-0.005,2.173c-0.001,0.342 0.159,0.513 0.481,0.514l4.617,0.012c0.321,0.001 0.483,-0.079 0.483,-0.24c0,-0.161 0.202,-0.241 0.604,-0.24l0.935,0.002c0.403,0.001 0.603,0.203 0.602,0.605l-0.013,5.251c-0.103,0.583 -0.568,1.487 -1.395,2.712c-0.061,0.08 -0.152,0.14 -0.273,0.18c-0.302,0.12 -0.594,0.25 -0.876,0.39c-0.402,0.16 -0.794,0.048 -1.175,-0.335c-0.342,-0.182 -0.945,-0.184 -1.811,-0.005c-0.483,0.059 -0.724,0.059 -0.724,-0.002c0.02,-0.08 0.232,-0.22 0.635,-0.421c1.027,-0.48 1.762,-0.88 2.206,-1.201c0.403,-0.361 0.776,-0.812 1.119,-1.355c0.102,-0.2 0.153,-0.462 0.153,-0.784l0.008,-2.896c0.001,-0.322 -0.16,-0.484 -0.482,-0.484l-4.586,-0.012c-0.342,-0.001 -0.513,0.159 -0.514,0.481l-0.024,9.022c-0.001,0.422 -0.202,0.633 -0.605,0.632l-0.905,-0.002c-0.422,-0.002 -0.633,-0.203 -0.632,-0.606l0.018,-6.909c0.001,-0.342 -0.15,-0.302 -0.453,0.119c-0.464,0.723 -1.11,1.526 -1.937,2.409c-0.706,0.642 -1.512,1.294 -2.419,1.955c-0.303,0.281 -0.706,0.521 -1.209,0.721c-0.403,0.24 -0.806,0.501 -1.209,0.781c-0.322,0.241 -0.695,0.441 -1.118,0.601c-0.403,0.12 -0.644,0.139 -0.724,0.058c-0.06,-0.08 0.111,-0.271 0.514,-0.572c1.935,-1.423 3.427,-2.907 4.477,-4.453c0.869,-1.205 1.666,-2.46 2.394,-3.766c0.162,-0.321 0.082,-0.482 -0.24,-0.483l-2.384,-0.007c-0.322,0 -0.533,0.15 -0.635,0.451c-0.081,0.342 -0.313,0.513 -0.695,0.512l-0.724,-0.002c-0.402,-0.001 -0.583,-0.203 -0.542,-0.605l1.043,-6.485c0.082,-0.402 0.324,-0.602 0.726,-0.601l0.664,0.001c0.402,0.001 0.572,0.203 0.511,0.605c-0.061,0.402 0.069,0.604 0.391,0.605l3.108,0.008c0.321,0.001 0.483,-0.16 0.484,-0.482l0.006,-2.444c0.001,-0.322 -0.16,-0.483 -0.482,-0.484l-5.642,-0.014c-0.422,-0.002 -0.633,-0.203 -0.632,-0.606c0.001,-0.402 0.203,-0.603 0.605,-0.601l3.953,0.01c0.322,0.001 0.433,-0.2 0.333,-0.603c-0.338,-1.328 -0.707,-2.657 -1.106,-3.986c-0.12,-0.322 -0.29,-0.483 -0.511,-0.484c-0.222,0 -0.484,0.2 -0.787,0.602c-0.767,1.004 -1.513,1.746 -2.238,2.227l-1.209,0.902c-0.303,0.24 -0.534,0.36 -0.695,0.36c-0.161,0 -0.08,-0.201 0.243,-0.603c1.776,-2.248 2.797,-4.458 3.064,-6.63Zm11.863,9.928c0.001,-0.322 -0.16,-0.483 -0.482,-0.484l-3.621,-0.01c-0.341,0 -0.513,0.16 -0.514,0.482l-0.006,2.414c-0.001,0.342 0.16,0.513 0.481,0.514l3.651,0.009c0.322,0.001 0.484,-0.159 0.484,-0.481l0.007,-2.444Zm-6.771,4.599c0.001,-0.342 -0.15,-0.514 -0.451,-0.514l-3.138,-0.009c-0.322,0 -0.544,0.2 -0.666,0.602l-0.488,2.081c-0.061,0.322 0.069,0.483 0.391,0.484l3.862,0.01c0.322,0.001 0.483,-0.16 0.484,-0.482l0.006,-2.172Z" style="fill:#c0272d;fill-rule:nonzero;"/><path d="M31.07,13.017c0.001,-0.402 0.203,-0.603 0.605,-0.602l18.315,0.048c0.402,0.001 0.603,0.203 0.602,0.605l-0.001,0.181c-0.001,0.422 -0.202,0.633 -0.605,0.632l-18.315,-0.048c-0.402,-0.001 -0.603,-0.203 -0.602,-0.605l0.001,-0.211Z" style="fill:#c0272d;fill-rule:nonzero;"/><path d="M64.413,0.793c0.001,-0.402 0.203,-0.603 0.605,-0.602l0.724,0.002c0.403,0.001 0.603,0.193 0.602,0.575c-0.001,0.402 0.16,0.604 0.482,0.605l10.862,0.028c0.322,0.001 0.483,-0.19 0.484,-0.572c0.001,-0.402 0.203,-0.603 0.605,-0.602l0.966,0.003c0.402,0.001 0.603,0.203 0.602,0.605l-0.02,7.664c-0.002,0.422 -0.203,0.633 -0.606,0.632l-0.935,-0.002c-0.422,-0.002 -0.633,-0.203 -0.632,-0.606c0.001,-0.402 -0.159,-0.603 -0.481,-0.604l-10.832,-0.029c-0.342,-0.001 -0.514,0.16 -0.515,0.482l-0.032,12.28c-0.022,0.966 -0.095,1.81 -0.217,2.534c-0.266,1.709 -1.096,3.477 -2.488,5.304c-0.303,0.402 -0.525,0.572 -0.666,0.511c-0.18,-0.08 -0.19,-0.322 -0.028,-0.724c0.608,-1.587 0.994,-3.185 1.159,-4.794c0.185,-1.549 0.29,-3.148 0.314,-4.797l0.047,-17.893Zm13.753,2.329c0.001,-0.342 -0.149,-0.513 -0.451,-0.514l-10.862,-0.028c-0.342,-0.001 -0.514,0.159 -0.515,0.481l-0.008,3.38c-0.001,0.342 0.159,0.513 0.481,0.514l10.862,0.028c0.322,0.001 0.483,-0.159 0.484,-0.481l0.009,-3.38Zm-5.086,6.595c0.001,-0.402 0.203,-0.603 0.605,-0.602l0.965,0.003c0.403,0.001 0.603,0.202 0.602,0.605l-0.009,3.5c-0.001,0.342 0.16,0.513 0.482,0.514l2.413,0.006c0.322,0.001 0.484,-0.159 0.484,-0.481c0.001,-0.322 0.203,-0.482 0.605,-0.481l0.936,0.002c0.402,0.001 0.602,0.203 0.601,0.605l-0.039,14.906c-0.001,0.422 -0.202,0.633 -0.605,0.632l-0.905,-0.003c-0.422,-0.001 -0.633,-0.202 -0.632,-0.605l0.001,-0.362c0.001,-0.322 -0.16,-0.483 -0.481,-0.484l-7.725,-0.02c-0.342,-0.001 -0.513,0.16 -0.514,0.481l-0.001,0.332c-0.001,0.423 -0.203,0.633 -0.605,0.632l-0.905,-0.002c-0.423,-0.001 -0.633,-0.203 -0.632,-0.605l0.039,-14.936c0.001,-0.402 0.203,-0.603 0.605,-0.602l0.935,0.003c0.403,0.001 0.603,0.152 0.602,0.454c0,0.342 0.16,0.513 0.482,0.514l2.203,0.006c0.321,0.001 0.483,-0.16 0.484,-0.482l0.009,-3.53Zm-0.015,5.703c0.001,-0.342 -0.15,-0.514 -0.451,-0.514l-2.203,-0.006c-0.342,-0.001 -0.513,0.159 -0.514,0.481l-0.011,4.104c-0.001,0.342 0.16,0.513 0.482,0.514l2.202,0.006c0.322,0.001 0.483,-0.16 0.484,-0.482l0.011,-4.103Zm5.552,0.014c0.001,-0.342 -0.15,-0.513 -0.451,-0.514l-2.414,-0.006c-0.342,-0.001 -0.514,0.159 -0.515,0.481l-0.01,4.104c-0.001,0.342 0.159,0.513 0.481,0.514l2.414,0.006c0.322,0.001 0.483,-0.159 0.484,-0.481l0.011,-4.104Zm-5.568,6.232c0,-0.322 -0.16,-0.484 -0.482,-0.484l-2.172,-0.006c-0.342,-0.001 -0.514,0.16 -0.515,0.481l-0.01,4.104c-0.001,0.342 0.159,0.513 0.481,0.514l2.203,0.006c0.322,0.001 0.483,-0.16 0.484,-0.482l0.011,-4.133Zm5.551,0.014c0.001,-0.322 -0.159,-0.483 -0.481,-0.484l-2.384,-0.006c-0.342,-0.001 -0.513,0.159 -0.514,0.481l-0.011,4.104c-0.001,0.342 0.16,0.513 0.482,0.514l2.414,0.006c0.321,0.001 0.483,-0.159 0.484,-0.481l0.01,-4.134Z" style="fill:#c0272d;fill-rule:nonzero;"/><path d="M95.854,0.755c-0.2,-0.504 -0.25,-0.755 -0.149,-0.755c0.08,0.02 0.221,0.111 0.422,0.273l2.409,1.696c0.422,0.302 0.511,0.645 0.269,1.026l-0.939,1.476c-0.263,0.382 -0.494,0.351 -0.694,-0.092c-0.26,-0.665 -0.699,-1.873 -1.318,-3.624Zm4.042,0.584c0.001,-0.383 0.202,-0.573 0.605,-0.572l11.314,0.029c0.403,0.001 0.603,0.193 0.602,0.575c-0.001,0.403 -0.202,0.603 -0.605,0.602l-11.284,-0.029c-0.423,-0.001 -0.633,-0.203 -0.632,-0.605Zm1.438,3.926c0.001,-0.423 0.192,-0.633 0.575,-0.632l0.995,0.002c0.403,0.001 0.603,0.113 0.603,0.334c-0.001,0.241 0.16,0.362 0.482,0.363l4.586,0.012c0.322,0.001 0.483,-0.109 0.484,-0.331c0,-0.241 0.202,-0.361 0.604,-0.36l0.694,0.002c0.402,0.001 0.603,0.203 0.602,0.605l-0.018,6.94c-0.001,0.422 -0.203,0.633 -0.605,0.632l-0.664,-0.002c-0.423,-0.001 -0.633,-0.203 -0.632,-0.605c0.001,-0.402 -0.16,-0.604 -0.481,-0.605l-4.556,-0.012c-0.342,-0.001 -0.514,0.19 -0.515,0.572c-0.001,0.423 -0.203,0.633 -0.605,0.632l-0.935,-0.002c-0.423,-0.001 -0.634,-0.203 -0.632,-0.605l0.018,-6.94Zm-4.348,1.165c0.001,-0.402 0.192,-0.603 0.575,-0.602l1.206,0.003c0.403,0.001 0.573,0.203 0.512,0.605c-0.246,1.609 -0.703,3.257 -1.371,4.945c-0.121,0.322 0.019,0.614 0.42,0.876l1.808,1.121c0.442,0.283 0.571,0.615 0.389,0.997l-0.637,1.447c-0.182,0.402 -0.403,0.381 -0.664,-0.062l-1.231,-2.417c-0.1,-0.222 -0.19,-0.283 -0.271,-0.182l-0.031,0.573l-0.039,14.845c-0.001,0.423 -0.203,0.633 -0.605,0.632l-0.694,-0.002c-0.423,-0.001 -0.633,-0.202 -0.632,-0.605l0.034,-13.095c0.001,-0.322 -0.2,-0.322 -0.603,-0.001c-0.504,0.441 -1.009,0.892 -1.513,1.353c-0.363,0.342 -0.574,0.512 -0.635,0.512c-0.06,0 0.051,-0.201 0.334,-0.603c1.271,-1.646 2.13,-3.213 2.577,-4.7c0.324,-1.025 0.579,-2.151 0.763,-3.378c0.021,-0.321 -0.129,-0.483 -0.451,-0.483l-2.475,-0.007c-0.422,-0.001 -0.633,-0.193 -0.632,-0.575c0.001,-0.402 0.203,-0.603 0.605,-0.602l2.776,0.007c0.322,0.001 0.484,-0.199 0.485,-0.602Zm12.067,0.635c0.001,-0.342 -0.149,-0.513 -0.451,-0.514l-4.586,-0.012c-0.342,-0.001 -0.514,0.16 -0.514,0.482l-0.008,2.896c-0.001,0.342 0.16,0.514 0.481,0.514l4.587,0.012c0.322,0.001 0.483,-0.159 0.484,-0.481l0.007,-2.897Zm-8.227,7.582c0.001,-0.402 0.203,-0.603 0.605,-0.601l0.966,0.002c0.402,0.001 0.603,0.153 0.602,0.454c-0.001,0.322 0.16,0.483 0.482,0.484l5.793,0.015c0.322,0.001 0.483,-0.149 0.484,-0.451c0.001,-0.322 0.202,-0.482 0.605,-0.481l0.965,0.002c0.402,0.001 0.603,0.203 0.602,0.605l-0.036,13.94c-0.001,0.423 -0.203,0.634 -0.605,0.632l-0.936,-0.002c-0.422,-0.001 -0.633,-0.203 -0.632,-0.605l0.002,-0.845c0.001,-0.322 -0.159,-0.483 -0.481,-0.484l-5.763,-0.015c-0.342,-0.001 -0.514,0.16 -0.514,0.481l-0.003,0.815c-0.001,0.423 -0.202,0.633 -0.605,0.632l-0.935,-0.002c-0.422,-0.001 -0.633,-0.203 -0.632,-0.605l0.036,-13.971Zm4.581,2.064c0.001,-0.342 -0.149,-0.513 -0.451,-0.514l-1.448,-0.004c-0.342,-0.001 -0.514,0.16 -0.514,0.482l-0.009,3.138c-0.001,0.342 0.16,0.513 0.482,0.514l1.448,0.004c0.322,0.001 0.483,-0.16 0.484,-0.482l0.008,-3.138Zm4.345,0.012c0.001,-0.342 -0.149,-0.514 -0.451,-0.515l-1.72,-0.004c-0.342,-0.001 -0.513,0.159 -0.514,0.481l-0.008,3.138c-0.001,0.342 0.159,0.514 0.481,0.515l1.72,0.004c0.322,0.001 0.483,-0.16 0.484,-0.481l0.008,-3.138Zm-4.358,5.268c0,-0.321 -0.16,-0.483 -0.482,-0.484l-1.418,-0.003c-0.342,-0.001 -0.513,0.159 -0.514,0.481l-0.01,3.862c-0.001,0.342 0.159,0.514 0.481,0.515l1.448,0.003c0.322,0.001 0.484,-0.159 0.484,-0.481l0.011,-3.893Zm4.344,0.012c0.001,-0.322 -0.159,-0.483 -0.481,-0.484l-1.69,-0.005c-0.342,-0.001 -0.513,0.16 -0.514,0.482l-0.01,3.862c-0.001,0.342 0.16,0.513 0.481,0.514l1.72,0.005c0.322,0 0.483,-0.16 0.484,-0.482l0.01,-3.892Z" style="fill:#c0272d;fill-rule:nonzero;"/><path d="M128.863,0.962c0.001,-0.403 0.203,-0.603 0.605,-0.602l0.935,0.002c0.403,0.001 0.603,0.203 0.602,0.605l-0.019,7.362c-0.001,0.322 0.079,0.584 0.239,0.786l2.587,3.325c0.36,0.444 0.44,0.856 0.238,1.238l-1.031,1.778c-0.222,0.381 -0.393,0.351 -0.513,-0.092l-1.315,-4.59c-0.14,-0.342 -0.211,-0.312 -0.212,0.09l-0.024,9.173c-0.042,0.764 -0.124,1.568 -0.247,2.413c-0.227,2.111 -1.44,4.321 -3.638,6.628c-0.464,0.462 -0.766,0.652 -0.907,0.571c-0.161,-0.08 -0.12,-0.322 0.123,-0.723c0.949,-1.607 1.617,-3.164 2.003,-4.672c0.326,-1.427 0.502,-3.489 0.529,-6.184l0.045,-17.108Zm5.793,0.015c0.001,-0.403 0.203,-0.603 0.605,-0.602l1.207,0.003c0.402,0.001 0.603,0.203 0.602,0.605l-0.02,7.604c-0.001,0.322 0.169,0.684 0.51,1.087l2.346,2.873c0.321,0.403 0.37,0.805 0.148,1.207l-0.97,1.657c-0.242,0.422 -0.464,0.431 -0.664,0.029c-0.5,-1.148 -0.809,-1.954 -0.929,-2.417c-0.139,-0.624 -0.268,-1.368 -0.386,-2.234c-0.04,0 -0.061,0.141 -0.062,0.423l-0.042,16.263c-0.001,0.422 -0.203,0.633 -0.605,0.632l-1.177,-0.003c-0.422,-0.001 -0.633,-0.203 -0.632,-0.605l0.069,-26.522Zm5.793,0.015c0.001,-0.402 0.203,-0.603 0.605,-0.602l0.936,0.002c0.402,0.001 0.603,0.203 0.602,0.605l-0.073,27.699c-0.001,0.423 -0.202,0.633 -0.605,0.632l-0.905,-0.002c-0.422,-0.001 -0.633,-0.203 -0.632,-0.605l0.072,-27.729Zm-14.5,6.751c0.001,-0.422 0.192,-0.633 0.575,-0.632l0.995,0.002c0.403,0.002 0.603,0.203 0.602,0.605l-0.004,1.63c-0.063,1.026 -0.136,1.85 -0.218,2.473c-0.226,1.81 -1.176,3.508 -2.849,5.092c-0.202,0.181 -0.343,0.281 -0.424,0.301c-0.1,0 -0.069,-0.221 0.093,-0.664c0.162,-0.401 0.354,-0.803 0.576,-1.205c0.263,-0.563 0.405,-0.965 0.426,-1.206c0.102,-0.824 0.175,-1.669 0.218,-2.534l0.01,-3.862Z" style="fill:#c0272d;fill-rule:nonzero;"/><path d="M162.773,2.921c2.475,-0.597 4.891,-1.416 7.248,-2.455c0.402,-0.16 0.805,-0.099 1.206,0.184l1.928,1.363c0.361,0.242 0.31,0.393 -0.152,0.452c-0.403,0.039 -0.805,0.098 -1.208,0.178c-0.905,0.118 -1.71,0.237 -2.415,0.356c-0.322,0.079 -0.483,0.28 -0.484,0.602l-0.012,4.797c-0.001,0.342 0.159,0.514 0.481,0.514l4.496,0.012c0.402,0.001 0.603,0.193 0.602,0.575c-0.001,0.402 -0.203,0.603 -0.605,0.602l-4.436,-0.012c-0.322,0 -0.513,0.2 -0.575,0.602c-0.143,0.825 -0.336,1.629 -0.579,2.413c-0.244,0.904 -0.739,1.919 -1.487,3.043c-0.202,0.322 -0.142,0.483 0.18,0.484l3.138,0.008c0.322,0.001 0.483,-0.2 0.484,-0.602c0.002,-0.403 0.203,-0.603 0.605,-0.602l0.936,0.002c0.402,0.001 0.603,0.203 0.602,0.605l-0.033,12.492c-0.001,0.422 -0.203,0.633 -0.605,0.632l-0.664,-0.002c-0.422,-0.001 -0.633,-0.203 -0.632,-0.605l0.002,-0.845c0.001,-0.322 -0.159,-0.483 -0.481,-0.484l-4.556,-0.012c-0.342,-0.001 -0.514,0.16 -0.515,0.482l-0.002,0.814c-0.001,0.423 -0.202,0.633 -0.605,0.632l-0.694,-0.001c-0.422,-0.002 -0.633,-0.203 -0.632,-0.606l0.016,-5.913l0.001,-0.574c-0.04,-0.06 -0.08,-0.09 -0.12,-0.091c-0.121,0.121 -0.283,0.342 -0.485,0.663c-1.393,1.927 -3.066,3.361 -5.02,4.302c-0.644,0.34 -1.299,0.61 -1.963,0.809c-0.403,0.12 -0.583,-0.021 -0.542,-0.424l0.153,-1.055l-0.148,-0.876c-0.06,-0.382 0.132,-0.532 0.574,-0.451c0.362,0.182 0.865,0.103 1.51,-0.237c0.322,-0.12 0.483,-0.341 0.484,-0.663l0.033,-12.763c0.001,-0.322 -0.159,-0.483 -0.481,-0.484l-2.022,-0.005c-0.422,-0.001 -0.633,-0.203 -0.632,-0.605l0.001,-0.242c0.001,-0.402 0.203,-0.603 0.605,-0.602l2.052,0.006c0.322,0 0.483,-0.19 0.484,-0.572c0.001,-0.403 0.203,-0.603 0.605,-0.602l0.935,0.002c0.403,0.001 0.603,0.203 0.602,0.605l-0.038,14.574c-0.001,0.322 0.2,0.342 0.604,0.062l2.297,-1.835c0.343,-0.281 0.515,-0.562 0.516,-0.843l0.012,-4.707c0.001,-0.403 0.203,-0.603 0.605,-0.602l0.724,0.002c0.402,0.001 0.603,0.192 0.602,0.574c-0.001,0.423 0.159,0.635 0.481,0.635c0.322,0.001 0.544,-0.199 0.666,-0.601c0.183,-0.804 0.285,-1.559 0.307,-2.263l0.009,-3.198c0,-0.322 -0.16,-0.483 -0.482,-0.484l-3.953,-0.01c-0.422,-0.001 -0.633,-0.193 -0.632,-0.575c0.001,-0.403 0.203,-0.603 0.605,-0.602l3.983,0.01c0.322,0.001 0.483,-0.159 0.484,-0.481l0.012,-4.587c0.001,-0.321 -0.2,-0.473 -0.602,-0.454l-3.38,0.142c-0.402,-0.001 -0.603,-0.072 -0.603,-0.212c0.001,-0.141 0.202,-0.271 0.605,-0.391Zm-5.427,-1.764c-0.079,-0.423 -0.099,-0.644 -0.059,-0.664c0.061,0.02 0.292,0.212 0.693,0.575l1.866,1.875c0.401,0.404 0.501,0.806 0.298,1.208l-0.819,1.688c-0.202,0.401 -0.373,0.401 -0.513,-0.002c-0.619,-1.651 -1.108,-3.211 -1.466,-4.68Zm13.473,17.143c0.001,-0.322 -0.16,-0.483 -0.482,-0.484l-4.556,-0.012c-0.342,-0.001 -0.513,0.16 -0.514,0.482l-0.019,7.241c-0.001,0.342 0.16,0.514 0.482,0.514l4.586,0.012c0.322,0.001 0.483,-0.159 0.484,-0.481l0.019,-7.272Z" style="fill:#c0272d;fill-rule:nonzero;"/><path d="M193.736,0.678c-0.119,-0.422 -0.139,-0.634 -0.058,-0.633c0.08,0 0.221,0.05 0.422,0.152l2.41,1.183c0.422,0.222 0.512,0.524 0.27,0.906l-0.546,0.873c-0.182,0.322 -0.112,0.483 0.21,0.483l8.056,0.022c0.403,0.001 0.603,0.192 0.602,0.574c-0.001,0.423 -0.202,0.633 -0.605,0.632l-18.285,-0.047c-0.422,-0.001 -0.633,-0.203 -0.632,-0.605c0.001,-0.403 0.203,-0.603 0.605,-0.602l8.539,0.022c0.322,0.001 0.353,-0.2 0.092,-0.603c-0.52,-0.987 -0.88,-1.773 -1.08,-2.357Zm-4.06,6.477c0.001,-0.402 0.203,-0.603 0.605,-0.602l0.694,0.002c0.403,0.001 0.603,0.112 0.603,0.333c-0.001,0.262 0.16,0.393 0.482,0.394l6.547,0.017c0.322,0.001 0.483,-0.119 0.484,-0.361c0,-0.241 0.202,-0.361 0.604,-0.36l0.694,0.002c0.403,0.001 0.603,0.202 0.602,0.605l-0.017,6.457c-0.001,0.422 -0.203,0.633 -0.605,0.632l-0.664,-0.002c-0.422,-0.001 -0.633,-0.203 -0.632,-0.605c0.001,-0.402 -0.159,-0.604 -0.481,-0.605l-6.517,-0.017c-0.342,-0.001 -0.514,0.19 -0.515,0.572c-0.001,0.423 -0.203,0.633 -0.605,0.632l-0.664,-0.002c-0.422,-0.001 -0.633,-0.202 -0.632,-0.605l0.017,-6.487Zm9.41,1.805c0,-0.322 -0.16,-0.483 -0.482,-0.484l-6.517,-0.017c-0.342,-0.001 -0.514,0.159 -0.515,0.481l-0.006,2.414c-0.001,0.342 0.16,0.513 0.482,0.514l6.547,0.017c0.322,0.001 0.483,-0.159 0.484,-0.481l0.007,-2.444Zm3.121,6.314c0.001,-0.322 0.192,-0.482 0.575,-0.481l0.965,0.002c0.402,0.002 0.603,0.203 0.602,0.606l-0.03,11.345c-0.184,1.126 -1.021,2.039 -2.511,2.739c-0.403,0.14 -0.604,0.059 -0.603,-0.243c0.001,-0.302 -0.2,-0.423 -0.602,-0.364l-1.449,0.238c-0.403,0.079 -0.644,0.038 -0.724,-0.123c-0.08,-0.161 0.071,-0.311 0.454,-0.451c0.362,-0.16 0.745,-0.3 1.147,-0.42c0.765,-0.138 1.43,-0.64 1.996,-1.503c0.101,-0.181 0.152,-0.432 0.152,-0.754l0.022,-8.448c0.001,-0.322 -0.159,-0.484 -0.481,-0.484l-12.552,-0.033c-0.342,-0.001 -0.513,0.159 -0.514,0.481l-0.029,11.194c-0.002,0.423 -0.203,0.633 -0.606,0.632l-0.905,-0.002c-0.422,-0.001 -0.633,-0.203 -0.632,-0.605l0.034,-13.005c0.001,-0.402 0.203,-0.603 0.605,-0.602l0.936,0.003c0.402,0.001 0.603,0.112 0.602,0.333c-0.001,0.262 0.16,0.393 0.482,0.394l12.582,0.033c0.322,0.001 0.483,-0.16 0.484,-0.482Zm-10.631,3.744c0.001,-0.422 0.203,-0.633 0.605,-0.632l0.694,0.002c0.403,0.001 0.603,0.152 0.603,0.454c-0.001,0.342 0.159,0.513 0.481,0.514l2.686,0.007c0.321,0.001 0.483,-0.159 0.484,-0.481c0,-0.322 0.202,-0.482 0.604,-0.481l0.936,0.002c0.402,0.001 0.603,0.203 0.602,0.605l-0.017,6.216c-0.001,0.422 -0.203,0.633 -0.605,0.632l-0.905,-0.003c-0.422,-0.001 -0.633,-0.202 -0.632,-0.605c0.001,-0.402 -0.159,-0.604 -0.481,-0.604l-2.656,-0.007c-0.341,-0.001 -0.513,0.189 -0.514,0.572c-0.001,0.422 -0.203,0.633 -0.605,0.632l-0.694,-0.002c-0.402,-0.001 -0.603,-0.203 -0.602,-0.605l0.016,-6.216Zm5.547,2.006c0.001,-0.322 -0.16,-0.483 -0.482,-0.484l-2.655,-0.007c-0.342,-0.001 -0.513,0.16 -0.514,0.482l-0.005,1.931c-0.001,0.342 0.16,0.513 0.481,0.514l2.686,0.007c0.322,0.001 0.483,-0.16 0.484,-0.482l0.005,-1.961Z" style="fill:#c0272d;fill-rule:nonzero;"/><path d="M223.486,1.209c0.001,-0.403 0.203,-0.603 0.605,-0.602l1.207,0.003c0.402,0.001 0.603,0.203 0.602,0.605l-0.008,2.987c-0.001,0.342 0.159,0.514 0.481,0.514l2.987,0.008c0.403,0.001 0.603,0.193 0.602,0.575c-0.001,0.402 -0.202,0.603 -0.605,0.602l-2.957,-0.008c-0.342,-0.001 -0.513,0.16 -0.514,0.482l-0.009,3.379c-0.001,0.342 0.16,0.513 0.482,0.514l1.418,0.004c0.322,0.001 0.574,-0.2 0.756,-0.602c0.344,-0.803 0.678,-1.607 1.002,-2.411c0.344,-0.723 0.77,-2.09 1.278,-4.1c0.122,-0.402 0.384,-0.603 0.786,-0.601l1.629,0.004c0.403,0.001 0.543,0.202 0.421,0.604c-0.569,2.191 -1.389,4.402 -2.461,6.632c-0.142,0.322 -0.052,0.483 0.27,0.484l4.405,0.011c0.403,0.001 0.603,0.193 0.602,0.575c-0.001,0.402 -0.202,0.603 -0.605,0.602l-5.401,-0.014c-0.322,-0.001 -0.654,0.199 -0.997,0.601c-0.766,0.762 -1.513,1.534 -2.239,2.317c-0.242,0.321 -0.202,0.482 0.12,0.483l7.301,0.019c0.403,0.001 0.603,0.153 0.603,0.454c-0.001,0.322 -0.203,0.483 -0.605,0.482l-7.061,-0.019c-0.321,-0.001 -0.543,0.2 -0.665,0.602l-0.273,0.603c-0.182,0.401 -0.727,0.953 -1.634,1.655c-0.403,0.341 -0.444,0.512 -0.122,0.512l5.069,0.014c0.322,0.001 0.484,-0.19 0.485,-0.572c0.001,-0.403 0.202,-0.603 0.605,-0.602l1.207,0.003c0.402,0.001 0.602,0.203 0.601,0.605l-0.018,7.242c-0.002,0.402 -0.063,0.703 -0.184,0.904c-0.485,0.844 -1.211,1.647 -2.179,2.408c-0.363,0.321 -0.665,0.492 -0.906,0.511l-0.604,0.149c-0.483,0.14 -0.715,0.179 -0.694,0.119c0,-0.161 -0.07,-0.302 -0.21,-0.423c-0.382,-0.242 -0.784,-0.324 -1.207,-0.244c-0.523,0.018 -1.056,0.027 -1.599,0.026c-0.422,-0.001 -0.633,-0.082 -0.633,-0.243c0,-0.181 0.212,-0.312 0.635,-0.391c0.785,-0.179 1.58,-0.398 2.385,-0.658c0.926,-0.239 1.681,-0.619 2.266,-1.14c0.343,-0.301 0.515,-0.602 0.515,-0.904l0.014,-5.099c0.001,-0.322 -0.16,-0.484 -0.482,-0.484l-5.099,-0.014c-0.322,-0.001 -0.584,0.069 -0.785,0.209c-0.262,0.181 -0.393,0.08 -0.392,-0.302c-0.018,-0.704 0.205,-1.488 0.67,-2.352l0.214,-0.875c0.041,-0.321 -0.14,-0.342 -0.543,-0.061c-2.217,1.664 -4.534,3.166 -6.952,4.508c-0.403,0.22 -0.684,0.289 -0.845,0.209c-0.181,-0.101 -0.08,-0.292 0.303,-0.573c1.592,-1.142 3.205,-2.415 4.838,-3.819c1.209,-1.043 3.105,-2.839 5.686,-5.386c0.323,-0.321 0.324,-0.482 0.002,-0.483l-9.957,-0.026c-0.423,-0.001 -0.634,-0.193 -0.633,-0.575c0.001,-0.402 0.203,-0.603 0.605,-0.602l5.914,0.015c0.322,0.001 0.484,-0.159 0.484,-0.481l0.009,-3.41c0.001,-0.322 -0.159,-0.483 -0.481,-0.484l-3.953,-0.01c-0.422,-0.001 -0.633,-0.193 -0.632,-0.575c0.001,-0.402 0.203,-0.603 0.605,-0.602l3.983,0.011c0.322,0 0.483,-0.16 0.484,-0.482l0.008,-3.017Z" style="fill:#c0272d;fill-rule:nonzero;"/><path d="M258.487,1.089c0.001,-0.423 0.203,-0.633 0.605,-0.632l1.177,0.003c0.402,0.001 0.603,0.203 0.602,0.605l-0.009,3.47c-0.001,0.342 0.159,0.513 0.481,0.514l4.949,0.013c0.402,0.001 0.603,0.193 0.602,0.575c-0.001,0.402 -0.203,0.603 -0.605,0.602l-4.888,-0.013c-0.342,-0.001 -0.504,0.2 -0.485,0.602c-0.003,1.187 0.014,2.394 0.051,3.621l-0.007,2.565c0.116,1.971 0.343,3.782 0.68,5.433c0.12,0.322 0.2,0.473 0.24,0.453c0.893,-2.693 1.362,-5.418 1.41,-8.173c0.001,-0.403 0.202,-0.603 0.605,-0.602l1.418,0.004c0.402,0.001 0.593,0.202 0.572,0.604c-0.127,2.253 -0.556,4.656 -1.286,7.209c-0.446,1.266 -1.013,2.421 -1.699,3.465c-0.243,0.361 -0.264,0.724 -0.063,1.086c0.42,0.725 1.061,1.662 1.923,2.811c0.301,0.343 0.492,0.303 0.574,-0.119c0.366,-1.588 0.753,-3.186 1.159,-4.794c0.122,-0.402 0.213,-0.603 0.273,-0.603c0.061,0 0.08,0.201 0.059,0.603c-0.044,1.489 -0.128,2.595 -0.25,3.319c-0.022,0.704 0.077,1.297 0.297,1.781c0.16,0.201 0.24,0.503 0.239,0.906l-0.007,2.625c-0.001,0.402 -0.202,0.492 -0.604,0.27c-2.209,-1.253 -3.995,-2.897 -5.358,-4.933c-0.22,-0.322 -0.532,-0.283 -0.936,0.119c-0.705,0.642 -1.461,1.253 -2.267,1.834c-1.109,0.943 -2.117,1.685 -3.024,2.225c-0.403,0.241 -0.644,0.31 -0.724,0.21c-0.081,-0.061 0.111,-0.292 0.575,-0.693c2.096,-1.765 3.761,-3.561 4.992,-5.388c0.243,-0.321 0.304,-0.683 0.184,-1.086c-0.737,-2.637 -1.151,-5.866 -1.242,-9.689c-0.096,-1.73 -0.172,-3.46 -0.227,-5.19c-0.02,-0.322 -0.19,-0.483 -0.512,-0.484l-6.005,-0.016c-0.342,-0.001 -0.513,0.16 -0.514,0.482l-0.012,4.586c-0.001,0.342 0.16,0.513 0.482,0.514l1.72,0.005c0.321,0.001 0.483,-0.16 0.484,-0.482l0,-0.362c0.002,-0.402 0.203,-0.603 0.606,-0.602l0.935,0.003c0.402,0.001 0.603,0.202 0.602,0.605l-0.032,12.31c-0.123,0.805 -0.638,1.487 -1.545,2.048c-0.403,0.281 -0.644,0.371 -0.724,0.27c-0.362,-0.363 -0.915,-0.415 -1.66,-0.155c-0.402,0.22 -0.644,0.209 -0.724,-0.032c-0.1,-0.222 0.082,-0.423 0.545,-0.603l0.604,-0.209c0.987,-0.36 1.441,-0.982 1.363,-1.867l0.025,-9.505c0,-0.322 -0.16,-0.483 -0.482,-0.484l-1.659,-0.004c-0.322,-0.001 -0.514,0.2 -0.575,0.602c-0.104,1.227 -0.178,2.463 -0.221,3.71l-0.009,3.35c-0.022,0.885 -0.075,1.78 -0.158,2.685c-0.267,1.99 -1.258,4.05 -2.973,6.177c-0.343,0.402 -0.585,0.562 -0.725,0.481c-0.161,-0.081 -0.13,-0.322 0.092,-0.724c0.809,-1.687 1.266,-3.295 1.37,-4.824c0.125,-1.387 0.209,-2.745 0.252,-4.072l0.043,-16.173c0.001,-0.403 0.202,-0.603 0.605,-0.602l1.176,0.003c0.403,0.001 0.603,0.203 0.602,0.605l-0.001,0.573c-0.001,0.342 0.159,0.514 0.481,0.514l6.065,0.016c0.322,0.001 0.483,-0.159 0.484,-0.481l0.009,-3.47Zm4.163,0.252c-0.2,-0.423 -0.219,-0.634 -0.058,-0.634c0.161,0.001 0.442,0.162 0.843,0.485l1.686,1.393c0.402,0.343 0.451,0.715 0.148,1.116l-0.575,0.723c-0.282,0.402 -0.534,0.381 -0.754,-0.062c-0.26,-0.484 -0.43,-0.886 -0.51,-1.208c-0.24,-0.605 -0.5,-1.209 -0.78,-1.813Z" style="fill:#c0272d;fill-rule:nonzero;"/><path d="M290.592,0.931c0.001,-0.422 0.193,-0.633 0.575,-0.632l0.996,0.003c0.402,0.001 0.603,0.203 0.602,0.605l-0.005,1.78c-0.001,0.342 0.159,0.513 0.481,0.514l3.953,0.011c0.402,0.001 0.603,0.152 0.602,0.454c-0.001,0.322 -0.202,0.482 -0.604,0.481l-3.923,-0.01c-0.342,-0.001 -0.513,0.159 -0.514,0.481l-0.005,1.69c0,0.342 0.16,0.513 0.482,0.514l2.776,0.007c0.402,0.001 0.603,0.153 0.602,0.454c-0.001,0.322 -0.202,0.483 -0.605,0.482l-2.745,-0.008c-0.342,0 -0.514,0.16 -0.515,0.482l-0.005,1.931c-0.001,0.342 0.16,0.513 0.482,0.514l4.435,0.012c0.403,0.001 0.603,0.192 0.602,0.575c-0.001,0.402 -0.203,0.603 -0.605,0.602l-11.526,-0.031c-0.422,-0.001 -0.633,-0.192 -0.632,-0.575c0.001,-0.402 0.203,-0.602 0.605,-0.601l3.983,0.01c0.322,0.001 0.483,-0.16 0.484,-0.482l0.005,-1.961c0.001,-0.322 -0.16,-0.483 -0.482,-0.484l-2.504,-0.006c-0.422,-0.001 -0.633,-0.153 -0.632,-0.455c0,-0.321 0.202,-0.482 0.604,-0.481l2.535,0.007c0.322,0.001 0.483,-0.16 0.484,-0.482l0.004,-1.72c0.001,-0.321 -0.159,-0.483 -0.481,-0.484l-3.47,-0.009c-0.422,-0.001 -0.633,-0.152 -0.632,-0.454c0,-0.322 0.202,-0.482 0.604,-0.481l3.5,0.009c0.322,0.001 0.484,-0.16 0.484,-0.481l0.005,-1.781Zm-9.656,0.217c0.001,-0.423 0.203,-0.634 0.605,-0.633l1.418,0.004c0.403,0.001 0.573,0.203 0.512,0.605c-0.266,1.568 -0.733,3.176 -1.401,4.824c-0.607,1.326 -1.596,2.621 -2.967,3.885c-0.403,0.361 -0.404,0.512 -0.001,0.452c0.422,-0.059 0.835,-0.138 1.237,-0.238c0.504,-0.099 1.339,-0.409 2.507,-0.929c0.322,-0.12 0.504,-0.391 0.545,-0.813c0.022,-0.603 0.064,-1.217 0.126,-1.84c0.061,-0.443 0.273,-0.663 0.635,-0.662l1.449,0.003c0.402,0.001 0.552,0.203 0.451,0.605l-1.371,4.824c-0.425,1.246 -1.022,2.452 -1.789,3.616c-0.202,0.342 -0.535,0.683 -0.999,1.024l-2.117,1.835c-0.383,0.26 -0.403,0.431 -0.061,0.512c0.321,0.162 0.774,0.173 1.357,0.034c1.107,-0.158 2.366,-0.718 3.776,-1.68c0.403,-0.24 0.605,-0.29 0.604,-0.149c0,0.161 -0.202,0.442 -0.605,0.843l-1.453,1.445c-0.403,0.401 -0.705,0.642 -0.907,0.722c-0.805,0.299 -1.61,0.619 -2.416,0.959c-0.483,0.18 -0.976,0.339 -1.48,0.479c-0.402,0.059 -0.603,-0.112 -0.602,-0.515c0.021,-0.382 -0.018,-0.885 -0.117,-1.509c-0.059,-0.483 0.063,-0.724 0.364,-0.723c0.322,0.001 0.655,-0.199 0.998,-0.601c0.726,-0.923 1.302,-1.726 1.726,-2.409c0.747,-1.245 1.395,-2.853 1.944,-4.823c0.141,-0.422 0.041,-0.493 -0.302,-0.212c-1.209,1.083 -2.539,1.965 -3.989,2.645c-0.403,0.18 -0.604,0.069 -0.603,-0.333c0.021,-0.222 -0.018,-0.644 -0.117,-1.268c-0.08,-0.483 -0.049,-0.724 0.092,-0.724c0.181,0 0.393,-0.2 0.635,-0.602c0.849,-1.486 1.457,-3.094 1.823,-4.823c0.306,-1.467 0.47,-2.744 0.493,-3.83Zm5.278,12.294c0.001,-0.402 0.203,-0.603 0.605,-0.602l0.966,0.002c0.402,0.002 0.603,0.193 0.602,0.575c-0.001,0.423 0.159,0.634 0.481,0.635l5.793,0.015c0.322,0.001 0.484,-0.2 0.485,-0.602c0.001,-0.402 0.202,-0.603 0.605,-0.602l0.965,0.003c0.402,0.001 0.603,0.203 0.602,0.605l-0.021,8.177c-0.001,0.402 -0.062,0.704 -0.184,0.904l-0.878,1.205c-0.222,0.281 -0.615,0.552 -1.179,0.812c-0.141,0.06 -0.272,0.11 -0.392,0.15c-0.343,0.139 -0.353,0.32 -0.032,0.543c0.883,0.625 1.807,1.151 2.772,1.576c0.402,0.162 0.491,0.474 0.269,0.936c-0.183,0.683 -0.214,1.186 -0.094,1.508c0.099,0.463 -0.042,0.614 -0.424,0.452c-1.286,-0.506 -2.35,-1.374 -3.192,-2.603c-0.681,-1.068 -1.13,-2.186 -1.349,-3.353c-0.099,-0.322 -0.169,-0.463 -0.21,-0.423c-0.061,0.221 -0.112,0.442 -0.152,0.663c-0.427,1.729 -1.658,3.154 -3.693,4.275c-1.168,0.721 -2.266,1.282 -3.293,1.681c-0.362,0.14 -0.624,0.17 -0.785,0.089c-0.161,-0.061 -0.039,-0.201 0.363,-0.422c3.203,-1.721 4.969,-3.819 5.297,-6.292c0.285,-1.307 0.44,-2.664 0.463,-4.072l0.005,-1.63l-0.028,-0.814c0.001,-0.403 0.202,-0.603 0.605,-0.602l0.935,0.002c0.402,0.001 0.603,0.203 0.602,0.605l-0.009,3.38c-0.022,0.663 -0.084,1.347 -0.186,2.051c-0.061,0.322 0.038,0.684 0.299,1.087c0.24,0.343 0.531,0.695 0.872,1.058c0.301,0.323 0.522,0.283 0.664,-0.119c0.242,-0.261 0.464,-0.632 0.667,-1.114c0.06,-0.121 0.091,-0.342 0.092,-0.664l0.018,-7.03c0.001,-0.322 -0.159,-0.483 -0.481,-0.484l-5.763,-0.015c-0.342,-0.001 -0.514,0.159 -0.514,0.481l-0.023,8.78c-0.001,0.423 -0.203,0.634 -0.605,0.633l-0.936,-0.003c-0.422,-0.001 -0.633,-0.203 -0.632,-0.605l0.028,-10.832Zm-1.164,6.997c0.302,-0.462 0.444,-0.612 0.423,-0.452c-0.02,0.081 -0.081,0.222 -0.182,0.422c-0.708,1.608 -1.718,3.204 -3.03,4.79c-1.109,1.063 -2.268,2.016 -3.477,2.857c-0.383,0.261 -0.574,0.19 -0.573,-0.212c0,-0.161 -0.019,-0.322 -0.059,-0.483c-0.119,-0.604 -0.218,-1.208 -0.297,-1.811c-0.079,-0.463 0.072,-0.724 0.455,-0.784c0.704,-0.119 1.499,-0.368 2.385,-0.748c1.611,-0.579 3.062,-1.772 4.355,-3.579Z" style="fill:#c0272d;fill-rule:nonzero;"/><path d="M314.098,0.48c0.101,-0.08 0.342,-0.009 0.724,0.213c1.084,0.687 2.179,1.383 3.283,2.09c0.482,0.303 0.572,0.656 0.269,1.057c-0.383,0.502 -0.757,1.014 -1.12,1.536c-0.243,0.341 -0.203,0.513 0.119,0.513l2.414,0.007c0.322,0 0.594,-0.2 0.816,-0.602l2.214,-4.218c0.242,-0.462 0.544,-0.562 0.906,-0.3l0.903,0.727c0.462,0.363 0.501,0.725 0.118,1.087c-0.988,0.922 -1.986,1.855 -2.995,2.798c-0.322,0.341 -0.323,0.512 -0.001,0.513l2.142,0.005c0.322,0.001 0.484,-0.149 0.484,-0.451c0.001,-0.322 0.203,-0.482 0.605,-0.481l1.177,0.003c0.402,0.001 0.603,0.203 0.602,0.605l-0.031,11.767c-0.001,0.423 -0.203,0.634 -0.605,0.633l-1.147,-0.003c-0.422,-0.002 -0.633,-0.203 -0.632,-0.606c0.001,-0.402 -0.159,-0.603 -0.481,-0.604l-3.591,-0.01c-0.342,-0.001 -0.513,0.16 -0.514,0.482l-0.007,2.896c-0.001,0.342 0.159,0.514 0.481,0.515l7.815,0.02c0.402,0.001 0.603,0.193 0.602,0.575c-0.001,0.402 -0.203,0.603 -0.605,0.602l-7.785,-0.021c-0.342,-0.001 -0.513,0.16 -0.514,0.482l-0.019,7.09c-0.001,0.423 -0.202,0.634 -0.605,0.633l-0.935,-0.003c-0.422,-0.001 -0.633,-0.203 -0.632,-0.605l0.018,-7.121c0.001,-0.322 -0.159,-0.483 -0.481,-0.484l-7.332,-0.019c-0.423,-0.001 -0.633,-0.193 -0.632,-0.575c0.001,-0.402 0.202,-0.603 0.605,-0.602l7.362,0.019c0.322,0.001 0.483,-0.159 0.484,-0.481l0.008,-2.927c0.001,-0.322 -0.16,-0.483 -0.482,-0.484l-2.896,-0.008c-0.342,0 -0.514,0.16 -0.515,0.482l-0.001,0.573c-0.001,0.423 -0.203,0.633 -0.605,0.632l-1.147,-0.003c-0.422,-0.001 -0.633,-0.203 -0.632,-0.605l0.032,-12.28c0.001,-0.403 0.203,-0.603 0.605,-0.602l1.177,0.003c0.402,0.001 0.603,0.152 0.602,0.454c-0.001,0.322 0.16,0.483 0.482,0.484l2.202,0.006c0.322,0.001 0.403,-0.2 0.243,-0.603c-0.559,-1.329 -1.3,-2.699 -2.222,-4.109c-0.28,-0.403 -0.39,-0.635 -0.33,-0.695Zm3.512,7.13c0.001,-0.342 -0.15,-0.513 -0.451,-0.514l-2.927,-0.008c-0.342,-0.001 -0.514,0.16 -0.514,0.482l-0.007,2.655c-0.001,0.342 0.159,0.513 0.481,0.514l2.927,0.008c0.322,0 0.483,-0.16 0.484,-0.482l0.007,-2.655Zm6.759,0.017c0.001,-0.341 -0.15,-0.513 -0.452,-0.514l-3.62,-0.009c-0.342,-0.001 -0.514,0.159 -0.515,0.481l-0.007,2.656c0,0.342 0.16,0.513 0.482,0.514l3.621,0.009c0.322,0.001 0.483,-0.159 0.484,-0.481l0.007,-2.656Zm-6.772,4.811c0.001,-0.342 -0.149,-0.514 -0.451,-0.515l-2.927,-0.007c-0.342,-0.001 -0.513,0.159 -0.514,0.481l-0.007,2.625c-0.001,0.342 0.16,0.514 0.482,0.514l2.926,0.008c0.322,0.001 0.484,-0.16 0.484,-0.481l0.007,-2.625Zm6.759,0.017c0.001,-0.342 -0.15,-0.513 -0.451,-0.514l-3.621,-0.009c-0.342,-0.001 -0.513,0.159 -0.514,0.481l-0.007,2.625c-0.001,0.342 0.16,0.513 0.481,0.514l3.621,0.01c0.322,0.001 0.483,-0.16 0.484,-0.482l0.007,-2.625Z" style="fill:#c0272d;fill-rule:nonzero;"/></svg>