<?xml version="1.0" encoding="UTF-8" standalone="no"?><!DOCTYPE svg PUBLIC "-//W3C//DTD SVG 1.1//EN" "http://www.w3.org/Graphics/SVG/1.1/DTD/svg11.dtd"><svg width="100%" height="100%" viewBox="0 0 24 1061" version="1.1" xmlns="http://www.w3.org/2000/svg" xmlns:xlink="http://www.w3.org/1999/xlink" xml:space="preserve" xmlns:serif="http://www.serif.com/" style="fill-rule:evenodd;clip-rule:evenodd;stroke-linejoin:round;stroke-miterlimit:2;"><path d="M12.18,7.216l-1.443,0l0,-7.216l1.443,0l0,7.216Zm0,14.433l-1.443,0l0,-7.217l1.443,0l0,7.217Zm0,14.432l-1.443,0l0,-7.216l1.443,0l0,7.216Zm0,14.433l-1.443,0l0,-7.216l1.443,0l0,7.216Zm0,14.433l-1.443,0l0,-7.216l1.443,0l0,7.216Zm0,14.433l-1.443,0l0,-7.216l1.443,0l0,7.216Zm0,14.433l-1.443,0l0,-7.217l1.443,0l0,7.217Z" style="fill:#808080;fill-rule:nonzero;"/><path d="M12.902,228.037l-1.443,0l0,-7.216l1.443,0l0,7.216Zm0,14.433l-1.443,0l0,-7.216l1.443,0l0,7.216Zm0,14.433l-1.443,0l0,-7.217l1.443,0l0,7.217Zm0,14.433l-1.443,0l0,-7.216l1.443,0l0,7.216Zm0,14.433l-1.443,0l0,-7.216l1.443,0l0,7.216Zm0,14.432l-1.443,0l0,-7.216l1.443,0l0,7.216Zm0,14.433l-1.443,0l0,-7.216l1.443,0l0,7.216Z" style="fill:#808080;fill-rule:nonzero;"/><path d="M12.902,375.251l-1.443,0l0,-7.216l1.443,0l0,7.216Zm0,14.433l-1.443,0l0,-7.216l1.443,0l0,7.216Zm0,14.433l-1.443,0l0,-7.216l1.443,0l0,7.216Zm0,14.432l-1.443,0l0,-7.216l1.443,0l0,7.216Zm0,14.434l-1.443,0l0,-7.218l1.443,0l0,7.218Zm0,14.433l-1.443,0l0,-7.217l1.443,0l0,7.217Zm0,14.432l-1.443,0l0,-7.217l1.443,0l0,7.217Z" style="fill:#808080;fill-rule:nonzero;"/><path d="M12.181,331.954c-5.174,0 -9.382,4.209 -9.382,9.382c0,5.172 4.208,9.381 9.382,9.381c5.173,0 9.381,-4.209 9.381,-9.381c0,-5.173 -4.208,-9.382 -9.381,-9.382m0,20.206c-5.969,0 -10.825,-4.856 -10.825,-10.824c0,-5.97 4.856,-10.825 10.825,-10.825c5.969,0 10.824,4.855 10.824,10.825c0,5.968 -4.855,10.824 -10.824,10.824" style="fill:#808080;fill-rule:nonzero;"/><path d="M12.902,596.073l-1.443,0l0,-7.216l1.443,0l0,7.216Zm0,14.433l-1.443,0l0,-7.216l1.443,0l0,7.216Zm0,14.433l-1.443,0l0,-7.216l1.443,0l0,7.216Zm0,14.433l-1.443,0l0,-7.216l1.443,0l0,7.216Zm0,14.432l-1.443,0l0,-7.217l1.443,0l0,7.217Zm0,14.434l-1.443,0l0,-7.218l1.443,0l0,7.218Zm0,14.433l-1.443,0l0,-7.217l1.443,0l0,7.217Z" style="fill:#808080;fill-rule:nonzero;"/><path d="M12.902,974.212l-1.443,0l0,-7.216l1.443,0l0,7.216Zm0,14.432l-1.443,0l0,-7.216l1.443,0l0,7.216Zm0,14.434l-1.443,0l0,-7.216l1.443,0l0,7.216Zm0,14.432l-1.443,0l0,-7.216l1.443,0l0,7.216Zm0,14.433l-1.443,0l0,-7.217l1.443,0l0,7.217Zm0,14.434l-1.443,0l0,-7.218l1.443,0l0,7.218Zm0,14.432l-1.443,0l0,-7.217l1.443,0l0,7.217Z" style="fill:#808080;fill-rule:nonzero;"/><path d="M12.902,743.287l-1.443,0l0,-7.216l1.443,0l0,7.216Zm0,14.432l-1.443,0l0,-7.216l1.443,0l0,7.216Zm0,14.434l-1.443,0l0,-7.216l1.443,0l0,7.216Zm0,14.433l-1.443,0l0,-7.216l1.443,0l0,7.216Zm0,14.432l-1.443,0l0,-7.217l1.443,0l0,7.217Zm0,14.434l-1.443,0l0,-7.217l1.443,0l0,7.217Zm0,14.432l-1.443,0l0,-7.217l1.443,0l0,7.217Z" style="fill:#808080;fill-rule:nonzero;"/><path d="M12.181,699.989c-5.174,0 -9.382,4.209 -9.382,9.382c0,5.173 4.208,9.382 9.382,9.382c5.173,0 9.381,-4.209 9.381,-9.382c0,-5.173 -4.208,-9.382 -9.381,-9.382m0,20.207c-5.969,0 -10.825,-4.856 -10.825,-10.825c0,-5.969 4.856,-10.825 10.825,-10.825c5.969,0 10.824,4.856 10.824,10.825c0,5.969 -4.855,10.825 -10.824,10.825" style="fill:#808080;fill-rule:nonzero;"/><path d="M0.525,187.091c-0.319,0 -0.478,-0.152 -0.478,-0.456l0,-0.729c0,-0.304 0.152,-0.456 0.455,-0.456l9.252,0c0.319,0 0.479,0.152 0.479,0.456l0,0.706c0,0.319 -0.152,0.479 -0.456,0.479l-3.578,0c-0.258,0 -0.227,0.106 0.092,0.319c1.215,0.729 2.271,1.603 3.167,2.62c0.258,0.335 0.243,0.471 -0.045,0.411l-0.433,-0.069l-0.866,0.137c-0.289,0.03 -0.502,-0.129 -0.638,-0.479c-0.304,-0.683 -0.752,-1.314 -1.345,-1.891l-0.638,-0.684c-0.228,-0.243 -0.463,-0.364 -0.706,-0.364l-1.117,0c-0.258,0 -0.228,0.114 0.091,0.342l0.456,0.341c0.349,0.274 0.387,0.487 0.114,0.638c-1.003,0.502 -2.15,0.988 -3.441,1.459c-0.046,-0.015 -0.069,-0.038 -0.069,-0.068c0.092,-0.152 0.236,-0.319 0.433,-0.502l1.71,-1.823c0.227,-0.258 0.22,-0.387 -0.023,-0.387l-2.416,0Zm0,-5.469c-0.319,0 -0.478,-0.152 -0.478,-0.456l0,-0.547c0,-0.304 0.152,-0.456 0.455,-0.456l2.621,0c0.258,0 0.387,-0.121 0.387,-0.364l0,-2.986c0,-0.304 0.145,-0.455 0.433,-0.455c0.304,0 0.456,0.151 0.456,0.455l0,2.963c0,0.258 0.122,0.387 0.365,0.387l3.259,0c0.258,0 0.387,-0.121 0.387,-0.364l0,-2.097c0,-0.304 0.144,-0.456 0.433,-0.456c0.319,0 0.478,0.152 0.478,0.456l0,6.176c0,0.319 -0.151,0.478 -0.455,0.478c-0.304,0 -0.456,-0.152 -0.456,-0.456l0,-1.914c0,-0.243 -0.122,-0.364 -0.365,-0.364l-3.281,0c-0.243,0 -0.365,0.121 -0.365,0.364l0,2.256c0,0.319 -0.144,0.479 -0.433,0.479c-0.304,0 -0.456,-0.152 -0.456,-0.456l0,-2.279c0,-0.243 -0.121,-0.364 -0.364,-0.364l-2.621,0Zm9.685,2.552c-0.334,0.121 -0.501,0.121 -0.501,0c0,-0.122 0.137,-0.334 0.41,-0.638c0.258,-0.304 0.524,-0.608 0.798,-0.912c0.273,-0.288 0.569,-0.342 0.888,-0.159c0.304,0.152 0.456,0.106 0.456,-0.137l0,-5.515c0,-0.304 0.144,-0.455 0.433,-0.455c0.304,0 0.456,0.151 0.456,0.455l0,5.082c0.03,0.349 0.076,0.479 0.137,0.387c0.045,-0.06 0.22,-0.113 0.524,-0.159c1.078,-0.228 1.952,-0.638 2.62,-1.231c0.243,-0.243 0.221,-0.478 -0.068,-0.706c-0.532,-0.365 -1.063,-0.737 -1.595,-1.117c-0.35,-0.243 -0.388,-0.471 -0.114,-0.683c0.319,-0.259 0.623,-0.243 0.911,0.045c0.395,0.441 0.806,0.881 1.231,1.322c0.243,0.258 0.471,0.251 0.684,-0.023c0.516,-0.699 1.078,-1.679 1.686,-2.94c0.137,-0.288 0.372,-0.357 0.706,-0.205c0.335,0.137 0.79,0.145 1.368,0.023c0.319,-0.061 0.395,0.076 0.228,0.41c-0.38,0.699 -0.752,1.307 -1.117,1.823c-1.003,1.489 -2.226,2.484 -3.669,2.986c-1.033,0.364 -2.089,0.592 -3.167,0.683c-0.244,0.016 -0.365,0.145 -0.365,0.388l0,0.342c0,0.243 0.152,0.455 0.456,0.638l1.367,0.752c0.106,0.076 0.281,0.114 0.524,0.114l3.851,0c0.243,0 0.297,-0.152 0.16,-0.456c-0.289,-0.471 -0.851,-1.231 -1.687,-2.279c-0.197,-0.273 -0.258,-0.41 -0.182,-0.41c0.107,0.03 0.243,0.129 0.41,0.296c0.608,0.471 1.216,0.927 1.823,1.367c0.046,0.046 0.092,0.114 0.137,0.205c0.653,1.216 1.322,2.431 2.005,3.647c0.168,0.349 0.107,0.539 -0.182,0.569c-0.44,0.046 -0.873,0.076 -1.299,0.091c-0.304,0.016 -0.455,-0.129 -0.455,-0.433l0,-0.615c0,-0.243 -0.122,-0.364 -0.365,-0.364l-2.37,0c-0.243,0 -0.274,0.151 -0.091,0.455c0.273,0.426 0.592,1.033 0.957,1.823c0.258,0.532 0.539,1.064 0.843,1.596c0.198,0.334 0.266,0.554 0.205,0.66c-0.076,0.137 -0.243,0.031 -0.501,-0.319c-1.124,-1.58 -2.218,-2.765 -3.282,-3.555c-0.729,-0.501 -1.375,-0.888 -1.937,-1.162c-0.258,-0.152 -0.387,-0.114 -0.387,0.114l0,4.467c0,0.319 -0.144,0.478 -0.433,0.478c-0.304,0 -0.456,-0.152 -0.456,-0.456l0,-6.836c0,-0.243 -0.152,-0.274 -0.456,-0.091c-0.212,0.137 -0.516,0.266 -0.911,0.387c-0.228,0.107 -0.456,0.19 -0.684,0.251Z" style="fill:#808080;fill-rule:nonzero;"/><path d="M0.32,158.795c-0.364,0.137 -0.418,0.053 -0.159,-0.251c0.592,-0.759 1.207,-1.519 1.845,-2.278c0.274,-0.335 0.555,-0.426 0.844,-0.274l1.458,0.775c0.304,0.167 0.304,0.327 0,0.479c-1.215,0.531 -2.545,1.048 -3.988,1.549Zm1.618,-4.33c-0.289,0 -0.433,-0.152 -0.433,-0.455l0,-8.364c0,-0.304 0.144,-0.455 0.433,-0.455c0.304,0 0.456,0.151 0.456,0.455l0,2.439c0,0.258 0.121,0.387 0.364,0.387l16.841,0c0.532,0.091 0.987,0.312 1.367,0.661c0.228,0.197 0.456,0.38 0.684,0.547c0.045,0.045 0.076,0.121 0.091,0.228c0.015,0.136 0.038,0.273 0.068,0.41c0.061,0.304 0.046,0.494 -0.045,0.57c-0.289,0.319 -0.35,0.668 -0.182,1.048c0.015,0.258 0.038,0.524 0.068,0.797c0.03,0.304 -0.038,0.456 -0.205,0.456c-0.167,0 -0.312,-0.152 -0.433,-0.456c-0.243,-0.729 -0.517,-1.336 -0.821,-1.823c-0.167,-0.212 -0.41,-0.41 -0.729,-0.592c-0.076,-0.03 -0.235,-0.046 -0.478,-0.046l-16.226,0c-0.243,0 -0.364,0.122 -0.364,0.365l0,3.35c0,0.319 -0.152,0.478 -0.456,0.478Zm4.398,3.464c-0.304,0 -0.456,-0.152 -0.456,-0.456l0,-0.706c0,-0.304 0.152,-0.456 0.456,-0.456l11.007,0c0.258,0 0.304,-0.152 0.137,-0.456c-0.593,-1.033 -1.36,-2.134 -2.302,-3.304c-0.243,-0.304 -0.342,-0.478 -0.296,-0.524c0.061,-0.061 0.228,0.023 0.501,0.251c2.72,2.37 4.467,4.702 5.241,6.996c0.122,0.319 0.031,0.478 -0.273,0.478c-0.425,0.076 -0.851,0.16 -1.276,0.251c-0.304,0.076 -0.479,-0.038 -0.524,-0.342l-0.228,-1.344c-0.046,-0.259 -0.19,-0.388 -0.433,-0.388l-9.662,0c-0.243,0 -0.365,0.122 -0.365,0.365l0,1.891c0,0.319 -0.152,0.479 -0.456,0.479l-0.159,0c-0.304,0 -0.456,-0.152 -0.456,-0.456l0,-1.914c0,-0.243 -0.152,-0.365 -0.456,-0.365Z" style="fill:#808080;fill-rule:nonzero;"/><path d="M0.525,126.945c-0.319,0 -0.478,-0.152 -0.478,-0.456l0,-0.889c0,-0.304 0.152,-0.456 0.455,-0.456c0.578,0 1.208,0.046 1.892,0.137c1.17,0.137 2.385,0.608 3.646,1.413c0.456,0.289 0.912,0.592 1.367,0.911c0.076,0.076 0.129,0.145 0.16,0.205l0.114,0.228c0.182,0.228 0.296,0.335 0.342,0.319c0.06,-0.653 -0.054,-1.374 -0.342,-2.164c-0.076,-0.259 -0.205,-0.525 -0.388,-0.798c-0.212,-0.304 -0.296,-0.479 -0.25,-0.524c0.076,-0.076 -0.038,-0.129 -0.342,-0.16l-1.459,-0.114c-0.303,-0.03 -0.455,-0.197 -0.455,-0.501l0,-0.866c0,-0.304 0.152,-0.441 0.455,-0.41l0.433,0.068c0.243,0.031 0.342,-0.106 0.297,-0.41l-0.205,-1.139c-0.046,-0.274 -0.183,-0.411 -0.411,-0.411l-4.854,0c-0.303,0 -0.455,-0.151 -0.455,-0.455l0,-0.547c0,-0.304 0.152,-0.464 0.455,-0.479l4.444,-0.137c0.243,0 0.342,-0.129 0.296,-0.387l-0.547,-3.008c-0.06,-0.304 0.054,-0.516 0.342,-0.638c0.289,-0.106 0.464,-0.008 0.524,0.296c0.198,1.109 0.403,2.226 0.616,3.35c0.045,0.258 0.22,0.38 0.524,0.365l2.21,-0.16c0.274,-0.03 0.38,-0.182 0.319,-0.456l-0.706,-3.327c-0.061,-0.288 0.061,-0.463 0.365,-0.524c0.273,-0.045 0.448,0.084 0.524,0.388l0.752,3.577c0.045,0.213 0.197,0.312 0.455,0.297c1.398,-0.107 2.849,-0.312 4.353,-0.616c0.273,-0.06 0.251,-0.159 -0.068,-0.296c-1.109,-0.501 -2.203,-0.835 -3.282,-1.003c-0.304,-0.06 -0.456,-0.243 -0.456,-0.547l0,-0.865c0,-0.304 0.152,-0.433 0.456,-0.388c0.532,0.091 1.139,0.22 1.823,0.388c1.064,0.258 2.051,0.774 2.963,1.549c0.273,0.243 0.539,0.281 0.797,0.114c0.456,-0.258 1.102,-0.691 1.937,-1.299c0.274,-0.197 0.274,-0.319 0,-0.364c-1.701,-0.274 -3.41,-0.555 -5.127,-0.844c-0.061,0 -0.122,-0.022 -0.182,-0.068c-0.076,-0.061 0.03,-0.091 0.319,-0.091l2.689,0c0.82,0.091 1.625,0.007 2.415,-0.251c0.152,-0.076 0.304,-0.114 0.456,-0.114c0.744,0.061 1.504,0.107 2.279,0.137c0.304,0.03 0.38,0.205 0.228,0.524c-0.79,1.656 -1.983,2.94 -3.578,3.851c-0.243,0.137 -0.236,0.357 0.023,0.661c0.364,0.517 0.698,1.094 1.002,1.732c0.365,0.851 0.714,1.724 1.049,2.621c0.06,0.304 -0.023,0.304 -0.251,0l-1.846,-2.621c-0.395,-0.547 -0.828,-1.048 -1.299,-1.504c-0.228,-0.213 -0.471,-0.273 -0.729,-0.182c-1.808,0.638 -3.684,1.01 -5.629,1.116c-0.228,0.016 -0.319,0.152 -0.273,0.411c0.091,0.653 0.205,1.306 0.342,1.959c0.076,0.365 -0.031,0.585 -0.319,0.661c-0.304,0.061 -0.487,-0.053 -0.547,-0.342c-0.152,-0.759 -0.289,-1.534 -0.411,-2.324c-0.03,-0.228 -0.174,-0.334 -0.433,-0.319l-2.369,0.137c-0.244,0.015 -0.342,0.174 -0.297,0.478l0.228,1.368c0.046,0.258 0.22,0.417 0.524,0.478c0.517,0.137 1.117,0.349 1.801,0.638c1.504,0.684 2.795,1.724 3.874,3.122c0.243,0.243 0.448,0.631 0.615,1.162c-0.015,0.031 -0.175,-0.091 -0.479,-0.364c-1.23,-1.079 -2.415,-1.831 -3.555,-2.256c-0.304,-0.107 -0.607,-0.221 -0.911,-0.342c-0.471,-0.228 -0.805,-0.319 -1.003,-0.274c-0.045,0.031 0.046,0.175 0.274,0.433c1.017,1.155 1.747,2.256 2.187,3.305c0.137,0.319 0.053,0.478 -0.25,0.478c-0.35,-0.015 -0.821,0.076 -1.413,0.274c-0.319,0.182 -0.479,0.152 -0.479,-0.091c0,-0.244 -0.152,-0.471 -0.456,-0.684c-1.154,-0.76 -2.37,-1.223 -3.646,-1.39c-1.215,-0.183 -2.362,-0.281 -3.441,-0.296Zm0.137,-8.751c-0.319,0.121 -0.471,0.144 -0.456,0.068c0.031,-0.136 0.16,-0.319 0.388,-0.547l1.458,-1.823c0.228,-0.273 0.509,-0.281 0.843,-0.023l0.684,0.525c0.304,0.227 0.289,0.417 -0.046,0.569c-0.987,0.395 -1.944,0.805 -2.871,1.231Zm11.28,5.059c-0.273,-0.334 -0.357,-0.532 -0.251,-0.593c0.122,-0.045 0.35,0.076 0.684,0.365l1.595,1.344c0.198,0.168 0.319,0.312 0.365,0.433c0.592,1.109 1.101,2.249 1.527,3.419c0.136,0.349 0.068,0.562 -0.205,0.638c-0.441,0.121 -0.874,0.235 -1.299,0.342c-0.304,0.06 -0.456,-0.061 -0.456,-0.365c-0.03,-1.307 -0.258,-2.484 -0.684,-3.532c-0.273,-0.653 -0.699,-1.337 -1.276,-2.051Zm3.373,-0.479c-0.213,-0.258 -0.296,-0.44 -0.251,-0.547c0.061,-0.121 0.243,-0.076 0.547,0.137c2.552,1.838 4.277,3.98 5.173,6.426c0.137,0.35 0.061,0.525 -0.228,0.525c-0.349,-0.016 -0.957,0.098 -1.823,0.341c-0.304,0.122 -0.418,0.031 -0.342,-0.273l0.046,-0.228c-0.031,-1.261 -0.418,-2.476 -1.162,-3.646c-0.639,-0.988 -1.292,-1.899 -1.96,-2.735Z" style="fill:#808080;fill-rule:nonzero;"/><path d="M0.525,560.102c-0.319,0 -0.478,-0.152 -0.478,-0.455l0,-0.73c0,-0.304 0.152,-0.455 0.455,-0.455l9.252,0c0.319,0 0.479,0.151 0.479,0.455l0,0.707c0,0.319 -0.152,0.478 -0.456,0.478l-3.578,0c-0.258,0 -0.227,0.107 0.092,0.319c1.215,0.73 2.271,1.603 3.167,2.621c0.258,0.334 0.243,0.471 -0.045,0.41l-0.433,-0.068l-0.866,0.137c-0.289,0.03 -0.502,-0.13 -0.638,-0.479c-0.304,-0.684 -0.752,-1.314 -1.345,-1.891l-0.638,-0.684c-0.228,-0.243 -0.463,-0.365 -0.706,-0.365l-1.117,0c-0.258,0 -0.228,0.114 0.091,0.342l0.456,0.342c0.349,0.273 0.387,0.486 0.114,0.638c-1.003,0.501 -2.15,0.988 -3.441,1.458c-0.046,-0.015 -0.069,-0.037 -0.069,-0.068c0.092,-0.152 0.236,-0.319 0.433,-0.501l1.71,-1.823c0.227,-0.259 0.22,-0.388 -0.023,-0.388l-2.416,0Zm0,-5.469c-0.319,0 -0.478,-0.152 -0.478,-0.456l0,-0.547c0,-0.303 0.152,-0.455 0.455,-0.455l2.621,0c0.258,0 0.387,-0.122 0.387,-0.365l0,-2.985c0,-0.304 0.145,-0.456 0.433,-0.456c0.304,0 0.456,0.152 0.456,0.456l0,2.962c0,0.259 0.122,0.388 0.365,0.388l3.259,0c0.258,0 0.387,-0.122 0.387,-0.365l0,-2.096c0,-0.304 0.144,-0.456 0.433,-0.456c0.319,0 0.478,0.152 0.478,0.456l0,6.175c0,0.319 -0.151,0.479 -0.455,0.479c-0.304,0 -0.456,-0.152 -0.456,-0.456l0,-1.914c0,-0.243 -0.122,-0.365 -0.365,-0.365l-3.281,0c-0.243,0 -0.365,0.122 -0.365,0.365l0,2.256c0,0.319 -0.144,0.478 -0.433,0.478c-0.304,0 -0.456,-0.152 -0.456,-0.455l0,-2.279c0,-0.243 -0.121,-0.365 -0.364,-0.365l-2.621,0Zm9.685,2.552c-0.334,0.122 -0.501,0.122 -0.501,0c0,-0.121 0.137,-0.334 0.41,-0.638c0.258,-0.303 0.524,-0.607 0.798,-0.911c0.273,-0.289 0.569,-0.342 0.888,-0.16c0.304,0.152 0.456,0.107 0.456,-0.136l0,-5.515c0,-0.304 0.144,-0.456 0.433,-0.456c0.304,0 0.456,0.152 0.456,0.456l0,5.082c0.03,0.349 0.076,0.478 0.137,0.387c0.045,-0.061 0.22,-0.114 0.524,-0.159c1.078,-0.228 1.952,-0.639 2.62,-1.231c0.243,-0.243 0.221,-0.479 -0.068,-0.706c-0.532,-0.365 -1.063,-0.737 -1.595,-1.117c-0.35,-0.243 -0.388,-0.471 -0.114,-0.684c0.319,-0.258 0.623,-0.243 0.911,0.046c0.395,0.44 0.806,0.881 1.231,1.322c0.243,0.258 0.471,0.25 0.684,-0.023c0.516,-0.699 1.078,-1.679 1.686,-2.94c0.137,-0.289 0.372,-0.357 0.706,-0.205c0.335,0.137 0.79,0.144 1.368,0.023c0.319,-0.061 0.395,0.076 0.228,0.41c-0.38,0.699 -0.752,1.306 -1.117,1.823c-1.003,1.489 -2.226,2.484 -3.669,2.985c-1.033,0.365 -2.089,0.593 -3.167,0.684c-0.244,0.015 -0.365,0.144 -0.365,0.387l0,0.342c0,0.243 0.152,0.456 0.456,0.638l1.367,0.752c0.106,0.076 0.281,0.114 0.524,0.114l3.851,0c0.243,0 0.297,-0.152 0.16,-0.456c-0.289,-0.471 -0.851,-1.23 -1.687,-2.278c-0.197,-0.274 -0.258,-0.411 -0.182,-0.411c0.107,0.031 0.243,0.13 0.41,0.297c0.608,0.471 1.216,0.926 1.823,1.367c0.046,0.045 0.092,0.114 0.137,0.205c0.653,1.215 1.322,2.431 2.005,3.646c0.168,0.35 0.107,0.539 -0.182,0.57c-0.44,0.045 -0.873,0.076 -1.299,0.091c-0.304,0.015 -0.455,-0.129 -0.455,-0.433l0,-0.615c0,-0.243 -0.122,-0.365 -0.365,-0.365l-2.37,0c-0.243,0 -0.274,0.152 -0.091,0.456c0.273,0.425 0.592,1.033 0.957,1.823c0.258,0.532 0.539,1.063 0.843,1.595c0.198,0.334 0.266,0.555 0.205,0.661c-0.076,0.137 -0.243,0.03 -0.501,-0.319c-1.124,-1.58 -2.218,-2.765 -3.282,-3.555c-0.729,-0.501 -1.375,-0.889 -1.937,-1.162c-0.258,-0.152 -0.387,-0.114 -0.387,0.114l0,4.466c0,0.319 -0.144,0.479 -0.433,0.479c-0.304,0 -0.456,-0.152 -0.456,-0.456l0,-6.836c0,-0.244 -0.152,-0.274 -0.456,-0.092c-0.212,0.137 -0.516,0.266 -0.911,0.388c-0.228,0.106 -0.456,0.19 -0.684,0.25Z" style="fill:#808080;fill-rule:nonzero;"/><path d="M0.32,531.807c-0.364,0.136 -0.418,0.053 -0.159,-0.251c0.592,-0.76 1.207,-1.519 1.845,-2.279c0.274,-0.334 0.555,-0.425 0.844,-0.273l1.458,0.775c0.304,0.167 0.304,0.326 0,0.478c-1.215,0.532 -2.545,1.048 -3.988,1.55Zm1.618,-4.33c-0.289,0 -0.433,-0.152 -0.433,-0.456l0,-8.363c0,-0.304 0.144,-0.456 0.433,-0.456c0.304,0 0.456,0.152 0.456,0.456l0,2.438c0,0.259 0.121,0.388 0.364,0.388l16.841,0c0.532,0.091 0.987,0.311 1.367,0.661c0.228,0.197 0.456,0.379 0.684,0.546c0.045,0.046 0.076,0.122 0.091,0.228c0.015,0.137 0.038,0.274 0.068,0.41c0.061,0.304 0.046,0.494 -0.045,0.57c-0.289,0.319 -0.35,0.669 -0.182,1.048c0.015,0.259 0.038,0.525 0.068,0.798c0.03,0.304 -0.038,0.456 -0.205,0.456c-0.167,0 -0.312,-0.152 -0.433,-0.456c-0.243,-0.729 -0.517,-1.337 -0.821,-1.823c-0.167,-0.213 -0.41,-0.41 -0.729,-0.593c-0.076,-0.03 -0.235,-0.045 -0.478,-0.045l-16.226,0c-0.243,0 -0.364,0.121 -0.364,0.365l0,3.349c0,0.319 -0.152,0.479 -0.456,0.479Zm4.398,3.464c-0.304,0 -0.456,-0.152 -0.456,-0.456l0,-0.706c0,-0.304 0.152,-0.456 0.456,-0.456l11.007,0c0.258,0 0.304,-0.152 0.137,-0.456c-0.593,-1.033 -1.36,-2.134 -2.302,-3.304c-0.243,-0.304 -0.342,-0.479 -0.296,-0.524c0.061,-0.061 0.228,0.022 0.501,0.25c2.72,2.37 4.467,4.702 5.241,6.996c0.122,0.319 0.031,0.479 -0.273,0.479c-0.425,0.076 -0.851,0.159 -1.276,0.25c-0.304,0.076 -0.479,-0.038 -0.524,-0.341l-0.228,-1.345c-0.046,-0.258 -0.19,-0.387 -0.433,-0.387l-9.662,0c-0.243,0 -0.365,0.121 -0.365,0.364l0,1.892c0,0.319 -0.152,0.478 -0.456,0.478l-0.159,0c-0.304,0 -0.456,-0.152 -0.456,-0.455l0,-1.915c0,-0.243 -0.152,-0.364 -0.456,-0.364Z" style="fill:#808080;fill-rule:nonzero;"/><path d="M0.525,499.956c-0.319,0 -0.478,-0.152 -0.478,-0.456l0,-0.888c0,-0.304 0.152,-0.456 0.455,-0.456c0.578,0 1.208,0.045 1.892,0.137c1.17,0.136 2.385,0.607 3.646,1.412c0.456,0.289 0.912,0.593 1.367,0.912c0.076,0.076 0.129,0.144 0.16,0.205l0.114,0.228c0.182,0.228 0.296,0.334 0.342,0.319c0.06,-0.653 -0.054,-1.375 -0.342,-2.165c-0.076,-0.258 -0.205,-0.524 -0.388,-0.797c-0.212,-0.304 -0.296,-0.479 -0.25,-0.525c0.076,-0.076 -0.038,-0.129 -0.342,-0.159l-1.459,-0.114c-0.303,-0.03 -0.455,-0.198 -0.455,-0.501l0,-0.866c0,-0.304 0.152,-0.441 0.455,-0.411l0.433,0.069c0.243,0.03 0.342,-0.107 0.297,-0.41l-0.205,-1.14c-0.046,-0.273 -0.183,-0.41 -0.411,-0.41l-4.854,0c-0.303,0 -0.455,-0.152 -0.455,-0.456l0,-0.547c0,-0.303 0.152,-0.463 0.455,-0.478l4.444,-0.137c0.243,0 0.342,-0.129 0.296,-0.387l-0.547,-3.008c-0.06,-0.304 0.054,-0.517 0.342,-0.638c0.289,-0.107 0.464,-0.008 0.524,0.296c0.198,1.109 0.403,2.225 0.616,3.35c0.045,0.258 0.22,0.379 0.524,0.364l2.21,-0.159c0.274,-0.031 0.38,-0.183 0.319,-0.456l-0.706,-3.327c-0.061,-0.289 0.061,-0.463 0.365,-0.524c0.273,-0.046 0.448,0.083 0.524,0.387l0.752,3.578c0.045,0.213 0.197,0.311 0.455,0.296c1.398,-0.106 2.849,-0.311 4.353,-0.615c0.273,-0.061 0.251,-0.16 -0.068,-0.296c-1.109,-0.502 -2.203,-0.836 -3.282,-1.003c-0.304,-0.061 -0.456,-0.243 -0.456,-0.547l0,-0.866c0,-0.304 0.152,-0.433 0.456,-0.387c0.532,0.091 1.139,0.22 1.823,0.387c1.064,0.258 2.051,0.775 2.963,1.55c0.273,0.243 0.539,0.281 0.797,0.114c0.456,-0.259 1.102,-0.692 1.937,-1.299c0.274,-0.198 0.274,-0.319 0,-0.365c-1.701,-0.273 -3.41,-0.554 -5.127,-0.843c-0.061,0 -0.122,-0.023 -0.182,-0.068c-0.076,-0.061 0.03,-0.092 0.319,-0.092l2.689,0c0.82,0.092 1.625,0.008 2.415,-0.25c0.152,-0.076 0.304,-0.114 0.456,-0.114c0.744,0.061 1.504,0.106 2.279,0.137c0.304,0.03 0.38,0.205 0.228,0.524c-0.79,1.656 -1.983,2.939 -3.578,3.851c-0.243,0.137 -0.236,0.357 0.023,0.661c0.364,0.516 0.698,1.094 1.002,1.732c0.365,0.85 0.714,1.724 1.049,2.62c0.06,0.304 -0.023,0.304 -0.251,0l-1.846,-2.62c-0.395,-0.547 -0.828,-1.049 -1.299,-1.504c-0.228,-0.213 -0.471,-0.274 -0.729,-0.183c-1.808,0.638 -3.684,1.011 -5.629,1.117c-0.228,0.015 -0.319,0.152 -0.273,0.41c0.091,0.653 0.205,1.307 0.342,1.96c0.076,0.365 -0.031,0.585 -0.319,0.661c-0.304,0.061 -0.487,-0.053 -0.547,-0.342c-0.152,-0.76 -0.289,-1.534 -0.411,-2.324c-0.03,-0.228 -0.174,-0.335 -0.433,-0.319l-2.369,0.136c-0.244,0.015 -0.342,0.175 -0.297,0.479l0.228,1.367c0.046,0.258 0.22,0.418 0.524,0.479c0.517,0.136 1.117,0.349 1.801,0.638c1.504,0.683 2.795,1.724 3.874,3.122c0.243,0.243 0.448,0.63 0.615,1.162c-0.015,0.03 -0.175,-0.091 -0.479,-0.365c-1.23,-1.078 -2.415,-1.83 -3.555,-2.256c-0.304,-0.106 -0.607,-0.22 -0.911,-0.342c-0.471,-0.227 -0.805,-0.319 -1.003,-0.273c-0.045,0.03 0.046,0.175 0.274,0.433c1.017,1.155 1.747,2.256 2.187,3.304c0.137,0.319 0.053,0.479 -0.25,0.479c-0.35,-0.015 -0.821,0.076 -1.413,0.273c-0.319,0.183 -0.479,0.152 -0.479,-0.091c0,-0.243 -0.152,-0.471 -0.456,-0.684c-1.154,-0.759 -2.37,-1.223 -3.646,-1.39c-1.215,-0.182 -2.362,-0.281 -3.441,-0.296Zm0.137,-8.751c-0.319,0.122 -0.471,0.145 -0.456,0.069c0.031,-0.137 0.16,-0.319 0.388,-0.547l1.458,-1.823c0.228,-0.274 0.509,-0.281 0.843,-0.023l0.684,0.524c0.304,0.228 0.289,0.418 -0.046,0.57c-0.987,0.395 -1.944,0.805 -2.871,1.23Zm11.28,5.059c-0.273,-0.334 -0.357,-0.531 -0.251,-0.592c0.122,-0.046 0.35,0.076 0.684,0.365l1.595,1.344c0.198,0.167 0.319,0.311 0.365,0.433c0.592,1.109 1.101,2.248 1.527,3.418c0.136,0.35 0.068,0.562 -0.205,0.638c-0.441,0.122 -0.874,0.236 -1.299,0.342c-0.304,0.061 -0.456,-0.061 -0.456,-0.364c-0.03,-1.307 -0.258,-2.484 -0.684,-3.533c-0.273,-0.653 -0.699,-1.337 -1.276,-2.051Zm3.373,-0.478c-0.213,-0.258 -0.296,-0.441 -0.251,-0.547c0.061,-0.122 0.243,-0.076 0.547,0.137c2.552,1.838 4.277,3.98 5.173,6.426c0.137,0.349 0.061,0.524 -0.228,0.524c-0.349,-0.015 -0.957,0.099 -1.823,0.342c-0.304,0.121 -0.418,0.03 -0.342,-0.274l0.046,-0.227c-0.031,-1.261 -0.418,-2.477 -1.162,-3.647c-0.639,-0.987 -1.292,-1.899 -1.96,-2.734Z" style="fill:#808080;fill-rule:nonzero;"/><path d="M0.525,936.101c-0.319,0 -0.478,-0.152 -0.478,-0.456l0,-0.729c0,-0.304 0.152,-0.456 0.455,-0.456l9.252,0c0.319,0 0.479,0.152 0.479,0.456l0,0.706c0,0.319 -0.152,0.479 -0.456,0.479l-3.578,0c-0.258,0 -0.227,0.106 0.092,0.319c1.215,0.729 2.271,1.603 3.167,2.62c0.258,0.335 0.243,0.471 -0.045,0.411l-0.433,-0.069l-0.866,0.137c-0.289,0.03 -0.502,-0.129 -0.638,-0.479c-0.304,-0.683 -0.752,-1.314 -1.345,-1.891l-0.638,-0.684c-0.228,-0.243 -0.463,-0.364 -0.706,-0.364l-1.117,0c-0.258,0 -0.228,0.114 0.091,0.342l0.456,0.341c0.349,0.274 0.387,0.487 0.114,0.639c-1.003,0.501 -2.15,0.987 -3.441,1.458c-0.046,-0.015 -0.069,-0.038 -0.069,-0.068c0.092,-0.152 0.236,-0.319 0.433,-0.502l1.71,-1.823c0.227,-0.258 0.22,-0.387 -0.023,-0.387l-2.416,0Zm0,-5.469c-0.319,0 -0.478,-0.152 -0.478,-0.456l0,-0.547c0,-0.304 0.152,-0.456 0.455,-0.456l2.621,0c0.258,0 0.387,-0.121 0.387,-0.364l0,-2.986c0,-0.304 0.145,-0.455 0.433,-0.455c0.304,0 0.456,0.151 0.456,0.455l0,2.963c0,0.258 0.122,0.387 0.365,0.387l3.259,0c0.258,0 0.387,-0.121 0.387,-0.364l0,-2.097c0,-0.304 0.144,-0.456 0.433,-0.456c0.319,0 0.478,0.152 0.478,0.456l0,6.176c0,0.319 -0.151,0.478 -0.455,0.478c-0.304,0 -0.456,-0.152 -0.456,-0.456l0,-1.914c0,-0.243 -0.122,-0.364 -0.365,-0.364l-3.281,0c-0.243,0 -0.365,0.121 -0.365,0.364l0,2.256c0,0.319 -0.144,0.479 -0.433,0.479c-0.304,0 -0.456,-0.152 -0.456,-0.456l0,-2.279c0,-0.243 -0.121,-0.364 -0.364,-0.364l-2.621,0Zm9.685,2.552c-0.334,0.121 -0.501,0.121 -0.501,0c0,-0.122 0.137,-0.334 0.41,-0.638c0.258,-0.304 0.524,-0.608 0.798,-0.912c0.273,-0.288 0.569,-0.342 0.888,-0.159c0.304,0.152 0.456,0.106 0.456,-0.137l0,-5.515c0,-0.304 0.144,-0.455 0.433,-0.455c0.304,0 0.456,0.151 0.456,0.455l0,5.082c0.03,0.35 0.076,0.479 0.137,0.387c0.045,-0.06 0.22,-0.113 0.524,-0.159c1.078,-0.228 1.952,-0.638 2.62,-1.231c0.243,-0.243 0.221,-0.478 -0.068,-0.706c-0.532,-0.365 -1.063,-0.737 -1.595,-1.117c-0.35,-0.243 -0.388,-0.471 -0.114,-0.683c0.319,-0.259 0.623,-0.243 0.911,0.045c0.395,0.441 0.806,0.881 1.231,1.322c0.243,0.258 0.471,0.251 0.684,-0.023c0.516,-0.699 1.078,-1.679 1.686,-2.939c0.137,-0.289 0.372,-0.357 0.706,-0.206c0.335,0.137 0.79,0.145 1.368,0.023c0.319,-0.061 0.395,0.076 0.228,0.41c-0.38,0.699 -0.752,1.307 -1.117,1.823c-1.003,1.489 -2.226,2.484 -3.669,2.986c-1.033,0.364 -2.089,0.592 -3.167,0.683c-0.244,0.016 -0.365,0.145 -0.365,0.388l0,0.342c0,0.243 0.152,0.455 0.456,0.638l1.367,0.752c0.106,0.076 0.281,0.114 0.524,0.114l3.851,0c0.243,0 0.297,-0.152 0.16,-0.456c-0.289,-0.471 -0.851,-1.231 -1.687,-2.279c-0.197,-0.273 -0.258,-0.41 -0.182,-0.41c0.107,0.03 0.243,0.129 0.41,0.296c0.608,0.471 1.216,0.927 1.823,1.367c0.046,0.046 0.092,0.114 0.137,0.205c0.653,1.216 1.322,2.431 2.005,3.647c0.168,0.349 0.107,0.539 -0.182,0.569c-0.44,0.046 -0.873,0.076 -1.299,0.091c-0.304,0.016 -0.455,-0.129 -0.455,-0.433l0,-0.615c0,-0.243 -0.122,-0.364 -0.365,-0.364l-2.37,0c-0.243,0 -0.274,0.151 -0.091,0.455c0.273,0.426 0.592,1.033 0.957,1.823c0.258,0.532 0.539,1.064 0.843,1.596c0.198,0.334 0.266,0.554 0.205,0.66c-0.076,0.137 -0.243,0.031 -0.501,-0.319c-1.124,-1.58 -2.218,-2.765 -3.282,-3.555c-0.729,-0.501 -1.375,-0.888 -1.937,-1.162c-0.258,-0.152 -0.387,-0.114 -0.387,0.114l0,4.467c0,0.319 -0.144,0.478 -0.433,0.478c-0.304,0 -0.456,-0.152 -0.456,-0.456l0,-6.836c0,-0.243 -0.152,-0.273 -0.456,-0.091c-0.212,0.137 -0.516,0.266 -0.911,0.387c-0.228,0.107 -0.456,0.19 -0.684,0.251Z" style="fill:#808080;fill-rule:nonzero;"/><path d="M0.32,907.805c-0.364,0.137 -0.418,0.053 -0.159,-0.251c0.592,-0.759 1.207,-1.519 1.845,-2.278c0.274,-0.335 0.555,-0.426 0.844,-0.274l1.458,0.775c0.304,0.167 0.304,0.327 0,0.479c-1.215,0.531 -2.545,1.048 -3.988,1.549Zm1.618,-4.33c-0.289,0 -0.433,-0.152 -0.433,-0.455l0,-8.364c0,-0.303 0.144,-0.455 0.433,-0.455c0.304,0 0.456,0.152 0.456,0.455l0,2.439c0,0.258 0.121,0.387 0.364,0.387l16.841,0c0.532,0.091 0.987,0.312 1.367,0.661c0.228,0.197 0.456,0.38 0.684,0.547c0.045,0.045 0.076,0.121 0.091,0.228c0.015,0.136 0.038,0.273 0.068,0.41c0.061,0.304 0.046,0.494 -0.045,0.57c-0.289,0.319 -0.35,0.668 -0.182,1.048c0.015,0.258 0.038,0.524 0.068,0.798c0.03,0.303 -0.038,0.455 -0.205,0.455c-0.167,0 -0.312,-0.152 -0.433,-0.455c-0.243,-0.73 -0.517,-1.337 -0.821,-1.824c-0.167,-0.212 -0.41,-0.41 -0.729,-0.592c-0.076,-0.03 -0.235,-0.046 -0.478,-0.046l-16.226,0c-0.243,0 -0.364,0.122 -0.364,0.365l0,3.35c0,0.319 -0.152,0.478 -0.456,0.478Zm4.398,3.464c-0.304,0 -0.456,-0.152 -0.456,-0.456l0,-0.706c0,-0.304 0.152,-0.456 0.456,-0.456l11.007,0c0.258,0 0.304,-0.152 0.137,-0.456c-0.593,-1.033 -1.36,-2.134 -2.302,-3.304c-0.243,-0.304 -0.342,-0.478 -0.296,-0.524c0.061,-0.061 0.228,0.023 0.501,0.251c2.72,2.37 4.467,4.702 5.241,6.996c0.122,0.319 0.031,0.478 -0.273,0.478c-0.425,0.076 -0.851,0.16 -1.276,0.251c-0.304,0.076 -0.479,-0.038 -0.524,-0.342l-0.228,-1.344c-0.046,-0.259 -0.19,-0.388 -0.433,-0.388l-9.662,0c-0.243,0 -0.365,0.122 -0.365,0.365l0,1.891c0,0.319 -0.152,0.479 -0.456,0.479l-0.159,0c-0.304,0 -0.456,-0.152 -0.456,-0.456l0,-1.914c0,-0.243 -0.152,-0.365 -0.456,-0.365Z" style="fill:#808080;fill-rule:nonzero;"/><path d="M0.525,875.955c-0.319,0 -0.478,-0.152 -0.478,-0.456l0,-0.889c0,-0.304 0.152,-0.456 0.455,-0.456c0.578,0 1.208,0.046 1.892,0.137c1.17,0.137 2.385,0.608 3.646,1.413c0.456,0.289 0.912,0.592 1.367,0.911c0.076,0.076 0.129,0.145 0.16,0.206l0.114,0.227c0.182,0.228 0.296,0.335 0.342,0.319c0.06,-0.653 -0.054,-1.374 -0.342,-2.164c-0.076,-0.259 -0.205,-0.525 -0.388,-0.798c-0.212,-0.304 -0.296,-0.479 -0.25,-0.524c0.076,-0.076 -0.038,-0.129 -0.342,-0.16l-1.459,-0.114c-0.303,-0.03 -0.455,-0.197 -0.455,-0.501l0,-0.866c0,-0.304 0.152,-0.44 0.455,-0.41l0.433,0.068c0.243,0.031 0.342,-0.106 0.297,-0.41l-0.205,-1.139c-0.046,-0.274 -0.183,-0.411 -0.411,-0.411l-4.854,0c-0.303,0 -0.455,-0.151 -0.455,-0.455l0,-0.547c0,-0.304 0.152,-0.464 0.455,-0.479l4.444,-0.136c0.243,0 0.342,-0.13 0.296,-0.388l-0.547,-3.008c-0.06,-0.304 0.054,-0.516 0.342,-0.638c0.289,-0.106 0.464,-0.008 0.524,0.296c0.198,1.109 0.403,2.226 0.616,3.35c0.045,0.258 0.22,0.38 0.524,0.365l2.21,-0.16c0.274,-0.03 0.38,-0.182 0.319,-0.456l-0.706,-3.327c-0.061,-0.288 0.061,-0.463 0.365,-0.524c0.273,-0.045 0.448,0.084 0.524,0.388l0.752,3.577c0.045,0.213 0.197,0.312 0.455,0.297c1.398,-0.107 2.849,-0.312 4.353,-0.616c0.273,-0.06 0.251,-0.159 -0.068,-0.296c-1.109,-0.501 -2.203,-0.835 -3.282,-1.003c-0.304,-0.06 -0.456,-0.243 -0.456,-0.546l0,-0.866c0,-0.304 0.152,-0.433 0.456,-0.388c0.532,0.091 1.139,0.22 1.823,0.388c1.064,0.258 2.051,0.774 2.963,1.549c0.273,0.243 0.539,0.281 0.797,0.114c0.456,-0.258 1.102,-0.691 1.937,-1.299c0.274,-0.197 0.274,-0.319 0,-0.364c-1.701,-0.274 -3.41,-0.555 -5.127,-0.844c-0.061,0 -0.122,-0.022 -0.182,-0.068c-0.076,-0.061 0.03,-0.091 0.319,-0.091l2.689,0c0.82,0.091 1.625,0.007 2.415,-0.251c0.152,-0.076 0.304,-0.114 0.456,-0.114c0.744,0.061 1.504,0.107 2.279,0.137c0.304,0.03 0.38,0.205 0.228,0.524c-0.79,1.656 -1.983,2.94 -3.578,3.851c-0.243,0.137 -0.236,0.357 0.023,0.661c0.364,0.517 0.698,1.094 1.002,1.732c0.365,0.851 0.714,1.724 1.049,2.621c0.06,0.304 -0.023,0.304 -0.251,0l-1.846,-2.621c-0.395,-0.547 -0.828,-1.048 -1.299,-1.504c-0.228,-0.213 -0.471,-0.273 -0.729,-0.182c-1.808,0.638 -3.684,1.01 -5.629,1.116c-0.228,0.016 -0.319,0.152 -0.273,0.411c0.091,0.653 0.205,1.306 0.342,1.959c0.076,0.365 -0.031,0.585 -0.319,0.661c-0.304,0.061 -0.487,-0.053 -0.547,-0.342c-0.152,-0.759 -0.289,-1.534 -0.411,-2.324c-0.03,-0.228 -0.174,-0.334 -0.433,-0.319l-2.369,0.137c-0.244,0.015 -0.342,0.174 -0.297,0.478l0.228,1.368c0.046,0.258 0.22,0.417 0.524,0.478c0.517,0.137 1.117,0.35 1.801,0.638c1.504,0.684 2.795,1.724 3.874,3.122c0.243,0.243 0.448,0.631 0.615,1.162c-0.015,0.031 -0.175,-0.091 -0.479,-0.364c-1.23,-1.079 -2.415,-1.831 -3.555,-2.256c-0.304,-0.107 -0.607,-0.221 -0.911,-0.342c-0.471,-0.228 -0.805,-0.319 -1.003,-0.274c-0.045,0.031 0.046,0.175 0.274,0.433c1.017,1.155 1.747,2.256 2.187,3.305c0.137,0.319 0.053,0.478 -0.25,0.478c-0.35,-0.015 -0.821,0.076 -1.413,0.274c-0.319,0.182 -0.479,0.152 -0.479,-0.091c0,-0.244 -0.152,-0.471 -0.456,-0.684c-1.154,-0.76 -2.37,-1.223 -3.646,-1.39c-1.215,-0.182 -2.362,-0.281 -3.441,-0.296Zm0.137,-8.751c-0.319,0.121 -0.471,0.144 -0.456,0.068c0.031,-0.136 0.16,-0.319 0.388,-0.547l1.458,-1.823c0.228,-0.273 0.509,-0.281 0.843,-0.022l0.684,0.524c0.304,0.228 0.289,0.417 -0.046,0.569c-0.987,0.395 -1.944,0.806 -2.871,1.231Zm11.28,5.059c-0.273,-0.334 -0.357,-0.532 -0.251,-0.593c0.122,-0.045 0.35,0.076 0.684,0.365l1.595,1.345c0.198,0.167 0.319,0.311 0.365,0.432c0.592,1.11 1.101,2.249 1.527,3.419c0.136,0.349 0.068,0.562 -0.205,0.638c-0.441,0.121 -0.874,0.235 -1.299,0.342c-0.304,0.06 -0.456,-0.061 -0.456,-0.365c-0.03,-1.307 -0.258,-2.484 -0.684,-3.532c-0.273,-0.653 -0.699,-1.337 -1.276,-2.051Zm3.373,-0.479c-0.213,-0.258 -0.296,-0.44 -0.251,-0.547c0.061,-0.121 0.243,-0.076 0.547,0.137c2.552,1.838 4.277,3.98 5.173,6.426c0.137,0.35 0.061,0.525 -0.228,0.525c-0.349,-0.016 -0.957,0.098 -1.823,0.341c-0.304,0.122 -0.418,0.031 -0.342,-0.273l0.046,-0.228c-0.031,-1.261 -0.418,-2.476 -1.162,-3.646c-0.639,-0.988 -1.292,-1.899 -1.96,-2.735Z" style="fill:#808080;fill-rule:nonzero;"/></svg>