<?xml version="1.0" encoding="UTF-8" standalone="no"?><!DOCTYPE svg PUBLIC "-//W3C//DTD SVG 1.1//EN" "http://www.w3.org/Graphics/SVG/1.1/DTD/svg11.dtd"><svg width="100%" height="100%" viewBox="0 0 224 224" version="1.1" xmlns="http://www.w3.org/2000/svg" xmlns:xlink="http://www.w3.org/1999/xlink" xml:space="preserve" xmlns:serif="http://www.serif.com/" style="fill-rule:evenodd;clip-rule:evenodd;stroke-linejoin:round;stroke-miterlimit:2;"><path d="M112,4.344c-59.362,0 -107.657,48.294 -107.657,107.656c0,59.363 48.295,107.656 107.657,107.656c59.362,0 107.657,-48.293 107.657,-107.656c0,-59.362 -48.295,-107.656 -107.657,-107.656m0,219.656c-61.757,0 -112,-50.243 -112,-112c0,-61.757 50.243,-112 112,-112c61.757,0 112,50.243 112,112c0,61.757 -50.243,112 -112,112" style="fill:#c0272d;fill-rule:nonzero;"/><path d="M49.559,187.472c-0.252,0.602 -0.421,0.861 -0.507,0.776c-0.052,-0.086 -0.097,-0.282 -0.134,-0.59l-0.646,-3.492c-0.107,-0.616 0.104,-0.986 0.634,-1.11l2.053,-0.48c0.547,-0.107 0.721,0.114 0.52,0.664c-0.337,0.791 -0.976,2.202 -1.92,4.232Zm-2.988,-3.909c-0.323,0.329 -0.658,0.323 -1.003,-0.017l-9.72,-9.561c-0.346,-0.34 -0.357,-0.674 -0.034,-1.002c0.34,-0.346 0.683,-0.349 1.028,-0.009l9.694,9.536c0.363,0.357 0.375,0.708 0.035,1.053Zm2.07,-4.593c-0.357,0.363 -0.7,0.383 -1.028,0.06l-0.855,-0.841c-0.346,-0.34 -0.425,-0.605 -0.238,-0.795c0.204,-0.208 0.168,-0.447 -0.109,-0.719l-3.94,-3.876c-0.276,-0.272 -0.508,-0.313 -0.695,-0.123c-0.204,0.208 -0.479,0.141 -0.824,-0.198l-0.596,-0.587c-0.346,-0.34 -0.349,-0.683 -0.009,-1.028l5.864,-5.962c0.357,-0.362 0.708,-0.374 1.054,-0.034l0.57,0.561c0.363,0.357 0.375,0.708 0.035,1.054c-0.34,0.345 -0.372,0.654 -0.096,0.926l3.914,3.85c0.294,0.289 0.602,0.269 0.925,-0.059c0.357,-0.363 0.709,-0.375 1.054,-0.035l0.804,0.791c0.362,0.357 0.374,0.708 0.034,1.054l-5.864,5.961Zm4.727,2.661c-0.34,0.345 -0.674,0.356 -1.003,0.034l-1.036,-1.02c-0.346,-0.34 -0.323,-0.657 0.069,-0.952c1.567,-1.178 3.35,-2.213 5.348,-3.104c0.375,-0.174 0.501,-0.544 0.376,-1.108l-0.612,-2.489c-0.142,-0.616 0.026,-1.011 0.505,-1.187l1.768,-0.708c0.495,-0.193 0.668,0.011 0.519,0.612l-0.977,3.119c-0.101,0.275 -0.074,0.404 0.08,0.385l0.511,-0.467l12.544,-12.752c0.356,-0.363 0.708,-0.375 1.053,-0.035l0.596,0.587c0.363,0.357 0.375,0.708 0.035,1.054l-11.065,11.249c-0.272,0.276 -0.099,0.446 0.518,0.51c0.806,0.044 1.62,0.08 2.443,0.108c0.6,0.012 0.926,0.044 0.978,0.095c0.052,0.051 -0.213,0.13 -0.795,0.238c-2.482,0.346 -4.542,0.971 -6.18,1.876c-1.144,0.609 -2.312,1.364 -3.504,2.266c-0.289,0.259 -0.296,0.525 -0.019,0.797l2.125,2.09c0.363,0.357 0.383,0.7 0.06,1.028c-0.34,0.346 -0.682,0.349 -1.028,0.009l-2.385,-2.346c-0.276,-0.272 -0.584,-0.235 -0.924,0.111Zm-9.858,-10.717c-0.289,0.294 -0.304,0.568 -0.045,0.823l3.94,3.875c0.294,0.289 0.577,0.296 0.849,0.019l2.447,-2.488c0.289,-0.294 0.295,-0.577 0.019,-0.849l-3.94,-3.875c-0.276,-0.272 -0.551,-0.27 -0.823,0.007l-2.447,2.488Zm13.475,0.403c-0.34,0.346 -0.683,0.348 -1.028,0.009l-0.83,-0.816c-0.345,-0.34 -0.391,-0.64 -0.136,-0.899c0.272,-0.277 0.27,-0.551 -0.007,-0.823l-4.976,-4.895c-0.277,-0.272 -0.542,-0.278 -0.797,-0.019c-0.272,0.276 -0.581,0.245 -0.927,-0.095l-0.829,-0.816c-0.346,-0.34 -0.348,-0.683 -0.008,-1.028l11.779,-11.975c0.356,-0.363 0.708,-0.374 1.053,-0.035l0.804,0.791c0.363,0.357 0.374,0.708 0.034,1.054l-0.714,0.725c-0.272,0.277 -0.269,0.551 0.007,0.823l4.951,4.87c0.293,0.289 0.576,0.295 0.848,0.018l0.689,-0.699c0.357,-0.363 0.708,-0.375 1.053,-0.035l0.804,0.791c0.363,0.356 0.374,0.708 0.034,1.053l-11.804,12.001Zm-2.206,-5.638c-0.289,0.294 -0.304,0.568 -0.045,0.823l1.244,1.224c0.294,0.289 0.577,0.295 0.849,0.019l2.651,-2.696c0.289,-0.294 0.296,-0.576 0.019,-0.848l-1.244,-1.224c-0.276,-0.272 -0.551,-0.27 -0.823,0.007l-2.651,2.695Zm-3.733,-3.671c-0.289,0.294 -0.303,0.568 -0.044,0.823l1.477,1.453c0.294,0.289 0.577,0.295 0.849,0.019l2.651,-2.696c0.289,-0.294 0.296,-0.576 0.019,-0.848l-1.477,-1.454c-0.277,-0.272 -0.551,-0.269 -0.823,0.007l-2.652,2.696Zm8.195,-0.865c-0.272,0.277 -0.27,0.551 0.006,0.823l1.219,1.198c0.293,0.289 0.576,0.295 0.848,0.019l3.264,-3.318c0.289,-0.294 0.295,-0.576 0.018,-0.848l-1.244,-1.224c-0.276,-0.272 -0.551,-0.27 -0.822,0.007l-3.289,3.343Zm-3.733,-3.671c-0.272,0.276 -0.27,0.551 0.007,0.823l1.451,1.427c0.294,0.289 0.577,0.295 0.849,0.019l3.263,-3.318c0.289,-0.293 0.296,-0.576 0.019,-0.848l-1.477,-1.453c-0.277,-0.272 -0.551,-0.27 -0.823,0.006l-3.289,3.344Z" style="fill:#c5172b;fill-rule:nonzero;"/><path d="M22.403,150.79c-0.455,0.166 -0.766,0.022 -0.932,-0.434l-0.386,-1.059c-0.166,-0.455 -0.021,-0.766 0.435,-0.932l8.334,-3.038c0.365,-0.133 0.628,-0.332 0.789,-0.597l2.687,-4.307c0.351,-0.593 0.785,-0.854 1.301,-0.784l2.438,0.427c0.524,0.093 0.561,0.299 0.109,0.618l-4.644,3.395c-0.329,0.301 -0.266,0.368 0.19,0.202l10.384,-3.785c0.882,-0.27 1.826,-0.51 2.832,-0.722c2.483,-0.621 5.486,-0.168 9.009,1.36c0.715,0.332 1.056,0.595 1.023,0.788c-0.025,0.215 -0.315,0.269 -0.87,0.162c-2.212,-0.406 -4.25,-0.515 -6.116,-0.325c-1.75,0.225 -4.155,0.882 -7.214,1.972l-19.369,7.059Zm-2.39,-6.558c-0.455,0.166 -0.766,0.021 -0.932,-0.434l-0.498,-1.367c-0.166,-0.455 -0.021,-0.766 0.434,-0.932l8.608,-3.138c0.364,-0.132 0.704,-0.475 1.018,-1.028l2.274,-3.848c0.323,-0.53 0.757,-0.753 1.304,-0.668l2.277,0.408c0.578,0.099 0.681,0.345 0.308,0.739c-1.09,1.042 -1.872,1.727 -2.346,2.055c-0.648,0.417 -1.437,0.872 -2.366,1.365c0.016,0.046 0.184,0.011 0.503,-0.106l18.412,-6.71c0.478,-0.175 0.8,-0.034 0.966,0.421l0.485,1.332c0.175,0.479 0.034,0.801 -0.421,0.967l-30.026,10.944Zm-2.39,-6.559c-0.456,0.166 -0.767,0.021 -0.933,-0.434l-0.386,-1.059c-0.166,-0.455 -0.021,-0.766 0.435,-0.932l31.358,-11.43c0.478,-0.174 0.8,-0.033 0.966,0.422l0.373,1.025c0.175,0.478 0.034,0.8 -0.421,0.966l-31.392,11.442Zm13.661,13.595c-0.478,0.174 -0.796,0.045 -0.953,-0.387l-0.411,-1.128c-0.166,-0.455 -0.022,-0.766 0.434,-0.932l1.844,-0.672c1.187,-0.355 2.15,-0.616 2.889,-0.782c2.141,-0.496 4.455,-0.128 6.943,1.107c0.288,0.153 0.46,0.271 0.516,0.354c0.041,0.113 -0.222,0.171 -0.789,0.171c-0.522,-0.016 -1.056,-0.067 -1.603,-0.151c-0.746,-0.064 -1.259,-0.057 -1.541,0.02c-0.975,0.226 -1.96,0.495 -2.956,0.807l-4.373,1.593Z" style="fill:#c5172b;fill-rule:nonzero;"/><path d="M17.038,105.001c-0.435,-3.038 -1.143,-6.029 -2.123,-8.973c-0.147,-0.502 -0.027,-0.977 0.357,-1.427l1.854,-2.158c0.331,-0.406 0.507,-0.328 0.525,0.234c0.001,0.487 0.027,0.977 0.076,1.469c0.04,1.099 0.091,2.078 0.153,2.937c0.059,0.395 0.282,0.612 0.668,0.649l5.754,0.559c0.41,0.04 0.634,-0.133 0.671,-0.519l0.524,-5.392c0.047,-0.482 0.299,-0.701 0.758,-0.657c0.482,0.047 0.7,0.312 0.653,0.794l-0.517,5.32c-0.037,0.386 0.182,0.638 0.657,0.758c0.973,0.265 1.916,0.588 2.828,0.969c1.058,0.395 2.219,1.104 3.483,2.128c0.363,0.279 0.563,0.225 0.6,-0.161l0.366,-3.763c0.037,-0.386 -0.185,-0.603 -0.668,-0.65c-0.482,-0.047 -0.7,-0.311 -0.653,-0.794l0.109,-1.122c0.047,-0.482 0.311,-0.7 0.794,-0.653l14.981,1.456c0.507,0.049 0.737,0.315 0.69,0.797l-0.077,0.797c-0.05,0.506 -0.316,0.736 -0.798,0.689l-1.013,-0.098c-0.386,-0.038 -0.598,0.136 -0.636,0.522l-0.531,5.465c-0.039,0.41 0.134,0.634 0.52,0.671l0.977,0.095c0.506,0.049 0.736,0.315 0.689,0.798l-0.081,0.832c-0.049,0.506 -0.315,0.736 -0.797,0.689l-7.093,-0.689l-0.687,-0.067c-0.077,0.042 -0.118,0.086 -0.123,0.135c0.131,0.158 0.377,0.377 0.74,0.656c2.154,1.89 3.684,4.06 4.591,6.51c0.335,0.812 0.585,1.627 0.748,2.447c0.098,0.496 -0.092,0.697 -0.57,0.602l-1.248,-0.304l-1.067,0.079c-0.466,0.028 -0.625,-0.219 -0.476,-0.74c0.259,-0.413 0.221,-1.026 -0.114,-1.838c-0.107,-0.4 -0.354,-0.619 -0.74,-0.656l-15.307,-1.488c-0.386,-0.037 -0.598,0.137 -0.635,0.523l-0.236,2.425c-0.049,0.506 -0.315,0.736 -0.797,0.689l-0.29,-0.028c-0.482,-0.047 -0.7,-0.311 -0.653,-0.794l0.239,-2.461c0.037,-0.386 -0.173,-0.601 -0.632,-0.645c-0.482,-0.047 -0.7,-0.312 -0.653,-0.794l0.109,-1.122c0.047,-0.483 0.312,-0.701 0.794,-0.654l17.478,1.699c0.386,0.037 0.434,-0.202 0.143,-0.717l-1.94,-2.965c-0.298,-0.443 -0.616,-0.68 -0.954,-0.713l-5.645,-0.549c-0.482,-0.047 -0.7,-0.311 -0.653,-0.794l0.084,-0.868c0.047,-0.483 0.3,-0.702 0.758,-0.657c0.507,0.049 0.779,-0.119 0.816,-0.505c0.038,-0.386 -0.178,-0.675 -0.646,-0.867c-0.944,-0.311 -1.837,-0.519 -2.679,-0.626l-3.836,-0.372c-0.386,-0.038 -0.597,0.136 -0.635,0.522l-0.461,4.741c-0.049,0.507 -0.303,0.738 -0.761,0.693c-0.482,-0.047 -0.7,-0.312 -0.653,-0.794l0.464,-4.777c0.037,-0.386 -0.137,-0.597 -0.523,-0.635l-5.5,-0.534c-0.386,-0.038 -0.591,0.186 -0.613,0.671l-0.213,4.07c-0.047,0.483 -0.155,0.716 -0.324,0.699c-0.169,-0.016 -0.302,-0.273 -0.4,-0.769Zm-2.732,6.309c-0.516,0.048 -0.784,0.046 -0.803,-0.005c0.031,-0.07 0.287,-0.325 0.768,-0.765l2.462,-2.026c0.529,-0.435 1.024,-0.509 1.483,-0.221l1.931,1.174c0.459,0.288 0.439,0.493 -0.06,0.615c-2.05,0.556 -3.978,0.965 -5.781,1.228Zm22.093,-14.217c-0.386,-0.038 -0.597,0.136 -0.635,0.522l-0.531,5.464c-0.04,0.411 0.133,0.634 0.519,0.672l8.685,0.844c0.41,0.04 0.634,-0.133 0.672,-0.519l0.534,-5.501c0.038,-0.386 -0.137,-0.598 -0.523,-0.635l-8.721,-0.847Z" style="fill:#c5172b;fill-rule:nonzero;"/><path d="M26.934,63.291c-0.511,-0.138 -0.741,-0.248 -0.691,-0.332c0.05,-0.083 0.189,-0.197 0.418,-0.342l2.714,-1.762c0.491,-0.299 0.858,-0.205 1.103,0.282l0.566,1.104c0.22,0.387 0.43,0.414 0.63,0.082l5.003,-8.319c0.25,-0.415 0.572,-0.504 0.967,-0.267c0.436,0.262 0.529,0.601 0.279,1.017l-11.355,18.88c-0.262,0.437 -0.601,0.53 -1.017,0.28c-0.415,-0.25 -0.498,-0.582 -0.248,-0.998l5.303,-8.817c0.2,-0.333 0.011,-0.489 -0.567,-0.468c-1.342,-0.072 -2.377,-0.186 -3.105,-0.34Zm4.188,8.203c-0.415,-0.25 -0.498,-0.582 -0.248,-0.998l0.431,-0.716c0.25,-0.416 0.489,-0.555 0.717,-0.417c0.27,0.162 0.505,0.077 0.705,-0.255l4.066,-6.761c0.2,-0.332 0.175,-0.574 -0.074,-0.723c-0.249,-0.15 -0.249,-0.433 0.001,-0.848l0.431,-0.717c0.25,-0.415 0.582,-0.498 0.998,-0.248l6.667,4.01c0.437,0.262 0.53,0.601 0.28,1.016l-0.412,0.686c-0.263,0.436 -0.602,0.529 -1.017,0.279c-0.415,-0.25 -0.723,-0.208 -0.923,0.124l-4.047,6.73c-0.213,0.353 -0.122,0.648 0.273,0.885c0.436,0.263 0.529,0.602 0.28,1.017l-0.413,0.685c-0.262,0.437 -0.601,0.53 -1.016,0.28l-6.699,-4.029Zm7.685,-8.615c-0.333,-0.2 -0.599,-0.134 -0.799,0.199l-4.047,6.73c-0.213,0.353 -0.153,0.629 0.18,0.829l2.492,1.499c0.353,0.212 0.63,0.152 0.83,-0.18l4.066,-6.761c0.2,-0.332 0.134,-0.598 -0.199,-0.798l-2.523,-1.518Zm8.46,0.676c-0.332,-0.2 -0.38,-0.497 -0.142,-0.892l0.599,-0.997c0.25,-0.415 0.583,-0.498 0.998,-0.248l11.715,7.045c1.051,0.887 1.477,2.317 1.28,4.292c-0.104,0.502 -0.312,0.66 -0.624,0.473c-0.312,-0.188 -0.561,-0.055 -0.749,0.398l-0.65,1.646c-0.167,0.465 -0.358,0.689 -0.574,0.672c-0.216,-0.017 -0.278,-0.266 -0.186,-0.748c0.058,-0.474 0.15,-0.956 0.275,-1.446c0.33,-0.877 0.223,-1.875 -0.321,-2.994c-0.124,-0.216 -0.353,-0.424 -0.685,-0.624l-8.724,-5.247c-0.332,-0.199 -0.598,-0.133 -0.798,0.199l-7.795,12.961c-0.213,0.353 -0.153,0.63 0.18,0.83l11.559,6.952c0.436,0.262 0.529,0.601 0.279,1.016l-0.562,0.935c-0.262,0.436 -0.601,0.529 -1.016,0.279l-13.429,-8.076c-0.415,-0.25 -0.498,-0.582 -0.248,-0.998l0.581,-0.965c0.249,-0.416 0.489,-0.555 0.717,-0.417c0.27,0.162 0.505,0.077 0.705,-0.255l7.814,-12.993c0.2,-0.332 0.133,-0.598 -0.199,-0.798Zm-2.701,13.309c-0.436,-0.262 -0.53,-0.601 -0.28,-1.016l0.431,-0.717c0.25,-0.415 0.531,-0.529 0.842,-0.342c0.353,0.212 0.63,0.152 0.83,-0.18l1.668,-2.773c0.199,-0.332 0.133,-0.598 -0.199,-0.798c-0.332,-0.2 -0.374,-0.508 -0.124,-0.923l0.581,-0.966c0.25,-0.415 0.582,-0.498 0.998,-0.248l6.418,3.86c0.436,0.262 0.53,0.601 0.28,1.016l-0.562,0.935c-0.263,0.436 -0.602,0.53 -1.017,0.28c-0.416,-0.25 -0.723,-0.209 -0.923,0.123l-1.649,2.742c-0.212,0.353 -0.121,0.649 0.273,0.886c0.437,0.262 0.53,0.601 0.28,1.016l-0.431,0.717c-0.25,0.416 -0.583,0.498 -0.998,0.248l-6.418,-3.86Zm5.504,-4.496c-0.332,-0.2 -0.598,-0.133 -0.798,0.199l-1.649,2.742c-0.213,0.353 -0.153,0.629 0.18,0.829l1.994,1.2c0.353,0.212 0.629,0.152 0.829,-0.18l1.668,-2.773c0.2,-0.333 0.133,-0.599 -0.199,-0.799l-2.025,-1.218Z" style="fill:#c5172b;fill-rule:nonzero;"/><path d="M55.402,32.627c-0.267,-0.404 -0.198,-0.74 0.206,-1.007l1.214,-0.802c0.404,-0.267 0.74,-0.198 1.007,0.206l1.984,3.004c0.227,0.344 0.502,0.409 0.826,0.195l3.003,-1.983c0.405,-0.268 0.734,-0.209 0.988,0.175c0.267,0.405 0.198,0.741 -0.206,1.008l-2.974,1.963c-0.343,0.227 -0.408,0.503 -0.195,0.826l2.244,3.398c0.227,0.344 0.503,0.409 0.826,0.195l1.426,-0.941c0.324,-0.214 0.443,-0.583 0.358,-1.108c-0.191,-1.036 -0.391,-2.066 -0.602,-3.088c-0.137,-0.955 -0.62,-2.611 -1.45,-4.968c-0.146,-0.484 -0.017,-0.86 0.388,-1.127l1.638,-1.082c0.404,-0.268 0.68,-0.159 0.825,0.326c0.89,2.578 1.54,5.344 1.951,8.297c0.072,0.417 0.27,0.519 0.593,0.305l4.43,-2.925c0.404,-0.267 0.734,-0.208 0.987,0.176c0.267,0.404 0.199,0.74 -0.206,1.007l-5.43,3.587c-0.324,0.213 -0.524,0.636 -0.601,1.268c-0.261,1.276 -0.495,2.549 -0.702,3.818c-0.029,0.484 0.118,0.619 0.442,0.406l7.342,-4.849c0.404,-0.267 0.707,-0.249 0.907,0.054c0.214,0.324 0.118,0.619 -0.286,0.886l-7.099,4.689c-0.324,0.214 -0.413,0.563 -0.267,1.047l0.128,0.787c0.085,0.525 -0.094,1.442 -0.537,2.751c-0.177,0.611 -0.104,0.81 0.22,0.596l5.096,-3.366c0.324,-0.214 0.359,-0.513 0.105,-0.897c-0.267,-0.405 -0.198,-0.74 0.206,-1.008l1.214,-0.801c0.404,-0.267 0.74,-0.198 1.007,0.206l4.809,7.281c0.267,0.405 0.407,0.748 0.419,1.031c0.075,1.17 -0.118,2.46 -0.582,3.869c-0.15,0.564 -0.34,0.937 -0.569,1.117l-0.507,0.553c-0.392,0.462 -0.598,0.656 -0.618,0.582c-0.106,-0.162 -0.271,-0.257 -0.492,-0.285c-0.545,0.011 -1.003,0.198 -1.374,0.559c-0.513,0.367 -1.042,0.732 -1.588,1.092c-0.425,0.281 -0.691,0.34 -0.798,0.178c-0.12,-0.182 0.006,-0.454 0.377,-0.815c0.669,-0.703 1.321,-1.453 1.956,-2.25c0.77,-0.857 1.275,-1.743 1.514,-2.656c0.144,-0.53 0.115,-0.947 -0.085,-1.251l-3.386,-5.127c-0.214,-0.323 -0.483,-0.378 -0.806,-0.165l-5.127,3.386c-0.324,0.214 -0.54,0.459 -0.649,0.734c-0.143,0.355 -0.341,0.341 -0.595,-0.043c-0.487,-0.695 -0.786,-1.63 -0.895,-2.807l-0.369,-1.02c-0.173,-0.351 -0.368,-0.251 -0.586,0.3c-1.116,3.148 -2.44,6.201 -3.972,9.159c-0.258,0.489 -0.494,0.747 -0.71,0.773c-0.248,0.019 -0.274,-0.24 -0.077,-0.777c0.837,-2.208 1.606,-4.561 2.31,-7.059c0.519,-1.853 1.224,-4.919 2.117,-9.197c0.11,-0.537 0.003,-0.699 -0.321,-0.485l-10.011,6.611c-0.425,0.281 -0.764,0.229 -1.018,-0.155c-0.267,-0.405 -0.199,-0.741 0.206,-1.008l5.946,-3.927c0.324,-0.213 0.379,-0.482 0.165,-0.806l-2.264,-3.428c-0.214,-0.324 -0.482,-0.378 -0.806,-0.165l-3.974,2.625c-0.425,0.28 -0.764,0.229 -1.018,-0.156c-0.267,-0.404 -0.198,-0.74 0.206,-1.007l4.005,-2.645c0.323,-0.214 0.378,-0.482 0.165,-0.806l-2.004,-3.034Z" style="fill:#c5172b;fill-rule:nonzero;"/><path d="M106.871,13.638c-0.066,-0.48 0.141,-0.753 0.622,-0.819l1.152,-0.159c0.48,-0.066 0.754,0.141 0.82,0.621l1.596,11.598c0.018,0.487 -0.048,0.985 -0.198,1.495c-0.176,0.856 -0.755,1.719 -1.736,2.588c-0.437,0.378 -0.904,0.369 -1.399,-0.028c-0.461,-0.156 -1.05,-0.076 -1.764,0.243c-0.471,0.138 -0.765,0.13 -0.885,-0.025c-0.146,-0.176 -0.006,-0.403 0.42,-0.682c1.117,-0.594 1.997,-1.314 2.639,-2.161c0.315,-0.557 0.4,-1.095 0.255,-1.613l-1.09,-7.924c-0.053,-0.384 -0.272,-0.55 -0.656,-0.497l-3.134,0.431c-0.384,0.053 -0.567,0.323 -0.549,0.81c0.2,1.807 0.272,3.754 0.217,5.842c0.005,1.1 -0.127,2.097 -0.396,2.99c-0.598,1.697 -1.794,3.587 -3.587,5.668c-0.359,0.417 -0.611,0.537 -0.758,0.362c-0.119,-0.155 -0.04,-0.472 0.236,-0.95c1.159,-2.068 1.796,-4.113 1.909,-6.135c0.088,-2.557 0.01,-5.078 -0.234,-7.565c-0.053,-0.384 -0.271,-0.55 -0.655,-0.497l-2.089,0.288c-0.505,0.069 -0.788,-0.124 -0.851,-0.58c-0.066,-0.481 0.141,-0.754 0.621,-0.82l9.077,-1.249c0.384,-0.053 0.55,-0.271 0.497,-0.656l-0.08,-0.576Zm-15.246,2.282c-0.07,-0.504 0.124,-0.788 0.58,-0.851l1.188,-0.163c0.481,-0.066 0.754,0.141 0.82,0.621l0.927,6.735c0.056,0.408 0.276,0.586 0.66,0.533l2.125,-0.292c0.481,-0.066 0.752,0.129 0.815,0.585c0.066,0.48 -0.141,0.753 -0.621,0.819l-2.089,0.288c-0.409,0.056 -0.586,0.276 -0.533,0.661l0.629,4.574c0.056,0.408 0.298,0.387 0.725,-0.063c0.401,-0.471 0.763,-0.949 1.088,-1.434c0.342,-0.537 0.62,-0.734 0.836,-0.593c0.194,0.169 0.12,0.522 -0.222,1.058l-1.685,2.691c-0.283,0.431 -0.398,0.838 -0.345,1.222l1.695,12.318c0.186,0.464 0.037,1.341 -0.446,2.631c-0.282,0.968 -0.895,1.762 -1.837,2.381c-0.492,0.337 -0.799,0.416 -0.922,0.237c-0.228,-0.238 -0.485,-0.325 -0.77,-0.261l-1.586,0.475c-0.473,0.114 -0.728,0.039 -0.765,-0.225c-0.036,-0.264 0.176,-0.501 0.636,-0.711l1.372,-0.703c1.195,-0.556 1.808,-1.435 1.838,-2.638l-1.447,-10.518c-0.053,-0.384 -0.301,-0.411 -0.745,-0.081c-0.761,0.692 -1.525,1.36 -2.293,2.004c-0.479,0.433 -0.763,0.411 -0.853,-0.066c-0.245,-1.067 -0.479,-2.148 -0.704,-3.243c0.018,-0.051 0.257,-0.182 0.717,-0.392l2.825,-1.343c0.385,-0.224 0.553,-0.516 0.503,-0.877l-0.838,-6.087c-0.052,-0.384 -0.271,-0.549 -0.655,-0.497l-2.99,0.412c-0.504,0.069 -0.787,-0.124 -0.85,-0.58c-0.066,-0.481 0.141,-0.754 0.621,-0.82l3.026,-0.416c0.384,-0.053 0.549,-0.272 0.496,-0.656l-0.926,-6.735Zm8.758,16.704c-0.07,-0.504 0.124,-0.788 0.58,-0.85l1.152,-0.159c0.481,-0.066 0.745,0.081 0.795,0.441c0.056,0.408 0.276,0.586 0.661,0.533l5.222,-0.719c0.384,-0.052 0.55,-0.271 0.497,-0.655c-0.053,-0.384 0.161,-0.609 0.641,-0.676l1.153,-0.158c0.48,-0.066 0.753,0.141 0.819,0.621l2.171,15.776c0.07,0.504 -0.136,0.789 -0.616,0.855l-1.117,0.154c-0.504,0.069 -0.789,-0.136 -0.855,-0.616l-0.179,-1.297c-0.052,-0.384 -0.271,-0.55 -0.655,-0.497l-5.187,0.714c-0.408,0.056 -0.586,0.276 -0.533,0.66l0.174,1.261c0.069,0.504 -0.136,0.789 -0.617,0.855l-1.08,0.149c-0.504,0.07 -0.789,-0.136 -0.856,-0.616l-2.17,-15.776Zm9.259,1.148c-0.053,-0.384 -0.271,-0.55 -0.656,-0.497l-5.186,0.714c-0.408,0.056 -0.586,0.276 -0.533,0.66l1.308,9.509c0.057,0.408 0.277,0.586 0.661,0.533l5.223,-0.719c0.384,-0.052 0.549,-0.271 0.497,-0.655l-1.314,-9.545Z" style="fill:#c5172b;fill-rule:nonzero;"/><path d="M135.613,16.56c0.123,-0.469 0.346,-0.449 0.667,0.06l1.013,1.618c0.337,0.539 0.259,0.985 -0.234,1.337c-0.547,0.36 -0.635,0.599 -0.265,0.717l2.911,0.923c0.462,0.147 0.623,0.439 0.484,0.878c-0.147,0.462 -0.451,0.62 -0.913,0.474l-9.08,-2.881c-0.485,-0.154 -0.658,-0.45 -0.519,-0.889c0.147,-0.462 0.451,-0.62 0.913,-0.474l4.263,1.353c0.37,0.117 0.551,-0.092 0.543,-0.629c-0.158,-0.864 -0.086,-1.693 0.217,-2.487Zm13.687,5.068c0.589,-0.093 1.055,0.042 1.397,0.405c0.49,0.46 0.961,0.94 1.413,1.439c0.381,0.401 0.288,0.613 -0.278,0.637c-2.047,0.037 -4.243,-0.253 -6.59,-0.87c-0.462,-0.147 -0.694,-0.258 -0.695,-0.335c0.029,-0.092 0.373,-0.212 1.03,-0.36c1.237,-0.294 2.478,-0.599 3.723,-0.916Zm-7.174,-0.713c0.154,-0.485 0.451,-0.658 0.89,-0.518l1.109,0.351c0.462,0.147 0.62,0.451 0.473,0.913l-2.243,7.07c-0.125,0.393 -0.002,0.648 0.368,0.765l6.792,2.155c0.462,0.147 0.623,0.439 0.484,0.878c-0.146,0.462 -0.451,0.62 -0.913,0.474l-1.767,-0.561c-0.393,-0.125 -0.648,-0.002 -0.765,0.367l-6.63,20.897c-0.154,0.486 -0.462,0.655 -0.924,0.508l-0.762,-0.242c-0.486,-0.154 -0.655,-0.462 -0.508,-0.924l6.64,-20.931c0.118,-0.37 -0.008,-0.613 -0.378,-0.731l-1.629,-0.516c-0.37,-0.118 -0.662,0.044 -0.878,0.484c-0.481,1.195 -0.939,2.397 -1.374,3.607l-1.132,3.57c-0.617,1.864 -1.251,3.582 -1.903,5.156l-0.786,1.276c-0.713,1.045 -1.415,2.094 -2.105,3.147c-0.135,0.185 -0.507,0.436 -1.115,0.752l-3.242,1.68c-0.608,0.315 -0.959,0.458 -1.051,0.429c-0.07,-0.022 0.107,-0.259 0.53,-0.709c0.778,-0.771 1.568,-1.537 2.37,-2.3c0.423,-0.374 0.813,-0.759 1.167,-1.155c0.205,-0.164 0.347,-0.373 0.428,-0.627c0.409,-0.888 0.841,-1.768 1.295,-2.641c0.255,-0.402 0.452,-0.861 0.59,-1.377l1.348,-3.768l0.784,-2.23l4.837,-15.249Zm-5.345,1.699c0.316,-0.433 0.645,-0.469 0.988,-0.106l0.479,0.534c0.358,0.393 0.318,0.8 -0.12,1.22l-3.165,3.001c-0.363,0.343 -0.371,0.569 -0.024,0.679l2.668,0.847c0.462,0.146 0.624,0.439 0.484,0.878c-0.146,0.462 -0.451,0.62 -0.913,0.473l-2.599,-0.825c-0.393,-0.124 -0.648,-0.002 -0.765,0.368l-0.967,3.05c-0.125,0.392 -0.003,0.647 0.367,0.765l2.357,0.747c0.462,0.147 0.623,0.44 0.484,0.879c-0.147,0.462 -0.451,0.619 -0.913,0.473l-2.322,-0.737c-0.393,-0.124 -0.648,-0.002 -0.765,0.368l-3.507,11.055c-0.118,0.852 -0.775,1.559 -1.97,2.121l-1.382,0.63c-0.122,0.063 -0.256,0.084 -0.402,0.063l-0.553,-0.061c-0.498,-0.031 -0.776,-0.157 -0.833,-0.379c-0.159,-0.381 -0.442,-0.572 -0.848,-0.574l-1.247,-0.396c-0.462,-0.146 -0.714,-0.315 -0.755,-0.506c-0.057,-0.222 0.164,-0.317 0.663,-0.286c1.342,0.096 2.312,0.085 2.908,-0.031c1.167,-0.392 1.868,-0.996 2.101,-1.812l3.364,-10.605c0.118,-0.369 -0.008,-0.613 -0.378,-0.73l-3.154,-1.001c-0.485,-0.154 -0.658,-0.45 -0.519,-0.889c0.147,-0.462 0.451,-0.62 0.913,-0.473l3.189,1.011c0.369,0.118 0.613,-0.009 0.73,-0.378l0.979,-3.085c0.117,-0.369 -0.009,-0.613 -0.379,-0.73l-3.985,-1.264c-0.485,-0.154 -0.658,-0.451 -0.519,-0.89c0.146,-0.462 0.451,-0.619 0.913,-0.473l5.683,1.803c0.37,0.117 0.697,-0.033 0.983,-0.451l2.731,-4.283Zm-5.443,-1.116c0.1,-0.477 0.266,-0.437 0.496,0.119c0.301,0.655 0.583,1.329 0.846,2.023c0.223,0.579 0.108,1.102 -0.345,1.569l-0.874,0.829c-0.4,0.381 -0.589,0.296 -0.567,-0.256c0.046,-1.588 0.194,-3.016 0.444,-4.284Zm1.315,15.331c0.145,-0.056 0.194,0.15 0.147,0.619c-0.1,1.519 0.135,2.98 0.708,4.382c0.27,0.67 0.293,1.199 0.069,1.586c-0.449,0.773 -0.817,1.533 -1.105,2.281c-0.199,0.547 -0.399,0.535 -0.599,-0.037c-0.336,-0.946 -0.504,-2.017 -0.506,-3.213c0.084,-1.549 0.379,-3.16 0.884,-4.83c0.146,-0.462 0.28,-0.725 0.402,-0.788Zm-7.678,-0.567c0.201,-0.47 0.52,-0.636 0.959,-0.497l0.832,0.264c0.462,0.147 0.597,0.444 0.404,0.891c-1.159,2.531 -2.104,4.266 -2.834,5.204c-0.406,0.558 -1.156,1.159 -2.25,1.804c-0.761,0.394 -1.234,0.562 -1.419,0.503c-0.184,-0.059 -0.111,-0.29 0.22,-0.693c1.288,-1.575 2.302,-3.288 3.042,-5.138l1.046,-2.338Z" style="fill:#c5172b;fill-rule:nonzero;"/><path d="M172.125,34.071c0.345,-0.474 0.561,-0.42 0.648,0.16l0.688,4.84c0.087,0.615 -0.185,0.957 -0.817,1.028l-2.101,0.27c-0.718,0.091 -0.981,-0.107 -0.79,-0.593c1.017,-2.637 1.807,-4.539 2.372,-5.705Zm8.158,7.724c0.349,-0.371 0.691,-0.399 1.026,-0.083l0.848,0.797c0.353,0.332 0.363,0.675 0.031,1.028l-11.184,11.89c-0.593,0.807 -1.333,2.107 -2.222,3.901c-1.337,2.801 -1.691,6.079 -1.062,9.832c0.124,0.682 -0.06,1.108 -0.552,1.277c-0.713,0.262 -1.643,1.251 -2.79,2.966c-0.28,0.403 -0.454,0.305 -0.524,-0.293c-0.297,-2.974 -0.016,-5.589 0.84,-7.844c0.811,-2.1 1.804,-4.094 2.981,-5.982c0.245,-0.401 0.148,-0.476 -0.29,-0.222c-1.627,1.164 -3.389,2.136 -5.286,2.914c-1.136,0.429 -2.45,0.641 -3.942,0.635c-2.4,0.005 -4.867,-0.203 -7.4,-0.623c-0.379,-0.057 -0.631,-0.143 -0.754,-0.259c-0.142,-0.133 0.13,-0.227 0.814,-0.283c2.14,-0.116 4.116,-0.271 5.927,-0.464c3.018,-0.555 5.491,-1.557 7.419,-3.005c2.525,-2.083 5.017,-4.414 7.476,-6.993l8.644,-9.189Zm-13.269,-0.752c0.266,-0.282 0.566,-0.266 0.902,0.05l1.059,0.996c0.353,0.332 0.364,0.675 0.032,1.028l-12.63,13.427c-0.282,0.3 -0.147,0.51 0.405,0.63c0.811,0.164 2.29,0.308 4.437,0.43c0.636,0.032 0.955,0.1 0.958,0.203c0.004,0.137 -0.292,0.257 -0.889,0.361c-2.649,0.304 -4.874,0.424 -6.676,0.359c-1.907,-0.096 -3.752,-0.434 -5.536,-1.014c-0.588,-0.188 -0.756,-0.346 -0.503,-0.473c0.27,-0.146 0.438,-0.271 0.503,-0.376c0.375,-0.646 0.723,-1.316 1.045,-2.012c0.31,-0.507 0.675,-0.63 1.094,-0.368l1.549,1.007c0.366,0.212 0.674,0.185 0.923,-0.08l11.558,-12.288c0.266,-0.282 0.258,-0.556 -0.025,-0.822l-1.986,-1.868c-0.371,-0.349 -0.398,-0.691 -0.083,-1.026c0.332,-0.354 0.675,-0.364 1.028,-0.032l2.013,1.893c0.282,0.266 0.556,0.258 0.822,-0.025Z" style="fill:#c5172b;fill-rule:nonzero;"/><path d="M200.26,68.033c0.179,0.06 0.129,0.366 -0.15,0.917l-1.718,3.598c-0.284,0.605 -0.7,0.872 -1.249,0.799l-2.401,-0.351c-0.525,-0.08 -0.553,-0.317 -0.081,-0.709c1.755,-1.57 3.341,-2.839 4.758,-3.809c0.498,-0.324 0.778,-0.472 0.841,-0.445Zm0.093,7.34c0.452,-0.176 0.766,-0.039 0.942,0.413l4.323,11.075c0.176,0.452 0.049,0.761 -0.38,0.929c-0.451,0.176 -0.765,0.038 -0.941,-0.413l-1.203,-3.082c-0.15,-0.384 -0.406,-0.506 -0.767,-0.365l-10.262,4.006c-0.384,0.149 -0.506,0.405 -0.365,0.766l1.217,3.116c0.176,0.452 0.049,0.761 -0.38,0.929c-0.474,0.185 -0.799,0.051 -0.975,-0.4l-1.203,-3.082c-0.15,-0.384 -0.405,-0.506 -0.767,-0.365l-12.464,4.865c-0.383,0.15 -0.505,0.405 -0.364,0.766l1.322,3.387c0.176,0.452 0.095,0.744 -0.244,0.876c-0.361,0.141 -0.63,-0.014 -0.806,-0.466l-5.049,-12.938c-0.185,-0.474 -0.109,-0.777 0.23,-0.909c0.361,-0.141 0.63,0.014 0.806,0.465l0.582,1.491c0.141,0.361 0.392,0.471 0.753,0.33l19.103,-7.455c0.451,-0.176 0.765,-0.039 0.941,0.413l0.304,0.779c0.177,0.452 0.039,0.765 -0.413,0.942l-19.068,7.442c-0.384,0.15 -0.505,0.405 -0.364,0.766l0.647,1.66c0.141,0.361 0.392,0.471 0.754,0.33l25.232,-9.847c0.362,-0.141 0.472,-0.393 0.331,-0.754l-1.838,-4.708c-0.185,-0.474 -0.063,-0.795 0.366,-0.962Zm-9.159,-2.67c0.451,-0.176 0.765,-0.038 0.941,0.413l0.423,1.084c0.177,0.452 0.039,0.766 -0.413,0.942l-15.275,5.961c-0.384,0.15 -0.363,0.402 0.061,0.757c0.837,0.61 1.609,1.089 2.318,1.437c0.502,0.221 0.68,0.411 0.535,0.572c-0.145,0.161 -0.472,0.158 -0.979,-0.008c-3.964,-1.289 -7.194,-3.034 -9.692,-5.233c-0.393,-0.341 -0.354,-0.642 0.116,-0.904l2.205,-1.251c0.425,-0.244 0.771,-0.157 1.037,0.259l1.225,2.137c0.217,0.357 0.495,0.47 0.834,0.338l13.852,-5.407c0.362,-0.141 0.472,-0.392 0.331,-0.753l-0.992,-2.54c-0.185,-0.474 -0.063,-0.795 0.366,-0.963c0.452,-0.176 0.766,-0.038 0.942,0.413l1.005,2.575c0.141,0.361 0.392,0.471 0.753,0.33l0.407,-0.159Z" style="fill:#c5172b;fill-rule:nonzero;"/><path d="M96.187,183.394c0.602,0.059 1.194,0.138 1.777,0.238c0.583,0.1 1.289,0.23 2.118,0.39l-0.023,0.666c-0.056,0.008 -0.201,0.051 -0.435,0.129c-0.234,0.078 -0.584,0.224 -1.05,0.439c-0.465,0.215 -1.023,0.507 -1.674,0.875c-0.963,0.544 -1.921,1.141 -2.873,1.789c-1.026,0.689 -2.022,1.379 -2.986,2.07c-0.536,1.876 -1.197,3.66 -1.983,5.351l0.04,0.104c2.357,-1.781 4.117,-3.248 5.28,-4.402c0.22,-0.209 0.383,-0.408 0.489,-0.595c0.106,-0.187 0.203,-0.384 0.292,-0.591c0.013,-0.02 0.04,-0.074 0.08,-0.163c0.04,-0.09 0.083,-0.147 0.129,-0.173c0.064,-0.037 0.328,-0.014 0.793,0.069c0.464,0.082 0.933,0.174 1.407,0.274c0.475,0.101 0.784,0.171 0.928,0.211l0.033,0.508c-0.13,0.049 -0.408,0.173 -0.834,0.372c-0.426,0.198 -0.836,0.409 -1.231,0.632c-0.247,0.14 -0.423,0.246 -0.528,0.317c-1.884,1.248 -3.975,2.878 -6.273,4.892c0.413,0.88 0.771,1.609 1.074,2.188c0.81,-0.579 1.527,-1.13 2.151,-1.652c0.624,-0.523 1.502,-1.304 2.633,-2.343c0.131,-0.11 0.253,-0.216 0.366,-0.316c0.112,-0.1 0.216,-0.195 0.311,-0.284c0.238,-0.22 0.421,-0.469 0.549,-0.747c0.127,-0.277 0.247,-0.594 0.361,-0.949c0.09,-0.268 0.154,-0.413 0.19,-0.434c0.05,-0.04 0.323,-0.001 0.82,0.117c0.497,0.119 0.976,0.265 1.438,0.44c0.461,0.174 0.734,0.335 0.817,0.481c0.036,0.065 0.041,0.132 0.014,0.201c-0.027,0.07 -0.085,0.166 -0.173,0.289c-0.145,0.215 -0.262,0.429 -0.353,0.644c-0.09,0.215 -0.137,0.48 -0.139,0.796c-0.006,0.632 0.024,1.381 0.09,2.245c0.065,0.865 0.155,1.912 0.27,3.142l0.107,1.247c0.03,0.503 -0.053,1.031 -0.248,1.584c-0.196,0.552 -0.473,0.929 -0.83,1.132c-0.303,0.171 -0.582,0.202 -0.838,0.092c-0.255,-0.109 -0.565,-0.315 -0.93,-0.617c-0.228,-0.21 -0.412,-0.354 -0.553,-0.432c-1.015,-0.66 -2.499,-1.146 -4.454,-1.456l0.134,-0.566c0.236,0.012 0.745,0.023 1.526,0.035c0.782,0.012 1.554,0.008 2.317,-0.012c0.763,-0.02 1.199,-0.073 1.308,-0.159c0.09,-0.075 0.148,-0.423 0.173,-1.042c0.025,-0.619 0.016,-1.325 -0.027,-2.118c-0.043,-0.792 -0.114,-1.457 -0.212,-1.995c-0.01,-0.103 -0.043,-0.205 -0.1,-0.306c-0.057,-0.101 -0.13,-0.165 -0.219,-0.194c-0.089,-0.028 -0.181,-0.009 -0.277,0.057c-0.785,0.516 -1.444,0.986 -1.979,1.41c-0.535,0.424 -1.426,1.182 -2.672,2.274l-1.571,1.361c-0.629,0.537 -1.093,1.011 -1.392,1.422c-0.3,0.412 -0.461,0.63 -0.483,0.655c-0.088,0.037 -0.55,-0.04 -1.385,-0.233c-0.931,-0.212 -1.557,-0.324 -1.878,-0.336l-0.002,-0.453c0.005,0.01 0.189,-0.061 0.552,-0.212c0.362,-0.151 0.814,-0.379 1.355,-0.685c0.394,-0.223 0.954,-0.57 1.68,-1.041c-0.181,-0.406 -0.38,-0.832 -0.596,-1.278c-0.216,-0.447 -0.427,-0.842 -0.634,-1.185c-0.912,1.702 -1.908,3.297 -2.985,4.784c-1.077,1.486 -2.5,3.341 -4.268,5.564l-0.498,0.627l-0.634,-0.35c3.136,-4.17 5.613,-8.155 7.433,-11.956c-0.551,-0.632 -1.057,-1.066 -1.517,-1.302l0.22,-0.542c0.699,0.21 1.341,0.361 1.926,0.453c0.455,-1.056 0.88,-2.156 1.275,-3.298c-3.01,2.21 -5.314,4.064 -6.911,5.561c-0.374,0.345 -0.702,0.669 -0.984,0.974c-0.281,0.304 -0.496,0.55 -0.645,0.737c-0.148,0.187 -0.238,0.307 -0.268,0.36l-3.632,-0.196l-0.057,-0.549c0.005,0.009 0.174,-0.056 0.507,-0.196c0.332,-0.139 0.737,-0.344 1.213,-0.614c0.459,-0.259 0.921,-0.545 1.386,-0.856c1.98,-1.314 4.292,-2.949 6.937,-4.905c-0.478,-1.145 -0.931,-2.16 -1.358,-3.043c-1.482,1.189 -2.508,2.102 -3.079,2.74c-0.218,0.256 -0.407,0.517 -0.565,0.782c-0.159,0.265 -0.247,0.403 -0.266,0.414c-0.064,0.036 -0.6,-0.009 -1.609,-0.134c-1.009,-0.125 -1.696,-0.211 -2.062,-0.259l-0.08,-0.463c0.005,0.01 0.239,-0.086 0.7,-0.287c0.461,-0.2 0.972,-0.459 1.531,-0.775c0.376,-0.213 0.776,-0.457 1.201,-0.734c1.428,-0.941 2.638,-1.776 3.628,-2.506c-0.282,-0.542 -0.496,-0.942 -0.641,-1.198c-0.41,-0.725 -0.827,-1.296 -1.252,-1.716c-0.425,-0.419 -0.806,-0.724 -1.143,-0.914c-0.338,-0.19 -0.494,-0.263 -0.468,-0.217l0.173,-0.624c0.203,-0.006 0.628,-0.019 1.276,-0.041c0.647,-0.021 1.284,-0.024 1.909,-0.009c0.626,0.015 0.97,0.066 1.031,0.152c0.035,0.041 0.049,0.103 0.041,0.186c-0.008,0.083 -0.021,0.172 -0.039,0.267c-0.058,0.263 -0.088,0.509 -0.09,0.741c-0.002,0.231 0.05,0.516 0.157,0.855c0.102,0.329 0.285,0.782 0.551,1.358l0.305,-0.263c0.665,-0.558 1.143,-1.022 1.435,-1.393c0.293,-0.371 0.523,-0.719 0.69,-1.044c0.013,-0.019 0.038,-0.066 0.074,-0.141c0.036,-0.075 0.077,-0.126 0.123,-0.152c0.046,-0.026 0.214,-0.018 0.504,0.024c0.29,0.042 0.616,0.105 0.979,0.191l-0.051,-0.571c-0.066,-0.567 -0.237,-1.094 -0.512,-1.58c-0.119,-0.211 -0.244,-0.394 -0.375,-0.55c-0.131,-0.156 -0.24,-0.276 -0.33,-0.358c-0.089,-0.083 -0.146,-0.136 -0.17,-0.158l0.413,-0.488c0.197,0.07 0.62,0.218 1.268,0.444c0.649,0.227 1.278,0.457 1.89,0.693c0.611,0.235 0.942,0.387 0.992,0.455c0.026,0.046 0.021,0.112 -0.014,0.199c-0.036,0.086 -0.108,0.215 -0.218,0.386c-0.175,0.268 -0.318,0.528 -0.43,0.779c-0.112,0.251 -0.189,0.521 -0.231,0.811c-0.217,1.563 -0.477,2.987 -0.779,4.271l0.686,-0.551c1.052,-0.837 1.87,-1.557 2.455,-2.16c0.584,-0.603 0.982,-1.061 1.192,-1.374c0.211,-0.313 0.308,-0.483 0.293,-0.51Zm-9.622,4.299c0.222,0.479 0.43,0.906 0.624,1.281c0.194,0.374 0.357,0.7 0.489,0.976c0.104,0.183 0.229,0.427 0.377,0.73l1.41,-1.069c0.39,-1.492 0.614,-2.926 0.671,-4.301l-0.517,0.274c-0.348,0.197 -0.775,0.469 -1.281,0.815c-0.118,0.091 -0.218,0.16 -0.301,0.207l-1.472,1.087Z" style="fill:#c0272d;fill-rule:nonzero;"/><path d="M127.886,176.173c0.735,1.278 1.39,2.302 1.965,3.073c0.575,0.77 1.04,1.32 1.397,1.651c0.356,0.331 0.706,0.617 1.049,0.859c0.024,0.022 0.09,0.07 0.198,0.142c0.107,0.072 0.187,0.154 0.239,0.246c0.15,0.266 0.252,0.568 0.305,0.908c0.052,0.339 0.039,0.652 -0.041,0.939c-0.079,0.287 -0.225,0.491 -0.435,0.61c-0.422,0.238 -1.135,0.336 -2.14,0.293c-1.004,-0.043 -2.23,-0.396 -3.677,-1.06c-1.447,-0.664 -2.964,-1.758 -4.551,-3.28c-1.776,-1.706 -3.576,-3.871 -5.399,-6.495c-0.886,0.743 -1.865,1.654 -2.938,2.733c-0.341,0.338 -0.606,0.624 -0.794,0.858c-0.189,0.234 -0.368,0.489 -0.537,0.767c-0.057,0.092 -0.131,0.164 -0.223,0.216c-0.11,0.063 -0.253,0.077 -0.429,0.043c-0.334,-0.077 -0.694,-0.14 -1.078,-0.188c-0.385,-0.049 -0.714,-0.081 -0.989,-0.095c-0.274,-0.014 -0.449,-0.024 -0.525,-0.03l0.074,-0.64c0.078,-0.032 0.266,-0.112 0.564,-0.238c0.298,-0.126 0.621,-0.287 0.969,-0.485c0.294,-0.165 0.584,-0.348 0.871,-0.546c1.687,-1.233 3.125,-2.392 4.315,-3.476c-0.496,-0.748 -0.841,-1.273 -1.036,-1.574l-1.026,-1.526c-0.336,-0.487 -0.736,-0.915 -1.198,-1.283c-0.462,-0.368 -0.898,-0.668 -1.309,-0.902c-0.411,-0.234 -0.608,-0.337 -0.592,-0.309l0.127,-0.545c0.19,0.014 0.601,0.051 1.234,0.111c0.632,0.059 1.255,0.133 1.868,0.222c0.613,0.089 0.967,0.174 1.06,0.254c0.055,0.054 0.084,0.158 0.087,0.314c0.015,0.282 0.078,0.613 0.189,0.991c0.111,0.379 0.351,0.894 0.719,1.545c0.208,0.367 0.543,0.915 1.005,1.647c0.099,-0.081 0.234,-0.206 0.405,-0.375c0.413,-0.403 0.718,-0.742 0.914,-1.016c0.196,-0.274 0.369,-0.557 0.519,-0.847c0.059,-0.131 0.109,-0.219 0.149,-0.266c0.04,-0.047 0.093,-0.077 0.158,-0.09c0.654,0.066 1.2,0.138 1.639,0.217c0.438,0.079 0.752,0.149 0.944,0.21c0.192,0.061 0.312,0.102 0.36,0.123l-0.032,0.745c-0.006,-0.01 -0.173,0.058 -0.503,0.202c-0.33,0.144 -0.719,0.344 -1.169,0.598c-0.458,0.259 -0.92,0.545 -1.385,0.856c-0.406,0.266 -0.805,0.546 -1.195,0.84c0.87,1.238 1.773,2.412 2.71,3.522c0.936,1.11 1.807,2.025 2.613,2.743c1.295,1.155 2.406,1.97 3.334,2.443c0.927,0.474 1.642,0.721 2.143,0.74c0.5,0.019 0.879,-0.044 1.136,-0.189c0.22,-0.125 0.146,-0.603 -0.222,-1.436c-0.368,-0.832 -1.024,-2.168 -1.967,-4.006l-0.268,-0.539l0.399,-0.225Zm-21.087,1.49c-0.096,0.151 -0.213,0.265 -0.35,0.343c-0.11,0.062 -0.218,0.096 -0.324,0.102c-0.106,0.005 -0.161,0.003 -0.166,-0.006c-0.379,-0.476 -0.754,-0.905 -1.128,-1.287c-0.373,-0.381 -0.885,-0.8 -1.536,-1.255c-0.65,-0.455 -1.444,-0.901 -2.382,-1.339l0.245,-0.465c0.233,0.026 0.738,0.091 1.517,0.195c0.779,0.104 1.57,0.234 2.373,0.391c0.803,0.157 1.305,0.318 1.507,0.482c0.049,0.044 0.087,0.09 0.113,0.136c0.104,0.183 0.188,0.456 0.254,0.818c0.066,0.362 0.091,0.723 0.077,1.082c-0.015,0.359 -0.081,0.627 -0.2,0.803Zm11.717,-10.64c-0.456,-0.166 -0.913,-0.304 -1.369,-0.415c-0.456,-0.111 -0.832,-0.192 -1.127,-0.243c-0.295,-0.051 -0.483,-0.084 -0.564,-0.098l0.052,-0.519c0.529,-0.07 1.359,-0.207 2.49,-0.411c0.52,-0.088 0.897,-0.147 1.134,-0.178c0.237,-0.031 0.455,-0.031 0.655,0.002c0.18,0.019 0.4,0.257 0.659,0.716c0.233,0.412 0.425,0.864 0.575,1.354c0.15,0.49 0.182,0.765 0.095,0.826c-0.049,0.04 -0.144,0.033 -0.284,-0.021c-0.139,-0.054 -0.376,-0.162 -0.71,-0.324c-0.576,-0.291 -1.111,-0.521 -1.606,-0.689Zm-4.645,17.749c-0.189,1.571 -0.29,3.108 -0.305,4.612c-0.015,1.503 0.006,2.792 0.063,3.867c0.058,1.075 0.097,1.63 0.117,1.667l-0.346,0.414c-0.093,-0.057 -0.319,-0.174 -0.68,-0.351c-0.36,-0.177 -0.817,-0.375 -1.371,-0.595c-0.554,-0.219 -1.113,-0.399 -1.676,-0.54l0.025,-0.468c0.608,-0.574 1.215,-1.565 1.822,-2.973l-4.294,-8.554c-0.602,0.498 -1.117,1.004 -1.546,1.519c-0.429,0.515 -0.761,0.966 -0.996,1.353c-0.235,0.387 -0.347,0.589 -0.337,0.608l-2.937,-0.572l0.073,-0.513c0.069,-0.027 0.229,-0.102 0.48,-0.226c0.251,-0.124 0.532,-0.274 0.844,-0.45c0.367,-0.207 0.991,-0.718 1.874,-1.532c0.883,-0.814 1.481,-1.394 1.793,-1.741c0.171,-0.169 0.365,-0.436 0.582,-0.801c0.166,-0.263 0.285,-0.415 0.359,-0.457c0.064,-0.036 0.238,-0.023 0.522,0.041c0.284,0.063 0.566,0.139 0.846,0.229c0.281,0.089 0.464,0.146 0.55,0.17l-0.297,1.112c-0.033,0.176 -0.048,0.348 -0.044,0.515c0.004,0.167 0.053,0.345 0.148,0.534l3.193,6.544c0.399,-1.242 0.709,-2.416 0.931,-3.522l0.607,0.11Zm5.245,-0.098c0.483,-0.794 0.946,-1.564 1.389,-2.311c0.442,-0.747 0.724,-1.227 0.846,-1.441l0.525,0.32c-0.449,0.981 -1.042,2.318 -1.779,4.011c-0.736,1.694 -1.206,2.81 -1.41,3.348c-0.133,0.342 -0.273,0.844 -0.418,1.508c-0.096,0.429 -0.167,0.657 -0.213,0.683c-0.064,0.036 -0.595,0.049 -1.593,0.039c-0.998,-0.01 -1.682,-0.02 -2.05,-0.03l-0.135,-0.559c0.752,-0.425 1.341,-0.855 1.767,-1.29c0.426,-0.434 0.815,-0.896 1.167,-1.386c0.29,-0.406 0.558,-0.8 0.803,-1.18c-0.266,-0.77 -0.687,-1.663 -1.263,-2.681c-0.684,-1.21 -1.259,-2.023 -1.723,-2.438l-0.382,0.416c-0.188,0.203 -0.358,0.417 -0.509,0.642c-0.151,0.224 -0.267,0.411 -0.346,0.559c-0.08,0.148 -0.13,0.246 -0.151,0.294l-2.233,-0.353l-0.125,-0.51c0.06,-0.022 0.197,-0.078 0.412,-0.169c0.215,-0.092 0.46,-0.215 0.735,-0.371c0.376,-0.212 0.706,-0.43 0.992,-0.652c0.467,-0.373 0.883,-0.723 1.248,-1.051c0.366,-0.327 0.743,-0.704 1.131,-1.13c0.277,-0.301 0.495,-0.579 0.654,-0.833c0.16,-0.253 0.267,-0.459 0.323,-0.617c0.055,-0.159 0.08,-0.243 0.075,-0.252l1.983,0.457l0.055,0.514c-0.018,0.011 -0.062,0.029 -0.132,0.056c-0.069,0.028 -0.159,0.072 -0.269,0.134c-0.412,0.234 -0.874,0.562 -1.386,0.984c-0.525,0.419 -0.952,0.787 -1.28,1.106c0.84,0.009 1.29,0.141 1.35,0.398c0.043,0.181 0.197,0.545 0.463,1.09c0.266,0.546 0.573,1.126 0.92,1.74c0.244,0.431 0.43,0.749 0.559,0.955Z" style="fill:#c0272d;fill-rule:nonzero;"/><path d="M148.022,155.796c0.974,0.224 1.812,0.427 2.515,0.611c0.703,0.183 1.14,0.299 1.313,0.346l-0.09,0.741c-0.01,-0.018 -0.2,0.02 -0.571,0.114c-0.37,0.094 -0.916,0.295 -1.639,0.6c-0.722,0.306 -1.611,0.757 -2.665,1.354c-0.523,0.295 -0.928,0.531 -1.216,0.706c-2.036,1.236 -4.268,2.747 -6.695,4.531c0.241,1.111 0.527,2.28 0.859,3.508c2.143,-1.539 3.522,-2.597 4.139,-3.176c0.548,-0.528 0.932,-0.963 1.15,-1.304c0.218,-0.342 0.379,-0.657 0.482,-0.945c0.048,-0.172 0.109,-0.279 0.182,-0.32c0.147,-0.083 0.459,-0.094 0.936,-0.031c0.477,0.063 0.939,0.162 1.384,0.297c0.446,0.136 0.705,0.267 0.778,0.396c0.072,0.128 0.097,0.235 0.073,0.321c-0.024,0.087 -0.1,0.22 -0.227,0.401c-0.324,0.413 -0.58,0.879 -0.771,1.398c-0.309,0.78 -0.75,2.942 -1.323,6.485c1.628,-0.437 2.529,-0.631 2.701,-0.584c0.129,0.036 0.448,0.355 0.958,0.956c0.51,0.601 0.891,1.127 1.146,1.576c0.228,0.403 0.278,0.641 0.149,0.714c-0.055,0.031 -0.149,0.042 -0.281,0.032c-0.133,-0.01 -0.342,-0.043 -0.628,-0.099c-0.809,-0.147 -1.682,-0.262 -2.618,-0.343c-0.935,-0.082 -2.226,-0.09 -3.871,-0.025c-1.645,0.065 -3.577,0.266 -5.796,0.601l-0.086,-0.569c0.912,-0.249 1.703,-0.467 2.372,-0.652c0.67,-0.185 1.231,-0.339 1.682,-0.461l2.673,-0.731c0.18,-1.264 0.331,-2.623 0.452,-4.078c0.122,-1.454 0.126,-2.174 0.014,-2.158c-0.047,0.002 -0.126,0.034 -0.236,0.097c-0.394,0.223 -1.111,0.737 -2.15,1.542c-1.039,0.806 -2.089,1.661 -3.152,2.564c-0.262,0.221 -0.508,0.454 -0.738,0.699c-0.231,0.246 -0.416,0.453 -0.556,0.623c-0.14,0.17 -0.227,0.277 -0.263,0.321c-0.076,-0.005 -0.257,-0.027 -0.544,-0.064c-0.288,-0.037 -0.649,-0.093 -1.085,-0.167c-0.435,-0.075 -0.87,-0.164 -1.305,-0.269l0.014,-0.426c0.351,-0.15 0.792,-0.375 1.324,-0.676c0.504,-0.285 0.996,-0.582 1.476,-0.889l-0.131,-0.616c-0.299,-1.32 -0.519,-2.266 -0.662,-2.839c-1.552,1.193 -2.795,2.205 -3.729,3.035c-0.347,0.306 -0.669,0.621 -0.963,0.945c-0.295,0.324 -0.531,0.597 -0.708,0.818c-0.178,0.221 -0.286,0.361 -0.326,0.42l-3.809,-0.477l-0.031,-0.6c0.065,-0.013 0.21,-0.056 0.435,-0.129c0.226,-0.072 0.527,-0.192 0.906,-0.357c0.378,-0.166 0.787,-0.373 1.227,-0.622c0.376,-0.213 0.66,-0.385 0.851,-0.518c1.224,-0.789 3.159,-2.107 5.805,-3.955c-0.325,-1.28 -0.668,-2.485 -1.027,-3.612c-1.128,0.916 -1.938,1.592 -2.43,2.027c-0.56,0.487 -1.038,0.93 -1.435,1.33c-0.397,0.4 -0.593,0.604 -0.588,0.614c-0.543,-0.105 -1.148,-0.201 -1.815,-0.29c-0.668,-0.088 -1.103,-0.141 -1.307,-0.159l-0.026,-0.657c0.06,-0.022 0.209,-0.079 0.447,-0.171c0.238,-0.093 0.552,-0.228 0.942,-0.406c0.389,-0.178 0.804,-0.391 1.244,-0.64c0.339,-0.192 0.694,-0.411 1.063,-0.656c0.899,-0.593 2.048,-1.419 3.447,-2.476l-0.602,-1.802c-0.262,-0.784 -0.517,-1.395 -0.766,-1.836c-0.244,-0.43 -0.502,-0.763 -0.773,-0.997c-0.271,-0.233 -0.593,-0.433 -0.965,-0.598l0.171,-0.532c0.218,0.022 0.685,0.076 1.399,0.162c0.714,0.086 1.415,0.192 2.103,0.317c0.688,0.125 1.064,0.243 1.126,0.353c0.036,0.064 0.023,0.18 -0.039,0.348c-0.065,0.206 -0.111,0.42 -0.137,0.641c-0.026,0.22 -0.005,0.499 0.064,0.835l0.291,1.669l1.827,-1.488c0.687,-0.582 1.224,-1.088 1.61,-1.518c0.386,-0.43 0.653,-0.766 0.801,-1.007c0.148,-0.241 0.216,-0.371 0.206,-0.389c0.073,-0.042 0.368,-0.018 0.885,0.071c0.516,0.089 1.039,0.19 1.568,0.302c0.529,0.112 0.873,0.19 1.031,0.234l0.013,0.664c-0.056,0.008 -0.184,0.044 -0.384,0.108c-0.199,0.065 -0.488,0.18 -0.867,0.345c-0.378,0.166 -0.815,0.389 -1.31,0.669c-0.366,0.207 -0.776,0.457 -1.228,0.749c-0.985,0.654 -2.267,1.597 -3.846,2.829c0.315,1.541 0.59,2.85 0.824,3.927l5.363,-3.741c1.006,-0.703 1.806,-1.343 2.399,-1.92c0.593,-0.578 1.01,-1.044 1.252,-1.398c0.241,-0.355 0.354,-0.545 0.338,-0.573Z" style="fill:#c0272d;fill-rule:nonzero;"/><path d="M170.095,139.099c1.191,2.255 2.318,4.322 3.381,6.201c1.006,1.779 1.966,3.39 2.88,4.834c0.929,1.471 1.766,2.771 2.513,3.897c0.322,0.484 0.537,0.822 0.646,1.015c0.073,0.128 0.078,0.464 0.016,1.007c-0.062,0.543 -0.149,1.083 -0.263,1.62c-0.115,0.536 -0.199,0.82 -0.254,0.851c-0.138,0.078 -0.335,0.156 -0.593,0.236c-0.258,0.079 -0.414,0.08 -0.47,0.002c-0.312,-0.38 -0.64,-0.709 -0.985,-0.986c-0.344,-0.277 -0.867,-0.559 -1.568,-0.846c-0.701,-0.288 -1.638,-0.559 -2.812,-0.815l0.153,-0.468c0.166,0.015 0.527,0.032 1.082,0.051c0.555,0.019 1.109,0.029 1.661,0.032c0.552,0.002 0.878,-0.025 0.979,-0.082c0.321,-0.182 0.182,-0.866 -0.416,-2.052c-0.515,-1.016 -1.117,-2.134 -1.806,-3.353c-0.934,-1.651 -1.948,-3.389 -3.041,-5.215c-1.094,-1.826 -1.728,-2.883 -1.903,-3.172c-0.866,-1.446 -1.313,-2.192 -1.339,-2.238c-0.269,-0.476 -0.622,-0.597 -1.058,-0.363c-1.51,0.818 -3.555,2.241 -6.136,4.269c0.095,-0.004 0.362,-0.023 0.804,-0.055c0.883,-0.087 1.373,-0.002 1.471,0.257c0.043,0.097 0.094,0.274 0.154,0.53c0.241,0.917 0.571,1.801 0.992,2.652c0.635,-0.504 1.04,-0.836 1.216,-0.996c0.471,-0.387 0.803,-0.72 0.996,-0.999c0.193,-0.279 0.327,-0.512 0.403,-0.7c0.075,-0.188 0.126,-0.289 0.154,-0.305c0.055,-0.031 0.273,0.006 0.653,0.112c0.38,0.105 0.764,0.227 1.151,0.365c0.387,0.138 0.64,0.228 0.76,0.269l-0.161,0.454c-0.005,-0.009 -0.172,0.049 -0.5,0.174c-0.329,0.126 -0.681,0.295 -1.057,0.507c-0.33,0.187 -0.636,0.384 -0.918,0.592c-0.618,0.447 -1.314,1.004 -2.086,1.671c0.949,1.677 1.67,2.964 2.164,3.858l1.605,-1.271c0.48,-0.392 0.826,-0.727 1.038,-1.005c0.212,-0.277 0.362,-0.51 0.449,-0.698c0.087,-0.189 0.149,-0.293 0.186,-0.314c0.064,-0.036 0.282,-0.009 0.655,0.083c0.373,0.092 0.752,0.195 1.137,0.31c0.386,0.115 0.636,0.188 0.751,0.22l-0.188,0.469c-0.006,-0.009 -0.141,0.04 -0.407,0.148c-0.265,0.108 -0.563,0.256 -0.893,0.442c-0.404,0.229 -0.776,0.469 -1.117,0.723c-1.009,0.74 -1.876,1.4 -2.601,1.98l3.769,6.726c0.098,0.175 0.169,0.434 0.213,0.778c0.044,0.345 0.052,0.67 0.025,0.976c-0.027,0.305 -0.081,0.481 -0.164,0.528c-0.046,0.026 -0.263,-0.075 -0.652,-0.303c-0.389,-0.227 -0.776,-0.489 -1.162,-0.786c-0.385,-0.296 -0.63,-0.536 -0.734,-0.719c-0.046,-0.083 -0.106,-0.231 -0.178,-0.444c-0.772,-1.899 -1.615,-3.764 -2.529,-5.595c-0.331,0.272 -0.606,0.513 -0.827,0.722c-0.292,0.274 -0.608,0.593 -0.948,0.954c-0.112,0.124 -0.221,0.237 -0.326,0.339c-0.106,0.102 -0.209,0.182 -0.31,0.239c-0.092,0.051 -0.199,0.076 -0.322,0.073c-0.122,-0.003 -0.303,-0.023 -0.54,-0.058c-0.596,-0.111 -1.169,-0.161 -1.72,-0.152l-0.01,-0.467c0.171,-0.06 0.43,-0.176 0.775,-0.347c0.345,-0.171 0.664,-0.339 0.957,-0.505c0.266,-0.151 0.433,-0.251 0.501,-0.302c0.265,-0.174 0.81,-0.591 1.634,-1.251l0.545,-0.417c-0.519,-1.025 -1.201,-2.304 -2.043,-3.837c-0.203,0.176 -0.426,0.381 -0.669,0.615c-0.27,0.25 -0.562,0.547 -0.874,0.894c-0.032,0.03 -0.109,0.113 -0.232,0.249c-0.122,0.136 -0.252,0.242 -0.39,0.32c-0.092,0.052 -0.194,0.074 -0.308,0.066c-0.114,-0.009 -0.285,-0.033 -0.513,-0.073c-0.61,-0.115 -1.165,-0.176 -1.665,-0.184l-0.024,-0.459c0.381,-0.118 0.837,-0.328 1.369,-0.629l0.295,-0.185c0.255,-0.168 1.033,-0.772 2.334,-1.81c-0.379,-0.669 -0.674,-1.18 -0.885,-1.533c-0.377,-0.645 -0.731,-1.153 -1.062,-1.523c-0.33,-0.37 -0.61,-0.641 -0.841,-0.813c-1.694,1.37 -2.999,2.507 -3.915,3.413c0.138,0.478 0.269,0.828 0.394,1.048c0.249,0.44 0.773,1.42 1.572,2.941c0.8,1.52 1.557,3.013 2.271,4.479c0.714,1.466 1.119,2.432 1.213,2.899c0.201,0.975 0.212,2.231 0.034,3.766c-0.179,1.535 -0.609,3.282 -1.292,5.242l-0.46,-0.012c0.227,-1.267 0.338,-2.681 0.331,-4.245c-0.007,-1.563 -0.157,-2.891 -0.448,-3.985c-0.328,-1.243 -0.818,-2.527 -1.471,-3.852c-0.653,-1.325 -1.538,-2.985 -2.654,-4.979l-0.801,-1.417c-0.411,-0.748 -0.929,-1.407 -1.555,-1.979c-0.626,-0.572 -1.236,-1.041 -1.831,-1.407c-0.594,-0.365 -0.878,-0.525 -0.852,-0.479l0.48,-0.435c0.295,0.051 0.911,0.165 1.847,0.344c0.936,0.178 1.667,0.337 2.193,0.475l0.859,-0.632c3.803,-2.732 6.771,-4.974 8.903,-6.724c0.362,-0.302 0.632,-0.648 0.81,-1.039c0.178,-0.392 0.33,-0.829 0.457,-1.311c0.03,-0.139 0.062,-0.26 0.094,-0.363c0.033,-0.103 0.067,-0.165 0.104,-0.185c0.083,-0.047 0.405,-0.039 0.967,0.024c0.562,0.064 1.11,0.15 1.644,0.259c0.534,0.11 0.824,0.206 0.871,0.288c0.031,0.055 0.02,0.207 -0.033,0.455c-0.075,0.381 -0.105,0.761 -0.09,1.14c0.014,0.379 0.145,0.808 0.391,1.286Z" style="fill:#c0272d;fill-rule:nonzero;"/><path d="M183.078,137.654c-0.5,0.464 -0.964,1.035 -1.391,1.713c-0.203,0.284 -0.327,0.439 -0.373,0.465c-0.082,0.046 -0.636,0.003 -1.662,-0.131c-1.026,-0.134 -1.724,-0.229 -2.095,-0.285l0.013,-0.588c0.065,-0.013 0.218,-0.058 0.46,-0.134c0.241,-0.076 0.561,-0.196 0.958,-0.36c0.397,-0.164 0.816,-0.371 1.256,-0.62c0.156,-0.088 0.412,-0.245 0.768,-0.471c1.155,-0.762 2.99,-2.096 5.505,-4.003l-0.322,-0.217c-0.498,-0.324 -0.824,-0.526 -0.98,-0.608c-0.687,-0.338 -1.336,-0.576 -1.947,-0.714l-0.359,0.294c-0.979,0.796 -1.896,1.72 -2.752,2.773c-0.537,-0.156 -1.005,-0.284 -1.407,-0.384c-0.401,-0.1 -0.678,-0.167 -0.831,-0.202c-0.147,-0.025 -0.381,-0.074 -0.701,-0.148l-0.005,-0.523c0.074,-0.018 0.259,-0.077 0.553,-0.177c0.294,-0.1 0.671,-0.252 1.13,-0.458c0.459,-0.205 0.931,-0.456 1.415,-0.755c1.508,-0.95 3.453,-2.304 5.835,-4.063c-0.294,-0.475 -0.636,-0.941 -1.027,-1.398c-0.251,-0.293 -0.518,-0.514 -0.802,-0.663c-0.283,-0.148 -0.541,-0.244 -0.772,-0.289c-0.231,-0.045 -0.341,-0.058 -0.331,-0.04l0.099,-0.564c0.135,-0.04 0.64,-0.141 1.516,-0.304c0.876,-0.163 1.473,-0.273 1.791,-0.332l0.224,0.364c-0.085,0.556 0.08,1.34 0.495,2.352c1.776,-1.332 3.047,-2.317 3.811,-2.955c0.624,-0.523 1.056,-0.942 1.294,-1.258c0.239,-0.317 0.413,-0.603 0.522,-0.859c0.017,-0.033 0.042,-0.081 0.074,-0.141c0.033,-0.061 0.072,-0.104 0.118,-0.13c0.091,-0.052 0.37,-0.013 0.837,0.116c0.466,0.13 0.934,0.277 1.402,0.441c0.469,0.165 0.773,0.274 0.912,0.329l0.029,0.564c-0.404,0.12 -0.843,0.275 -1.317,0.464c-0.474,0.189 -1.082,0.494 -1.825,0.914c-0.504,0.285 -0.898,0.52 -1.181,0.704c-0.429,0.268 -1.082,0.697 -1.957,1.289c1.108,-0.094 1.704,-0.068 1.787,0.079c0.04,0.049 0.049,0.114 0.027,0.193c-0.022,0.079 -0.067,0.186 -0.135,0.322c-0.111,0.232 -0.195,0.479 -0.252,0.741c-0.104,0.567 -0.306,1.214 -0.609,1.942l1.927,-1.472c1.145,-0.865 1.982,-1.589 2.511,-2.173c0.529,-0.584 0.955,-1.124 1.279,-1.622c0.117,-0.199 0.207,-0.317 0.272,-0.353c0.11,-0.063 0.41,-0.03 0.9,0.098c0.49,0.129 0.978,0.276 1.466,0.442c0.487,0.166 0.805,0.274 0.954,0.323l-0.023,0.666c-0.005,-0.009 -0.126,0.023 -0.363,0.096c-0.237,0.074 -0.575,0.208 -1.016,0.402c-0.44,0.195 -0.972,0.469 -1.596,0.822c-0.871,0.492 -1.755,1.047 -2.653,1.664c-2.095,1.451 -4.252,3.025 -6.469,4.721c-2.217,1.696 -3.88,3.063 -4.987,4.101Zm3.244,-6.973c0.106,0.037 0.219,0.161 0.338,0.372c0.119,0.211 0.227,0.477 0.324,0.797c0.096,0.321 0.161,0.617 0.194,0.889l0.497,-0.372c0.546,-0.405 1.256,-0.947 2.132,-1.623c0.041,-1.04 -0.031,-1.938 -0.216,-2.692c-0.023,-0.084 -0.045,-0.144 -0.066,-0.181c-0.088,-0.156 -0.27,-0.307 -0.547,-0.453c-1.512,1.049 -3.075,2.212 -4.689,3.488c1.039,-0.261 1.716,-0.336 2.033,-0.225Zm17.092,5.055c0.949,0.116 1.767,0.235 2.452,0.355c0.685,0.121 1.116,0.198 1.292,0.231l-0.106,0.678c-0.006,-0.009 -0.158,0.037 -0.457,0.14c-0.299,0.103 -0.726,0.284 -1.281,0.543c-0.555,0.26 -1.222,0.61 -2.001,1.051c-0.706,0.399 -1.411,0.822 -2.115,1.268c-1.403,0.879 -2.943,1.901 -4.619,3.067c0.483,0.853 0.803,1.398 0.961,1.635c0.154,0.228 0.448,0.63 0.883,1.207c0.125,0.135 0.213,0.248 0.265,0.34c0.052,0.092 0.08,0.312 0.083,0.661c0.004,0.349 -0.023,0.682 -0.079,0.998c-0.057,0.317 -0.141,0.506 -0.251,0.568c-0.11,0.063 -0.343,0.031 -0.698,-0.095c-0.356,-0.125 -0.708,-0.289 -1.058,-0.49c-0.35,-0.202 -0.561,-0.367 -0.634,-0.495c-0.026,-0.046 -0.096,-0.266 -0.211,-0.661c-0.149,-0.521 -0.284,-0.962 -0.404,-1.324c-0.12,-0.362 -0.277,-0.748 -0.473,-1.157l-0.015,-0.028c-2.531,1.795 -4.494,3.299 -5.89,4.511c-0.352,0.297 -0.681,0.604 -0.986,0.921c-0.304,0.318 -0.548,0.583 -0.73,0.795c-0.183,0.212 -0.294,0.347 -0.333,0.406l-3.769,-0.373l0.034,-0.582c0.074,-0.018 0.248,-0.074 0.522,-0.168c0.273,-0.095 0.634,-0.238 1.081,-0.431c0.448,-0.192 0.92,-0.429 1.415,-0.709c0.284,-0.161 0.497,-0.287 0.638,-0.379c1.257,-0.796 3.739,-2.515 7.448,-5.158l-0.165,-0.324c-0.388,-0.772 -0.715,-1.392 -0.979,-1.86c-0.664,0.496 -1.66,1.26 -2.989,2.29c0.109,0.471 0.183,0.934 0.223,1.389c0.04,0.456 0.007,0.708 -0.099,0.756c-0.11,0.062 -0.331,0.008 -0.663,-0.161c-0.332,-0.169 -0.66,-0.374 -0.983,-0.615c-0.324,-0.24 -0.514,-0.411 -0.571,-0.512c-0.008,-0.056 -0.036,-0.191 -0.085,-0.406c-0.048,-0.214 -0.125,-0.483 -0.228,-0.805c-0.104,-0.323 -0.237,-0.638 -0.399,-0.946c-0.2,-0.395 -0.377,-0.731 -0.533,-1.006c-0.368,-0.651 -0.765,-1.225 -1.192,-1.722c-0.331,-0.393 -0.656,-0.705 -0.974,-0.937c-0.319,-0.231 -0.593,-0.394 -0.822,-0.488c-0.228,-0.095 -0.338,-0.133 -0.327,-0.115l0.264,-0.494l1.973,0.246c1.057,-0.72 2.354,-1.68 3.889,-2.881c1.535,-1.201 2.659,-2.125 3.371,-2.77c0.51,-0.445 0.861,-0.825 1.053,-1.139c0.191,-0.315 0.315,-0.566 0.371,-0.755c0.057,-0.19 0.099,-0.292 0.126,-0.308c0.129,-0.072 0.403,-0.073 0.824,-0.003c0.421,0.071 0.834,0.173 1.237,0.308c0.403,0.135 0.643,0.272 0.721,0.409c0.016,0.028 -0.002,0.189 -0.053,0.484c-0.051,0.295 -0.01,0.865 0.123,1.71c0.133,0.844 0.425,1.986 0.876,3.425c0.318,0.05 0.665,0.117 1.04,0.202c0.374,0.084 0.616,0.138 0.726,0.161l0.144,0.608c-0.005,-0.009 -0.137,0.008 -0.397,0.052c-0.259,0.044 -0.57,0.132 -0.931,0.263c-0.361,0.132 -0.734,0.319 -1.117,0.56c-1.015,0.646 -2.038,1.34 -3.071,2.082l1.188,2.196c1.033,-0.742 2.178,-1.552 3.435,-2.433c1.01,-0.717 1.815,-1.353 2.414,-1.91c0.598,-0.557 1.021,-1.002 1.269,-1.335c0.247,-0.333 0.362,-0.514 0.347,-0.541Zm-8.894,-3.175c-0.453,0.269 -1.524,1.029 -3.212,2.28c-1.688,1.252 -3.122,2.386 -4.301,3.404l1.042,1.426c0.559,-0.425 1.647,-1.283 3.265,-2.573l0.285,-0.234c0.48,-0.392 0.835,-0.727 1.066,-1.003c0.232,-0.276 0.416,-0.537 0.555,-0.785c0.081,-0.155 0.159,-0.254 0.232,-0.295c0.07,-0.027 0.271,-0.002 0.605,0.075c0.335,0.077 0.668,0.164 1.001,0.26c0.333,0.096 0.549,0.158 0.65,0.186l0.003,0.488c-0.005,-0.009 -0.149,0.046 -0.433,0.164c-0.284,0.118 -0.614,0.284 -0.99,0.496c-0.358,0.203 -0.642,0.375 -0.851,0.518c-1.004,0.665 -2.566,1.893 -4.687,3.686c0.091,0.118 0.155,0.209 0.191,0.273l0.702,0.983c2.61,-1.803 4.729,-3.395 6.357,-4.776c-0.073,0.065 0.187,-0.16 0.779,-0.677c-0.256,-0.751 -0.527,-1.514 -0.815,-2.289c-0.287,-0.776 -0.472,-1.237 -0.555,-1.383c-0.119,-0.211 -0.245,-0.331 -0.376,-0.36c-0.131,-0.028 -0.302,0.017 -0.513,0.136Z" style="fill:#c0272d;fill-rule:nonzero;"/><path d="M89.447,79.907l19.634,16.319l21.587,-13.63l-9.453,23.716l19.634,16.319l-25.476,-1.661l-9.453,23.715l-6.292,-24.743l-25.476,-1.662l21.587,-13.63l-6.292,-24.743Z" style="fill:#c0272d;fill-rule:nonzero;"/></svg>