<?xml version="1.0" encoding="UTF-8" standalone="no"?><!DOCTYPE svg PUBLIC "-//W3C//DTD SVG 1.1//EN" "http://www.w3.org/Graphics/SVG/1.1/DTD/svg11.dtd"><svg width="100%" height="100%" viewBox="0 0 192 70" version="1.1" xmlns="http://www.w3.org/2000/svg" xmlns:xlink="http://www.w3.org/1999/xlink" xml:space="preserve" xmlns:serif="http://www.serif.com/" style="fill-rule:evenodd;clip-rule:evenodd;stroke-linejoin:round;stroke-miterlimit:2;"><path d="M4.931,2.531c-0.282,-0.937 -0.328,-1.406 -0.141,-1.406c0.188,0 0.68,0.422 1.477,1.266c2.25,2.343 4.476,4.711 6.679,7.101c0.703,0.75 0.821,1.594 0.352,2.531l-1.899,3.797c-0.468,0.938 -0.914,0.938 -1.336,0c-1.875,-4.265 -3.585,-8.695 -5.132,-13.289Zm23.203,0c0,-0.937 0.469,-1.406 1.406,-1.406l1.617,0c0.938,0 1.406,0.469 1.406,1.406l0,8.086c0,0.797 0.375,1.195 1.125,1.195l5.977,0c0.938,0 1.406,0.446 1.406,1.336c0,0.938 -0.468,1.407 -1.406,1.407l-5.906,0c-0.797,0 -1.196,0.375 -1.196,1.125l0,9.492c0,0.797 0.375,1.195 1.125,1.195l10.969,0c0.938,0 1.406,0.445 1.406,1.336c0,0.984 -0.468,1.477 -1.406,1.477l-8.086,0c-0.797,0 -1.195,0.375 -1.195,1.125l0,21.375c0,0.75 0.211,1.312 0.633,1.687c0.375,0.422 0.937,0.633 1.687,0.633l1.125,0c0.75,0.187 1.5,-0.023 2.25,-0.633c0.797,-0.328 1.266,-0.961 1.407,-1.898c0.375,-2.297 0.96,-6.211 1.757,-11.742c0.141,-0.985 0.282,-1.477 0.422,-1.477c0.188,0 0.281,0.469 0.281,1.406l0,3.094c-0.234,1.031 -0.117,2.484 0.352,4.359c0.188,0.469 0.445,0.914 0.773,1.336c0.375,0.282 0.563,0.891 0.563,1.828c0.047,2.813 -0.492,5.344 -1.617,7.594l-3.164,0.563l-7.032,0c-1.453,-0.375 -2.601,-1.102 -3.445,-2.18c-0.281,-0.516 -0.422,-1.219 -0.422,-2.109l0,-23.836c0,-0.75 -0.375,-1.125 -1.125,-1.125l-1.054,0c-0.797,0 -1.196,0.375 -1.196,1.125c0.141,2.812 -0.023,5.625 -0.492,8.437c-0.328,3.797 -1.781,7.547 -4.359,11.25c-1.36,2.016 -3.235,4.36 -5.625,7.031c-0.891,0.938 -1.594,1.407 -2.11,1.407c-0.562,0 -0.562,-0.469 0,-1.407c2.203,-3.515 4.032,-7.265 5.485,-11.25c1.453,-4.968 2.133,-10.125 2.039,-15.468c0,-0.75 -0.375,-1.125 -1.125,-1.125l-5.836,0c-0.985,0 -1.477,-0.469 -1.477,-1.407c0,-0.937 0.469,-1.406 1.407,-1.406l11.531,0c0.75,0 1.125,-0.375 1.125,-1.125l0,-9.562c0,-0.75 -0.375,-1.125 -1.125,-1.125l-3.305,0c-0.75,0 -1.359,0.468 -1.828,1.406c-0.75,1.734 -2.18,4.078 -4.289,7.031c-0.844,1.125 -1.547,1.688 -2.109,1.688c-0.516,0 -0.563,-0.469 -0.141,-1.407c1.875,-3.75 2.859,-7.5 2.953,-11.25c0.234,-2.296 0.328,-4.336 0.281,-6.117c0,-0.937 0.469,-1.406 1.407,-1.406l2.179,0c0.938,0 1.383,0.469 1.336,1.406l-0.351,4.641c0,0.844 0.328,1.265 0.984,1.265l2.883,0c0.75,0 1.125,-0.375 1.125,-1.125l0,-8.156Zm-20.25,19.688c0,-0.938 0.469,-1.407 1.406,-1.407l2.18,0c0.937,0 1.406,0.469 1.406,1.407l0,33.468c0.516,2.391 1.664,4.196 3.445,5.415c1.828,0.609 3.586,0.96 5.274,1.054c1.172,0 2.437,0.071 3.797,0.211l4.007,0c6,-0.187 12,-0.351 18,-0.492c0.141,0.094 0.188,0.187 0.141,0.281c-1.125,0.656 -1.781,1.406 -1.969,2.25c0,0.469 0.071,1.172 0.211,2.11c0.188,0.984 -0.187,1.476 -1.125,1.476l-16.453,0c-3.562,-0.094 -6.984,-0.398 -10.266,-0.914c-0.656,-0.281 -1.71,-1.101 -3.164,-2.461c-0.468,-0.422 -0.82,-0.867 -1.054,-1.336c-0.422,-0.844 -0.774,-1.781 -1.055,-2.812c-0.281,-1.407 -0.609,-2.789 -0.984,-4.149c-0.282,-0.75 -0.469,-1.101 -0.563,-1.054c-0.609,2.156 -1.265,4.101 -1.969,5.836c-0.562,1.687 -1.593,2.976 -3.093,3.867c-1.172,0.75 -2.532,1.406 -4.078,1.968c-0.938,0.329 -1.266,-0.046 -0.985,-1.125c0.281,-0.89 0.024,-2.507 -0.773,-4.851c-0.469,-0.891 -0.188,-1.289 0.843,-1.195l2.813,0.351c0.937,0.094 1.898,-0.094 2.883,-0.562c0.75,-0.375 1.125,-0.938 1.125,-1.688l0,-30.375c0,-0.75 -0.375,-1.125 -1.125,-1.125l-4.711,0c-0.985,0 -1.477,-0.445 -1.477,-1.336c0,-0.937 0.469,-1.406 1.407,-1.406l4.781,0c0.75,0 1.125,-0.469 1.125,-1.406Z" style="fill:#c5172b;fill-rule:nonzero;"/><path d="M80.446,1.477c0,-0.985 0.446,-1.477 1.336,-1.477l2.25,0c0.938,0 1.406,0.469 1.406,1.406l0,12.024c0,0.797 0.375,1.195 1.125,1.195l4.29,0c0.937,0 1.406,0.445 1.406,1.336c0,0.937 -0.469,1.406 -1.406,1.406l-4.219,0c-0.797,0 -1.196,0.375 -1.196,1.125l0,10.758c0,0.75 0.469,0.727 1.407,-0.07c1.406,-1.407 2.836,-2.719 4.289,-3.938c0.797,-0.75 1.289,-1.101 1.476,-1.055c0.094,0.047 -0.117,0.54 -0.632,1.477l-3.375,5.344c-0.61,0.937 -1.29,1.875 -2.04,2.812c-0.75,0.703 -1.125,1.43 -1.125,2.18l0,24.398c-0.14,0.938 -0.398,1.875 -0.773,2.813c-0.375,1.031 -1.453,2.32 -3.234,3.867c-0.282,0.234 -0.821,0.445 -1.618,0.633c-0.656,0.187 -1.242,0.023 -1.757,-0.492c-0.563,-0.375 -1.055,-0.539 -1.477,-0.492l-3.164,0.492c-0.937,0.093 -1.406,-0.024 -1.406,-0.352c0,-0.328 0.469,-0.68 1.406,-1.055c2.719,-1.406 4.594,-2.507 5.625,-3.304c0.703,-0.61 1.172,-1.547 1.406,-2.813l0,-19.687c0,-0.75 -0.468,-0.867 -1.406,-0.352c-1.406,0.61 -2.812,1.336 -4.219,2.18c-1.125,0.516 -1.593,0.305 -1.406,-0.633c0,-0.375 0.047,-0.75 0.141,-1.125c0.187,-0.797 0.14,-1.922 -0.141,-3.375c-0.187,-0.891 0.258,-1.5 1.336,-1.828l4.57,-1.406c0.75,-0.282 1.125,-0.774 1.125,-1.477l0,-13.5c0,-0.75 -0.375,-1.125 -1.125,-1.125l-4.711,0c-0.984,0 -1.476,-0.445 -1.476,-1.336c0,-0.937 0.469,-1.406 1.406,-1.406l4.781,0c0.75,0 1.125,-0.375 1.125,-1.125l0,-12.023Zm28.125,0.492c0,-0.938 0.469,-1.407 1.407,-1.407l2.742,0c0.937,0 1.406,0.469 1.406,1.407c0,4.172 -0.68,8.226 -2.039,12.164c-1.031,2.765 -2.25,5.109 -3.656,7.031c-0.657,0.844 -0.586,1.453 0.211,1.828c3.328,1.547 6.75,3.047 10.265,4.5c0.985,0.422 1.125,1.078 0.422,1.969c-0.891,1.453 -1.336,2.953 -1.336,4.5c0.047,0.937 -0.422,1.219 -1.406,0.844c-4.359,-1.641 -8.344,-4.102 -11.953,-7.383c-0.75,-0.703 -1.594,-0.75 -2.531,-0.141c-2.391,1.641 -6.469,4.196 -12.235,7.664c-1.078,0.657 -1.851,0.891 -2.32,0.703c-0.563,-0.187 -0.375,-0.703 0.562,-1.546c1.735,-1.454 3.493,-2.86 5.274,-4.219c1.828,-1.406 4.054,-3.305 6.679,-5.696c0.797,-0.796 0.961,-1.64 0.493,-2.531c-2.297,-4.828 -3.727,-9.609 -4.289,-14.344c-0.094,-0.796 -0.493,-1.195 -1.196,-1.195l-1.898,0c-0.985,0 -1.477,-0.445 -1.477,-1.336c0,-0.937 0.469,-1.406 1.407,-1.406l14.343,0c0.75,0 1.125,-0.469 1.125,-1.406Zm-0.633,5.343c0.094,-0.796 -0.234,-1.195 -0.984,-1.195l-9.07,0c-0.75,0 -1.031,0.469 -0.844,1.406c1.031,3.938 2.977,7.571 5.836,10.899c0.797,0.797 1.43,0.773 1.898,-0.07c1.032,-2.25 1.782,-4.102 2.25,-5.555c0.422,-2.11 0.727,-3.938 0.914,-5.485Zm-7.242,26.157c0,-0.938 0.469,-1.407 1.407,-1.407l2.742,0c0.937,0 1.406,0.469 1.406,1.407l0,3.586c0,0.797 0.375,1.195 1.125,1.195l6.469,0c0.937,0 1.406,0.445 1.406,1.336c0,0.937 -0.469,1.406 -1.406,1.406l-6.399,0c-0.797,0 -1.195,0.375 -1.195,1.125l0,5.063c0,0.797 0.375,1.195 1.125,1.195l9.844,0c0.937,0 1.406,0.445 1.406,1.336c0,0.937 -0.469,1.406 -1.406,1.406l-9.774,0c-0.797,0 -1.195,0.375 -1.195,1.125l0,15.399c0,0.984 -0.469,1.476 -1.406,1.476l-2.672,0c-0.985,0 -1.477,-0.469 -1.477,-1.406l0,-15.469c0,-0.75 -0.375,-1.125 -1.125,-1.125l-9.773,0c-0.985,0 -1.477,-0.445 -1.477,-1.336c0,-0.937 0.469,-1.406 1.407,-1.406l9.843,0c0.75,0 1.125,-0.375 1.125,-1.125l0,-5.133c0,-0.75 -0.375,-1.125 -1.125,-1.125l-6.398,0c-0.985,0 -1.477,-0.445 -1.477,-1.336c0,-0.937 0.469,-1.406 1.407,-1.406l6.468,0c0.75,0 1.125,-0.375 1.125,-1.125l0,-3.656Z" style="fill:#c5172b;fill-rule:nonzero;"/><path d="M147.384,1.477c0,-0.985 0.445,-1.477 1.336,-1.477l2.25,0c0.937,0 1.406,0.445 1.406,1.336c0,0.984 0.375,1.476 1.125,1.476l5.695,0c0.75,0 1.125,-0.468 1.125,-1.406c0,-0.937 0.469,-1.406 1.407,-1.406l1.617,0c0.937,0 1.406,0.469 1.406,1.406l0,24.047c0,0.984 -0.469,1.477 -1.406,1.477l-1.547,0c-0.985,0 -1.477,-0.469 -1.477,-1.407c0,-0.937 -0.375,-1.406 -1.125,-1.406l-5.625,0c-0.797,0 -1.195,0.445 -1.195,1.336c0,0.984 -0.469,1.477 -1.406,1.477l-2.11,0c-0.984,0 -1.476,-0.469 -1.476,-1.407l0,-24.046Zm19.687,2.109c0,-0.891 0.469,-1.336 1.407,-1.336l21.375,0c0.937,0 1.406,0.445 1.406,1.336c0,0.937 -0.469,1.406 -1.406,1.406l-6.961,0c-0.75,0 -1.313,0.469 -1.688,1.406c-1.219,3.141 -2.437,5.485 -3.656,7.032c-0.985,1.078 -1.477,1.148 -1.477,0.211l0,-7.524c0,-0.75 -0.375,-1.125 -1.125,-1.125l-6.398,0c-0.985,0 -1.477,-0.469 -1.477,-1.406Zm-6.75,3.094c0,-0.75 -0.375,-1.125 -1.125,-1.125l-5.625,0c-0.797,0 -1.195,0.375 -1.195,1.125l0,4.5c0,0.797 0.375,1.195 1.125,1.195l1.969,0c0.937,0 1.406,0.445 1.406,1.336c0,0.937 -0.469,1.406 -1.406,1.406l-1.899,0c-0.797,0 -1.195,0.375 -1.195,1.125l0,3.938c0,0.797 0.375,1.195 1.125,1.195l5.695,0c0.75,0 1.125,-0.375 1.125,-1.125l0,-13.57Zm8.438,7.101c0,-0.937 0.469,-1.406 1.406,-1.406l1.688,0c0.937,0 1.406,0.445 1.406,1.336c0,0.984 0.375,1.476 1.125,1.476l7.875,0c0.75,0 1.125,-0.468 1.125,-1.406c0,-0.937 0.469,-1.406 1.406,-1.406l1.688,0c0.937,0 1.406,0.469 1.406,1.406l0,27.281c-0.61,2.625 -1.43,4.969 -2.461,7.032c-0.141,0.656 -0.61,1.078 -1.406,1.265c-0.844,0.422 -0.797,0.797 0.14,1.125c1.313,0.61 2.649,1.172 4.008,1.688c0.938,0.469 1.406,1.172 1.406,2.109c0.047,0.938 0,1.594 -0.14,1.969c0,0.844 0.07,1.828 0.211,2.953c0.281,0.938 -0.047,1.125 -0.985,0.563c-5.484,-3.282 -8.461,-7.243 -8.929,-11.883c-0.047,-1.172 0.257,-1.313 0.914,-0.422c0.375,0.562 0.703,0.984 0.984,1.266c0.75,0.515 1.195,0.304 1.336,-0.633l0.422,-2.953l0,-26.086c0,-0.75 -0.375,-1.125 -1.125,-1.125l-7.805,0c-0.797,0 -1.195,0.375 -1.195,1.125l0,27.211c0,0.984 -0.469,1.476 -1.406,1.476l-1.618,0c-0.984,0 -1.476,-0.469 -1.476,-1.406l0,-32.555Zm7.312,9.141c0.047,-1.031 0.469,-1.547 1.266,-1.547l1.195,0c0.938,0 1.406,0.469 1.406,1.406l0,14.063c-0.046,2.531 -0.187,5.226 -0.421,8.086c-1.032,5.39 -4.922,10.5 -11.672,15.328c-0.844,0.656 -1.453,0.89 -1.828,0.703c-0.422,-0.188 -0.188,-0.703 0.703,-1.547c3.984,-3.844 6.703,-7.664 8.156,-11.461c0.609,-1.406 0.914,-4.125 0.914,-8.156l0,-7.242c0.188,-4.735 0.281,-7.946 0.281,-9.633Zm-32.062,8.789c0,-0.891 0.469,-1.336 1.406,-1.336l20.25,0c0.938,0 1.406,0.445 1.406,1.336c0,0.937 -0.468,1.406 -1.406,1.406l-4.219,0c-0.797,0 -1.195,0.375 -1.195,1.125l0,7.313c0,0.797 0.375,1.195 1.125,1.195l3.094,0c0.937,0 1.406,0.445 1.406,1.336c0,0.937 -0.469,1.406 -1.406,1.406l-3.024,0c-0.797,0 -1.195,0.375 -1.195,1.125l0,13.992c0,0.75 0.469,1.219 1.406,1.407c2.719,0.468 6.446,0.796 11.18,0.984c1.875,0 3.773,-0.047 5.695,-0.141c4.125,-0.187 8.25,-0.328 12.375,-0.422c0.938,0 1.078,0.469 0.422,1.407c-0.609,0.703 -1.031,1.64 -1.266,2.812c-0.046,0.422 0.141,0.867 0.563,1.336c0.328,0.375 0.023,0.563 -0.914,0.563l-5.274,0c-4.265,-0.141 -8.507,-0.235 -12.726,-0.282c-4.219,-0.187 -8.438,-0.773 -12.656,-1.757c-0.797,0 -1.735,-0.563 -2.813,-1.688c-1.781,-1.594 -3.07,-3.469 -3.867,-5.625c-0.328,-0.891 -0.633,-1.781 -0.914,-2.672c-0.141,-0.234 -0.375,0.141 -0.703,1.125c-0.61,2.531 -2.321,5.696 -5.133,9.492c-0.703,0.938 -1.242,1.407 -1.617,1.407c-0.375,0 -0.352,-0.469 0.07,-1.407c0.797,-1.031 1.5,-2.203 2.109,-3.515c0.657,-3.235 1.055,-6.844 1.196,-10.828l0,-13.149c0,-0.937 0.469,-1.406 1.406,-1.406l2.18,0c0.937,0 1.406,0.469 1.406,1.406c-0.188,4.641 -0.328,9.281 -0.422,13.922c-0.047,0.516 0.141,1.219 0.563,2.109c0.562,0.844 1.195,1.665 1.898,2.461c0.938,0.938 1.406,1.032 1.406,0.282l0,-24.188c0,-0.75 -0.375,-1.125 -1.125,-1.125l-9.211,0c-0.984,0 -1.476,-0.469 -1.476,-1.406Z" style="fill:#c5172b;fill-rule:nonzero;"/></svg>