<?xml version="1.0" encoding="UTF-8" standalone="no"?><!DOCTYPE svg PUBLIC "-//W3C//DTD SVG 1.1//EN" "http://www.w3.org/Graphics/SVG/1.1/DTD/svg11.dtd"><svg width="100%" height="100%" viewBox="0 0 191 69" version="1.1" xmlns="http://www.w3.org/2000/svg" xmlns:xlink="http://www.w3.org/1999/xlink" xml:space="preserve" xmlns:serif="http://www.serif.com/" style="fill-rule:evenodd;clip-rule:evenodd;stroke-linejoin:round;stroke-miterlimit:2;"><path d="M14.766,1.477c0.984,-0.61 1.922,-0.633 2.812,-0.071l2.32,1.547c0.938,0.609 0.938,1.031 0,1.266c-1.546,0.468 -3.117,0.961 -4.711,1.476c-0.749,0.328 -1.124,0.867 -1.124,1.617l0,9.493c0,0.797 0.187,1.195 0.562,1.195c0.375,0 0.75,-0.469 1.125,-1.406c0.891,-2.578 1.828,-5.157 2.813,-7.735c0.375,-1.031 1.031,-1.101 1.968,-0.211l0.492,0.563c0.938,0.937 1.055,1.875 0.352,2.812l-3.727,4.852c-0.515,0.75 -0.398,1.125 0.352,1.125l2.461,0c0.937,0 1.406,0.445 1.406,1.336c0,0.937 -0.469,1.406 -1.406,1.406l-5.203,0c-0.797,0 -1.195,0.375 -1.195,1.125l0,1.055c0,0.75 0.468,1.359 1.406,1.828c2.062,0.938 4.148,1.852 6.258,2.742c0.89,0.422 1.218,1.149 0.984,2.18l-0.914,3.515c-0.281,1.079 -0.797,1.196 -1.547,0.352c-0.844,-1.125 -2.156,-3 -3.937,-5.625c-0.704,-0.984 -1.336,-1.969 -1.899,-2.953c-0.094,-0.047 -0.187,-0.023 -0.281,0.07c-0.047,0.141 -0.07,0.586 -0.07,1.336l0,8.086c0,0.985 -0.469,1.477 -1.407,1.477l-1.054,0c-0.985,0 -1.477,-0.469 -1.477,-1.407l0,-6.96c0,-0.75 -0.023,-1.219 -0.07,-1.407c-0.094,-0.281 -0.399,0 -0.914,0.844c-1.922,3.094 -4.172,5.742 -6.75,7.945c-0.797,0.657 -1.383,0.985 -1.758,0.985c-0.375,0 -0.305,-0.469 0.211,-1.407l3.164,-5.625c0.562,-1.218 1.523,-3.562 2.883,-7.031c0.281,-0.75 0.047,-1.125 -0.703,-1.125l-4.711,0c-0.985,0 -1.477,-0.445 -1.477,-1.336c0,-0.937 0.469,-1.406 1.406,-1.406l7.594,0c0.75,0 1.125,-0.375 1.125,-1.125l0,-9c0,-0.75 -0.469,-1.102 -1.406,-1.055c-2.531,0.047 -4.946,0.164 -7.242,0.352c-0.938,0.047 -1.43,-0.024 -1.477,-0.211c0,-0.188 0.539,-0.399 1.617,-0.633c4.641,-0.797 9.024,-2.414 13.149,-4.851Zm15.047,1.054c0,-0.937 0.468,-1.406 1.406,-1.406l1.054,0c0.938,0 1.407,0.469 1.407,1.406l0,58.36c-0.516,2.156 -1.899,3.82 -4.149,4.992c-0.89,0.656 -1.406,0.89 -1.547,0.703c-0.375,-0.422 -0.773,-0.516 -1.195,-0.281c-1.031,0.047 -1.969,0.211 -2.812,0.492c-0.985,0.422 -1.477,0.469 -1.477,0.141c0,-0.376 0.469,-0.891 1.406,-1.547c1.407,-0.938 2.813,-1.829 4.219,-2.672c0.328,-0.141 0.563,-0.305 0.703,-0.492c0.844,-1.313 1.172,-2.368 0.985,-3.165l0,-21.656c-0.047,-0.937 -0.118,-1.383 -0.211,-1.336c-1.079,2.719 -2.555,5.813 -4.43,9.282c-0.656,1.125 -1.125,1.218 -1.406,0.281l-1.196,-3.164c-0.422,-0.938 -0.14,-1.805 0.844,-2.602c1.641,-1.125 3.047,-2.344 4.219,-3.656c0.75,-0.891 1.312,-1.242 1.687,-1.055c0.328,0.094 0.493,-0.234 0.493,-0.984l0,-6.68l0,-1.336c-0.141,-0.328 -0.375,-0.258 -0.704,0.211l-1.125,1.828c-0.656,1.032 -1.195,1.078 -1.617,0.141c-1.359,-4.078 -2.133,-7.805 -2.32,-11.18c0.094,-0.984 0.445,-1.008 1.055,-0.07l3.726,5.625l0.633,0.773c0.094,0.047 0.187,0 0.281,-0.14c0.047,-0.188 0.071,-0.657 0.071,-1.407l0,-14.132c0,-0.75 -0.375,-1.125 -1.125,-1.125l-4.149,0c-0.984,0 -1.476,-0.469 -1.476,-1.407c0,-0.937 0.468,-1.406 1.406,-1.406l4.219,0c0.75,0 1.125,-0.445 1.125,-1.336Zm10.125,0.281c0,-0.75 0.468,-1.125 1.406,-1.125l1.617,0c0.937,0 1.406,0.469 1.406,1.407l0,56.883c0.328,0.937 -0.328,2.578 -1.969,4.921c-0.515,0.61 -1.429,1.336 -2.742,2.18c-0.89,0.609 -1.5,0.703 -1.828,0.281c-0.328,-0.328 -0.961,-0.468 -1.898,-0.422c-0.375,0.047 -0.727,0.141 -1.055,0.282c-1.125,0.515 -1.758,0.679 -1.898,0.492c-0.235,-0.188 0.093,-0.586 0.984,-1.195l2.812,-1.899c1.594,-1.265 2.649,-2.836 3.165,-4.711l0,-22.922l0,-1.265c-0.094,-0.141 -0.188,-0.188 -0.282,-0.141c-0.281,0.516 -0.515,1.055 -0.703,1.617l-2.461,6.891c-0.328,0.937 -0.679,0.867 -1.054,-0.211l-1.125,-3.164c-0.329,-0.938 -0.071,-1.852 0.773,-2.742c0.844,-0.563 1.852,-1.43 3.023,-2.602c0.844,-0.703 1.36,-0.961 1.547,-0.773c0.188,0.093 0.282,-0.235 0.282,-0.985l0,-6.679c0,-0.797 -0.329,-0.703 -0.985,0.281l-0.351,0.633c-0.61,0.843 -1.102,0.726 -1.477,-0.352c-1.406,-4.265 -2.437,-8.109 -3.094,-11.531c-0.187,-0.938 -0.211,-1.477 -0.07,-1.617c0.187,-0.188 0.586,0.164 1.195,1.054l3.797,5.625c0.375,0.422 0.61,0.657 0.703,0.704c0.328,-0.188 0.422,-0.68 0.282,-1.477l0,-12.445c0,-0.75 -0.375,-1.125 -1.125,-1.125l-1.336,0c-0.985,0 -1.477,-0.469 -1.477,-1.407c0,-0.937 0.469,-1.406 1.406,-1.406l1.407,0c0.75,0 1.125,-0.351 1.125,-1.055Zm-37.477,6.61c0.281,-0.281 0.844,0.023 1.687,0.914c0.75,0.75 1.524,1.5 2.321,2.25c0.937,0.937 1.008,1.875 0.211,2.812l-0.914,1.055c-0.891,0.938 -1.5,0.938 -1.828,0c-0.563,-1.453 -1.032,-3.187 -1.407,-5.203c-0.187,-1.125 -0.211,-1.734 -0.07,-1.828Zm-0.773,28.617c0,-0.984 0.468,-1.477 1.406,-1.477l1.054,0c0.938,0 1.407,0.352 1.407,1.055c0,0.797 0.375,1.195 1.125,1.195l9.633,0c0.75,0 1.125,-0.375 1.125,-1.125c0,-0.75 0.468,-1.125 1.406,-1.125l1.617,0c0.937,0 1.406,0.469 1.406,1.407l0,26.297c0,0.984 -0.469,1.476 -1.406,1.476l-1.547,0c-0.984,0 -1.476,-0.375 -1.476,-1.125c0,-0.75 -0.375,-1.125 -1.125,-1.125l-9.563,0c-0.797,0 -1.195,0.352 -1.195,1.055c0,0.797 -0.469,1.195 -1.407,1.195l-1.054,0c-0.938,0 -1.406,-0.469 -1.406,-1.406l0,-26.297Zm7.875,4.641c0,-0.75 -0.375,-1.125 -1.125,-1.125l-1.688,0c-0.797,0 -1.195,0.375 -1.195,1.125l0,5.625c0,0.797 0.375,1.195 1.125,1.195l1.758,0c0.75,0 1.125,-0.375 1.125,-1.125l0,-5.695Zm7.875,0c0,-0.75 -0.375,-1.125 -1.125,-1.125l-1.688,0c-0.797,0 -1.195,0.375 -1.195,1.125l0,5.625c0,0.797 0.375,1.195 1.125,1.195l1.758,0c0.75,0 1.125,-0.375 1.125,-1.125l0,-5.695Zm-7.875,10.195c0,-0.797 -0.352,-1.195 -1.055,-1.195l-1.758,0c-0.797,0 -1.195,0.375 -1.195,1.125l0,7.312c0,0.797 0.375,1.195 1.125,1.195l1.758,0c0.75,0 1.125,-0.375 1.125,-1.125l0,-7.312Zm7.875,0c0,-0.797 -0.352,-1.195 -1.055,-1.195l-1.758,0c-0.797,0 -1.195,0.375 -1.195,1.125l0,7.312c0,0.797 0.375,1.195 1.125,1.195l1.758,0c0.75,0 1.125,-0.375 1.125,-1.125l0,-7.312Z" style="fill:#c5172b;fill-rule:nonzero;"/><path d="M105.75,2.813c0,-0.751 0.469,-1.126 1.406,-1.126l3.867,0c0.938,0 1.36,0.469 1.266,1.407c-0.797,4.922 -2.883,10.195 -6.258,15.82c-0.562,0.797 -0.398,1.383 0.492,1.758c3.563,1.078 6.774,2.109 9.633,3.094c0.891,0.234 1.008,0.89 0.352,1.968c-0.469,1.266 -0.633,2.485 -0.492,3.657c0.234,0.937 -0.118,1.265 -1.055,0.984c-5.203,-1.359 -9.516,-3.094 -12.938,-5.203c-0.89,-0.703 -1.711,-0.82 -2.461,-0.352c-3.796,2.297 -7.804,4.453 -12.023,6.469c-0.937,0.469 -1.687,0.609 -2.25,0.422c-0.562,-0.141 -0.328,-0.563 0.703,-1.266c2.813,-1.875 5.625,-3.656 8.438,-5.343c0.937,-0.657 1.875,-1.383 2.812,-2.18c0.797,-0.703 0.844,-1.453 0.141,-2.25c-1.36,-1.688 -2.531,-3.469 -3.516,-5.344c-1.031,-2.297 -1.992,-4.758 -2.883,-7.383c-0.281,-0.843 -0.75,-1.265 -1.406,-1.265l-1.476,0c-0.985,0 -1.477,-0.469 -1.477,-1.407c0,-0.937 0.469,-1.406 1.406,-1.406l16.594,0c0.75,0 1.125,-0.351 1.125,-1.054Zm-30.867,0.984c-0.188,-0.938 -0.258,-1.43 -0.211,-1.477c0.14,0 0.68,0.375 1.617,1.125l5.977,5.344c0.984,0.891 1.242,1.805 0.773,2.742l-1.898,3.797c-0.469,0.938 -0.914,0.938 -1.336,0c-1.735,-3.75 -3.375,-7.594 -4.922,-11.531Zm30.656,4.078c0.141,-0.797 -0.164,-1.195 -0.914,-1.195l-11.742,0c-0.75,0 -0.938,0.468 -0.563,1.406c1.172,2.625 3.774,5.812 7.805,9.562c0.75,0.61 1.383,0.446 1.898,-0.492c1.454,-2.672 2.625,-5.765 3.516,-9.281Zm-28.477,13.289c0,-0.984 0.469,-1.476 1.407,-1.476l2.179,0c0.938,0 1.407,0.468 1.407,1.406l0,32.273c0,0.75 0.468,0.891 1.406,0.422c1.875,-1.266 3.328,-2.367 4.359,-3.305c0.703,-0.703 0.586,-1.054 -0.351,-1.054c-0.938,0 -1.407,-0.446 -1.407,-1.336c0,-0.938 0.469,-1.406 1.407,-1.406l9.281,0c0.75,0 1.125,-0.375 1.125,-1.125l0,-5.696c0,-0.75 -0.375,-1.125 -1.125,-1.125l-6.398,0c-0.985,0 -1.477,-0.445 -1.477,-1.336c0,-0.937 0.469,-1.406 1.406,-1.406l6.469,0c0.75,0 1.125,-0.375 1.125,-1.125l0,-5.344c0,-0.937 0.469,-1.406 1.406,-1.406l2.18,0c0.937,0 1.406,0.469 1.406,1.406l0,5.274c0,0.797 0.375,1.195 1.125,1.195l8.156,0c0.938,0 1.407,0.445 1.407,1.336c0,0.937 -0.469,1.406 -1.407,1.406l-8.086,0c-0.796,0 -1.195,0.375 -1.195,1.125l0,5.625c0,0.797 0.375,1.196 1.125,1.196l9.844,0c0.937,0 1.406,0.445 1.406,1.335c0,0.938 -0.469,1.407 -1.406,1.407l-9.774,0c-0.796,0 -1.195,0.375 -1.195,1.125l0,15.398c0,0.985 -0.469,1.477 -1.406,1.477l-2.109,0c-0.985,0 -1.477,-0.469 -1.477,-1.407l0,-15.468c0,-0.75 -0.375,-1.125 -1.125,-1.125l-6.117,0c-0.75,0 -1.149,0.093 -1.196,0.281c-0.046,0.187 -0.257,0.562 -0.632,1.125c-4.032,5.859 -8.907,10.055 -14.625,12.586c-1.078,0.469 -1.571,0.258 -1.477,-0.633c0.141,-1.125 0,-2.648 -0.422,-4.57c-0.187,-0.938 0.188,-1.477 1.125,-1.617c0.844,-0.141 1.688,-0.235 2.531,-0.282c0.75,-0.14 1.125,-0.586 1.125,-1.336l0,-27.492c0,-0.75 -0.375,-1.125 -1.125,-1.125l-3.585,0c-0.985,0 -1.477,-0.445 -1.477,-1.336c0,-0.937 0.469,-1.406 1.406,-1.406l3.656,0c0.75,0 1.125,-0.375 1.125,-1.125l0,-1.336Z" style="fill:#c5172b;fill-rule:nonzero;"/><path d="M145.688,1.477c-0.001,-0.985 0.445,-1.477 1.335,-1.477l2.25,0c0.938,0 1.407,0.445 1.407,1.336c0,0.984 0.375,1.477 1.125,1.477l5.695,-0.001c0.75,0 1.125,-0.468 1.125,-1.406c0,-0.937 0.469,-1.406 1.406,-1.406l1.617,0c0.938,0 1.407,0.469 1.407,1.406l0,24.047c0,0.985 -0.469,1.477 -1.407,1.477l-1.546,0c-0.985,0 -1.477,-0.469 -1.477,-1.407c0,-0.937 -0.375,-1.406 -1.125,-1.406l-5.625,0c-0.797,0 -1.195,0.445 -1.195,1.336c0,0.985 -0.469,1.477 -1.407,1.477l-2.109,0c-0.984,0 -1.477,-0.469 -1.477,-1.407l0,-24.046Zm19.688,2.109c0,-0.891 0.469,-1.336 1.406,-1.336l21.375,0c0.938,0 1.406,0.445 1.406,1.336c0,0.937 -0.468,1.406 -1.406,1.406l-6.961,0c-0.75,0 -1.312,0.469 -1.687,1.406c-1.219,3.141 -2.438,5.485 -3.656,7.032c-0.985,1.078 -1.477,1.148 -1.477,0.211l0,-7.524c0,-0.75 -0.375,-1.125 -1.125,-1.125l-6.398,0c-0.985,0 -1.477,-0.469 -1.477,-1.406Zm-6.75,3.094c0,-0.75 -0.375,-1.125 -1.125,-1.125l-5.625,0c-0.797,0 -1.195,0.375 -1.195,1.125l0,4.5c0,0.797 0.375,1.195 1.125,1.195l1.968,0c0.938,0 1.407,0.445 1.407,1.336c0,0.937 -0.469,1.406 -1.407,1.406l-1.898,0c-0.797,0 -1.195,0.375 -1.195,1.125l0,3.938c0,0.797 0.375,1.195 1.125,1.195l5.695,0c0.75,0 1.125,-0.375 1.125,-1.125l0,-13.57Zm8.438,7.101c0,-0.937 0.468,-1.406 1.406,-1.406l1.687,0c0.938,0 1.407,0.445 1.407,1.336c0,0.984 0.375,1.476 1.125,1.476l7.875,0c0.75,0 1.125,-0.468 1.125,-1.406c0,-0.937 0.468,-1.406 1.406,-1.406l1.687,0c0.938,0 1.406,0.469 1.406,1.406l0,27.282c-0.609,2.624 -1.429,4.968 -2.46,7.031c-0.141,0.656 -0.61,1.078 -1.407,1.265c-0.843,0.422 -0.797,0.797 0.141,1.125c1.312,0.61 2.648,1.172 4.008,1.688c0.937,0.469 1.406,1.172 1.406,2.109c0.047,0.938 0,1.594 -0.141,1.969c0,0.844 0.071,1.828 0.211,2.953c0.282,0.938 -0.047,1.125 -0.984,0.563c-5.484,-3.282 -8.461,-7.243 -8.93,-11.883c-0.047,-1.172 0.258,-1.313 0.914,-0.422c0.375,0.562 0.703,0.984 0.985,1.266c0.75,0.515 1.195,0.304 1.336,-0.633l0.421,-2.953l0,-26.086c0,-0.75 -0.375,-1.125 -1.125,-1.125l-7.804,0c-0.797,0 -1.196,0.375 -1.196,1.125l0,27.211c0,0.984 -0.468,1.476 -1.406,1.476l-1.617,0c-0.984,0 -1.477,-0.469 -1.477,-1.406l0,-32.555Zm7.313,9.141c0.047,-1.031 0.469,-1.547 1.266,-1.547l1.195,0c0.937,0 1.406,0.469 1.406,1.406l0,14.063c-0.047,2.531 -0.187,5.226 -0.422,8.086c-1.031,5.39 -4.922,10.5 -11.672,15.328c-0.843,0.656 -1.453,0.89 -1.828,0.703c-0.422,-0.188 -0.187,-0.703 0.703,-1.547c3.985,-3.844 6.704,-7.664 8.157,-11.461c0.609,-1.406 0.914,-4.125 0.914,-8.156l0,-7.242c0.187,-4.735 0.281,-7.946 0.281,-9.633Zm-32.063,8.789c0,-0.891 0.469,-1.336 1.407,-1.336l20.25,0c0.937,0 1.406,0.445 1.406,1.336c0,0.937 -0.469,1.406 -1.406,1.406l-4.219,0c-0.797,0 -1.195,0.375 -1.195,1.125l0,7.313c0,0.797 0.375,1.195 1.125,1.195l3.093,0c0.938,0 1.407,0.445 1.407,1.336c0,0.937 -0.469,1.406 -1.407,1.406l-3.023,0c-0.797,0 -1.195,0.375 -1.195,1.125l0,13.992c0,0.75 0.468,1.219 1.406,1.407c2.719,0.468 6.445,0.796 11.18,0.984c1.875,0 3.773,-0.047 5.695,-0.141c4.125,-0.187 8.25,-0.328 12.375,-0.422c0.937,0 1.078,0.469 0.422,1.407c-0.61,0.703 -1.031,1.64 -1.266,2.812c-0.047,0.422 0.141,0.867 0.563,1.336c0.328,0.375 0.023,0.563 -0.914,0.563l-5.274,0c-4.265,-0.141 -8.508,-0.235 -12.726,-0.282c-4.219,-0.187 -8.438,-0.773 -12.657,-1.757c-0.797,0 -1.734,-0.563 -2.812,-1.688c-1.781,-1.594 -3.07,-3.469 -3.867,-5.625c-0.328,-0.891 -0.633,-1.781 -0.914,-2.672c-0.141,-0.234 -0.375,0.141 -0.704,1.125c-0.609,2.531 -2.32,5.696 -5.132,9.492c-0.703,0.938 -1.243,1.407 -1.618,1.407c-0.375,0 -0.351,-0.469 0.071,-1.407c0.797,-1.031 1.5,-2.203 2.109,-3.515c0.656,-3.235 1.055,-6.844 1.195,-10.828l0,-13.149c0,-0.937 0.469,-1.406 1.407,-1.406l2.179,0c0.938,0 1.407,0.469 1.407,1.406c-0.188,4.641 -0.328,9.281 -0.422,13.922c-0.047,0.516 0.14,1.219 0.562,2.109c0.563,0.844 1.196,1.665 1.899,2.461c0.937,0.938 1.406,1.032 1.406,0.282l0,-24.188c0,-0.75 -0.375,-1.125 -1.125,-1.125l-9.211,0c-0.984,0 -1.477,-0.469 -1.477,-1.406Z" style="fill:#c5172b;fill-rule:nonzero;"/></svg>