<?xml version="1.0" encoding="UTF-8" standalone="no"?><!DOCTYPE svg PUBLIC "-//W3C//DTD SVG 1.1//EN" "http://www.w3.org/Graphics/SVG/1.1/DTD/svg11.dtd"><svg width="100%" height="100%" viewBox="0 0 43 43" version="1.1" xmlns="http://www.w3.org/2000/svg" xmlns:xlink="http://www.w3.org/1999/xlink" xml:space="preserve" xmlns:serif="http://www.serif.com/" style="fill-rule:evenodd;clip-rule:evenodd;stroke-linejoin:round;stroke-miterlimit:2;"><path d="M27.334,33.919c-2.327,0 -4.238,-1.781 -4.446,-4.055l-7.227,-2.966c-0.68,0.418 -1.479,0.66 -2.336,0.66c-2.466,0 -4.466,-2 -4.466,-4.466c0,-2.466 2,-4.466 4.466,-4.466c0.482,0 0.946,0.077 1.38,0.218l5.286,-5.286c-0.193,-0.5 -0.3,-1.043 -0.3,-1.612c0,-2.466 1.999,-4.465 4.466,-4.465c2.466,0 4.465,1.999 4.465,4.465c0,2.467 -1.999,4.466 -4.465,4.466c-0.811,0 -1.572,-0.216 -2.227,-0.594l-4.853,4.852c0.452,0.698 0.714,1.529 0.714,2.422c0,0.482 -0.077,0.947 -0.218,1.382l6.057,2.485c0.802,-1.189 2.162,-1.972 3.704,-1.972c2.467,0 4.466,2 4.466,4.466c0,2.466 -1.999,4.466 -4.466,4.466m-6.222,-33.919c-11.66,0 -21.112,9.452 -21.112,21.112c0,11.661 9.452,21.113 21.112,21.113c11.66,0 21.114,-9.452 21.114,-21.113c0,-11.66 -9.454,-21.112 -21.114,-21.112" style="fill:#3f4042;fill-rule:nonzero;"/></svg>