<?xml version="1.0" encoding="UTF-8" standalone="no"?><!DOCTYPE svg PUBLIC "-//W3C//DTD SVG 1.1//EN" "http://www.w3.org/Graphics/SVG/1.1/DTD/svg11.dtd"><svg width="100%" height="100%" viewBox="0 0 399 90" version="1.1" xmlns="http://www.w3.org/2000/svg" xmlns:xlink="http://www.w3.org/1999/xlink" xml:space="preserve" xmlns:serif="http://www.serif.com/" style="fill-rule:evenodd;clip-rule:evenodd;stroke-linejoin:round;stroke-miterlimit:2;"><path d="M353.55,89.5l-308.8,0c-24.715,0 -44.75,-20.035 -44.75,-44.75c0,-24.715 20.035,-44.75 44.75,-44.75l308.8,0c24.715,0 44.75,20.035 44.75,44.75c0,24.715 -20.035,44.75 -44.75,44.75" style="fill:#c5172b;fill-rule:nonzero;"/><path d="M77.793,19.517c0,-0.761 0.362,-1.141 1.087,-1.141l2.173,0c0.724,0 1.087,0.362 1.087,1.086l0,9.726c0,0.616 0.289,0.924 0.869,0.924l11.464,0c0.724,0 1.087,0.344 1.087,1.032c0,0.724 -0.363,1.087 -1.087,1.087l-11.41,0c-0.616,0 -0.923,0.289 -0.923,0.869l0,11.247c0,0.615 0.289,0.923 0.869,0.923l9.78,0c0.724,0 1.086,0.344 1.086,1.033c0,0.76 -0.362,1.141 -1.086,1.141l-9.726,0c-0.616,0 -0.923,0.289 -0.923,0.869l0,16.897c0,0.616 0.289,0.924 0.869,0.924l12.333,0c0.725,0 1.087,0.344 1.087,1.032c0,0.761 -0.362,1.141 -1.087,1.141l-31.186,0c-0.761,0 -1.141,-0.362 -1.141,-1.086c0,-0.725 0.362,-1.087 1.086,-1.087l12.823,0c0.579,0 0.869,-0.29 0.869,-0.869l0,-16.952c0,-0.58 -0.29,-0.869 -0.869,-0.869l-9.726,0c-0.761,0 -1.141,-0.363 -1.141,-1.087c0,-0.725 0.362,-1.087 1.087,-1.087l9.78,0c0.579,0 0.869,-0.289 0.869,-0.869l0,-11.301c0,-0.58 -0.29,-0.869 -0.869,-0.869l-6.466,0c-0.579,0 -1.068,0.362 -1.467,1.086c-1.05,1.92 -2.825,4.093 -5.324,6.52c-0.725,0.724 -1.16,1.087 -1.304,1.087c-0.109,0 0.036,-0.435 0.434,-1.304c1.594,-3.405 2.626,-6.303 3.097,-8.693c0.326,-2.319 0.652,-5.289 0.978,-8.911c0.073,-0.724 0.471,-1.087 1.195,-1.087l2.065,0c0.725,0 1.051,0.363 0.978,1.087c-0.217,2.391 -0.416,4.799 -0.598,7.226c-0.036,0.58 0.236,0.87 0.815,0.87l5.597,0c0.579,0 0.869,-0.29 0.869,-0.87l0,-9.725Z" style="fill:#f9f9f9;fill-rule:nonzero;"/><path d="M140.679,19.517c0,-0.761 0.363,-1.141 1.087,-1.141l2.119,0c0.725,0 1.087,0.362 1.087,1.086l0,6.249c0,0.615 0.29,0.923 0.869,0.923l8.911,0c0.724,0 1.086,0.344 1.086,1.033c0,0.724 -0.362,1.086 -1.086,1.086l-8.802,0c-0.616,0 -0.906,0.362 -0.87,1.087c0,2.137 0.037,4.31 0.109,6.52l0,4.618c0.217,3.55 0.634,6.81 1.25,9.78c0.217,0.579 0.362,0.851 0.434,0.815c1.594,-4.854 2.427,-9.762 2.5,-14.724c0,-0.725 0.362,-1.087 1.086,-1.087l2.554,0c0.724,0 1.068,0.362 1.032,1.087c-0.217,4.057 -0.978,8.385 -2.282,12.985c-0.797,2.282 -1.811,4.365 -3.042,6.248c-0.435,0.652 -0.471,1.304 -0.109,1.956c0.761,1.304 1.92,2.989 3.477,5.053c0.544,0.616 0.888,0.544 1.033,-0.217c0.652,-2.862 1.34,-5.741 2.064,-8.639c0.218,-0.724 0.381,-1.087 0.489,-1.087c0.109,0 0.145,0.363 0.109,1.087c-0.073,2.681 -0.217,4.673 -0.435,5.977c-0.036,1.267 0.145,2.336 0.544,3.205c0.289,0.363 0.434,0.906 0.434,1.63l0,4.727c0,0.725 -0.362,0.888 -1.086,0.489c-3.985,-2.246 -7.209,-5.198 -9.672,-8.856c-0.398,-0.58 -0.959,-0.507 -1.684,0.217c-1.268,1.159 -2.626,2.264 -4.075,3.315c-1.992,1.702 -3.803,3.042 -5.433,4.02c-0.725,0.435 -1.159,0.562 -1.304,0.381c-0.145,-0.109 0.199,-0.526 1.032,-1.25c3.767,-3.188 6.756,-6.429 8.965,-9.726c0.435,-0.579 0.543,-1.231 0.326,-1.956c-1.34,-4.745 -2.101,-10.558 -2.282,-17.44c-0.181,-3.115 -0.326,-6.23 -0.435,-9.345c-0.036,-0.58 -0.344,-0.87 -0.923,-0.87l-10.812,0c-0.616,0 -0.924,0.29 -0.924,0.87l0,8.258c0,0.616 0.29,0.924 0.869,0.924l3.097,0c0.58,0 0.87,-0.29 0.87,-0.87l0,-0.652c0,-0.724 0.362,-1.086 1.086,-1.086l1.685,0c0.724,0 1.086,0.362 1.086,1.086l0,22.168c-0.217,1.449 -1.141,2.68 -2.771,3.695c-0.724,0.507 -1.159,0.67 -1.304,0.489c-0.652,-0.652 -1.648,-0.743 -2.988,-0.272c-0.724,0.398 -1.159,0.38 -1.304,-0.054c-0.181,-0.399 0.145,-0.761 0.978,-1.087l1.087,-0.38c1.775,-0.652 2.589,-1.775 2.445,-3.369l0,-17.115c0,-0.579 -0.29,-0.869 -0.87,-0.869l-2.988,0c-0.58,0 -0.924,0.362 -1.032,1.087c-0.181,2.209 -0.308,4.437 -0.381,6.683l0,6.03c-0.036,1.594 -0.126,3.206 -0.271,4.836c-0.471,3.586 -2.246,7.299 -5.325,11.138c-0.616,0.725 -1.05,1.014 -1.304,0.87c-0.29,-0.145 -0.235,-0.58 0.163,-1.304c1.449,-3.043 2.264,-5.941 2.445,-8.694c0.217,-2.499 0.362,-4.944 0.435,-7.335l0,-29.122c0,-0.724 0.362,-1.086 1.086,-1.086l2.119,0c0.725,0 1.087,0.362 1.087,1.086l0,1.033c0,0.615 0.29,0.923 0.869,0.923l10.921,0c0.58,0 0.869,-0.29 0.869,-0.869l0,-6.248Zm7.498,0.434c-0.362,-0.76 -0.398,-1.141 -0.108,-1.141c0.289,0 0.797,0.29 1.521,0.87l3.043,2.499c0.724,0.616 0.815,1.286 0.271,2.01l-1.032,1.304c-0.507,0.725 -0.96,0.688 -1.358,-0.108c-0.471,-0.87 -0.779,-1.594 -0.924,-2.174c-0.435,-1.086 -0.906,-2.173 -1.413,-3.26Z" style="fill:#f9f9f9;fill-rule:nonzero;"/><path d="M199.654,19.517c0,-0.761 0.362,-1.141 1.087,-1.141l2.119,0c0.724,0 1.086,0.362 1.086,1.086l0,6.249c0,0.615 0.29,0.923 0.87,0.923l8.91,0c0.725,0 1.087,0.344 1.087,1.033c0,0.724 -0.362,1.086 -1.087,1.086l-8.802,0c-0.615,0 -0.905,0.362 -0.869,1.087c0,2.137 0.036,4.31 0.109,6.52l0,4.618c0.217,3.55 0.634,6.81 1.249,9.78c0.218,0.579 0.363,0.851 0.435,0.815c1.594,-4.854 2.427,-9.762 2.499,-14.724c0,-0.725 0.362,-1.087 1.087,-1.087l2.554,0c0.724,0 1.068,0.362 1.032,1.087c-0.217,4.057 -0.978,8.385 -2.282,12.985c-0.797,2.282 -1.811,4.365 -3.043,6.248c-0.434,0.652 -0.471,1.304 -0.108,1.956c0.76,1.304 1.919,2.989 3.477,5.053c0.543,0.616 0.887,0.544 1.032,-0.217c0.652,-2.862 1.34,-5.741 2.065,-8.639c0.217,-0.724 0.38,-1.087 0.489,-1.087c0.108,0 0.145,0.363 0.108,1.087c-0.072,2.681 -0.217,4.673 -0.434,5.977c-0.036,1.267 0.145,2.336 0.543,3.205c0.29,0.363 0.435,0.906 0.435,1.63l0,4.727c0,0.725 -0.362,0.888 -1.087,0.489c-3.984,-2.246 -7.208,-5.198 -9.671,-8.856c-0.398,-0.58 -0.96,-0.507 -1.684,0.217c-1.268,1.159 -2.626,2.264 -4.075,3.315c-1.992,1.702 -3.804,3.042 -5.433,4.02c-0.725,0.435 -1.16,0.562 -1.304,0.381c-0.145,-0.109 0.199,-0.526 1.032,-1.25c3.767,-3.188 6.755,-6.429 8.965,-9.726c0.434,-0.579 0.543,-1.231 0.326,-1.956c-1.341,-4.745 -2.101,-10.558 -2.282,-17.44c-0.181,-3.115 -0.326,-6.23 -0.435,-9.345c-0.036,-0.58 -0.344,-0.87 -0.924,-0.87l-10.812,0c-0.616,0 -0.923,0.29 -0.923,0.87l0,8.258c0,0.616 0.289,0.924 0.869,0.924l3.097,0c0.579,0 0.869,-0.29 0.869,-0.87l0,-0.652c0,-0.724 0.362,-1.086 1.087,-1.086l1.684,0c0.725,0 1.087,0.362 1.087,1.086l0,22.168c-0.218,1.449 -1.141,2.68 -2.771,3.695c-0.725,0.507 -1.159,0.67 -1.304,0.489c-0.652,-0.652 -1.648,-0.743 -2.988,-0.272c-0.725,0.398 -1.16,0.38 -1.304,-0.054c-0.182,-0.399 0.144,-0.761 0.978,-1.087l1.086,-0.38c1.775,-0.652 2.59,-1.775 2.445,-3.369l0,-17.115c0,-0.579 -0.29,-0.869 -0.869,-0.869l-2.988,0c-0.58,0 -0.924,0.362 -1.033,1.087c-0.181,2.209 -0.308,4.437 -0.38,6.683l0,6.03c-0.036,1.594 -0.127,3.206 -0.272,4.836c-0.471,3.586 -2.245,7.299 -5.324,11.138c-0.616,0.725 -1.051,1.014 -1.304,0.87c-0.29,-0.145 -0.236,-0.58 0.163,-1.304c1.449,-3.043 2.264,-5.941 2.445,-8.694c0.217,-2.499 0.362,-4.944 0.434,-7.335l0,-29.122c0,-0.724 0.363,-1.086 1.087,-1.086l2.119,0c0.724,0 1.087,0.362 1.087,1.086l0,1.033c0,0.615 0.289,0.923 0.869,0.923l10.921,0c0.579,0 0.869,-0.29 0.869,-0.869l0,-6.248Zm7.498,0.434c-0.362,-0.76 -0.398,-1.141 -0.109,-1.141c0.29,0 0.797,0.29 1.522,0.87l3.042,2.499c0.725,0.616 0.815,1.286 0.272,2.01l-1.032,1.304c-0.508,0.725 -0.96,0.688 -1.359,-0.108c-0.471,-0.87 -0.779,-1.594 -0.923,-2.174c-0.435,-1.086 -0.906,-2.173 -1.413,-3.26Z" style="fill:#f9f9f9;fill-rule:nonzero;"/><path d="M260.802,19.082c0,-0.761 0.344,-1.141 1.032,-1.141l1.793,0c0.725,0 1.087,0.362 1.087,1.087l0,3.205c0,0.616 0.29,0.924 0.869,0.924l7.118,0c0.724,0 1.086,0.272 1.086,0.815c0,0.58 -0.362,0.869 -1.086,0.869l-7.063,0c-0.616,0 -0.924,0.29 -0.924,0.87l0,3.042c0,0.616 0.29,0.924 0.869,0.924l4.999,0c0.724,0 1.086,0.272 1.086,0.815c0,0.579 -0.362,0.869 -1.086,0.869l-4.944,0c-0.616,0 -0.924,0.29 -0.924,0.87l0,3.477c0,0.616 0.29,0.923 0.869,0.923l7.987,0c0.724,0 1.087,0.345 1.087,1.033c0,0.724 -0.363,1.086 -1.087,1.086l-20.755,0c-0.761,0 -1.141,-0.344 -1.141,-1.032c0,-0.724 0.362,-1.087 1.087,-1.087l7.172,0c0.579,0 0.869,-0.289 0.869,-0.869l0,-3.531c0,-0.58 -0.29,-0.87 -0.869,-0.87l-4.51,0c-0.761,0 -1.141,-0.271 -1.141,-0.815c0,-0.579 0.362,-0.869 1.087,-0.869l4.564,0c0.579,0 0.869,-0.29 0.869,-0.869l0,-3.097c0,-0.58 -0.29,-0.87 -0.869,-0.87l-6.249,0c-0.76,0 -1.141,-0.271 -1.141,-0.815c0,-0.579 0.363,-0.869 1.087,-0.869l6.303,0c0.579,0 0.869,-0.29 0.869,-0.869l0,-3.206Zm-17.386,0.435c0,-0.761 0.362,-1.141 1.086,-1.141l2.554,0c0.724,0 1.032,0.362 0.923,1.086c-0.47,2.826 -1.303,5.723 -2.499,8.694c-1.086,2.39 -2.861,4.726 -5.324,7.008c-0.725,0.652 -0.725,0.924 0,0.815c0.76,-0.108 1.503,-0.253 2.227,-0.434c0.906,-0.181 2.409,-0.743 4.51,-1.685c0.579,-0.217 0.905,-0.706 0.978,-1.467c0.036,-1.086 0.108,-2.191 0.217,-3.314c0.109,-0.797 0.489,-1.195 1.141,-1.195l2.608,0c0.725,0 0.996,0.362 0.815,1.087l-2.445,8.693c-0.761,2.245 -1.829,4.419 -3.205,6.52c-0.363,0.615 -0.96,1.231 -1.793,1.847l-3.804,3.314c-0.688,0.471 -0.724,0.779 -0.108,0.924c0.579,0.29 1.394,0.308 2.445,0.054c1.992,-0.29 4.256,-1.304 6.791,-3.042c0.725,-0.435 1.087,-0.526 1.087,-0.272c0,0.29 -0.362,0.797 -1.087,1.521l-2.608,2.608c-0.724,0.725 -1.268,1.159 -1.63,1.304c-1.449,0.543 -2.898,1.123 -4.346,1.739c-0.87,0.326 -1.757,0.616 -2.663,0.869c-0.724,0.109 -1.086,-0.199 -1.086,-0.924c0.036,-0.688 -0.037,-1.593 -0.218,-2.716c-0.108,-0.869 0.109,-1.304 0.652,-1.304c0.58,0 1.178,-0.362 1.793,-1.087c1.304,-1.666 2.337,-3.115 3.097,-4.346c1.34,-2.246 2.5,-5.144 3.478,-8.694c0.253,-0.76 0.072,-0.887 -0.544,-0.38c-2.173,1.956 -4.564,3.55 -7.172,4.781c-0.724,0.326 -1.086,0.127 -1.086,-0.597c0.036,-0.399 -0.037,-1.159 -0.218,-2.282c-0.145,-0.87 -0.09,-1.304 0.163,-1.304c0.326,0 0.707,-0.362 1.141,-1.087c1.522,-2.68 2.608,-5.578 3.26,-8.693c0.544,-2.644 0.833,-4.944 0.87,-6.9Zm9.562,22.113c0,-0.724 0.362,-1.087 1.087,-1.087l1.738,0c0.725,0 1.087,0.344 1.087,1.033c0,0.76 0.29,1.141 0.869,1.141l10.432,0c0.58,0 0.869,-0.363 0.869,-1.087c0,-0.724 0.363,-1.087 1.087,-1.087l1.739,0c0.724,0 1.086,0.363 1.086,1.087l0,14.724c0,0.725 -0.108,1.268 -0.326,1.63l-1.575,2.173c-0.399,0.507 -1.105,0.996 -2.119,1.467c-0.254,0.109 -0.489,0.2 -0.707,0.272c-0.615,0.254 -0.633,0.58 -0.054,0.978c1.594,1.123 3.26,2.065 4.999,2.825c0.724,0.29 0.887,0.851 0.489,1.685c-0.326,1.231 -0.381,2.137 -0.163,2.716c0.181,0.833 -0.073,1.105 -0.761,0.815c-2.318,-0.905 -4.238,-2.463 -5.759,-4.672c-1.232,-1.92 -2.047,-3.93 -2.445,-6.031c-0.181,-0.58 -0.308,-0.833 -0.38,-0.761c-0.109,0.398 -0.2,0.797 -0.272,1.195c-0.761,3.115 -2.97,5.687 -6.629,7.716c-2.101,1.304 -4.075,2.318 -5.922,3.042c-0.652,0.254 -1.123,0.308 -1.413,0.163c-0.289,-0.108 -0.072,-0.362 0.652,-0.76c5.76,-3.116 8.929,-6.901 9.509,-11.356c0.507,-2.354 0.778,-4.799 0.815,-7.335l0,-2.934l-0.055,-1.467c0,-0.724 0.362,-1.086 1.087,-1.086l1.684,0c0.725,0 1.087,0.362 1.087,1.086l0,6.085c-0.036,1.196 -0.145,2.427 -0.326,3.695c-0.109,0.58 0.072,1.232 0.543,1.956c0.435,0.616 0.96,1.25 1.576,1.902c0.543,0.579 0.942,0.507 1.195,-0.218c0.435,-0.471 0.833,-1.141 1.195,-2.01c0.109,-0.217 0.163,-0.616 0.163,-1.195l0,-12.66c0,-0.579 -0.289,-0.869 -0.869,-0.869l-10.377,0c-0.616,0 -0.924,0.29 -0.924,0.869l0,15.811c0,0.761 -0.362,1.141 -1.087,1.141l-1.684,0c-0.761,0 -1.141,-0.362 -1.141,-1.087l0,-19.505Zm-2.065,12.605c0.544,-0.833 0.797,-1.105 0.761,-0.815c-0.036,0.145 -0.145,0.399 -0.326,0.761c-1.268,2.898 -3.079,5.777 -5.433,8.639c-1.992,1.919 -4.075,3.64 -6.248,5.161c-0.689,0.471 -1.033,0.344 -1.033,-0.38c0,-0.29 -0.036,-0.58 -0.108,-0.869c-0.218,-1.087 -0.399,-2.174 -0.544,-3.26c-0.145,-0.833 0.127,-1.304 0.815,-1.413c1.268,-0.217 2.699,-0.67 4.293,-1.358c2.897,-1.051 5.505,-3.206 7.823,-6.466Z" style="fill:#f9f9f9;fill-rule:nonzero;"/><path d="M306.465,18.158c0.181,-0.144 0.616,-0.018 1.304,0.381c1.956,1.231 3.93,2.481 5.922,3.749c0.87,0.543 1.033,1.177 0.489,1.901c-0.688,0.906 -1.358,1.829 -2.01,2.771c-0.435,0.616 -0.362,0.924 0.217,0.924l4.347,0c0.579,0 1.068,-0.362 1.467,-1.087l3.966,-7.606c0.435,-0.833 0.978,-1.014 1.63,-0.544l1.63,1.304c0.833,0.652 0.906,1.304 0.217,1.956c-1.774,1.667 -3.567,3.351 -5.378,5.053c-0.58,0.616 -0.58,0.924 0,0.924l3.857,0c0.58,0 0.869,-0.272 0.869,-0.815c0,-0.58 0.363,-0.869 1.087,-0.869l2.119,0c0.724,0 1.087,0.362 1.087,1.086l0,21.19c0,0.761 -0.363,1.141 -1.087,1.141l-2.065,0c-0.76,0 -1.141,-0.362 -1.141,-1.087c0,-0.724 -0.289,-1.086 -0.869,-1.086l-6.465,0c-0.616,0 -0.924,0.289 -0.924,0.869l0,5.216c0,0.616 0.29,0.923 0.869,0.923l14.072,0c0.725,0 1.087,0.345 1.087,1.033c0,0.724 -0.362,1.086 -1.087,1.086l-14.017,0c-0.616,0 -0.924,0.29 -0.924,0.87l0,12.768c0,0.761 -0.362,1.141 -1.087,1.141l-1.684,0c-0.761,0 -1.141,-0.362 -1.141,-1.087l0,-12.822c0,-0.58 -0.29,-0.87 -0.869,-0.87l-13.203,0c-0.761,0 -1.141,-0.344 -1.141,-1.032c0,-0.724 0.362,-1.087 1.087,-1.087l13.257,0c0.579,0 0.869,-0.289 0.869,-0.869l0,-5.27c0,-0.58 -0.29,-0.869 -0.869,-0.869l-5.216,0c-0.616,0 -0.924,0.289 -0.924,0.869l0,1.032c0,0.761 -0.362,1.141 -1.087,1.141l-2.064,0c-0.761,0 -1.141,-0.362 -1.141,-1.086l0,-22.114c0,-0.724 0.362,-1.086 1.086,-1.086l2.119,0c0.725,0 1.087,0.271 1.087,0.815c0,0.579 0.29,0.869 0.869,0.869l3.967,0c0.579,0 0.724,-0.362 0.434,-1.087c-1.014,-2.39 -2.354,-4.853 -4.02,-7.389c-0.507,-0.724 -0.707,-1.141 -0.598,-1.25Zm6.357,12.823c0,-0.616 -0.272,-0.924 -0.815,-0.924l-5.27,0c-0.616,0 -0.924,0.29 -0.924,0.87l0,4.781c0,0.616 0.29,0.923 0.869,0.923l5.271,0c0.579,0 0.869,-0.289 0.869,-0.869l0,-4.781Zm12.17,0c0,-0.616 -0.271,-0.924 -0.815,-0.924l-6.519,0c-0.616,0 -0.924,0.29 -0.924,0.87l0,4.781c0,0.616 0.29,0.923 0.869,0.923l6.52,0c0.58,0 0.869,-0.289 0.869,-0.869l0,-4.781Zm-12.17,8.693c0,-0.616 -0.272,-0.924 -0.815,-0.924l-5.27,0c-0.616,0 -0.924,0.29 -0.924,0.87l0,4.727c0,0.615 0.29,0.923 0.869,0.923l5.271,0c0.579,0 0.869,-0.289 0.869,-0.869l0,-4.727Zm12.17,0c0,-0.616 -0.271,-0.924 -0.815,-0.924l-6.519,0c-0.616,0 -0.924,0.29 -0.924,0.87l0,4.727c0,0.615 0.29,0.923 0.869,0.923l6.52,0c0.58,0 0.869,-0.289 0.869,-0.869l0,-4.727Z" style="fill:#f9f9f9;fill-rule:nonzero;"/></svg>