<?xml version="1.0" encoding="UTF-8" standalone="no"?><!DOCTYPE svg PUBLIC "-//W3C//DTD SVG 1.1//EN" "http://www.w3.org/Graphics/SVG/1.1/DTD/svg11.dtd"><svg width="100%" height="100%" viewBox="0 0 371 146" version="1.1" xmlns="http://www.w3.org/2000/svg" xmlns:xlink="http://www.w3.org/1999/xlink" xml:space="preserve" xmlns:serif="http://www.serif.com/" style="fill-rule:evenodd;clip-rule:evenodd;stroke-linejoin:round;stroke-miterlimit:2;"><path d="M16.97,5.925c0,-1.975 0.988,-2.962 2.963,-2.962l4.74,0c1.975,0 2.963,0.987 2.963,2.962l0,25.332c0,1.679 0.79,2.518 2.37,2.518l6.37,0c1.975,0 2.963,0.939 2.963,2.815c0,1.975 -0.988,2.963 -2.963,2.963l-6.222,0c-1.679,0 -2.518,0.79 -2.518,2.37l0,5.925c0,1.581 0.79,3.161 2.37,4.741l9.925,9.036c2.074,1.975 2.667,3.95 1.778,5.926l-3.259,6.962c-0.889,1.975 -1.926,1.827 -3.111,-0.444c-1.778,-3.457 -3.901,-8.494 -6.37,-15.11c-0.889,-1.778 -1.333,-1.63 -1.333,0.444l0,82.513c0,2.074 -0.988,3.111 -2.963,3.111l-4.592,0c-2.074,0 -3.111,-0.988 -3.111,-2.963l0,-53.182c-0.099,-1.975 -0.247,-2.913 -0.444,-2.814c-1.679,4.049 -3.21,8.098 -4.593,12.147c-1.58,4.543 -4.246,8.987 -7.999,13.332c-1.58,1.778 -2.716,2.667 -3.407,2.667c-0.79,0 -0.692,-0.988 0.296,-2.963c3.95,-7.604 6.962,-15.505 9.036,-23.702c3.358,-15.11 5.333,-30.319 5.926,-45.626c0,-1.58 -0.79,-2.37 -2.37,-2.37l-9.926,0c-2.073,0 -3.11,-0.939 -3.11,-2.815c0,-1.975 0.987,-2.963 2.962,-2.963l11.259,0c1.58,0 2.37,-0.79 2.37,-2.37l0,-25.48Zm42.664,0c0,-1.975 0.987,-2.962 2.962,-2.962l3.556,0c1.975,0 2.962,0.987 2.962,2.962l0,44.294c0,1.678 0.79,2.518 2.371,2.518l9.48,0c1.58,0 2.371,-0.988 2.371,-2.963c0,-2.074 0.987,-3.111 2.962,-3.111l4.741,0c1.975,0 2.962,0.988 2.962,2.963l0,89.919c0,2.074 -0.987,3.111 -2.962,3.111l-4.593,0c-2.074,0 -3.11,-0.987 -3.11,-2.962l0,-2.963c0,-1.58 -0.791,-2.37 -2.371,-2.37l-37.182,0c-2.074,0 -3.111,-0.939 -3.111,-2.815c0,-1.975 0.988,-2.963 2.963,-2.963l37.33,0c1.58,0 2.371,-0.79 2.371,-2.37l0,-33.331c0,-1.58 -0.791,-2.37 -2.371,-2.37l-34.812,0c-2.074,0 -3.111,-0.988 -3.111,-2.963c0,-1.975 0.988,-2.963 2.963,-2.963l34.96,0c1.58,0 2.371,-0.79 2.371,-2.37l0,-21.332c0,-1.58 -0.791,-2.37 -2.371,-2.37l-35.997,0c-2.074,0 -3.111,-0.938 -3.111,-2.814c0,-1.976 0.988,-2.963 2.963,-2.963l12.443,0c1.58,0 2.371,-0.79 2.371,-2.37l0,-44.442Zm-17.184,7.111c-0.395,-1.975 -0.395,-2.963 0,-2.963c0.493,0 1.382,1.087 2.666,3.259l11.407,18.518c1.185,1.975 1.037,3.95 -0.445,5.925l-4.74,5.777c-1.58,1.976 -2.568,1.976 -2.963,0l-5.925,-30.516Zm44.293,1.333c0.889,-2.074 2.32,-2.222 4.296,-0.444c0.987,0.79 1.975,1.629 2.962,2.518c2.272,1.975 2.716,3.901 1.334,5.778l-14.814,20.443c-1.284,1.876 -2.716,2.814 -4.296,2.814c-1.481,0 -1.827,-0.987 -1.037,-2.963c3.753,-9.382 7.604,-18.764 11.555,-28.146Z" style="fill:#c5172b;fill-rule:nonzero;"/><path d="M178.38,3.259c-1.481,-2.173 -2.024,-3.259 -1.629,-3.259c0.691,0 1.926,0.395 3.703,1.185l10.37,4.148c1.975,0.79 2.123,2.173 0.444,4.148l-1.333,1.481c-1.382,1.778 -1.284,2.667 0.296,2.667l28.443,0c1.58,0 2.37,-0.79 2.37,-2.371c0,-1.678 0.988,-2.518 2.963,-2.518l3.555,0c1.975,0 2.963,0.988 2.963,2.963l0,15.258c0,1.975 -0.543,2.617 -1.63,1.926c-1.185,-0.79 -2.765,-0.889 -4.74,-0.296c-1.284,0.691 -2.025,1.432 -2.222,2.222c-0.395,0.691 -0.691,-0.05 -0.889,-2.222l0,-6.815c0,-1.58 -0.79,-2.37 -2.37,-2.37l-66.366,0c-1.679,0 -2.518,0.79 -2.518,2.37l0,5.185c0,2.074 -0.988,3.111 -2.963,3.111l-3.259,0c-2.074,0 -3.111,-0.988 -3.111,-2.963l0,-15.406c0,-1.975 0.988,-2.963 2.963,-2.963l3.407,0c1.975,0 2.963,0.79 2.963,2.37c0,1.679 0.79,2.519 2.37,2.519l29.776,0c1.58,0 1.926,-0.988 1.037,-2.963l-4.593,-7.407Zm-5.332,22.813c1.283,-1.975 2.913,-2.864 4.888,-2.666c1.876,0.098 3.802,0.247 5.777,0.444c1.976,0.198 2.371,1.333 1.186,3.407c-1.482,2.469 -2.864,4.988 -4.148,7.555c-0.692,1.58 -0.247,2.37 1.333,2.37l47.7,0c1.975,0 2.963,0.939 2.963,2.815c0,2.074 -0.988,3.111 -2.963,3.111l-15.702,0c-1.581,0 -3.013,0.988 -4.296,2.963c-3.556,5.925 -6.518,10.073 -8.889,12.443c-1.481,1.58 -1.234,2.568 0.741,2.963c5.827,1.185 11.703,2.42 17.628,3.703c1.976,0.395 3.309,1.63 4,3.704c0.79,2.469 1.63,4.938 2.518,7.407c0.791,2.37 0.198,3.259 -1.777,2.666c-5.827,-1.777 -16.246,-5.481 -31.257,-11.11c-1.679,-0.691 -3.457,-0.543 -5.333,0.444c-11.752,5.63 -24.048,9.679 -36.886,12.148c-1.976,0.395 -3.161,0.395 -3.556,0c-0.395,-0.297 0.544,-0.889 2.815,-1.778c9.777,-3.654 19.159,-8.197 28.146,-13.629c1.975,-1.185 2.123,-2.074 0.444,-2.666l-8.147,-2.963c-1.58,-0.592 -2.815,-0.099 -3.704,1.481c-0.79,1.581 -2.172,2.371 -4.147,2.371l-5.778,0c-1.975,0 -2.518,-0.988 -1.629,-2.963l6.962,-14.814c0.692,-1.58 0.247,-2.37 -1.333,-2.37l-19.406,0c-2.074,0 -3.111,-0.988 -3.111,-2.963c0,-1.975 0.988,-2.963 2.963,-2.963l23.109,0c1.58,0 2.963,-0.987 4.148,-2.962c1.482,-2.765 3.062,-5.481 4.741,-8.148Zm22.368,19.999c1.284,-1.975 1.185,-2.963 -0.296,-2.963l-16.74,0c-1.58,0 -2.962,0.988 -4.147,2.963l-4.148,7.703c-0.79,1.58 -0.346,2.568 1.333,2.963c3.95,0.79 7.851,1.629 11.703,2.518c1.58,0.395 3.16,-0.198 4.74,-1.778c1.482,-1.876 4,-5.678 7.555,-11.406Zm-15.85,30.96c0,-1.975 0.987,-2.962 2.962,-2.962l5.778,0c1.975,0 2.962,0.987 2.962,2.962l0,8.741c0,1.678 0.79,2.518 2.371,2.518l38.515,0c1.976,0 2.963,0.741 2.963,2.222c0,1.58 -0.987,2.37 -2.963,2.37l-32.442,0c-1.679,0 -1.876,0.988 -0.592,2.963c6.221,8.789 14.122,15.406 23.702,19.85c3.061,1.383 6.024,2.321 8.888,2.815c2.271,0.296 2.963,1.333 2.074,3.111c-1.877,3.16 -2.469,6.073 -1.778,8.74c0,0.987 0.099,1.975 0.296,2.963c0.297,2.271 -0.493,2.864 -2.37,1.777c-9.481,-4.839 -17.184,-11.505 -23.109,-19.998c-3.852,-5.926 -7.407,-12.345 -10.666,-19.258c-0.889,-1.975 -1.926,-2.963 -3.111,-2.963c-1.185,0 -1.778,0.79 -1.778,2.37l0,46.664c0,2.074 -0.987,3.111 -2.962,3.111l-5.63,0c-2.073,0 -3.11,-0.988 -3.11,-2.963l0,-39.701c0,-1.778 -0.642,-1.63 -1.926,0.444c-5.629,8.592 -12.493,16.345 -20.591,23.258c-6.518,4.74 -12.444,8.493 -17.777,11.258c-2.271,1.185 -3.604,1.383 -4,0.593c-0.493,-0.691 0.346,-1.728 2.519,-3.111c10.666,-7.012 18.813,-16.196 24.442,-27.554c2.864,-5.332 4.79,-9.332 5.778,-11.999c0.494,-1.58 -0.05,-2.37 -1.63,-2.37l-26.368,0c-2.074,0 -3.111,-0.741 -3.111,-2.222c0,-1.58 0.988,-2.37 2.963,-2.37l37.33,0c1.581,0 2.371,-0.79 2.371,-2.37l0,-8.889Z" style="fill:#c5172b;fill-rule:nonzero;"/><path d="M327.051,4.889c-0.197,-2.074 0.691,-3.111 2.667,-3.111l4.592,0c1.975,0 3.012,0.987 3.111,2.962l1.037,19.555c0.197,1.58 1.086,2.37 2.666,2.37l26.517,0c1.975,0 2.963,0.938 2.963,2.814c0,1.976 -0.988,2.963 -2.963,2.963l-25.332,0c-1.58,0 -2.172,0.988 -1.777,2.963c1.185,3.753 2.962,7.703 5.333,11.851c3.851,6.32 8.838,10.271 14.962,11.851c1.777,0.395 2.962,-0.247 3.555,-1.926c0.889,-3.654 1.876,-7.308 2.963,-10.962c0.691,-1.975 1.135,-2.963 1.333,-2.963c0.395,0 0.444,0.938 0.148,2.815c-0.593,3.16 -0.889,5.481 -0.889,6.962c0.099,2.37 0.79,4.148 2.074,5.333c0.395,0.198 0.593,1.284 0.593,3.259l0,10.37c0,1.975 -0.988,2.765 -2.963,2.37c-9.283,-2.173 -17.184,-6.123 -23.702,-11.851c-4.346,-3.852 -7.506,-7.901 -9.481,-12.147c-2.37,-5.136 -4,-10.271 -4.888,-15.407c-0.297,-1.678 -1.186,-2.518 -2.667,-2.518l-18.369,0c-2.074,0 -3.111,-0.938 -3.111,-2.815c0,-1.975 0.988,-2.962 2.963,-2.962l18.369,0c1.58,0 2.271,-0.988 2.074,-2.963l-1.778,-18.813Zm-35.257,1.036c0.494,-1.975 1.679,-2.962 3.556,-2.962l8.295,0c1.976,0 2.519,0.987 1.63,2.962c-2.469,5.63 -4.889,11.308 -7.259,17.036c-0.592,1.679 -0.296,2.519 0.889,2.519c1.185,0 1.778,0.987 1.778,2.962l0,39.997c0,2.074 -0.988,3.111 -2.963,3.111l-4.592,0c-2.074,0 -3.111,-0.987 -3.111,-2.962l0,-31.257c0,-1.679 -0.741,-1.729 -2.222,-0.149l-9.037,9.778c-1.975,2.172 -3.308,3.259 -3.999,3.259c-0.79,0 -0.593,-0.988 0.592,-2.963c6.123,-9.876 10.074,-17.777 11.851,-23.702c1.284,-4.346 2.815,-10.222 4.592,-17.629Zm55.108,0.445c-0.79,-2.37 -0.247,-3.111 1.629,-2.222c3.457,2.074 7.358,4.888 11.703,8.444c2.173,1.382 2.568,2.962 1.185,4.74l-3.555,4.444c-1.778,2.272 -3.161,2.519 -4.148,0.741c-2.765,-5.432 -5.037,-10.814 -6.814,-16.147Zm-29.183,49.33c-0.198,-1.976 -0.149,-2.963 0.148,-2.963c0.296,0 1.629,0.987 3.999,2.963l7.407,6.666c2.272,2.173 2.716,4.246 1.333,6.222l-3.555,5.481c-0.889,1.58 -0.543,2.37 1.037,2.37l38.22,0c1.975,0 2.962,0.938 2.962,2.815c0,1.975 -0.987,2.962 -2.962,2.962l-35.85,0c-1.58,0 -1.975,0.988 -1.185,2.963c3.16,7.506 6.271,13.184 9.333,17.036c1.481,1.679 2.913,1.629 4.296,-0.148c2.074,-2.963 6.469,-8.148 13.184,-15.555c1.778,-1.975 3.457,-1.975 5.037,0l2.666,3.556c1.383,1.876 0.938,3.505 -1.333,4.888l-16.295,10.37c-1.877,1.284 -1.827,2.666 0.148,4.148c7.111,5.431 14.518,9.332 22.221,11.702c2.074,0.889 2.715,2.272 1.925,4.148c-0.987,2.37 -1.333,4.346 -1.037,5.926c0.198,2.37 0.494,4.79 0.889,7.258c0.198,1.976 -0.74,2.469 -2.814,1.482c-14.814,-6.419 -25.776,-16.443 -32.887,-30.072c-3.95,-7.999 -6.468,-16.443 -7.555,-25.332c-0.197,-1.58 -1.284,-2.37 -3.259,-2.37c-1.876,0 -3.407,0.988 -4.592,2.963l-4.889,8.888c-0.395,0.692 -0.592,1.827 -0.592,3.407l0,29.776c0,1.679 1.037,2.123 3.111,1.333c4.839,-1.777 9.727,-3.654 14.665,-5.629c2.37,-1.086 3.901,-1.284 4.593,-0.593c0.79,0.791 0.197,1.828 -1.778,3.111c-15.011,9.382 -27.85,15.9 -38.516,19.555c-2.271,0.79 -3.209,0.246 -2.814,-1.63c0.79,-2.173 0.493,-5.333 -0.889,-9.481c-0.494,-1.975 0.247,-2.963 2.222,-2.963l5.185,0c1.58,0 2.37,-0.79 2.37,-2.37l0,-16.443c0,-1.58 -0.988,-1.58 -2.963,0c-7.012,6.518 -14.912,12.789 -23.702,18.813c-1.975,1.482 -3.16,1.976 -3.555,1.482c-0.395,-0.296 0.197,-1.333 1.777,-3.111c2.469,-2.667 5.136,-5.234 8,-7.703c7.999,-7.111 14.122,-15.505 18.369,-25.184c1.876,-3.95 3.802,-7.9 5.777,-11.851c0.692,-1.58 0.247,-2.37 -1.333,-2.37l-25.331,0c-2.074,0 -3.111,-0.938 -3.111,-2.814c0,-1.976 0.987,-2.963 2.962,-2.963l42.071,0c1.581,0 2.025,-0.988 1.334,-2.963c-1.679,-5.135 -3.161,-11.061 -4.444,-17.776Z" style="fill:#c5172b;fill-rule:nonzero;"/></svg>