<?xml version="1.0" encoding="UTF-8" standalone="no"?><!DOCTYPE svg PUBLIC "-//W3C//DTD SVG 1.1//EN" "http://www.w3.org/Graphics/SVG/1.1/DTD/svg11.dtd"><svg width="100%" height="100%" viewBox="0 0 224 224" version="1.1" xmlns="http://www.w3.org/2000/svg" xmlns:xlink="http://www.w3.org/1999/xlink" xml:space="preserve" xmlns:serif="http://www.serif.com/" style="fill-rule:evenodd;clip-rule:evenodd;stroke-linejoin:round;stroke-miterlimit:2;"><path d="M112,4.344c-59.361,0 -107.656,48.294 -107.656,107.656c0,59.363 48.295,107.657 107.656,107.657c59.362,0 107.657,-48.294 107.657,-107.657c0,-59.362 -48.295,-107.656 -107.657,-107.656m0,219.656c-61.757,0 -112,-50.243 -112,-112c0,-61.757 50.243,-112 112,-112c61.758,0 112,50.243 112,112c0,61.757 -50.242,112 -112,112" style="fill:#c0272d;fill-rule:nonzero;"/><path d="M35.382,173.006c-0.37,0.537 -0.588,0.756 -0.656,0.655c-0.033,-0.094 -0.036,-0.296 -0.009,-0.605l0.082,-3.55c0.02,-0.625 0.303,-0.944 0.847,-0.957l2.108,-0.05c0.558,0.007 0.682,0.259 0.372,0.757c-0.491,0.705 -1.405,1.955 -2.744,3.75Zm-2.126,-4.438c-0.383,0.255 -0.709,0.181 -0.978,-0.222l-7.558,-11.348c-0.269,-0.403 -0.211,-0.732 0.172,-0.988c0.403,-0.268 0.739,-0.201 1.008,0.202l7.538,11.317c0.282,0.424 0.222,0.77 -0.182,1.039Zm2.966,-4.073c-0.423,0.282 -0.763,0.232 -1.018,-0.151l-0.665,-0.999c-0.269,-0.403 -0.292,-0.679 -0.07,-0.827c0.242,-0.161 0.255,-0.403 0.04,-0.726l-3.063,-4.599c-0.215,-0.323 -0.434,-0.41 -0.656,-0.263c-0.242,0.162 -0.497,0.04 -0.766,-0.363l-0.463,-0.696c-0.269,-0.403 -0.202,-0.739 0.202,-1.008l6.959,-4.636c0.424,-0.282 0.77,-0.221 1.039,0.182l0.443,0.666c0.282,0.423 0.222,0.769 -0.182,1.038c-0.403,0.269 -0.497,0.565 -0.282,0.887l3.043,4.57c0.228,0.343 0.534,0.386 0.918,0.131c0.423,-0.282 0.769,-0.221 1.038,0.182l0.625,0.938c0.282,0.424 0.222,0.77 -0.182,1.039l-6.96,4.635Zm4.083,3.572c-0.404,0.268 -0.733,0.211 -0.988,-0.172l-0.806,-1.211c-0.269,-0.403 -0.182,-0.709 0.262,-0.917c1.775,-0.833 3.732,-1.481 5.87,-1.944c0.403,-0.094 0.601,-0.43 0.595,-1.008l-0.09,-2.561c-0.013,-0.632 0.233,-0.985 0.737,-1.059l1.875,-0.332c0.525,-0.087 0.652,0.148 0.383,0.706l-1.594,2.853c-0.155,0.249 -0.155,0.38 0,0.393l0.595,-0.352l14.887,-9.917c0.424,-0.282 0.77,-0.221 1.039,0.182l0.463,0.696c0.283,0.424 0.222,0.77 -0.181,1.039l-13.133,8.747c-0.323,0.215 -0.188,0.417 0.403,0.605c0.78,0.209 1.57,0.411 2.37,0.606c0.584,0.135 0.897,0.233 0.937,0.293c0.041,0.061 -0.235,0.084 -0.827,0.07c-2.5,-0.169 -4.645,0.022 -6.433,0.573c-1.244,0.362 -2.542,0.862 -3.893,1.5c-0.336,0.195 -0.397,0.454 -0.182,0.777l1.653,2.481c0.282,0.424 0.231,0.763 -0.152,1.018c-0.403,0.269 -0.739,0.202 -1.008,-0.202l-1.854,-2.783c-0.215,-0.323 -0.525,-0.35 -0.928,-0.081Zm-7.457,-12.507c-0.343,0.228 -0.414,0.494 -0.212,0.796l3.064,4.6c0.228,0.343 0.504,0.407 0.826,0.192l2.905,-1.935c0.343,-0.229 0.407,-0.504 0.192,-0.827l-3.063,-4.599c-0.215,-0.323 -0.484,-0.377 -0.807,-0.162l-2.905,1.935Zm13.108,3.151c-0.404,0.269 -0.74,0.201 -1.009,-0.202l-0.645,-0.968c-0.268,-0.404 -0.252,-0.706 0.051,-0.908c0.323,-0.215 0.377,-0.484 0.162,-0.806l-3.87,-5.81c-0.215,-0.323 -0.474,-0.384 -0.776,-0.182c-0.323,0.215 -0.619,0.121 -0.888,-0.283l-0.645,-0.968c-0.268,-0.403 -0.201,-0.739 0.202,-1.008l13.98,-9.312c0.424,-0.282 0.77,-0.221 1.039,0.182l0.624,0.938c0.283,0.424 0.222,0.77 -0.181,1.039l-0.848,0.564c-0.322,0.215 -0.376,0.484 -0.161,0.807l3.849,5.779c0.229,0.343 0.504,0.407 0.827,0.192l0.817,-0.544c0.424,-0.282 0.77,-0.222 1.039,0.182l0.624,0.938c0.283,0.423 0.222,0.769 -0.182,1.038l-14.009,9.332Zm-1.006,-5.97c-0.343,0.229 -0.414,0.494 -0.213,0.797l0.968,1.452c0.228,0.343 0.504,0.407 0.827,0.192l3.147,-2.096c0.343,-0.229 0.407,-0.504 0.192,-0.827l-0.968,-1.452c-0.215,-0.323 -0.484,-0.377 -0.807,-0.162l-3.146,2.096Zm-2.903,-4.357c-0.343,0.228 -0.413,0.494 -0.212,0.796l1.149,1.725c0.228,0.343 0.504,0.407 0.827,0.192l3.147,-2.096c0.343,-0.228 0.407,-0.504 0.192,-0.827l-1.149,-1.725c-0.215,-0.322 -0.484,-0.376 -0.807,-0.161l-3.147,2.096Zm8.198,0.83c-0.323,0.215 -0.377,0.484 -0.162,0.807l0.948,1.422c0.228,0.343 0.504,0.407 0.826,0.192l3.873,-2.58c0.343,-0.229 0.407,-0.504 0.192,-0.827l-0.967,-1.452c-0.215,-0.323 -0.484,-0.377 -0.807,-0.162l-3.903,2.6Zm-2.902,-4.357c-0.323,0.215 -0.377,0.484 -0.162,0.806l1.129,1.695c0.228,0.343 0.504,0.407 0.826,0.192l3.874,-2.58c0.342,-0.229 0.406,-0.504 0.191,-0.827l-1.148,-1.725c-0.215,-0.322 -0.484,-0.376 -0.807,-0.161l-3.903,2.6Z" style="fill:#c5172b;fill-rule:nonzero;"/><path d="M15.086,123.829c-0.484,0.03 -0.741,-0.197 -0.771,-0.681l-0.069,-1.125c-0.029,-0.484 0.198,-0.741 0.682,-0.77l8.854,-0.543c0.387,-0.023 0.696,-0.139 0.926,-0.348l3.801,-3.365c0.505,-0.468 0.995,-0.595 1.47,-0.381l2.217,1.102c0.476,0.238 0.452,0.446 -0.072,0.624l-5.418,1.934c-0.401,0.195 -0.359,0.277 0.125,0.248l11.032,-0.676c0.922,-0.008 1.896,0.03 2.921,0.113c2.556,0.11 5.306,1.399 8.25,3.865c0.59,0.523 0.842,0.872 0.756,1.047c-0.085,0.199 -0.378,0.169 -0.88,-0.092c-2.005,-1.018 -3.929,-1.702 -5.771,-2.051c-1.742,-0.281 -4.234,-0.335 -7.477,-0.161l-20.576,1.26Zm-0.427,-6.967c-0.484,0.029 -0.741,-0.198 -0.77,-0.682l-0.089,-1.451c-0.03,-0.484 0.197,-0.741 0.681,-0.771l9.145,-0.56c0.387,-0.023 0.81,-0.256 1.269,-0.696l3.274,-3.042c0.46,-0.417 0.94,-0.507 1.44,-0.27l2.067,1.039c0.526,0.259 0.555,0.524 0.085,0.796c-1.341,0.689 -2.286,1.123 -2.834,1.302c-0.739,0.216 -1.625,0.428 -2.656,0.637c0.003,0.048 0.174,0.062 0.512,0.041l19.56,-1.198c0.508,-0.031 0.777,0.196 0.807,0.679l0.086,1.416c0.031,0.508 -0.195,0.777 -0.679,0.806l-31.898,1.954Zm-0.427,-6.968c-0.484,0.03 -0.74,-0.197 -0.77,-0.681l-0.069,-1.125c-0.03,-0.484 0.198,-0.741 0.681,-0.77l33.314,-2.04c0.508,-0.032 0.777,0.195 0.807,0.679l0.066,1.088c0.031,0.508 -0.195,0.777 -0.679,0.807l-33.35,2.042Zm9.232,16.919c-0.508,0.031 -0.776,-0.183 -0.804,-0.643l-0.074,-1.197c-0.029,-0.484 0.198,-0.741 0.682,-0.771l1.959,-0.12c1.239,-0.003 2.236,0.021 2.992,0.072c2.193,0.133 4.307,1.145 6.341,3.036c0.233,0.228 0.364,0.39 0.394,0.486c0.008,0.121 -0.261,0.101 -0.805,-0.06c-0.495,-0.164 -0.993,-0.365 -1.493,-0.601c-0.697,-0.273 -1.191,-0.413 -1.483,-0.419c-0.999,-0.06 -2.021,-0.083 -3.064,-0.068l-4.645,0.285Z" style="fill:#c5172b;fill-rule:nonzero;"/><path d="M25.835,71.462c0.679,-2.992 1.087,-6.039 1.223,-9.139c0.043,-0.52 0.324,-0.922 0.844,-1.204l2.502,-1.353c0.455,-0.261 0.591,-0.126 0.407,0.406c-0.172,0.455 -0.323,0.921 -0.453,1.398c-0.356,1.042 -0.658,1.974 -0.907,2.798c-0.086,0.391 0.045,0.672 0.392,0.845l5.174,2.578c0.369,0.184 0.64,0.103 0.812,-0.245l2.417,-4.848c0.216,-0.434 0.53,-0.548 0.942,-0.343c0.434,0.216 0.543,0.541 0.327,0.975l-2.384,4.784c-0.173,0.347 -0.059,0.661 0.343,0.942c0.814,0.595 1.579,1.234 2.295,1.916c0.846,0.747 1.677,1.824 2.492,3.232c0.239,0.39 0.445,0.411 0.618,0.064l1.686,-3.384c0.173,-0.347 0.043,-0.629 -0.391,-0.845c-0.434,-0.216 -0.543,-0.541 -0.327,-0.975l0.503,-1.009c0.216,-0.434 0.541,-0.543 0.975,-0.326l13.472,6.713c0.456,0.227 0.576,0.557 0.359,0.991l-0.356,0.716c-0.227,0.455 -0.558,0.575 -0.992,0.359l-0.911,-0.454c-0.347,-0.173 -0.607,-0.086 -0.78,0.261l-2.448,4.914c-0.184,0.369 -0.103,0.64 0.245,0.812l0.878,0.438c0.456,0.227 0.575,0.558 0.359,0.992l-0.373,0.748c-0.227,0.456 -0.557,0.575 -0.991,0.359l-6.378,-3.178l-0.618,-0.308c-0.087,0.011 -0.141,0.038 -0.163,0.081c0.065,0.195 0.218,0.488 0.457,0.878c1.336,2.534 1.99,5.108 1.961,7.72c0.023,0.878 -0.035,1.729 -0.175,2.553c-0.086,0.499 -0.335,0.619 -0.748,0.359l-1.057,-0.73l-1.025,-0.308c-0.445,-0.14 -0.505,-0.427 -0.18,-0.861c0.39,-0.293 0.573,-0.879 0.55,-1.757c0.043,-0.412 -0.109,-0.704 -0.456,-0.877l-13.765,-6.859c-0.347,-0.173 -0.607,-0.086 -0.78,0.261l-1.087,2.18c-0.227,0.456 -0.557,0.575 -0.991,0.359l-0.26,-0.129c-0.434,-0.217 -0.543,-0.542 -0.327,-0.976l1.103,-2.212c0.173,-0.348 0.053,-0.624 -0.359,-0.829c-0.434,-0.216 -0.543,-0.541 -0.327,-0.975l0.503,-1.009c0.216,-0.434 0.541,-0.543 0.975,-0.327l15.718,7.832c0.347,0.173 0.476,-0.033 0.389,-0.618l-0.753,-3.462c-0.12,-0.52 -0.331,-0.856 -0.635,-1.008l-5.077,-2.529c-0.433,-0.216 -0.542,-0.541 -0.326,-0.975l0.389,-0.781c0.216,-0.434 0.53,-0.548 0.943,-0.343c0.455,0.227 0.769,0.167 0.942,-0.18c0.173,-0.347 0.075,-0.694 -0.294,-1.04c-0.77,-0.628 -1.53,-1.142 -2.278,-1.542l-3.449,-1.719c-0.348,-0.173 -0.608,-0.086 -0.781,0.262l-2.124,4.262c-0.227,0.456 -0.546,0.581 -0.959,0.376c-0.433,-0.216 -0.542,-0.542 -0.326,-0.975l2.14,-4.296c0.173,-0.347 0.086,-0.607 -0.261,-0.78l-4.946,-2.465c-0.347,-0.173 -0.618,-0.037 -0.813,0.408l-1.653,3.726c-0.216,0.434 -0.4,0.613 -0.552,0.537c-0.152,-0.076 -0.185,-0.363 -0.099,-0.862Zm-4.806,4.917c-0.499,-0.14 -0.748,-0.237 -0.748,-0.291c0.054,-0.055 0.384,-0.201 0.991,-0.441l3.023,-1.012c0.65,-0.218 1.138,-0.11 1.464,0.323l1.384,1.787c0.326,0.433 0.234,0.617 -0.275,0.553c-2.114,-0.214 -4.061,-0.52 -5.839,-0.919Zm25.715,-5.384c-0.347,-0.173 -0.607,-0.086 -0.78,0.261l-2.448,4.914c-0.184,0.369 -0.102,0.639 0.245,0.812l7.81,3.892c0.368,0.184 0.639,0.102 0.812,-0.245l2.465,-4.946c0.173,-0.347 0.086,-0.607 -0.261,-0.78l-7.843,-3.908Z" style="fill:#c5172b;fill-rule:nonzero;"/><path d="M56.255,31.411c-0.402,-0.344 -0.563,-0.543 -0.482,-0.597c0.081,-0.053 0.256,-0.096 0.525,-0.128l3.209,-0.42c0.571,-0.058 0.863,0.185 0.874,0.73l0.035,1.24c0.031,0.444 0.209,0.559 0.533,0.345l8.1,-5.349c0.405,-0.267 0.734,-0.209 0.987,0.176c0.281,0.424 0.219,0.77 -0.186,1.037l-18.385,12.142c-0.424,0.28 -0.77,0.218 -1.038,-0.186c-0.267,-0.405 -0.198,-0.74 0.207,-1.008l8.585,-5.67c0.324,-0.213 0.221,-0.436 -0.309,-0.666c-1.181,-0.644 -2.066,-1.193 -2.655,-1.646Zm0.242,9.208c-0.267,-0.405 -0.198,-0.74 0.206,-1.008l0.698,-0.46c0.404,-0.268 0.68,-0.29 0.827,-0.067c0.174,0.263 0.422,0.287 0.746,0.073l6.583,-4.347c0.324,-0.214 0.406,-0.442 0.245,-0.685c-0.16,-0.243 -0.038,-0.498 0.367,-0.765l0.697,-0.46c0.405,-0.268 0.741,-0.199 1.008,0.206l4.288,6.492c0.28,0.425 0.218,0.771 -0.186,1.038l-0.668,0.441c-0.425,0.28 -0.771,0.218 -1.038,-0.186c-0.267,-0.405 -0.562,-0.5 -0.886,-0.287l-6.553,4.328c-0.344,0.227 -0.389,0.533 -0.135,0.917c0.28,0.425 0.218,0.771 -0.186,1.038l-0.668,0.441c-0.424,0.28 -0.77,0.218 -1.037,-0.186l-4.308,-6.523Zm10.648,-4.461c-0.214,-0.324 -0.483,-0.379 -0.806,-0.165l-6.553,4.328c-0.344,0.227 -0.409,0.502 -0.196,0.826l1.603,2.427c0.227,0.344 0.503,0.409 0.826,0.195l6.584,-4.348c0.323,-0.214 0.378,-0.482 0.165,-0.806l-1.623,-2.457Zm7.342,4.257c-0.213,-0.324 -0.128,-0.612 0.256,-0.866l0.971,-0.641c0.405,-0.268 0.74,-0.199 1.008,0.206l7.533,11.407c0.566,1.253 0.334,2.727 -0.695,4.424c-0.311,0.408 -0.567,0.461 -0.767,0.158c-0.2,-0.304 -0.483,-0.291 -0.847,0.036l-1.296,1.205c-0.351,0.348 -0.621,0.468 -0.808,0.359c-0.188,-0.108 -0.137,-0.36 0.154,-0.755c0.257,-0.403 0.548,-0.798 0.872,-1.186c0.676,-0.65 1.009,-1.596 1.001,-2.84c-0.019,-0.249 -0.135,-0.535 -0.349,-0.858l-5.61,-8.495c-0.214,-0.324 -0.483,-0.379 -0.806,-0.165l-12.621,8.335c-0.344,0.227 -0.409,0.502 -0.195,0.826l7.433,11.255c0.281,0.425 0.219,0.771 -0.186,1.038l-0.91,0.601c-0.425,0.281 -0.771,0.219 -1.038,-0.186l-8.635,-13.076c-0.267,-0.404 -0.199,-0.74 0.206,-1.007l0.94,-0.621c0.405,-0.267 0.681,-0.29 0.827,-0.067c0.174,0.263 0.423,0.287 0.746,0.074l12.651,-8.355c0.324,-0.214 0.379,-0.483 0.165,-0.806Zm-8.174,10.845c-0.281,-0.425 -0.219,-0.771 0.186,-1.038l0.697,-0.461c0.405,-0.267 0.707,-0.249 0.908,0.054c0.227,0.344 0.502,0.409 0.826,0.196l2.7,-1.784c0.324,-0.213 0.378,-0.482 0.165,-0.806c-0.214,-0.323 -0.119,-0.619 0.286,-0.886l0.94,-0.621c0.405,-0.267 0.741,-0.198 1.008,0.206l4.127,6.25c0.281,0.425 0.219,0.771 -0.186,1.038l-0.91,0.601c-0.425,0.28 -0.771,0.218 -1.038,-0.186c-0.267,-0.405 -0.562,-0.5 -0.886,-0.286l-2.67,1.763c-0.343,0.227 -0.389,0.533 -0.135,0.917c0.281,0.425 0.219,0.77 -0.186,1.038l-0.698,0.46c-0.404,0.268 -0.74,0.199 -1.007,-0.206l-4.127,-6.249Zm6.904,-1.685c-0.213,-0.323 -0.482,-0.378 -0.806,-0.164l-2.669,1.763c-0.344,0.227 -0.409,0.502 -0.196,0.826l1.283,1.941c0.227,0.344 0.502,0.409 0.826,0.196l2.7,-1.784c0.323,-0.213 0.378,-0.482 0.165,-0.806l-1.303,-1.972Z" style="fill:#c5172b;fill-rule:nonzero;"/><path d="M102.815,14.961c-0.028,-0.484 0.2,-0.74 0.684,-0.768l1.452,-0.083c0.484,-0.028 0.74,0.2 0.768,0.684l0.206,3.594c0.024,0.411 0.229,0.605 0.616,0.583l3.594,-0.206c0.484,-0.028 0.739,0.188 0.765,0.648c0.028,0.484 -0.2,0.74 -0.684,0.767l-3.557,0.205c-0.412,0.023 -0.606,0.229 -0.584,0.616l0.234,4.065c0.023,0.412 0.229,0.606 0.616,0.584l1.706,-0.098c0.387,-0.022 0.676,-0.282 0.866,-0.778c0.355,-0.992 0.699,-1.983 1.031,-2.973c0.361,-0.895 0.775,-2.569 1.24,-5.024c0.118,-0.492 0.419,-0.752 0.902,-0.78l1.961,-0.113c0.483,-0.027 0.667,0.205 0.549,0.697c-0.526,2.677 -1.353,5.395 -2.481,8.155c-0.147,0.396 -0.027,0.584 0.36,0.561l5.3,-0.304c0.484,-0.028 0.739,0.188 0.765,0.648c0.028,0.484 -0.2,0.74 -0.684,0.768l-6.497,0.373c-0.387,0.022 -0.773,0.287 -1.156,0.795c-0.867,0.972 -1.709,1.955 -2.526,2.949c-0.268,0.404 -0.208,0.595 0.179,0.572l8.784,-0.504c0.484,-0.028 0.736,0.139 0.757,0.502c0.022,0.388 -0.209,0.595 -0.693,0.623l-8.493,0.488c-0.387,0.022 -0.64,0.279 -0.757,0.772l-0.285,0.744c-0.19,0.497 -0.805,1.2 -1.845,2.109c-0.461,0.44 -0.497,0.648 -0.11,0.626l6.098,-0.351c0.387,-0.022 0.567,-0.263 0.541,-0.723c-0.028,-0.484 0.2,-0.739 0.684,-0.767l1.452,-0.084c0.484,-0.027 0.74,0.201 0.768,0.685l0.5,8.711c0.028,0.484 -0.024,0.851 -0.155,1.101c-0.522,1.05 -1.338,2.068 -2.446,3.054c-0.414,0.412 -0.765,0.639 -1.054,0.68l-0.715,0.223c-0.571,0.203 -0.847,0.267 -0.827,0.193c-0.011,-0.193 -0.106,-0.358 -0.283,-0.493c-0.477,-0.264 -0.966,-0.333 -1.469,-0.207c-0.628,0.06 -1.268,0.109 -1.921,0.147c-0.509,0.029 -0.768,-0.053 -0.779,-0.247c-0.013,-0.218 0.232,-0.39 0.735,-0.516c0.931,-0.272 1.871,-0.593 2.821,-0.963c1.097,-0.354 1.978,-0.866 2.643,-1.536c0.391,-0.386 0.576,-0.761 0.555,-1.124l-0.353,-6.134c-0.022,-0.387 -0.227,-0.57 -0.614,-0.548l-6.134,0.353c-0.387,0.022 -0.697,0.125 -0.929,0.308c-0.302,0.236 -0.466,0.124 -0.493,-0.336c-0.073,-0.845 0.139,-1.804 0.636,-2.877l0.194,-1.067c0.026,-0.39 -0.193,-0.402 -0.658,-0.035c-2.546,2.161 -5.225,4.136 -8.035,5.924c-0.469,0.294 -0.803,0.398 -1.002,0.313c-0.225,-0.109 -0.117,-0.346 0.323,-0.711c1.833,-1.489 3.68,-3.137 5.543,-4.943c1.379,-1.342 3.53,-3.639 6.45,-6.89c0.365,-0.409 0.354,-0.603 -0.033,-0.58l-11.978,0.688c-0.508,0.029 -0.775,-0.186 -0.802,-0.646c-0.028,-0.484 0.2,-0.74 0.684,-0.768l7.115,-0.408c0.387,-0.023 0.569,-0.227 0.547,-0.615l-0.236,-4.101c-0.022,-0.387 -0.227,-0.57 -0.614,-0.548l-4.755,0.274c-0.508,0.029 -0.775,-0.186 -0.802,-0.646c-0.027,-0.484 0.201,-0.74 0.685,-0.768l4.791,-0.275c0.387,-0.022 0.57,-0.227 0.547,-0.614l-0.208,-3.63Z" style="fill:#c5172b;fill-rule:nonzero;"/><path d="M147.53,20.21c0.196,-0.552 0.418,-0.562 0.667,-0.031l2.039,4.443c0.259,0.565 0.096,0.971 -0.49,1.219l-1.937,0.858c-0.662,0.291 -0.97,0.176 -0.926,-0.344c0.223,-2.818 0.438,-4.866 0.647,-6.145Zm10.022,5.078c0.228,-0.455 0.548,-0.579 0.96,-0.372l1.039,0.522c0.433,0.218 0.541,0.543 0.323,0.976l-7.33,14.586c-0.338,0.943 -0.677,2.4 -1.017,4.372c-0.484,3.067 0.111,6.309 1.784,9.727c0.314,0.618 0.258,1.079 -0.165,1.382c-0.608,0.454 -1.217,1.666 -1.829,3.638c-0.152,0.466 -0.347,0.422 -0.585,-0.131c-1.132,-2.767 -1.609,-5.353 -1.431,-7.759c0.178,-2.243 0.562,-4.438 1.152,-6.583c0.12,-0.455 0.006,-0.498 -0.341,-0.131c-1.228,1.581 -2.64,3.014 -4.236,4.301c-0.967,0.735 -2.166,1.312 -3.597,1.732c-2.3,0.689 -4.724,1.193 -7.271,1.513c-0.38,0.054 -0.646,0.042 -0.797,-0.034c-0.173,-0.087 0.06,-0.254 0.7,-0.502c2.018,-0.723 3.867,-1.434 5.549,-2.135c2.734,-1.393 4.819,-3.058 6.254,-4.995c1.827,-2.717 3.551,-5.662 5.172,-8.835l5.666,-11.272Zm-12.933,3.062c0.174,-0.346 0.467,-0.416 0.878,-0.209l1.3,0.653c0.433,0.218 0.541,0.543 0.323,0.976l-8.277,16.47c-0.186,0.368 0.004,0.531 0.568,0.489c0.824,-0.074 2.282,-0.358 4.375,-0.853c0.618,-0.15 0.944,-0.176 0.976,-0.079c0.043,0.13 -0.207,0.33 -0.749,0.6c-2.452,1.047 -4.551,1.796 -6.297,2.247c-1.855,0.452 -3.72,0.654 -5.595,0.607c-0.618,-0.012 -0.823,-0.116 -0.617,-0.311c0.217,-0.216 0.342,-0.384 0.375,-0.503c0.175,-0.726 0.317,-1.468 0.427,-2.226c0.153,-0.575 0.468,-0.796 0.945,-0.665l1.771,0.524c0.412,0.098 0.699,-0.015 0.862,-0.34l7.576,-15.073c0.174,-0.347 0.088,-0.607 -0.259,-0.781l-2.436,-1.225c-0.455,-0.228 -0.579,-0.548 -0.372,-0.96c0.218,-0.433 0.543,-0.541 0.976,-0.323l2.469,1.241c0.346,0.174 0.607,0.088 0.781,-0.259Z" style="fill:#c5172b;fill-rule:nonzero;"/><path d="M189.261,50.751c0.189,0.021 0.203,0.331 0.044,0.928l-0.939,3.875c-0.153,0.651 -0.505,0.997 -1.057,1.04l-2.421,0.152c-0.531,0.03 -0.607,-0.196 -0.227,-0.677c1.394,-1.898 2.683,-3.468 3.87,-4.709c0.42,-0.42 0.663,-0.623 0.73,-0.609Zm1.608,7.162c0.405,-0.266 0.741,-0.196 1.006,0.21l6.517,9.944c0.265,0.405 0.206,0.734 -0.18,0.986c-0.405,0.266 -0.741,0.196 -1.006,-0.209l-1.814,-2.768c-0.226,-0.344 -0.501,-0.41 -0.825,-0.198l-9.214,6.038c-0.345,0.226 -0.411,0.501 -0.198,0.826l1.833,2.797c0.266,0.406 0.206,0.735 -0.179,0.987c-0.426,0.279 -0.772,0.216 -1.037,-0.19l-1.814,-2.767c-0.226,-0.345 -0.501,-0.411 -0.825,-0.198l-11.191,7.333c-0.345,0.226 -0.411,0.501 -0.198,0.825l1.993,3.041c0.265,0.406 0.246,0.708 -0.058,0.908c-0.324,0.212 -0.619,0.116 -0.885,-0.29l-7.612,-11.616c-0.279,-0.426 -0.267,-0.739 0.037,-0.938c0.325,-0.212 0.62,-0.116 0.885,0.29l0.877,1.338c0.213,0.324 0.481,0.38 0.806,0.167l17.151,-11.239c0.405,-0.265 0.741,-0.195 1.007,0.21l0.458,0.699c0.266,0.406 0.196,0.741 -0.21,1.007l-17.12,11.219c-0.345,0.226 -0.411,0.501 -0.199,0.825l0.977,1.491c0.212,0.324 0.481,0.38 0.805,0.167l22.655,-14.846c0.325,-0.212 0.381,-0.481 0.168,-0.805l-2.77,-4.227c-0.279,-0.426 -0.226,-0.765 0.16,-1.017Zm-9.514,-0.721c0.406,-0.265 0.741,-0.196 1.007,0.21l0.637,0.973c0.266,0.405 0.196,0.741 -0.209,1.007l-13.715,8.987c-0.345,0.226 -0.273,0.468 0.216,0.728c0.945,0.424 1.799,0.733 2.564,0.928c0.537,0.111 0.751,0.261 0.642,0.448c-0.109,0.188 -0.429,0.252 -0.96,0.194c-4.144,-0.443 -7.665,-1.482 -10.563,-3.119c-0.455,-0.252 -0.48,-0.555 -0.074,-0.908l1.899,-1.679c0.366,-0.326 0.722,-0.313 1.069,0.039l1.639,1.838c0.287,0.305 0.582,0.358 0.886,0.158l12.438,-8.15c0.324,-0.212 0.38,-0.481 0.168,-0.805l-1.495,-2.281c-0.279,-0.426 -0.226,-0.765 0.16,-1.017c0.405,-0.266 0.741,-0.196 1.006,0.209l1.515,2.312c0.212,0.324 0.481,0.38 0.805,0.167l0.365,-0.239Z" style="fill:#c5172b;fill-rule:nonzero;"/><path d="M72.237,171.084c-0.376,-0.665 -0.232,-1.186 0.433,-1.562l1.547,-0.875c0.665,-0.376 1.176,-0.248 1.533,0.384c0.395,0.698 0.859,0.897 1.391,0.596l7.632,-4.317c0.532,-0.301 0.609,-0.784 0.233,-1.449c-0.376,-0.665 -0.232,-1.186 0.434,-1.562l1.197,-0.677c0.665,-0.376 1.185,-0.232 1.562,0.433l8.436,14.914c0.32,0.565 0.746,0.697 1.278,0.396l5.935,-3.357c0.566,-0.32 0.477,-0.709 -0.265,-1.167c-3.633,-2.466 -6.191,-4.311 -7.674,-5.535c-0.68,-0.581 -0.953,-0.909 -0.82,-0.985c0.166,-0.094 0.5,-0.085 1.002,0.026c0.848,0.179 1.721,0.365 2.621,0.559c0.847,0.179 1.292,-0.16 1.333,-1.018l0.332,-6.047c0.023,-0.891 -0.232,-1.186 -0.764,-0.885l-7.332,4.147c-0.698,0.396 -1.235,0.26 -1.612,-0.405c-0.376,-0.665 -0.231,-1.185 0.434,-1.561l9.776,-5.531c0.532,-0.301 0.889,-0.678 1.071,-1.132c0.45,-0.913 0.853,-1.053 1.21,-0.422l0.677,1.198c0.377,0.665 0.437,1.508 0.181,2.531l-2.068,8.215c-0.231,0.833 0.077,1.339 0.924,1.518l0.725,0.117c1.037,0.203 1.518,0.743 1.443,1.62l-0.277,3.119c-0.079,0.791 0.147,1.036 0.68,0.735l3.242,-1.834c0.532,-0.301 0.685,-0.651 0.459,-1.05c-0.226,-0.399 -0.006,-0.787 0.659,-1.163l1.596,-0.903c0.665,-0.376 1.186,-0.232 1.562,0.433l2.652,4.689c0.377,0.665 0.096,0.868 -0.841,0.608c-0.36,-0.016 -0.756,0.098 -1.188,0.343c-0.533,0.301 -0.71,0.84 -0.534,1.618l0.133,0.584c0.252,0.911 0.342,1.342 0.272,1.294l-0.671,-1.069l-1.749,-3.092c-0.301,-0.532 -0.718,-0.648 -1.25,-0.347l-1.596,0.903c-0.565,0.32 -0.698,0.746 -0.397,1.278l13.008,22.994c0.352,0.855 0.512,1.642 0.48,2.362c0.032,1.299 -0.461,2.522 -1.48,3.669c-0.534,0.609 -0.836,0.889 -0.907,0.842c-0.77,-0.354 -1.477,-0.284 -2.119,0.211c-0.504,0.505 -1.244,1.098 -2.218,1.781c-0.627,0.443 -1.083,0.569 -1.366,0.378c-0.284,-0.191 -0.187,-0.64 0.29,-1.349c1.163,-1.668 2.346,-3.302 3.547,-4.903c0.11,-0.194 0.141,-0.41 0.095,-0.647c-0.035,-0.682 -0.253,-1.262 -0.654,-1.737l-12.217,-21.598c-0.301,-0.532 -0.717,-0.647 -1.25,-0.346l-3.94,2.229c-0.565,0.319 -0.697,0.745 -0.396,1.277l2.116,3.741c0.395,0.699 0.26,1.236 -0.405,1.612l-1.148,0.649c-0.698,0.395 -1.235,0.26 -1.611,-0.405l-0.339,-0.599c-0.301,-0.532 -0.717,-0.647 -1.249,-0.346l-1.547,0.874c-0.565,0.32 -0.697,0.746 -0.396,1.278l3.386,5.986c0.319,0.565 0.745,0.697 1.277,0.396l4.589,-2.596c0.665,-0.376 1.177,-0.248 1.534,0.384c0.376,0.665 0.232,1.185 -0.433,1.562l-4.539,2.567c-0.566,0.32 -0.698,0.746 -0.397,1.278l3.358,5.936c0.32,0.565 0.753,0.517 1.301,-0.144l5.03,-6.006c0.501,-0.59 0.883,-0.806 1.148,-0.649c0.231,0.177 0.144,0.643 -0.262,1.399c-1.247,2.374 -2.539,4.707 -3.876,6.999c-0.522,1.173 -0.952,1.965 -1.29,2.376c-1.957,2.204 -4.6,4.709 -7.93,7.514c-0.59,0.509 -0.989,0.384 -1.199,-0.375c0.025,-0.497 -0.21,-0.913 -0.706,-1.247c-0.448,-0.404 -0.863,-0.828 -1.245,-1.27c-0.543,-0.571 -0.463,-1.012 0.24,-1.321c2.013,-0.788 3.44,-1.485 4.281,-2.093l1.505,-1.18c0.476,-0.401 0.563,-0.867 0.262,-1.4l-3.809,-6.733c-0.301,-0.532 -0.718,-0.648 -1.25,-0.347l-4.539,2.568c-0.698,0.395 -1.226,0.276 -1.583,-0.355c-0.376,-0.665 -0.232,-1.186 0.433,-1.562l4.589,-2.596c0.532,-0.301 0.648,-0.718 0.347,-1.25l-3.414,-6.035c-0.301,-0.532 -0.718,-0.648 -1.25,-0.347l-1.197,0.678c-0.565,0.319 -0.698,0.745 -0.397,1.277l0.536,0.948c0.396,0.698 0.26,1.236 -0.405,1.612l-1.546,0.874c-0.665,0.377 -1.186,0.232 -1.562,-0.433l-12.838,-22.695Zm8.529,0.179c-0.32,-0.565 -0.729,-0.707 -1.228,-0.424l-1.247,0.705c-0.565,0.32 -0.697,0.746 -0.396,1.278l2.934,5.187c0.32,0.565 0.746,0.698 1.278,0.397l1.247,-0.706c0.532,-0.301 0.647,-0.717 0.347,-1.249l-2.935,-5.188Zm6.385,-3.611c-0.32,-0.566 -0.729,-0.707 -1.228,-0.425l-1.596,0.903c-0.566,0.32 -0.698,0.746 -0.397,1.278l2.935,5.187c0.319,0.565 0.745,0.698 1.277,0.397l1.596,-0.903c0.532,-0.301 0.648,-0.718 0.347,-1.25l-2.934,-5.187Zm-1.447,12.34c-0.301,-0.532 -0.718,-0.647 -1.25,-0.346l-1.197,0.677c-0.565,0.32 -0.697,0.745 -0.396,1.277l3.16,5.587c0.32,0.565 0.746,0.697 1.278,0.396l1.247,-0.705c0.532,-0.301 0.647,-0.717 0.346,-1.249l-3.188,-5.637Zm6.384,-3.611c-0.301,-0.532 -0.717,-0.648 -1.249,-0.347l-1.546,0.875c-0.566,0.319 -0.698,0.745 -0.397,1.277l3.16,5.587c0.32,0.565 0.746,0.697 1.278,0.396l1.596,-0.903c0.532,-0.301 0.648,-0.717 0.347,-1.249l-3.189,-5.636Z" style="fill:#c0272d;fill-rule:nonzero;"/><path d="M116.861,144.788c-0.377,-0.665 -0.232,-1.186 0.433,-1.562l23.543,-13.318c0.665,-0.376 1.176,-0.248 1.534,0.384c0.376,0.665 0.231,1.186 -0.434,1.562l-9.377,5.304c-0.565,0.32 -0.697,0.746 -0.396,1.278l0.902,1.596c0.32,0.565 0.746,0.698 1.278,0.397l8.031,-4.543c0.532,-0.301 0.647,-0.718 0.346,-1.25c-0.301,-0.532 -0.119,-0.986 0.546,-1.362l1.148,-0.649c0.665,-0.376 1.185,-0.232 1.562,0.433l3.103,5.487c0.377,0.665 0.119,0.986 -0.772,0.963c-1.308,0.17 -1.774,0.938 -1.396,2.304c0.141,0.404 0.042,0.306 -0.297,-0.292l-2.116,-3.741c-0.301,-0.532 -0.718,-0.648 -1.25,-0.347l-7.98,4.515c-0.566,0.319 -0.698,0.745 -0.397,1.277l3.696,6.535c0.396,0.698 0.26,1.235 -0.405,1.611l-1.496,0.847c-0.698,0.395 -1.236,0.26 -1.612,-0.405l-1.693,-2.993c-0.301,-0.532 -0.633,-0.344 -0.997,0.564c-1.272,3.573 -2.772,6.352 -4.5,8.34c-0.667,0.684 -1.188,0.694 -1.564,0.029c-0.122,-0.37 -0.471,-0.832 -1.046,-1.384c-0.509,-0.59 -0.441,-1.089 0.205,-1.499l2.852,-1.942c0.476,-0.401 0.359,-0.84 -0.35,-1.317l-2.948,-1.953c-0.728,-0.51 -1.008,-0.812 -0.842,-0.906c0.185,-0.061 0.5,-0.086 0.946,-0.074l3.589,-0.056c0.891,0.023 1.214,0.477 0.968,1.362c-0.127,0.862 0.093,0.979 0.66,0.351c0.234,-0.44 0.713,-1.106 1.437,-1.998c0.44,-0.775 0.518,-1.412 0.236,-1.911l-0.677,-1.197c-0.301,-0.532 -0.718,-0.648 -1.25,-0.347l-7.98,4.515c-0.566,0.319 -0.698,0.745 -0.397,1.277l1.213,2.145c0.395,0.698 0.26,1.236 -0.405,1.612l-1.097,0.621c-0.698,0.395 -1.236,0.26 -1.612,-0.405l-2.68,-4.739c-0.376,-0.665 -0.232,-1.186 0.433,-1.562l1.147,-0.649c0.665,-0.376 1.101,-0.381 1.308,-0.015c0.245,0.432 0.633,0.498 1.165,0.197l8.031,-4.543c0.532,-0.301 0.647,-0.718 0.346,-1.25l-0.931,-1.646c-0.301,-0.532 -0.717,-0.647 -1.249,-0.346l-8.979,5.079c-0.665,0.376 -1.176,0.248 -1.533,-0.384Zm23.665,-3.906c0.123,-0.947 0.63,-1.409 1.52,-1.387c0.858,0.042 1.142,0.583 0.853,1.625l-0.585,2.108c-0.231,0.833 0.069,1.169 0.899,1.006l1.728,-0.319c0.83,-0.162 1.4,0.108 1.71,0.811l0.669,1.531c0.347,0.769 0.099,1.107 -0.744,1.013c-2.675,-0.462 -5.323,-0.874 -7.942,-1.236c-1.103,-0.166 -1.642,-0.343 -1.618,-0.533c0.091,-0.227 0.509,-0.419 1.254,-0.577l0.711,-0.139c0.626,-0.135 1.005,-0.591 1.136,-1.367c0.094,-0.843 0.23,-1.689 0.409,-2.536Zm-14.012,20.041c-0.376,-0.665 -0.231,-1.186 0.434,-1.562l0.798,-0.452c0.665,-0.376 1.176,-0.248 1.533,0.384c0.377,0.665 0.831,0.847 1.363,0.546l2.394,-1.354c0.532,-0.301 0.619,-0.768 0.262,-1.4c-0.376,-0.665 -0.232,-1.185 0.433,-1.561l0.748,-0.424c0.665,-0.376 1.177,-0.248 1.534,0.384c0.376,0.665 0.83,0.847 1.363,0.546l1.396,-0.79c0.665,-0.376 1.186,-0.232 1.562,0.433l0.198,0.349c0.395,0.699 0.26,1.236 -0.406,1.612l-1.346,0.762c-0.566,0.32 -0.698,0.746 -0.397,1.278l1.439,2.543c0.395,0.699 0.26,1.236 -0.405,1.612l-0.698,0.395c-0.698,0.395 -1.123,0.46 -1.273,0.194c-0.151,-0.266 -0.492,-0.249 -1.024,0.052l-2.344,1.326c-0.566,0.32 -0.783,0.596 -0.651,0.829c0.169,0.299 -0.078,0.637 -0.744,1.013l-0.748,0.424c-0.698,0.395 -1.235,0.26 -1.611,-0.406l-1.468,-2.593c-0.301,-0.532 -0.717,-0.648 -1.249,-0.347l-0.948,0.536c-0.698,0.395 -1.236,0.26 -1.612,-0.405l-0.225,-0.399c-0.377,-0.665 -0.232,-1.186 0.433,-1.562l0.997,-0.564c0.532,-0.301 0.62,-0.767 0.262,-1.399Zm15.216,-7.554c-0.376,-0.665 -0.232,-1.186 0.433,-1.562l1.148,-0.649c0.665,-0.376 1.101,-0.381 1.308,-0.015c0.225,0.399 0.604,0.448 1.136,0.147l2.843,-1.609c0.532,-0.301 0.695,-0.634 0.488,-1c-0.226,-0.399 -0.006,-0.786 0.659,-1.163l1.147,-0.649c0.665,-0.376 1.186,-0.231 1.562,0.434l13.798,24.391c0.73,0.903 0.873,2.359 0.428,4.366c-0.113,1.118 -0.337,1.771 -0.669,1.959c-0.11,0.194 -0.222,0.345 -0.336,0.453c-0.481,0.624 -1.21,0.926 -2.186,0.908c-0.731,0.106 -1.237,0.414 -1.518,0.924c-0.291,0.34 -0.644,0.452 -1.061,0.337c-0.398,-0.082 -0.325,-0.497 0.219,-1.243c0.533,-0.609 1.038,-1.268 1.515,-1.977c0.479,-1.016 0.729,-1.97 0.752,-2.861c0.016,-0.36 -0.127,-0.806 -0.428,-1.338l-11.992,-21.199c-0.3,-0.532 -0.717,-0.647 -1.249,-0.346l-2.793,1.58c-0.566,0.319 -0.698,0.745 -0.397,1.277l1.806,3.193c0.32,0.565 0.746,0.697 1.278,0.396l1.396,-0.79c0.665,-0.376 1.139,-0.315 1.421,0.184c0.301,0.532 0.119,0.986 -0.546,1.362l-1.347,0.762c-0.565,0.32 -0.697,0.746 -0.396,1.278l1.354,2.394c0.32,0.565 0.746,0.698 1.278,0.397l1.397,-0.79c0.665,-0.377 1.176,-0.249 1.533,0.383c0.376,0.665 0.232,1.186 -0.433,1.562l-1.347,0.762c-0.565,0.319 -0.697,0.745 -0.396,1.277l1.664,2.943c1.063,4.052 1.265,8.327 0.606,12.826c-0.204,1.037 -0.41,1.526 -0.618,1.469c-0.194,-0.11 -0.312,-0.592 -0.356,-1.445c-0.211,-3.787 -1.155,-7.511 -2.83,-11.172l-10.271,-18.156Zm-6.062,7.906c-0.32,-0.565 -0.729,-0.707 -1.228,-0.424l-2.394,1.354c-0.565,0.32 -0.697,0.746 -0.396,1.278l0.451,0.798c0.32,0.565 0.746,0.697 1.278,0.396l2.394,-1.354c0.532,-0.301 0.648,-0.718 0.347,-1.25l-0.452,-0.798Zm-0.544,7.419c-0.376,-0.665 -0.248,-1.176 0.383,-1.534l0.848,-0.48c0.665,-0.376 1.177,-0.248 1.534,0.384c0.376,0.665 0.83,0.847 1.362,0.546l1.597,-0.903c0.532,-0.301 0.732,-0.568 0.6,-0.801c-0.15,-0.266 0.107,-0.587 0.772,-0.963l0.748,-0.423c0.665,-0.376 1.186,-0.232 1.562,0.433l3.781,6.684c0.395,0.698 0.26,1.236 -0.405,1.612l-0.698,0.395c-0.699,0.395 -1.123,0.459 -1.274,0.193c-0.15,-0.266 -0.491,-0.248 -1.023,0.053l-1.547,0.874c-0.565,0.32 -0.697,0.746 -0.396,1.278l0.677,1.197c0.32,0.566 0.746,0.698 1.278,0.397l4.938,-2.794c0.665,-0.376 1.176,-0.248 1.534,0.384c0.376,0.665 0.231,1.185 -0.434,1.562l-4.888,2.765c-0.565,0.32 -0.697,0.746 -0.396,1.278l3.019,5.337c0.395,0.698 0.26,1.235 -0.405,1.611l-0.749,0.424c-0.698,0.395 -1.235,0.26 -1.611,-0.405l-3.048,-5.387c-0.301,-0.532 -0.717,-0.648 -1.249,-0.347l-4.539,2.568c-0.698,0.395 -1.226,0.276 -1.584,-0.356c-0.376,-0.665 -0.232,-1.185 0.434,-1.561l4.588,-2.596c0.532,-0.301 0.648,-0.718 0.347,-1.25l-0.705,-1.247c-0.301,-0.532 -0.718,-0.647 -1.25,-0.346l-0.798,0.451c-0.565,0.32 -0.744,0.663 -0.538,1.028c0.245,0.433 0.035,0.837 -0.63,1.213l-1.098,0.621c-0.698,0.395 -1.235,0.26 -1.611,-0.405l-4.035,-7.133c-0.376,-0.665 -0.232,-1.186 0.433,-1.562l1.147,-0.649c0.665,-0.376 1.064,-0.448 1.195,-0.215c0.151,0.266 0.492,0.249 1.024,-0.052l0.848,-0.48c0.532,-0.301 0.619,-0.767 0.262,-1.399Zm1.891,3.342c-0.301,-0.532 -0.718,-0.648 -1.25,-0.347l-0.798,0.452c-0.565,0.319 -0.698,0.745 -0.397,1.277l1.355,2.395c0.32,0.565 0.745,0.697 1.278,0.396l0.847,-0.48c0.533,-0.301 0.648,-0.717 0.347,-1.249l-1.382,-2.444Zm5.985,-3.386c-0.301,-0.532 -0.717,-0.648 -1.249,-0.347l-1.547,0.875c-0.565,0.32 -0.697,0.746 -0.396,1.278l1.354,2.394c0.32,0.565 0.746,0.697 1.278,0.396l1.596,-0.903c0.532,-0.301 0.648,-0.717 0.347,-1.249l-1.383,-2.444Z" style="fill:#c0272d;fill-rule:nonzero;"/><path d="M171.823,120.94c0.815,-1.12 1.841,-1.634 3.077,-1.544c0.848,0.179 1.493,0.583 1.936,1.21l10.942,23.767c0.385,0.836 0.461,1.32 0.228,1.451c-0.232,0.132 -0.587,-0.106 -1.063,-0.715c-5.124,-7.197 -10.215,-14.412 -15.273,-21.647c-0.404,-0.869 -0.353,-1.71 0.153,-2.522Zm17.634,29.66c0.558,-0.798 1.384,-1.2 2.479,-1.205c1.411,0.168 2.346,0.89 2.805,2.166c0.521,1.154 0.358,2.146 -0.489,2.977c-0.42,0.808 -1.299,1.195 -2.635,1.161c-1.559,-0.04 -2.562,-0.921 -3.009,-2.643c-0.082,-0.92 0.202,-1.738 0.849,-2.456Z" style="fill:#c0272d;fill-rule:nonzero;"/><path d="M86.447,75.907l19.634,16.319l21.587,-13.63l-9.452,23.716l19.633,16.319l-25.476,-1.661l-9.453,23.715l-6.292,-24.743l-25.477,-1.662l21.588,-13.63l-6.292,-24.743Z" style="fill:#c0272d;fill-rule:nonzero;"/></svg>