<?xml version="1.0" encoding="UTF-8" standalone="no"?><!DOCTYPE svg PUBLIC "-//W3C//DTD SVG 1.1//EN" "http://www.w3.org/Graphics/SVG/1.1/DTD/svg11.dtd"><svg width="100%" height="100%" viewBox="0 0 224 224" version="1.1" xmlns="http://www.w3.org/2000/svg" xmlns:xlink="http://www.w3.org/1999/xlink" xml:space="preserve" xmlns:serif="http://www.serif.com/" style="fill-rule:evenodd;clip-rule:evenodd;stroke-linejoin:round;stroke-miterlimit:2;"><path d="M112,4.344c-59.361,0 -107.656,48.294 -107.656,107.656c0,59.363 48.295,107.657 107.656,107.657c59.362,0 107.657,-48.294 107.657,-107.657c0,-59.362 -48.295,-107.656 -107.657,-107.656m0,219.656c-61.757,0 -112,-50.243 -112,-112c0,-61.757 50.243,-112 112,-112c61.758,0 112,50.243 112,112c0,61.757 -50.242,112 -112,112" style="fill:#c0272d;fill-rule:nonzero;"/><path d="M35.382,173.006c-0.37,0.537 -0.588,0.756 -0.656,0.655c-0.033,-0.094 -0.036,-0.296 -0.009,-0.605l0.082,-3.55c0.02,-0.625 0.303,-0.944 0.847,-0.957l2.108,-0.05c0.558,0.007 0.682,0.259 0.372,0.757c-0.491,0.705 -1.405,1.955 -2.744,3.75Zm-2.126,-4.438c-0.383,0.255 -0.709,0.181 -0.978,-0.222l-7.558,-11.348c-0.269,-0.403 -0.211,-0.732 0.172,-0.988c0.403,-0.268 0.739,-0.201 1.008,0.202l7.538,11.317c0.282,0.424 0.222,0.77 -0.182,1.039Zm2.966,-4.073c-0.423,0.282 -0.763,0.232 -1.018,-0.151l-0.665,-0.999c-0.269,-0.403 -0.292,-0.679 -0.07,-0.827c0.242,-0.161 0.255,-0.403 0.04,-0.726l-3.063,-4.599c-0.215,-0.323 -0.434,-0.41 -0.656,-0.263c-0.242,0.162 -0.497,0.04 -0.766,-0.363l-0.463,-0.696c-0.269,-0.403 -0.202,-0.739 0.202,-1.008l6.959,-4.636c0.424,-0.282 0.77,-0.221 1.039,0.182l0.443,0.666c0.282,0.423 0.222,0.769 -0.182,1.038c-0.403,0.269 -0.497,0.565 -0.282,0.887l3.043,4.57c0.228,0.343 0.534,0.386 0.918,0.131c0.423,-0.282 0.769,-0.221 1.038,0.182l0.625,0.938c0.282,0.424 0.222,0.77 -0.182,1.039l-6.96,4.635Zm4.083,3.572c-0.404,0.268 -0.733,0.211 -0.988,-0.172l-0.806,-1.211c-0.269,-0.403 -0.182,-0.709 0.262,-0.917c1.775,-0.833 3.732,-1.481 5.87,-1.944c0.403,-0.094 0.601,-0.43 0.595,-1.008l-0.09,-2.561c-0.013,-0.632 0.233,-0.985 0.737,-1.059l1.875,-0.332c0.525,-0.087 0.652,0.148 0.383,0.706l-1.594,2.853c-0.155,0.249 -0.155,0.38 0,0.393l0.595,-0.352l14.887,-9.917c0.424,-0.282 0.77,-0.221 1.039,0.182l0.463,0.696c0.283,0.424 0.222,0.77 -0.181,1.039l-13.133,8.747c-0.323,0.215 -0.188,0.417 0.403,0.605c0.78,0.209 1.57,0.411 2.37,0.606c0.584,0.135 0.897,0.233 0.937,0.293c0.041,0.061 -0.235,0.084 -0.827,0.07c-2.5,-0.169 -4.645,0.022 -6.433,0.573c-1.244,0.362 -2.542,0.862 -3.893,1.5c-0.336,0.195 -0.397,0.454 -0.182,0.777l1.653,2.481c0.282,0.424 0.231,0.763 -0.152,1.018c-0.403,0.269 -0.739,0.202 -1.008,-0.202l-1.854,-2.783c-0.215,-0.323 -0.525,-0.35 -0.928,-0.081Zm-7.457,-12.507c-0.343,0.228 -0.414,0.494 -0.212,0.796l3.064,4.6c0.228,0.343 0.504,0.407 0.826,0.192l2.905,-1.935c0.343,-0.229 0.407,-0.504 0.192,-0.827l-3.063,-4.599c-0.215,-0.323 -0.484,-0.377 -0.807,-0.162l-2.905,1.935Zm13.108,3.151c-0.404,0.269 -0.74,0.201 -1.009,-0.202l-0.645,-0.968c-0.268,-0.404 -0.252,-0.706 0.051,-0.908c0.323,-0.215 0.377,-0.484 0.162,-0.806l-3.87,-5.81c-0.215,-0.323 -0.474,-0.384 -0.776,-0.182c-0.323,0.215 -0.619,0.121 -0.888,-0.283l-0.645,-0.968c-0.268,-0.403 -0.201,-0.739 0.202,-1.008l13.98,-9.312c0.424,-0.282 0.77,-0.221 1.039,0.182l0.624,0.938c0.283,0.424 0.222,0.77 -0.181,1.039l-0.848,0.564c-0.322,0.215 -0.376,0.484 -0.161,0.807l3.849,5.779c0.229,0.343 0.504,0.407 0.827,0.192l0.817,-0.544c0.424,-0.282 0.77,-0.222 1.039,0.182l0.624,0.938c0.283,0.423 0.222,0.769 -0.182,1.038l-14.009,9.332Zm-1.006,-5.97c-0.343,0.229 -0.414,0.494 -0.213,0.797l0.968,1.452c0.228,0.343 0.504,0.407 0.827,0.192l3.147,-2.096c0.343,-0.229 0.407,-0.504 0.192,-0.827l-0.968,-1.452c-0.215,-0.323 -0.484,-0.377 -0.807,-0.162l-3.146,2.096Zm-2.903,-4.357c-0.343,0.228 -0.413,0.494 -0.212,0.796l1.149,1.725c0.228,0.343 0.504,0.407 0.827,0.192l3.147,-2.096c0.343,-0.228 0.407,-0.504 0.192,-0.827l-1.149,-1.725c-0.215,-0.322 -0.484,-0.376 -0.807,-0.161l-3.147,2.096Zm8.198,0.83c-0.323,0.215 -0.377,0.484 -0.162,0.807l0.948,1.422c0.228,0.343 0.504,0.407 0.826,0.192l3.873,-2.58c0.343,-0.229 0.407,-0.504 0.192,-0.827l-0.967,-1.452c-0.215,-0.323 -0.484,-0.377 -0.807,-0.162l-3.903,2.6Zm-2.902,-4.357c-0.323,0.215 -0.377,0.484 -0.162,0.806l1.129,1.695c0.228,0.343 0.504,0.407 0.826,0.192l3.874,-2.58c0.342,-0.229 0.406,-0.504 0.191,-0.827l-1.148,-1.725c-0.215,-0.322 -0.484,-0.376 -0.807,-0.161l-3.903,2.6Z" style="fill:#c5172b;fill-rule:nonzero;"/><path d="M15.086,123.829c-0.484,0.03 -0.741,-0.197 -0.771,-0.681l-0.069,-1.125c-0.029,-0.484 0.198,-0.741 0.682,-0.77l8.854,-0.543c0.387,-0.023 0.696,-0.139 0.926,-0.348l3.801,-3.365c0.505,-0.468 0.995,-0.595 1.47,-0.381l2.217,1.102c0.476,0.238 0.452,0.446 -0.072,0.624l-5.418,1.934c-0.401,0.195 -0.359,0.277 0.125,0.248l11.032,-0.676c0.922,-0.008 1.896,0.03 2.921,0.113c2.556,0.11 5.306,1.399 8.25,3.865c0.59,0.523 0.842,0.872 0.756,1.047c-0.085,0.199 -0.378,0.169 -0.88,-0.092c-2.005,-1.018 -3.929,-1.702 -5.771,-2.051c-1.742,-0.281 -4.234,-0.335 -7.477,-0.161l-20.576,1.26Zm-0.427,-6.967c-0.484,0.029 -0.741,-0.198 -0.77,-0.682l-0.089,-1.451c-0.03,-0.484 0.197,-0.741 0.681,-0.771l9.145,-0.56c0.387,-0.023 0.81,-0.256 1.269,-0.696l3.274,-3.042c0.46,-0.417 0.94,-0.507 1.44,-0.27l2.067,1.039c0.526,0.259 0.555,0.524 0.085,0.796c-1.341,0.689 -2.286,1.123 -2.834,1.302c-0.739,0.216 -1.625,0.428 -2.656,0.637c0.003,0.048 0.174,0.062 0.512,0.041l19.56,-1.198c0.508,-0.031 0.777,0.196 0.807,0.679l0.086,1.416c0.031,0.508 -0.195,0.777 -0.679,0.806l-31.898,1.954Zm-0.427,-6.968c-0.484,0.03 -0.74,-0.197 -0.77,-0.681l-0.069,-1.125c-0.03,-0.484 0.198,-0.741 0.681,-0.77l33.314,-2.04c0.508,-0.032 0.777,0.195 0.807,0.679l0.066,1.088c0.031,0.508 -0.195,0.777 -0.679,0.807l-33.35,2.042Zm9.232,16.919c-0.508,0.031 -0.776,-0.183 -0.804,-0.643l-0.074,-1.197c-0.029,-0.484 0.198,-0.741 0.682,-0.771l1.959,-0.12c1.239,-0.003 2.236,0.021 2.992,0.072c2.193,0.133 4.307,1.145 6.341,3.036c0.233,0.228 0.364,0.39 0.394,0.486c0.008,0.121 -0.261,0.101 -0.805,-0.06c-0.495,-0.164 -0.993,-0.365 -1.493,-0.601c-0.697,-0.273 -1.191,-0.413 -1.483,-0.419c-0.999,-0.06 -2.021,-0.083 -3.064,-0.068l-4.645,0.285Z" style="fill:#c5172b;fill-rule:nonzero;"/><path d="M25.835,71.462c0.679,-2.992 1.087,-6.039 1.223,-9.139c0.043,-0.52 0.324,-0.922 0.844,-1.204l2.502,-1.353c0.455,-0.261 0.591,-0.126 0.407,0.406c-0.172,0.455 -0.323,0.921 -0.453,1.398c-0.356,1.042 -0.658,1.974 -0.907,2.798c-0.086,0.391 0.045,0.672 0.392,0.845l5.174,2.578c0.369,0.184 0.64,0.103 0.812,-0.245l2.417,-4.848c0.216,-0.434 0.53,-0.548 0.942,-0.343c0.434,0.216 0.543,0.541 0.327,0.975l-2.384,4.784c-0.173,0.347 -0.059,0.661 0.343,0.942c0.814,0.595 1.579,1.234 2.295,1.916c0.846,0.747 1.677,1.824 2.492,3.232c0.239,0.39 0.445,0.411 0.618,0.064l1.686,-3.384c0.173,-0.347 0.043,-0.629 -0.391,-0.845c-0.434,-0.216 -0.543,-0.541 -0.327,-0.975l0.503,-1.009c0.216,-0.434 0.541,-0.543 0.975,-0.326l13.472,6.713c0.456,0.227 0.576,0.557 0.359,0.991l-0.356,0.716c-0.227,0.455 -0.558,0.575 -0.992,0.359l-0.911,-0.454c-0.347,-0.173 -0.607,-0.086 -0.78,0.261l-2.448,4.914c-0.184,0.369 -0.103,0.64 0.245,0.812l0.878,0.438c0.456,0.227 0.575,0.558 0.359,0.992l-0.373,0.748c-0.227,0.456 -0.557,0.575 -0.991,0.359l-6.378,-3.178l-0.618,-0.308c-0.087,0.011 -0.141,0.038 -0.163,0.081c0.065,0.195 0.218,0.488 0.457,0.878c1.336,2.534 1.99,5.108 1.961,7.72c0.023,0.878 -0.035,1.729 -0.175,2.553c-0.086,0.499 -0.335,0.619 -0.748,0.359l-1.057,-0.73l-1.025,-0.308c-0.445,-0.14 -0.505,-0.427 -0.18,-0.861c0.39,-0.293 0.573,-0.879 0.55,-1.757c0.043,-0.412 -0.109,-0.704 -0.456,-0.877l-13.765,-6.859c-0.347,-0.173 -0.607,-0.086 -0.78,0.261l-1.087,2.18c-0.227,0.456 -0.557,0.575 -0.991,0.359l-0.26,-0.129c-0.434,-0.217 -0.543,-0.542 -0.327,-0.976l1.103,-2.212c0.173,-0.348 0.053,-0.624 -0.359,-0.829c-0.434,-0.216 -0.543,-0.541 -0.327,-0.975l0.503,-1.009c0.216,-0.434 0.541,-0.543 0.975,-0.327l15.718,7.832c0.347,0.173 0.476,-0.033 0.389,-0.618l-0.753,-3.462c-0.12,-0.52 -0.331,-0.856 -0.635,-1.008l-5.077,-2.529c-0.433,-0.216 -0.542,-0.541 -0.326,-0.975l0.389,-0.781c0.216,-0.434 0.53,-0.548 0.943,-0.343c0.455,0.227 0.769,0.167 0.942,-0.18c0.173,-0.347 0.075,-0.694 -0.294,-1.04c-0.77,-0.628 -1.53,-1.142 -2.278,-1.542l-3.449,-1.719c-0.348,-0.173 -0.608,-0.086 -0.781,0.262l-2.124,4.262c-0.227,0.456 -0.546,0.581 -0.959,0.376c-0.433,-0.216 -0.542,-0.542 -0.326,-0.975l2.14,-4.296c0.173,-0.347 0.086,-0.607 -0.261,-0.78l-4.946,-2.465c-0.347,-0.173 -0.618,-0.037 -0.813,0.408l-1.653,3.726c-0.216,0.434 -0.4,0.613 -0.552,0.537c-0.152,-0.076 -0.185,-0.363 -0.099,-0.862Zm-4.806,4.917c-0.499,-0.14 -0.748,-0.237 -0.748,-0.291c0.054,-0.055 0.384,-0.201 0.991,-0.441l3.023,-1.012c0.65,-0.218 1.138,-0.11 1.464,0.323l1.384,1.787c0.326,0.433 0.234,0.617 -0.275,0.553c-2.114,-0.214 -4.061,-0.52 -5.839,-0.919Zm25.715,-5.384c-0.347,-0.173 -0.607,-0.086 -0.78,0.261l-2.448,4.914c-0.184,0.369 -0.102,0.639 0.245,0.812l7.81,3.892c0.368,0.184 0.639,0.102 0.812,-0.245l2.465,-4.946c0.173,-0.347 0.086,-0.607 -0.261,-0.78l-7.843,-3.908Z" style="fill:#c5172b;fill-rule:nonzero;"/><path d="M56.255,31.411c-0.402,-0.344 -0.563,-0.543 -0.482,-0.597c0.081,-0.053 0.256,-0.096 0.525,-0.128l3.209,-0.42c0.571,-0.058 0.863,0.185 0.874,0.73l0.035,1.24c0.031,0.444 0.209,0.559 0.533,0.345l8.1,-5.349c0.405,-0.267 0.734,-0.209 0.987,0.176c0.281,0.424 0.219,0.77 -0.186,1.037l-18.385,12.142c-0.424,0.28 -0.77,0.218 -1.038,-0.186c-0.267,-0.405 -0.198,-0.74 0.207,-1.008l8.585,-5.67c0.324,-0.213 0.221,-0.436 -0.309,-0.666c-1.181,-0.644 -2.066,-1.193 -2.655,-1.646Zm0.242,9.208c-0.267,-0.405 -0.198,-0.74 0.206,-1.008l0.698,-0.46c0.404,-0.268 0.68,-0.29 0.827,-0.067c0.174,0.263 0.422,0.287 0.746,0.073l6.583,-4.347c0.324,-0.214 0.406,-0.442 0.245,-0.685c-0.16,-0.243 -0.038,-0.498 0.367,-0.765l0.697,-0.46c0.405,-0.268 0.741,-0.199 1.008,0.206l4.288,6.492c0.28,0.425 0.218,0.771 -0.186,1.038l-0.668,0.441c-0.425,0.28 -0.771,0.218 -1.038,-0.186c-0.267,-0.405 -0.562,-0.5 -0.886,-0.287l-6.553,4.328c-0.344,0.227 -0.389,0.533 -0.135,0.917c0.28,0.425 0.218,0.771 -0.186,1.038l-0.668,0.441c-0.424,0.28 -0.77,0.218 -1.037,-0.186l-4.308,-6.523Zm10.648,-4.461c-0.214,-0.324 -0.483,-0.379 -0.806,-0.165l-6.553,4.328c-0.344,0.227 -0.409,0.502 -0.196,0.826l1.603,2.427c0.227,0.344 0.503,0.409 0.826,0.195l6.584,-4.348c0.323,-0.214 0.378,-0.482 0.165,-0.806l-1.623,-2.457Zm7.342,4.257c-0.213,-0.324 -0.128,-0.612 0.256,-0.866l0.971,-0.641c0.405,-0.268 0.74,-0.199 1.008,0.206l7.533,11.407c0.566,1.253 0.334,2.727 -0.695,4.424c-0.311,0.408 -0.567,0.461 -0.767,0.158c-0.2,-0.304 -0.483,-0.291 -0.847,0.036l-1.296,1.205c-0.351,0.348 -0.621,0.468 -0.808,0.359c-0.188,-0.108 -0.137,-0.36 0.154,-0.755c0.257,-0.403 0.548,-0.798 0.872,-1.186c0.676,-0.65 1.009,-1.596 1.001,-2.84c-0.019,-0.249 -0.135,-0.535 -0.349,-0.858l-5.61,-8.495c-0.214,-0.324 -0.483,-0.379 -0.806,-0.165l-12.621,8.335c-0.344,0.227 -0.409,0.502 -0.195,0.826l7.433,11.255c0.281,0.425 0.219,0.771 -0.186,1.038l-0.91,0.601c-0.425,0.281 -0.771,0.219 -1.038,-0.186l-8.635,-13.076c-0.267,-0.404 -0.199,-0.74 0.206,-1.007l0.94,-0.621c0.405,-0.267 0.681,-0.29 0.827,-0.067c0.174,0.263 0.423,0.287 0.746,0.074l12.651,-8.355c0.324,-0.214 0.379,-0.483 0.165,-0.806Zm-8.174,10.845c-0.281,-0.425 -0.219,-0.771 0.186,-1.038l0.697,-0.461c0.405,-0.267 0.707,-0.249 0.908,0.054c0.227,0.344 0.502,0.409 0.826,0.196l2.7,-1.784c0.324,-0.213 0.378,-0.482 0.165,-0.806c-0.214,-0.323 -0.119,-0.619 0.286,-0.886l0.94,-0.621c0.405,-0.267 0.741,-0.198 1.008,0.206l4.127,6.25c0.281,0.425 0.219,0.771 -0.186,1.038l-0.91,0.601c-0.425,0.28 -0.771,0.218 -1.038,-0.186c-0.267,-0.405 -0.562,-0.5 -0.886,-0.286l-2.67,1.763c-0.343,0.227 -0.389,0.533 -0.135,0.917c0.281,0.425 0.219,0.77 -0.186,1.038l-0.698,0.46c-0.404,0.268 -0.74,0.199 -1.007,-0.206l-4.127,-6.249Zm6.904,-1.685c-0.213,-0.323 -0.482,-0.378 -0.806,-0.164l-2.669,1.763c-0.344,0.227 -0.409,0.502 -0.196,0.826l1.283,1.941c0.227,0.344 0.502,0.409 0.826,0.196l2.7,-1.784c0.323,-0.213 0.378,-0.482 0.165,-0.806l-1.303,-1.972Z" style="fill:#c5172b;fill-rule:nonzero;"/><path d="M102.815,14.961c-0.028,-0.484 0.2,-0.74 0.684,-0.768l1.452,-0.083c0.484,-0.028 0.74,0.2 0.768,0.684l0.206,3.594c0.024,0.411 0.229,0.605 0.616,0.583l3.594,-0.206c0.484,-0.028 0.739,0.188 0.765,0.648c0.028,0.484 -0.2,0.74 -0.684,0.767l-3.557,0.205c-0.412,0.023 -0.606,0.229 -0.584,0.616l0.234,4.065c0.023,0.412 0.229,0.606 0.616,0.584l1.706,-0.098c0.387,-0.022 0.676,-0.282 0.866,-0.778c0.355,-0.992 0.699,-1.983 1.031,-2.973c0.361,-0.895 0.775,-2.569 1.24,-5.024c0.118,-0.492 0.419,-0.752 0.902,-0.78l1.961,-0.113c0.483,-0.027 0.667,0.205 0.549,0.697c-0.526,2.677 -1.353,5.395 -2.481,8.155c-0.147,0.396 -0.027,0.584 0.36,0.561l5.3,-0.304c0.484,-0.028 0.739,0.188 0.765,0.648c0.028,0.484 -0.2,0.74 -0.684,0.768l-6.497,0.373c-0.387,0.022 -0.773,0.287 -1.156,0.795c-0.867,0.972 -1.709,1.955 -2.526,2.949c-0.268,0.404 -0.208,0.595 0.179,0.572l8.784,-0.504c0.484,-0.028 0.736,0.139 0.757,0.502c0.022,0.388 -0.209,0.595 -0.693,0.623l-8.493,0.488c-0.387,0.022 -0.64,0.279 -0.757,0.772l-0.285,0.744c-0.19,0.497 -0.805,1.2 -1.845,2.109c-0.461,0.44 -0.497,0.648 -0.11,0.626l6.098,-0.351c0.387,-0.022 0.567,-0.263 0.541,-0.723c-0.028,-0.484 0.2,-0.739 0.684,-0.767l1.452,-0.084c0.484,-0.027 0.74,0.201 0.768,0.685l0.5,8.711c0.028,0.484 -0.024,0.851 -0.155,1.101c-0.522,1.05 -1.338,2.068 -2.446,3.054c-0.414,0.412 -0.765,0.639 -1.054,0.68l-0.715,0.223c-0.571,0.203 -0.847,0.267 -0.827,0.193c-0.011,-0.193 -0.106,-0.358 -0.283,-0.493c-0.477,-0.264 -0.966,-0.333 -1.469,-0.207c-0.628,0.06 -1.268,0.109 -1.921,0.147c-0.509,0.029 -0.768,-0.053 -0.779,-0.247c-0.013,-0.218 0.232,-0.39 0.735,-0.516c0.931,-0.272 1.871,-0.593 2.821,-0.963c1.097,-0.354 1.978,-0.866 2.643,-1.536c0.391,-0.386 0.576,-0.761 0.555,-1.124l-0.353,-6.134c-0.022,-0.387 -0.227,-0.57 -0.614,-0.548l-6.134,0.353c-0.387,0.022 -0.697,0.125 -0.929,0.308c-0.302,0.236 -0.466,0.124 -0.493,-0.336c-0.073,-0.845 0.139,-1.804 0.636,-2.877l0.194,-1.067c0.026,-0.39 -0.193,-0.402 -0.658,-0.035c-2.546,2.161 -5.225,4.136 -8.035,5.924c-0.469,0.294 -0.803,0.398 -1.002,0.313c-0.225,-0.109 -0.117,-0.346 0.323,-0.711c1.833,-1.489 3.68,-3.137 5.543,-4.943c1.379,-1.342 3.53,-3.639 6.45,-6.89c0.365,-0.409 0.354,-0.603 -0.033,-0.58l-11.978,0.688c-0.508,0.029 -0.775,-0.186 -0.802,-0.646c-0.028,-0.484 0.2,-0.74 0.684,-0.768l7.115,-0.408c0.387,-0.023 0.569,-0.227 0.547,-0.615l-0.236,-4.101c-0.022,-0.387 -0.227,-0.57 -0.614,-0.548l-4.755,0.274c-0.508,0.029 -0.775,-0.186 -0.802,-0.646c-0.027,-0.484 0.201,-0.74 0.685,-0.768l4.791,-0.275c0.387,-0.022 0.57,-0.227 0.547,-0.614l-0.208,-3.63Z" style="fill:#c5172b;fill-rule:nonzero;"/><path d="M147.53,20.21c0.196,-0.552 0.418,-0.562 0.667,-0.031l2.039,4.443c0.259,0.565 0.096,0.971 -0.49,1.219l-1.937,0.858c-0.662,0.291 -0.97,0.176 -0.926,-0.344c0.223,-2.818 0.438,-4.866 0.647,-6.145Zm10.022,5.078c0.228,-0.455 0.548,-0.579 0.96,-0.372l1.039,0.522c0.433,0.218 0.541,0.543 0.323,0.976l-7.33,14.586c-0.338,0.943 -0.677,2.4 -1.017,4.372c-0.484,3.067 0.111,6.309 1.784,9.727c0.314,0.618 0.258,1.079 -0.165,1.382c-0.608,0.454 -1.217,1.666 -1.829,3.638c-0.152,0.466 -0.347,0.422 -0.585,-0.131c-1.132,-2.767 -1.609,-5.353 -1.431,-7.759c0.178,-2.243 0.562,-4.438 1.152,-6.583c0.12,-0.455 0.006,-0.498 -0.341,-0.131c-1.228,1.581 -2.64,3.014 -4.236,4.301c-0.967,0.735 -2.166,1.312 -3.597,1.732c-2.3,0.689 -4.724,1.193 -7.271,1.513c-0.38,0.054 -0.646,0.042 -0.797,-0.034c-0.173,-0.087 0.06,-0.254 0.7,-0.502c2.018,-0.723 3.867,-1.434 5.549,-2.135c2.734,-1.393 4.819,-3.058 6.254,-4.995c1.827,-2.717 3.551,-5.662 5.172,-8.835l5.666,-11.272Zm-12.933,3.062c0.174,-0.346 0.467,-0.416 0.878,-0.209l1.3,0.653c0.433,0.218 0.541,0.543 0.323,0.976l-8.277,16.47c-0.186,0.368 0.004,0.531 0.568,0.489c0.824,-0.074 2.282,-0.358 4.375,-0.853c0.618,-0.15 0.944,-0.176 0.976,-0.079c0.043,0.13 -0.207,0.33 -0.749,0.6c-2.452,1.047 -4.551,1.796 -6.297,2.247c-1.855,0.452 -3.72,0.654 -5.595,0.607c-0.618,-0.012 -0.823,-0.116 -0.617,-0.311c0.217,-0.216 0.342,-0.384 0.375,-0.503c0.175,-0.726 0.317,-1.468 0.427,-2.226c0.153,-0.575 0.468,-0.796 0.945,-0.665l1.771,0.524c0.412,0.098 0.699,-0.015 0.862,-0.34l7.576,-15.073c0.174,-0.347 0.088,-0.607 -0.259,-0.781l-2.436,-1.225c-0.455,-0.228 -0.579,-0.548 -0.372,-0.96c0.218,-0.433 0.543,-0.541 0.976,-0.323l2.469,1.241c0.346,0.174 0.607,0.088 0.781,-0.259Z" style="fill:#c5172b;fill-rule:nonzero;"/><path d="M189.261,50.751c0.189,0.021 0.203,0.331 0.044,0.928l-0.939,3.875c-0.153,0.651 -0.505,0.997 -1.057,1.04l-2.421,0.152c-0.531,0.03 -0.607,-0.196 -0.227,-0.677c1.394,-1.898 2.683,-3.468 3.87,-4.709c0.42,-0.42 0.663,-0.623 0.73,-0.609Zm1.608,7.162c0.405,-0.266 0.741,-0.196 1.006,0.21l6.517,9.944c0.265,0.405 0.206,0.734 -0.18,0.986c-0.405,0.266 -0.741,0.196 -1.006,-0.209l-1.814,-2.768c-0.226,-0.344 -0.501,-0.41 -0.825,-0.198l-9.214,6.038c-0.345,0.226 -0.411,0.501 -0.198,0.826l1.833,2.797c0.266,0.406 0.206,0.735 -0.179,0.987c-0.426,0.279 -0.772,0.216 -1.037,-0.19l-1.814,-2.767c-0.226,-0.345 -0.501,-0.411 -0.825,-0.198l-11.191,7.333c-0.345,0.226 -0.411,0.501 -0.198,0.825l1.993,3.041c0.265,0.406 0.246,0.708 -0.058,0.908c-0.324,0.212 -0.619,0.116 -0.885,-0.29l-7.612,-11.616c-0.279,-0.426 -0.267,-0.739 0.037,-0.938c0.325,-0.212 0.62,-0.116 0.885,0.29l0.877,1.338c0.213,0.324 0.481,0.38 0.806,0.167l17.151,-11.239c0.405,-0.265 0.741,-0.195 1.007,0.21l0.458,0.699c0.266,0.406 0.196,0.741 -0.21,1.007l-17.12,11.219c-0.345,0.226 -0.411,0.501 -0.199,0.825l0.977,1.491c0.212,0.324 0.481,0.38 0.805,0.167l22.655,-14.846c0.325,-0.212 0.381,-0.481 0.168,-0.805l-2.77,-4.227c-0.279,-0.426 -0.226,-0.765 0.16,-1.017Zm-9.514,-0.721c0.406,-0.265 0.741,-0.196 1.007,0.21l0.637,0.973c0.266,0.405 0.196,0.741 -0.209,1.007l-13.715,8.987c-0.345,0.226 -0.273,0.468 0.216,0.728c0.945,0.424 1.799,0.733 2.564,0.928c0.537,0.111 0.751,0.261 0.642,0.448c-0.109,0.188 -0.429,0.252 -0.96,0.194c-4.144,-0.443 -7.665,-1.482 -10.563,-3.119c-0.455,-0.252 -0.48,-0.555 -0.074,-0.908l1.899,-1.679c0.366,-0.326 0.722,-0.313 1.069,0.039l1.639,1.838c0.287,0.305 0.582,0.358 0.886,0.158l12.438,-8.15c0.324,-0.212 0.38,-0.481 0.168,-0.805l-1.495,-2.281c-0.279,-0.426 -0.226,-0.765 0.16,-1.017c0.405,-0.266 0.741,-0.196 1.006,0.209l1.515,2.312c0.212,0.324 0.481,0.38 0.805,0.167l0.365,-0.239Z" style="fill:#c5172b;fill-rule:nonzero;"/><path d="M109.688,148.385c-0.395,-0.699 -0.277,-1.226 0.355,-1.584l1.596,-0.903c0.665,-0.376 1.186,-0.232 1.562,0.433l1.439,2.544c0.32,0.566 0.746,0.698 1.278,0.397l8.579,-4.853c0.665,-0.376 1.176,-0.249 1.534,0.383c0.376,0.665 0.232,1.186 -0.434,1.562l-8.529,4.825c-0.565,0.32 -0.697,0.746 -0.396,1.278l1.128,1.995c0.32,0.565 0.746,0.697 1.278,0.396l3.242,-1.834c0.532,-0.301 0.648,-0.717 0.347,-1.249c-0.301,-0.532 -0.119,-0.986 0.546,-1.363l1.546,-0.874c0.665,-0.376 1.186,-0.232 1.562,0.433l3.245,5.736c0.32,0.565 0.746,0.698 1.278,0.397l1.047,-0.593c0.665,-0.376 1.176,-0.248 1.534,0.383c0.376,0.666 0.232,1.186 -0.434,1.562l-0.997,0.565c-0.565,0.319 -0.698,0.745 -0.397,1.277l3.471,6.136c0.395,0.698 0.26,1.235 -0.405,1.611l-1.497,0.847c-0.698,0.395 -1.198,0.326 -1.498,-0.206c-0.301,-0.532 -0.718,-0.647 -1.25,-0.346l-13.318,7.533c-0.698,0.395 -1.226,0.277 -1.583,-0.355c-0.377,-0.665 -0.232,-1.186 0.433,-1.562l4.988,-2.821c0.532,-0.301 0.647,-0.718 0.346,-1.25l-1.608,-2.843c-0.301,-0.532 -0.717,-0.648 -1.249,-0.347l-6.135,3.471c-0.699,0.395 -1.227,0.276 -1.584,-0.355c-0.376,-0.665 -0.232,-1.186 0.433,-1.562l6.185,-3.499c0.532,-0.301 0.648,-0.717 0.347,-1.249l-1.383,-2.445c-0.301,-0.532 -0.717,-0.647 -1.249,-0.346l-4.14,2.342c-0.698,0.395 -1.226,0.276 -1.584,-0.355c-0.376,-0.666 -0.232,-1.186 0.434,-1.562l4.189,-2.37c0.532,-0.301 0.648,-0.718 0.347,-1.25l-1.157,-2.045c-0.301,-0.532 -0.717,-0.648 -1.249,-0.347l-6.135,3.471c-0.699,0.395 -1.227,0.276 -1.584,-0.355c-0.376,-0.665 -0.232,-1.186 0.433,-1.562l6.185,-3.499c0.532,-0.301 0.648,-0.717 0.347,-1.249l-1.439,-2.544Zm-15.275,11.406c-0.651,-0.685 -0.901,-1.049 -0.749,-1.091c0.204,-0.028 0.55,0.04 1.037,0.204l8.474,3.107c0.87,0.298 1.363,0.897 1.477,1.798l0.479,4.338c0.096,0.867 -0.177,1.044 -0.82,0.529c-3.499,-2.849 -6.798,-5.811 -9.898,-8.885Zm11.765,-0.269c0.11,-0.194 0.279,0.105 0.508,0.898l8.482,28.846c0.149,0.574 0.633,1.002 1.452,1.286l3.874,1.495c1.013,0.393 1.598,0.962 1.756,1.706l0.787,5.349c0.162,0.83 -0.087,0.971 -0.748,0.423c-5.388,-4.326 -10.063,-8.244 -14.023,-11.753c-0.547,-0.657 -0.326,-0.848 0.663,-0.573l2.335,0.984c0.785,0.302 1.089,0.064 0.912,-0.714l-5.855,-26.646c-0.176,-0.777 -0.224,-1.211 -0.143,-1.301Zm18.492,-4.206c-0.301,-0.532 -0.717,-0.647 -1.249,-0.346l-3.193,1.805c-0.565,0.32 -0.697,0.746 -0.396,1.278l1.354,2.394c0.32,0.566 0.746,0.698 1.278,0.397l3.242,-1.834c0.532,-0.301 0.648,-0.718 0.347,-1.25l-1.383,-2.444Zm3.386,5.986c-0.301,-0.532 -0.718,-0.648 -1.25,-0.347l-3.192,1.806c-0.565,0.32 -0.697,0.746 -0.396,1.278l1.58,2.793c0.319,0.565 0.745,0.697 1.277,0.396l3.243,-1.834c0.532,-0.301 0.647,-0.717 0.346,-1.249l-1.608,-2.843Zm-6.008,13.472c-0.238,-0.963 -0.04,-1.623 0.591,-1.981l1.996,-1.128c0.665,-0.377 1.069,-0.166 1.212,0.63c0.174,1.394 0.374,2.796 0.6,4.204c0.135,0.626 0.469,0.789 1.001,0.488l12.569,-7.111c0.665,-0.376 1.139,-0.315 1.421,0.184c0.301,0.532 0.119,0.986 -0.546,1.363l-2.544,1.439c-0.532,0.301 -0.71,0.84 -0.533,1.618c0.634,2.363 0.861,5.285 0.68,8.767c-0.065,0.739 0.31,1.053 1.126,0.943c1.622,-0.391 3.28,-0.758 4.973,-1.101c0.915,-0.167 1.592,0.021 2.031,0.563l3.06,4.129c0.423,0.594 0.181,0.863 -0.729,0.807c-3.037,-0.169 -6.457,-0.473 -10.26,-0.912c-0.758,-0.098 -1.319,0.307 -1.683,1.216c-1.507,3.31 -3.33,6.141 -5.467,8.491l-2.372,2.791c-0.382,0.567 -0.689,0.916 -0.922,1.048c-0.137,-0.01 -0.225,-0.049 -0.262,-0.115l0.344,-0.788c1.682,-3.234 3.507,-7.185 5.475,-11.854c0.335,-0.804 0.089,-1.279 -0.74,-1.424l-3.26,-0.526c-0.829,-0.146 -1.214,0.182 -1.156,0.983l0.13,1.045c0.077,0.834 -0.217,1.44 -0.882,1.816l-1.147,0.649c-0.665,0.376 -1.086,0.175 -1.263,-0.603c-0.618,-2.722 -1.203,-5.464 -1.755,-8.224c-0.102,-0.645 -0.435,-0.808 -1,-0.488l-3.741,2.116c-0.699,0.395 -1.189,0.343 -1.471,-0.155c-0.301,-0.532 -0.119,-0.987 0.546,-1.363l4.19,-2.37c0.532,-0.301 0.71,-0.84 0.533,-1.618l-0.745,-3.529Zm11.664,1.764c-0.135,-0.626 -0.468,-0.789 -1,-0.488l-4.739,2.68c-0.532,0.301 -0.743,0.86 -0.633,1.675c0.231,1.494 0.487,2.995 0.77,4.503c0.139,0.711 0.59,1.005 1.354,0.88l4.175,-0.65c0.664,-0.068 0.99,-0.538 0.98,-1.41c-0.146,-2.508 -0.448,-4.904 -0.907,-7.19Z" style="fill:#c0272d;fill-rule:nonzero;"/><path d="M138.402,132.142c-0.395,-0.699 -0.276,-1.227 0.356,-1.584l1.596,-0.903c0.665,-0.376 1.185,-0.232 1.562,0.433l3.216,5.687c0.301,0.532 0.953,0.909 1.957,1.131l4.766,0.86c0.985,0.189 1.565,0.672 1.742,1.45l0.7,2.633c0.214,0.845 -0.017,1.019 -0.692,0.523c-1.62,-1.234 -3.938,-2.732 -6.954,-4.494c-0.123,-0.062 -0.199,-0.041 -0.227,0.063c0.042,0.152 0.213,0.494 0.514,1.026l21.557,38.108c0.395,0.698 0.26,1.235 -0.405,1.611l-1.497,0.847c-0.698,0.395 -1.235,0.26 -1.611,-0.405l-26.58,-46.986Zm12.62,-7.139c-0.295,-0.755 -0.127,-1.311 0.505,-1.668l2.444,-1.383c0.665,-0.376 1.119,-0.194 1.362,0.546c0.481,1.704 0.701,3.335 0.661,4.894l-0.368,2.841c-0.084,1.014 -0.292,1.811 -0.621,2.393c-0.321,0.752 -0.085,1.014 0.707,0.785c0.493,-0.06 1.142,-0.426 1.945,-1.101c1.727,-1.371 3.304,-2.812 4.732,-4.322c0.419,-0.5 0.324,-1.017 -0.285,-1.551c-1.51,-1.428 -2.75,-2.767 -3.721,-4.018c-0.495,-0.642 -0.692,-0.991 -0.593,-1.047c0.133,-0.076 0.587,0.106 1.363,0.546c3.072,1.861 6.07,2.777 8.994,2.747c0.857,0.042 1.327,0.522 1.408,1.442c0.353,1.556 0.712,2.889 1.077,3.999c0.243,0.741 -0.132,0.931 -1.125,0.571c-2.148,-0.848 -3.843,-1.71 -5.086,-2.588c-0.5,-0.419 -0.922,-0.312 -1.266,0.322c-2.792,4.608 -5.263,7.805 -7.413,9.592c-0.59,0.509 -1.206,0.506 -1.848,-0.008c-0.665,-0.633 -1.449,-1.243 -2.352,-1.83c-0.524,-0.538 -0.358,-0.983 0.496,-1.334l0.428,-0.176c0.588,-0.201 0.877,-0.738 0.867,-1.61c-0.121,-1.687 -0.404,-3.196 -0.848,-4.524c-0.521,-1.154 -1.009,-2.327 -1.463,-3.518Zm-11.366,19.597c-0.395,-0.698 -0.276,-1.226 0.355,-1.583l1.197,-0.677c0.665,-0.377 1.186,-0.232 1.562,0.433c0.87,1.615 1.716,3.265 2.538,4.951c1.096,1.706 1.821,3.491 2.173,5.355c0.213,1.152 0.19,2.043 -0.069,2.672l-0.546,1.362c-0.354,0.771 -0.719,0.824 -1.095,0.159c-0.239,-0.655 -0.557,-1.682 -0.953,-3.082c-0.17,-0.299 -0.272,-0.636 -0.309,-1.01l-4.853,-8.58Zm19.404,-7.947c-0.176,-0.778 0.051,-1.346 0.683,-1.703l2.394,-1.355c0.665,-0.376 1.069,-0.166 1.213,0.631l0.593,2.561c0.153,0.66 0.496,0.839 1.028,0.538l9.028,-5.107c0.665,-0.376 1.177,-0.248 1.534,0.383c0.376,0.665 0.232,1.186 -0.433,1.562l-9.727,5.502c-0.532,0.301 -0.792,0.888 -0.782,1.76c0.106,1.739 0.077,3.511 -0.087,5.316c-0.376,3.681 -1.625,7.525 -3.746,11.535c-0.355,0.77 -0.636,1.127 -0.844,1.069c-0.189,-0.024 -0.194,-0.614 -0.014,-1.77c0.926,-4.649 1.283,-8.363 1.072,-11.141c-0.024,-0.819 -0.119,-1.841 -0.285,-3.064c-0.101,-0.645 -0.418,-0.817 -0.95,-0.516l-4.14,2.342c-0.698,0.395 -1.226,0.276 -1.584,-0.356c-0.376,-0.665 -0.231,-1.185 0.434,-1.561l4.988,-2.822c0.532,-0.301 0.693,-0.831 0.483,-1.59c-0.31,-0.703 -0.596,-1.441 -0.858,-2.214Zm8.747,2.426c-0.023,-0.119 0.4,-0.029 1.271,0.268c3.918,1.34 7.264,1.707 10.039,1.103c0.759,-0.21 1.203,0.11 1.332,0.958c0.56,1.922 1.254,3.264 2.08,4.025c0.561,0.605 0.335,0.864 -0.679,0.779c-5.229,-0.553 -9.111,-2.022 -11.645,-4.407c-1.166,-1.053 -1.965,-1.961 -2.398,-2.726Zm-1.418,8.9c-0.181,-0.863 0.061,-1.483 0.726,-1.859l1.546,-0.875c0.666,-0.376 1.136,-0.203 1.413,0.518c0.494,1.959 0.731,3.581 0.711,4.865c-0.027,1.815 -0.536,3.903 -1.527,6.263c-0.499,1.291 -1.32,2.788 -2.465,4.489c-0.496,0.675 -0.809,0.896 -0.941,0.664c-0.132,-0.233 -0.027,-0.863 0.314,-1.89c0.793,-2.555 1.132,-4.788 1.017,-6.698c-0.153,-1.977 -0.417,-3.802 -0.794,-5.477Zm5.272,3.733c-0.143,-0.796 0.118,-1.383 0.783,-1.759l1.546,-0.875c0.665,-0.376 1.103,-0.184 1.313,0.575c0.311,1.404 0.481,3.063 0.511,4.978c0.017,3.677 -1.078,7.172 -3.287,10.484c-0.329,0.581 -0.687,1.113 -1.073,1.595c-0.529,0.694 -0.935,0.946 -1.219,0.755c-0.283,-0.191 -0.224,-0.707 0.178,-1.549c0.836,-1.702 1.435,-3.709 1.796,-6.02c0.138,-2.316 -0.045,-5.044 -0.548,-8.184Zm6.155,3.432c-0.162,-0.83 0.073,-1.424 0.705,-1.781l2.394,-1.354c0.665,-0.377 1.053,-0.157 1.163,0.659c0.381,3.778 0.031,7.466 -1.051,11.062c-1.561,3.912 -3.548,7.384 -5.959,10.416c-0.514,0.642 -0.904,0.885 -1.169,0.727c-0.283,-0.191 -0.205,-0.674 0.234,-1.449c3.577,-6.325 4.805,-12.418 3.683,-18.28Z" style="fill:#c0272d;fill-rule:nonzero;"/><path d="M86.447,75.907l19.634,16.319l21.587,-13.63l-9.452,23.716l19.633,16.319l-25.476,-1.661l-9.453,23.715l-6.292,-24.743l-25.477,-1.662l21.588,-13.63l-6.292,-24.743Z" style="fill:#c0272d;fill-rule:nonzero;"/></svg>