<?xml version="1.0" encoding="UTF-8" standalone="no"?><!DOCTYPE svg PUBLIC "-//W3C//DTD SVG 1.1//EN" "http://www.w3.org/Graphics/SVG/1.1/DTD/svg11.dtd"><svg width="100%" height="100%" viewBox="0 0 520 108" version="1.1" xmlns="http://www.w3.org/2000/svg" xmlns:xlink="http://www.w3.org/1999/xlink" xml:space="preserve" xmlns:serif="http://www.serif.com/" style="fill-rule:evenodd;clip-rule:evenodd;stroke-linejoin:round;stroke-miterlimit:2;"><path d="M25.927,33.74l12.143,0.109l0.083,-9.24l-12.671,-0.114l0.109,-12.209l12.672,0.114l0.104,-11.66l10.472,0.094l-0.105,11.659l4.752,0.043l0.105,-11.77l10.384,0.093l-0.106,11.77l14.696,0.132l-0.302,33.658l-14.695,-0.131l-0.082,9.129l16.543,0.148c-0.089,3.446 -0.16,6.434 -0.212,8.964c-0.052,2.53 -0.116,4.802 -0.193,6.818c-0.077,2.016 -0.167,3.904 -0.271,5.663c-0.103,1.759 -0.222,3.555 -0.356,5.387c-0.265,3.445 -1.036,5.95 -2.311,7.515c-1.276,1.565 -3.353,2.555 -6.231,2.969c-0.647,0.141 -1.425,0.207 -2.334,0.199c-0.909,-0.008 -1.775,-0.016 -2.596,-0.023l-1.642,-13.215c1.23,0.231 2.168,0.349 2.813,0.355c1.232,0.011 2.055,-0.147 2.469,-0.473c0.413,-0.326 0.685,-1.222 0.816,-2.688c0.134,-1.905 0.236,-3.481 0.306,-4.727c0.07,-1.246 0.082,-2.603 0.037,-4.07l-6.952,-0.062l-0.305,33.988l-10.383,-0.093l0.304,-33.988l-5.192,-0.047c-0.324,3.517 -0.763,6.685 -1.317,9.504c-0.553,2.818 -1.25,5.287 -2.09,7.406c-2.581,6.504 -7.303,12.952 -14.166,19.344l-7.128,-9.854c3.371,-2.977 6.006,-5.758 7.907,-8.345c1.901,-2.586 3.271,-4.902 4.11,-6.948c1.2,-2.923 1.996,-6.656 2.389,-11.199l-13.728,-0.123l2.154,-34.082Zm-25.927,15.828c3.412,-7.523 6.517,-15.25 9.316,-23.182c2.799,-7.932 5.415,-16.727 7.849,-26.386l10.358,2.953c-1.033,3.951 -2.05,7.719 -3.05,11.303c-1,3.585 -2.013,7.022 -3.04,10.313l-0.694,77.437l-10.296,-0.092l0.448,-49.938l-3.227,6.571l-7.664,-8.979Zm48.542,-15.626l4.752,0.043l0.083,-9.24l-4.752,-0.042l-0.083,9.239Zm-0.191,21.34l4.752,0.042l0.081,-9.129l-4.751,-0.043l-0.082,9.13Zm15.409,-30.444l-0.083,9.24l4.488,0.04l0.083,-9.239l-4.488,-0.041Zm-30.105,30.312l4.224,0.038l0.082,-9.13l-3.432,-0.031l-0.874,9.123Z" style="fill-rule:nonzero;"/><path d="M89.797,85.134c0.411,-0.07 0.852,-0.102 1.321,-0.098c0.469,0.004 0.939,-0.065 1.41,-0.207l0.339,-37.839l9.327,0.084l-0.324,36.188c0.471,-0.142 0.971,-0.266 1.5,-0.371c0.529,-0.106 1.087,-0.229 1.675,-0.37l0.088,0l0.359,-40.038l-11.528,-0.103l0.339,-37.839l26.927,0.241l-0.123,13.75l6.455,-3.462c0.632,1.472 1.306,3.183 2.022,5.133c0.716,1.95 1.473,4.212 2.272,6.786l0.599,1.875l0.236,-26.399l9.856,0.088l-0.421,46.968c-0.133,14.813 -1.493,25.911 -4.082,33.295c-1.266,3.729 -3.058,7.361 -5.378,10.897c-2.32,3.537 -5.198,7.196 -8.635,10.979l-7.918,-10.082l2.043,-2.072c-1.705,0.425 -3.602,0.885 -5.689,1.38c-2.087,0.494 -4.365,1.024 -6.834,1.588c-3.116,0.706 -5.893,1.268 -8.332,1.686c-2.438,0.418 -4.597,0.765 -6.477,1.042l-1.027,-13.1Zm64.991,-44.299l-0.028,3.189c1.221,1.258 2.557,2.7 4.009,4.327c1.452,1.626 2.816,3.288 4.092,4.986c3.075,3.768 5.422,7.053 7.04,9.854l-6.944,8.848c-0.809,-1.401 -1.792,-2.95 -2.95,-4.647c-1.158,-1.697 -2.491,-3.579 -3.998,-5.646l-1.392,-1.772l-0.196,21.889c-0.014,1.54 0.004,2.768 0.055,3.686c0.05,0.917 0.176,1.633 0.377,2.148c0.2,0.515 0.549,0.867 1.046,1.054c0.497,0.188 1.186,0.286 2.066,0.294c0.821,0.007 1.467,-0.079 1.938,-0.258c0.471,-0.179 0.84,-0.469 1.108,-0.87c0.268,-0.401 0.478,-0.967 0.631,-1.699c0.153,-0.732 0.294,-1.648 0.421,-2.747c0.127,-1.098 0.225,-2.179 0.293,-3.242c0.068,-1.063 0.139,-2.474 0.214,-4.233l8.766,3.818c-0.328,3.884 -0.618,6.778 -0.87,8.683c-0.375,2.563 -0.775,4.705 -1.202,6.424c-0.426,1.72 -1.083,3.107 -1.973,4.163c-0.889,1.055 -2.099,1.814 -3.628,2.277c-1.53,0.463 -3.527,0.684 -5.991,0.662c-2.698,-0.024 -4.911,-0.282 -6.637,-0.775c-1.726,-0.492 -3.068,-1.292 -4.027,-2.401c-0.958,-1.108 -1.605,-2.563 -1.941,-4.362c-0.335,-1.8 -0.492,-4.02 -0.468,-6.66l0.771,-86.016l9.767,0.087l-0.265,29.589c0.3,-0.731 0.6,-1.461 0.9,-2.192c0.3,-0.731 0.629,-1.498 0.989,-2.301c2.038,-4.896 3.571,-9.025 4.599,-12.39l8.763,4.149c-0.544,1.755 -1.191,3.638 -1.943,5.648c-0.751,2.01 -1.697,4.403 -2.836,7.18c-2.28,5.626 -4.254,9.862 -5.922,12.707l-4.634,-3.451Zm-34.405,19.162l-0.04,4.51l-5.28,-0.047l-0.142,15.839c2.176,-0.567 4,-1.101 5.471,-1.601l0.34,11.113c2.016,-2.328 3.709,-4.66 5.079,-6.994c1.37,-2.335 2.447,-4.599 3.229,-6.792c0.543,-1.608 1.013,-3.401 1.412,-5.377c0.399,-1.977 0.727,-4.211 0.984,-6.702c-2.9,2.908 -5.325,5.013 -7.272,6.315l-3.781,-10.264Zm0.018,-1.98c1.949,-1.376 4.49,-3.48 7.625,-6.312l4.259,-3.922l0.061,-6.819l-4.777,2.817c-0.338,-1.617 -0.79,-3.491 -1.358,-5.623c-0.567,-2.131 -1.25,-4.484 -2.049,-7.058l-3.082,-9.598l-0.189,21.119l-5.632,-0.051l-0.077,8.58l5.28,0.047l-0.061,6.82Zm-16.644,-28.2l7.568,0.068l0.114,-12.76l-7.568,-0.068l-0.114,12.76Z" style="fill-rule:nonzero;"/><path d="M255.021,51.083l-0.46,51.258l-49.63,-0.445l0.46,-51.258l49.63,0.445Zm-19.542,-48.577l-0.075,8.36l20.591,0.184l-0.1,11.22l-5.544,-0.05l3.229,2.999c-0.537,1.022 -1.192,2.153 -1.966,3.392c-0.774,1.24 -1.666,2.589 -2.677,4.047c-0.535,0.802 -1.04,1.549 -1.516,2.241c-0.475,0.693 -0.95,1.33 -1.425,1.912l12.232,0.11l-0.096,10.67l-54.294,-0.487l0.096,-10.669l10.383,0.093c-0.405,-0.591 -0.839,-1.255 -1.302,-1.992c-0.463,-0.738 -0.925,-1.512 -1.387,-2.323c-0.984,-1.475 -1.852,-2.785 -2.605,-3.928c-0.752,-1.144 -1.448,-2.121 -2.086,-2.934l3.464,-3.489l-5.104,-0.046l0.1,-11.219l19.184,0.172l0.074,-8.36l10.824,0.097Zm-48.627,25.085l0.216,-24.089l10.824,0.097l-0.216,24.089l5.368,0.048l-0.12,13.31l-5.367,-0.048l-0.261,29.149c1.001,-0.432 1.943,-0.863 2.827,-1.295c0.884,-0.432 1.738,-0.828 2.563,-1.187l1.982,14.538c-1.533,0.793 -3.271,1.639 -5.215,2.538c-1.944,0.9 -4.183,1.925 -6.716,3.075c-2.532,1.078 -4.799,1.974 -6.8,2.69c-2.001,0.715 -3.767,1.286 -5.296,1.712l-2.77,-14.985c1.177,-0.356 2.471,-0.748 3.883,-1.175c1.412,-0.428 2.971,-0.964 4.679,-1.609l0.3,-33.548l-6.952,-0.063l0.12,-13.309l6.951,0.062Zm27.938,64.273l30.007,0.269l0.278,-31.129l-30.006,-0.269l-0.279,31.129Zm27.432,-26.705l-0.203,22.659l-24.375,-0.218l0.203,-22.66l24.375,0.219Zm1.881,-42.995l-8.799,-0.079l-0.131,14.63l6.335,0.056l-4.531,-4.991c1.243,-1.235 2.845,-3.274 4.807,-6.117l2.319,-3.499Zm-25.034,14.406l5.28,0.048l0.131,-14.63l-8.096,-0.072l2.346,3.431c0.984,1.475 1.867,2.785 2.649,3.929c0.781,1.143 1.403,2.157 1.865,3.041l-4.175,4.253Zm6.668,41.532l8.36,0.075l0.033,-3.63l-8.36,-0.075l-0.033,3.63Z" style="fill-rule:nonzero;"/><path d="M301.143,40.276l0.334,-37.289l11.088,0.099l-0.334,37.289l29.391,0.263l-0.122,13.53l-29.39,-0.264l-0.1,11.11l32.999,0.296l-0.124,13.859l-32.999,-0.296l-0.224,24.969l-11.087,-0.099l0.223,-24.969l-33.174,-0.297l0.124,-13.86l33.175,0.298l0.099,-11.11l-29.391,-0.263l0.122,-13.53l29.39,0.264Zm13.901,-9.336c1.125,-1.237 2.475,-2.893 4.048,-4.969c1.574,-2.076 3.163,-4.28 4.768,-6.613c1.605,-2.332 3.136,-4.647 4.594,-6.944c1.458,-2.297 2.635,-4.285 3.53,-5.963l9.072,8.881c-1.013,1.825 -2.293,3.921 -3.84,6.291c-1.547,2.37 -3.167,4.72 -4.859,7.052c-1.693,2.331 -3.371,4.553 -5.032,6.665c-1.662,2.112 -3.114,3.786 -4.358,5.021l-7.923,-9.421Zm-33.318,-23.62c1.162,1.258 2.468,2.828 3.918,4.711c1.45,1.883 2.928,3.876 4.434,5.98c1.507,2.103 2.955,4.206 4.344,6.309c1.389,2.102 2.604,4.038 3.644,5.808l-9.241,9.927c-0.807,-1.62 -1.846,-3.481 -3.118,-5.583c-1.272,-2.101 -2.617,-4.24 -4.035,-6.416c-1.418,-2.176 -2.851,-4.261 -4.3,-6.254c-1.449,-1.993 -2.783,-3.728 -4.002,-5.206l8.356,-9.276Z" style="fill-rule:nonzero;"/><path d="M382.611,13.394l0.098,-10.889l12.231,0.109l-0.097,10.89l17.247,0.155l-0.072,8.029c3.212,-4.811 6.072,-9.772 8.582,-14.884l9.693,8.448c-1.912,3.796 -3.924,7.426 -6.038,10.891c-2.114,3.465 -4.388,6.836 -6.823,10.114l15.839,0.142l-0.122,13.64l-27.103,-0.243c-6.752,7.126 -14.527,13.84 -23.325,20.142l-0.019,2.09c3.121,-1.219 6.315,-2.566 9.585,-4.04c3.269,-1.474 6.465,-2.985 9.589,-4.534c3.123,-1.549 6.144,-3.117 9.062,-4.704c2.919,-1.587 5.587,-3.103 8.005,-4.548l4.197,12.908c-2.89,1.661 -6.029,3.337 -9.418,5.03c-3.388,1.694 -6.85,3.349 -10.385,4.968c-3.534,1.618 -7.083,3.163 -10.645,4.634c-3.563,1.472 -6.963,2.78 -10.2,3.924c-0.009,0.954 0.058,1.688 0.2,2.202c0.142,0.515 0.403,0.939 0.781,1.272c0.378,0.334 0.889,0.577 1.533,0.729c0.644,0.152 1.493,0.343 2.547,0.573c0.352,0.076 1.114,0.138 2.287,0.185c1.173,0.047 2.522,0.096 4.047,0.147c1.525,0.05 3.167,0.083 4.927,0.099c1.76,0.015 3.432,0.03 5.016,0.045c1.584,0.014 3.006,0.008 4.268,-0.017c1.262,-0.026 2.157,-0.072 2.685,-0.141c0.998,-0.064 1.821,-0.167 2.467,-0.308c0.647,-0.141 1.178,-0.448 1.593,-0.921c0.415,-0.473 0.743,-1.148 0.986,-2.026c0.242,-0.878 0.459,-2.123 0.649,-3.734c0.191,-1.685 0.389,-4.067 0.592,-7.145l11.405,3.952c-0.388,4.103 -0.771,7.51 -1.147,10.22c-0.436,2.856 -0.97,5.125 -1.601,6.806c-0.631,1.681 -1.479,3.012 -2.544,3.992c-1.065,0.981 -2.406,1.666 -4.023,2.054c-1.617,0.389 -3.629,0.683 -6.036,0.881c-0.822,0.066 -1.996,0.111 -3.521,0.134c-1.526,0.023 -3.242,0.044 -5.149,0.064c-1.907,0.019 -3.902,0.02 -5.984,0.001c-2.083,-0.019 -4.063,-0.036 -5.94,-0.053c-1.877,-0.017 -3.578,-0.069 -5.103,-0.156c-1.524,-0.087 -2.668,-0.17 -3.43,-0.251c-2.402,-0.314 -4.422,-0.772 -6.06,-1.374c-1.637,-0.601 -2.949,-1.53 -3.935,-2.785c-0.986,-1.256 -1.675,-2.894 -2.068,-4.914c-0.392,-2.02 -0.575,-4.57 -0.547,-7.65l0.089,-10.01c-2.005,1.229 -4.04,2.439 -6.104,3.631c-2.065,1.191 -4.187,2.401 -6.369,3.628l-5.86,-13.913c6.367,-3.39 12.279,-6.821 17.737,-10.292c5.458,-3.471 10.551,-7.129 15.279,-10.973l-30.095,-0.27l0.122,-13.639l26.223,0.235l0.087,-9.68l-16.983,-0.152l0.115,-12.87l16.983,0.152Zm18.014,22.713c1.421,-1.528 2.785,-3.092 4.09,-4.694c1.305,-1.602 2.581,-3.24 3.828,-4.916l-13.815,-0.124l-0.087,9.68l5.984,0.054Z" style="fill-rule:nonzero;"/><path d="M441.26,68.042c2.023,-3.135 3.928,-6.235 5.716,-9.299c1.787,-3.064 3.488,-6.239 5.101,-9.525c1.614,-3.286 3.155,-6.718 4.625,-10.299c1.469,-3.58 2.898,-7.491 4.285,-11.732l10,3.61l-0.995,2.961l49.806,0.446l-0.104,11.66l-20.767,-0.186c-0.185,1.025 -0.385,2.05 -0.6,3.074c-0.214,1.025 -0.443,2.05 -0.687,3.074l18.567,0.167l-0.472,52.688l-46.198,-0.414l0.472,-52.688l15.575,0.139l0.552,-2.635l0.647,-3.514l-18.127,-0.162l0.07,-7.81c-0.842,2.266 -1.697,4.476 -2.567,6.632c-0.87,2.156 -1.814,4.292 -2.83,6.41l-0.507,56.538l-11.087,-0.1l0.319,-35.638c-1.249,1.969 -2.587,3.937 -4.013,5.904l-6.781,-9.301Zm35.863,-54.131c-0.058,-0.074 -0.087,-0.184 -0.085,-0.331c-0.676,-3.159 -1.269,-5.695 -1.78,-7.606l12.244,-1.32c0.566,2.352 1.242,5.438 2.029,9.258l-0.001,0.11l30.447,0.273l-0.156,17.379l-11.527,-0.103l0.045,-5.06l-51.302,-0.459l-0.101,11.219l-11.351,-0.101l0.211,-23.54l31.327,0.281Zm27.451,79.229l0.081,-9.019l-23.671,-0.212l-0.081,9.019l23.671,0.212Zm-23.485,-21.001l23.671,0.212l0.078,-8.69l-23.671,-0.212l-0.078,8.69Z" style="fill-rule:nonzero;"/></svg>