<?xml version="1.0" encoding="UTF-8" standalone="no"?><!DOCTYPE svg PUBLIC "-//W3C//DTD SVG 1.1//EN" "http://www.w3.org/Graphics/SVG/1.1/DTD/svg11.dtd"><svg width="100%" height="100%" viewBox="0 0 429 107" version="1.1" xmlns="http://www.w3.org/2000/svg" xmlns:xlink="http://www.w3.org/1999/xlink" xml:space="preserve" xmlns:serif="http://www.serif.com/" style="fill-rule:evenodd;clip-rule:evenodd;stroke-linejoin:round;stroke-miterlimit:2;"><path d="M0,34.346c3.396,-2.463 6.775,-5.146 10.138,-8.049c3.362,-2.904 6.542,-5.864 9.539,-8.88c2.998,-3.017 5.738,-6.017 8.221,-9.002c2.484,-2.985 4.544,-5.79 6.181,-8.415l13.155,5.068l-2.68,4.486l37.288,0.334l-0.097,10.89c-1.111,1.237 -2.204,2.437 -3.278,3.601c-1.073,1.163 -2.165,2.29 -3.275,3.38l16.279,0.146l-0.478,53.348l-78.756,-0.705l0.342,-38.169l-4.43,3.261l-8.149,-11.294Zm99.62,54.025l-0.117,13.089l-95.696,-0.857l0.117,-13.09l95.696,0.858Zm-69.856,-61.019l26.839,0.241c1.181,-0.87 2.326,-1.794 3.435,-2.774c1.109,-0.981 2.181,-1.979 3.217,-2.997l-27.939,-0.25c-1.482,1.673 -3.037,3.31 -4.664,4.908l-0.888,0.872Zm-3.882,40.337l19.47,0.175l0.072,-8.14l-19.469,-0.174l-0.073,8.139Zm51.698,0.463l0.073,-8.139l-18.919,-0.17l-0.073,8.14l18.919,0.169Zm-51.512,-21.142l19.469,0.175l0.06,-6.71l-19.469,-0.175l-0.06,6.71Zm32.838,-6.416l-0.06,6.71l18.92,0.169l0.06,-6.709l-18.92,-0.17Z" style="fill-rule:nonzero;"/><path d="M109.459,95.279c3.692,-2.827 6.942,-5.493 9.752,-7.998c2.809,-2.505 5.251,-5.013 7.327,-7.524c2.076,-2.512 3.823,-5.136 5.241,-7.874c1.418,-2.737 2.582,-5.752 3.491,-9.044c-3.867,-2.161 -7.553,-4.119 -11.058,-5.874c-3.504,-1.755 -6.571,-3.231 -9.2,-4.428l6.708,-12.04c2.192,0.899 4.657,2.003 7.395,3.311c2.739,1.308 5.641,2.746 8.707,4.313c0.404,-4.103 0.664,-8.647 0.782,-13.633l-24.749,-0.222l0.123,-13.749l24.859,0.222l0.157,-17.489l14.08,0.126l-0.157,17.489l33.219,0.298l-0.586,65.337c-0.015,1.687 0.14,2.788 0.466,3.305c0.325,0.516 0.927,0.815 1.807,0.896c2.126,0.092 3.959,0.109 5.499,0.049c1.028,-0.064 1.745,-0.351 2.153,-0.861c0.408,-0.509 0.731,-1.753 0.969,-3.731c0.476,-4.029 0.849,-8.866 1.12,-14.511l13.39,3.421c-0.168,2.345 -0.376,5.13 -0.625,8.354c-0.249,3.225 -0.532,6.119 -0.848,8.683c-0.399,3.59 -1.543,6.495 -3.433,8.715c-1.89,2.219 -4.449,3.425 -7.678,3.616c-0.807,0.066 -1.853,0.112 -3.136,0.137c-1.284,0.025 -2.641,0.031 -4.071,0.018c-1.43,-0.012 -2.841,-0.043 -4.234,-0.092c-1.393,-0.05 -2.602,-0.115 -3.628,-0.198c-3.738,-0.327 -6.604,-1.636 -8.601,-3.927c-1.996,-2.292 -2.971,-6.04 -2.924,-11.247l0.487,-54.338l-19.579,-0.175c-0.182,3.958 -0.38,7.623 -0.594,10.995c-0.213,3.372 -0.517,6.559 -0.91,9.562c3.648,2.013 7.132,4.024 10.451,6.034c3.319,2.01 6.254,3.87 8.805,5.579l-7.594,12.693c-2.041,-1.412 -4.319,-2.917 -6.835,-4.517c-2.515,-1.599 -5.159,-3.218 -7.931,-4.856c-1.131,3.437 -2.517,6.669 -4.157,9.698c-1.641,3.029 -3.629,5.981 -5.965,8.857c-2.336,2.876 -5.057,5.767 -8.163,8.672c-3.106,2.906 -6.654,5.991 -10.643,9.255l-9.689,-11.307Z" style="fill-rule:nonzero;"/><path d="M309.496,52.959l-0.358,39.929c-0.022,2.493 -0.279,4.526 -0.77,6.098c-0.49,1.573 -1.254,2.849 -2.289,3.83c-1.036,0.981 -2.362,1.702 -3.98,2.164c-1.617,0.462 -3.6,0.793 -5.949,0.992c-2.496,0.271 -5.027,0.432 -7.594,0.482c-2.568,0.05 -4.694,0.031 -6.38,-0.057l-2.093,-12.009c0.806,0.08 1.759,0.162 2.858,0.245c1.1,0.083 2.217,0.148 3.354,0.195c1.136,0.047 2.217,0.075 3.244,0.084c1.027,0.01 1.944,-0.019 2.751,-0.085c1.174,-0.063 1.947,-0.404 2.319,-1.024c0.372,-0.62 0.601,-1.59 0.686,-2.909l-48.948,-0.439l-0.139,15.51l-13.639,-0.123l0.48,-53.567l76.447,0.684Zm-30.919,-48.238l-0.069,7.699l37.618,0.337l-0.088,9.79l-37.618,-0.337l-0.034,3.74l32.999,0.295l-0.085,9.46l-32.998,-0.296l-0.032,3.52l42.018,0.377l-0.087,9.789l-98.006,-0.878l0.087,-9.789l41.909,0.375l0.031,-3.52l-32.778,-0.293l0.084,-9.46l32.779,0.294l0.033,-3.74l-37.288,-0.334l0.088,-9.79l37.288,0.334l0.069,-7.7l14.08,0.127Zm-32.015,61.755l48.948,0.439l0.036,-3.96l-48.948,-0.439l-0.036,3.96Zm-0.123,13.75l48.948,0.438l0.033,-3.74l-48.948,-0.438l-0.033,3.74Z" style="fill-rule:nonzero;"/><path d="M328.343,36.628c5.176,-4.794 9.919,-10.27 14.227,-16.429c4.309,-6.158 7.811,-12.305 10.506,-18.441l13.603,4.192l-2.802,5.805l61.158,0.548l-0.119,13.199l-33.108,-0.296l-0.124,13.749l30.359,0.272l-0.116,12.98l-30.359,-0.272l-0.157,17.489l37.069,0.332l-0.118,13.2l-37.069,-0.333l-0.21,23.43l-13.859,-0.125l0.21,-23.429l-46.968,-0.421l0.118,-13.199l13.419,0.12l0.253,-28.159c-1.927,2.257 -3.89,4.402 -5.888,6.438l-10.025,-10.65Zm28.046,-11.74c-1.561,2.333 -3.177,4.629 -4.847,6.887c-1.67,2.259 -3.469,4.516 -5.396,6.772l31.679,0.284l0.123,-13.749l-21.559,-0.194Zm1.474,44.235l19.689,0.177l0.157,-17.489l-19.69,-0.177l-0.156,17.489Z" style="fill-rule:nonzero;"/></svg>