<?xml version="1.0" encoding="UTF-8" standalone="no"?><!DOCTYPE svg PUBLIC "-//W3C//DTD SVG 1.1//EN" "http://www.w3.org/Graphics/SVG/1.1/DTD/svg11.dtd"><svg width="100%" height="100%" viewBox="0 0 523 109" version="1.1" xmlns="http://www.w3.org/2000/svg" xmlns:xlink="http://www.w3.org/1999/xlink" xml:space="preserve" xmlns:serif="http://www.serif.com/" style="fill-rule:evenodd;clip-rule:evenodd;stroke-linejoin:round;stroke-miterlimit:2;"><path d="M0,41.07c2.663,-2.543 5.152,-5.381 7.469,-8.514c2.316,-3.133 4.278,-6.085 5.887,-8.857l-8.008,-0.072l0.107,-11.88l13.287,0.119c1.264,-3.509 2.266,-7.276 3.006,-11.303l9.311,1.953c-0.367,1.684 -0.734,3.312 -1.1,4.886c-0.366,1.573 -0.791,3.091 -1.273,4.553l16.807,0.151l-0.106,11.88l-6.952,-0.063l3.398,3.881c1.16,1.477 2.218,2.806 3.176,3.988c0.957,1.182 1.842,2.29 2.654,3.324l0.225,-25.079l7.832,0.071c0.425,-1.683 0.793,-3.385 1.101,-5.106c0.309,-1.72 0.587,-3.313 0.835,-4.778l10.454,2.074c-0.246,1.245 -0.521,2.526 -0.826,3.843c-0.306,1.317 -0.67,2.671 -1.093,4.06l13.464,0.121c-0.169,5.719 -0.364,11.07 -0.584,16.055c-0.221,4.985 -0.463,9.127 -0.728,12.424c-0.324,3.518 -1.082,6.169 -2.271,7.955c-1.189,1.786 -3.165,2.96 -5.928,3.522c-1.293,0.282 -2.615,0.454 -3.964,0.515c-1.35,0.061 -2.67,0.049 -3.96,-0.036l-1.483,-11.343c0.703,0.153 1.508,0.288 2.417,0.406c0.908,0.118 1.715,0.144 2.419,0.077c0.763,0.007 1.365,-0.043 1.806,-0.149c0.441,-0.106 0.795,-0.341 1.062,-0.705c0.267,-0.365 0.448,-0.895 0.542,-1.591c0.094,-0.695 0.176,-1.63 0.245,-2.802c0.135,-1.979 0.255,-3.867 0.359,-5.662c0.104,-1.796 0.227,-4.087 0.37,-6.872l-13.2,-0.119l-0.047,5.28l5.669,-4.129c0.464,0.591 0.971,1.328 1.52,2.213c0.55,0.885 1.142,1.917 1.777,3.096c0.634,1.18 1.197,2.211 1.688,3.096c0.491,0.884 0.879,1.694 1.166,2.43l-7,5.328c-0.572,-1.619 -1.435,-3.57 -2.587,-5.854l-2.249,-4.42l-0.224,24.969l25.607,0.229c-0.093,3.886 -0.183,7.406 -0.27,10.558c-0.087,3.153 -0.187,6.104 -0.3,8.853c-0.112,2.749 -0.253,5.333 -0.421,7.752c-0.168,2.418 -0.351,4.8 -0.548,7.145c-0.199,2.565 -0.512,4.726 -0.938,6.482c-0.427,1.756 -1.085,3.199 -1.975,4.327c-0.89,1.129 -2.057,2.017 -3.5,2.664c-1.443,0.647 -3.31,1.144 -5.602,1.49c-1.585,0.206 -3.362,0.355 -5.328,0.447c-1.966,0.093 -3.741,0.095 -5.324,0.008l-1.825,-12.447c1.407,0.159 2.917,0.283 4.529,0.37c1.613,0.088 3.123,0.102 4.532,0.041c1.174,-0.063 2.114,-0.165 2.819,-0.305c0.705,-0.14 1.265,-0.447 1.68,-0.92c0.415,-0.473 0.729,-1.167 0.943,-2.081c0.213,-0.915 0.415,-2.179 0.606,-3.79c0.131,-1.539 0.232,-2.987 0.303,-4.343c0.071,-1.356 0.142,-2.767 0.214,-4.233c0.071,-1.466 0.13,-3.079 0.175,-4.839c0.045,-1.759 0.078,-3.739 0.097,-5.939l-24.551,-0.22l0.241,-26.839l-4.275,5.682l-0.328,36.519l-13.111,-0.118l-0.073,8.14c1.883,-0.57 3.988,-1.431 6.315,-2.584c2.328,-1.152 4.436,-2.307 6.324,-3.463l1.3,12.002c-3.948,1.945 -7.85,3.67 -11.707,5.175c-3.856,1.506 -7.755,2.864 -11.697,4.076l-2.889,-11.467c1.059,-0.357 1.813,-1.01 2.262,-1.959c0.448,-0.95 0.683,-2.598 0.704,-4.944l0.045,-5.06l-13.287,-0.119l0.288,-32.119c-0.297,0.364 -0.578,0.673 -0.845,0.928c-0.266,0.254 -0.547,0.526 -0.843,0.817l-5.817,-8.852Zm69.161,30.54l-0.104,11.66l-23.935,-0.215l0.104,-11.659l23.935,0.214Zm-38.294,-47.755l-6.687,-0.059c-0.419,0.876 -0.837,1.752 -1.256,2.628c-0.418,0.877 -0.866,1.716 -1.342,2.518l8.799,0.079l-0.069,7.7l6.424,0.058l-0.869,-1.218c-2.899,-3.913 -5.278,-6.831 -7.138,-8.755l2.138,-2.951Zm-15.279,45.405l5.016,0.045l0.051,-5.719l-5.016,-0.045l-0.051,5.719Zm19.183,0.172l0.052,-5.72l-4.752,-0.042l-0.052,5.72l4.752,0.042Zm-19.038,-16.341l5.016,0.045l0.048,-5.39l-5.016,-0.045l-0.048,5.39Zm14.48,-5.26l-0.049,5.389l4.752,0.043l0.048,-5.39l-4.751,-0.042Zm-9.259,-17.574c-1.252,2.189 -2.62,4.303 -4.105,6.343l4.048,0.037l0.057,-6.38Z" style="fill-rule:nonzero;"/><path d="M140.379,10.096c0.544,-1.755 1.059,-3.566 1.545,-5.431c0.486,-1.866 0.881,-3.421 1.186,-4.665l10.454,2.074c-0.366,1.463 -0.745,2.872 -1.138,4.225c-0.394,1.353 -0.802,2.651 -1.223,3.894l14.871,0.133c-0.17,5.939 -0.335,11.163 -0.492,15.671c-0.158,4.509 -0.402,8.779 -0.731,12.809c-0.137,2.199 -0.417,3.975 -0.84,5.328c-0.423,1.353 -0.975,2.448 -1.657,3.285c-0.683,0.838 -1.495,1.472 -2.438,1.904c-0.942,0.431 -2.03,0.751 -3.264,0.96c-1.352,0.282 -2.762,0.471 -4.23,0.567c-1.467,0.097 -2.875,0.066 -4.223,-0.092l-1.574,-10.905c0.468,0.151 0.848,0.228 1.142,0.23c-0.345,-0.809 -0.776,-1.767 -1.295,-2.871c-0.518,-1.105 -1.123,-2.284 -1.816,-3.537l-2.685,-4.754l-0.224,24.969l27.455,0.246c-0.058,6.453 -0.246,12.74 -0.565,18.861c-0.319,6.12 -0.706,11.672 -1.162,16.655c-0.198,2.492 -0.539,4.579 -1.024,6.261c-0.484,1.682 -1.142,3.052 -1.973,4.107c-0.83,1.056 -1.879,1.89 -3.146,2.502c-1.267,0.612 -2.811,1.057 -4.632,1.334c-1.822,0.35 -3.907,0.552 -6.254,0.604c-2.347,0.052 -4.459,-0.003 -6.335,-0.167l-1.824,-12.447c1.406,0.16 3.063,0.303 4.968,0.43c1.906,0.127 3.563,0.123 4.972,-0.011c1.174,-0.062 2.114,-0.182 2.82,-0.359c0.705,-0.177 1.266,-0.484 1.68,-0.92c0.415,-0.437 0.699,-1.057 0.853,-1.863c0.154,-0.805 0.296,-1.941 0.426,-3.406c0.259,-2.711 0.463,-5.845 0.613,-9.4c0.149,-3.555 0.27,-7.313 0.365,-11.272l-27.015,-0.242l0.49,-54.778l7.92,0.071Zm-49.245,64.681c1.994,0.018 4.254,-0.072 6.778,-0.269c2.525,-0.197 5.373,-0.465 8.544,-0.803l0.05,-5.61c1.121,-0.65 2.227,-1.392 3.32,-2.226c1.093,-0.833 2.172,-1.722 3.236,-2.666l-19.271,-0.172l0.096,-10.67l34.318,0.308l-0.095,10.669c-1.952,1.743 -3.903,3.375 -5.852,4.898c-1.95,1.523 -3.898,2.825 -5.844,3.908l-0.002,0.22c4.641,-0.692 8.608,-1.427 11.901,-2.204l0.347,10.344c-1.705,0.351 -3.571,0.738 -5.599,1.16c-2.028,0.422 -4.275,0.805 -6.742,1.149l-0.074,8.25c-0.036,3.96 -0.648,6.851 -1.838,8.674c-1.19,1.823 -3.283,3.014 -6.28,3.574c-1.469,0.28 -2.982,0.468 -4.537,0.564c-1.556,0.096 -3.037,0.065 -4.444,-0.095l-1.826,-12.227c0.878,0.155 1.904,0.274 3.077,0.358c1.172,0.084 2.199,0.093 3.079,0.028c1.233,-0.063 2.013,-0.367 2.341,-0.914c0.327,-0.548 0.499,-1.664 0.514,-3.351l0.031,-3.52c-2.995,0.34 -5.725,0.572 -8.19,0.697c-2.465,0.124 -4.637,0.215 -6.515,0.271l-0.523,-10.345Zm37.232,-49.828l-0.212,23.649l-33.615,-0.301l0.212,-23.649l33.615,0.301Zm-12.369,-24.092c0.286,0.809 0.613,1.949 0.981,3.419c0.368,1.47 0.693,2.903 0.974,4.299l0.253,1.212l12.144,0.109l-0.097,10.78l-37.663,-0.338l0.097,-10.779l13.991,0.125c-0.114,-0.294 -0.171,-0.552 -0.169,-0.772c-0.282,-1.249 -0.521,-2.369 -0.718,-3.361c-0.196,-0.992 -0.408,-1.892 -0.635,-2.701l10.842,-1.993Zm40.198,70.983l-0.102,11.33l-25.959,-0.233l0.102,-11.329l25.959,0.232Zm-8.428,-31.757c0.761,0.154 1.538,0.234 2.33,0.241c0.792,0.007 1.511,-0.023 2.157,-0.09c1.056,-0.064 1.821,-0.351 2.295,-0.86c0.474,-0.509 0.779,-1.753 0.914,-3.732c0.134,-1.905 0.255,-3.958 0.363,-6.157c0.108,-2.199 0.175,-4.765 0.201,-7.698l-13.991,-0.126l-0.05,5.5l6.031,-5.226c0.928,1.182 2.172,3.173 3.731,5.974c0.751,1.326 1.386,2.505 1.904,3.537c0.519,1.031 0.951,1.952 1.296,2.761l-7.181,5.876Zm-43.989,-1.494l15.136,0.136l0.037,-4.18l-15.135,-0.136l-0.038,4.18Z" style="fill-rule:nonzero;"/><path d="M224.479,52.871l-0.031,3.52l25.695,0.23l-0.247,27.499l-3.432,-0.031c0.697,0.813 1.437,1.737 2.22,2.77c0.783,1.034 1.638,2.142 2.566,3.323c2.841,3.766 5.012,6.976 6.514,9.629l-7.557,8.623c-0.578,-1.032 -1.228,-2.138 -1.951,-3.318c-0.723,-1.18 -1.547,-2.47 -2.473,-3.872c-4.111,0.403 -8.807,0.728 -14.09,0.974c-5.282,0.246 -11.092,0.45 -17.43,0.614c-6.983,0.23 -13.232,0.284 -18.746,0.162c-5.514,-0.123 -10.352,-0.313 -14.515,-0.57l-0.076,-11.222c8.151,0.513 19.032,0.721 32.644,0.623l0.072,-8.03l-25.519,-0.228l0.246,-27.499l25.519,0.228l0.032,-3.52l10.559,0.095Zm32.972,-45.796l-0.096,10.669c-0.895,1.752 -1.834,3.412 -2.816,4.98c-0.983,1.568 -1.949,3.044 -2.9,4.429l-3.682,-1.573l-0.088,9.79l-23.847,-0.214l-0.039,4.4c4.395,0.479 9.454,0.708 15.174,0.686c5.72,-0.022 12.396,-0.256 20.027,-0.701l-1.419,11.098c-8.041,0.368 -15.157,0.579 -21.347,0.634c-6.19,0.055 -11.702,-0.233 -16.537,-0.863c-4.834,-0.63 -9.108,-1.659 -12.821,-3.085c-3.712,-1.427 -7.083,-3.437 -10.11,-6.031c-1.377,3.068 -2.957,5.932 -4.741,8.593c-1.784,2.661 -3.92,5.263 -6.406,7.808l-7.318,-8.316c2.25,-2.327 4.118,-4.602 5.605,-6.825c1.487,-2.224 2.739,-4.431 3.756,-6.622c1.075,-2.19 2.007,-4.73 2.796,-7.62c0.789,-2.89 1.374,-5.983 1.755,-9.28l10.106,1.631c-0.309,1.757 -0.618,3.441 -0.925,5.052c-0.308,1.61 -0.645,3.184 -1.011,4.721c1.804,1.63 3.728,3.022 5.771,4.177c2.043,1.155 4.381,2.111 7.015,2.868l0.174,-19.469l-31.855,-0.286l0.102,-11.329l75.677,0.678Zm-33.276,11.032l-0.055,6.16l21.295,0.19l-3.594,-1.572l3.649,-4.587l-21.295,-0.191Zm17.362,65.938l-17.336,-0.155l-0.069,7.7c2.583,-0.124 5.048,-0.23 7.396,-0.319c2.347,-0.089 4.578,-0.198 6.691,-0.325l-1.567,-1.884l4.885,-5.017Zm-43.276,-12.268l15.487,0.139l0.045,-4.95l-15.488,-0.139l-0.044,4.95Zm26.091,-4.716l-0.044,4.949l15.399,0.138l0.045,-4.95l-15.4,-0.137Z" style="fill-rule:nonzero;"/><path d="M286.889,100.292l-0.037,4.18l-11.088,-0.099l0.426,-47.519l-2.597,4.927l-9.346,-7.784c4.475,-8.393 8.218,-16.83 11.227,-25.31c3.009,-8.48 5.638,-17.037 7.886,-25.67l10.977,2.628c-1.095,4.317 -2.202,8.432 -3.323,12.346c-1.12,3.913 -2.284,7.735 -3.49,11.464l-0.562,62.697c1.557,-3.506 2.834,-6.868 3.83,-10.086c0.997,-3.218 1.773,-6.364 2.329,-9.439c1.421,-7.981 2.198,-19.415 2.331,-34.301l0.282,-31.458l49.102,0.439l-0.328,36.629l-38.014,-0.341c-0.295,13.272 -1.155,24.118 -2.58,32.539c-0.805,4.686 -1.976,9.387 -3.514,14.104c-1.539,4.716 -3.535,9.813 -5.99,15.292l-7.521,-5.238Zm33.046,-54.156l-0.141,15.839l6.376,-4.453c5.61,-4.056 10.071,-7.646 13.385,-10.77l5.702,11.821c-1.892,1.597 -4.048,3.283 -6.47,5.058c-2.421,1.775 -5.137,3.712 -8.148,5.812c-2.066,1.448 -4.014,2.769 -5.844,3.963c-1.829,1.193 -3.54,2.296 -5.134,3.309l-0.081,9.129c-0.01,1.1 0.011,1.962 0.065,2.586c0.053,0.624 0.21,1.12 0.47,1.489c0.261,0.369 0.669,0.63 1.225,0.781c0.556,0.152 1.303,0.269 2.241,0.35c1.172,0.158 2.462,0.242 3.87,0.255c1.408,0.013 2.729,-0.049 3.962,-0.184c0.939,-0.065 1.688,-0.169 2.247,-0.31c0.558,-0.142 0.986,-0.413 1.283,-0.814c0.297,-0.401 0.522,-0.985 0.676,-1.754c0.153,-0.769 0.295,-1.849 0.425,-3.241c0.132,-1.612 0.264,-3.316 0.398,-5.112c0.133,-1.795 0.236,-3.499 0.31,-5.112l10.261,3.942c-0.135,1.979 -0.287,4.141 -0.454,6.486c-0.168,2.345 -0.378,4.507 -0.631,6.485c-0.252,1.977 -0.634,3.734 -1.147,5.27c-0.512,1.535 -1.243,2.83 -2.191,3.885c-0.948,1.055 -2.158,1.906 -3.631,2.553c-1.472,0.647 -3.266,1.07 -5.379,1.272c-4.345,0.401 -8.599,0.363 -12.76,-0.115c-1.699,-0.235 -3.294,-0.634 -4.785,-1.198c-1.491,-0.563 -2.789,-1.4 -3.894,-2.51c-1.105,-1.11 -1.957,-2.529 -2.558,-4.258c-0.6,-1.729 -0.89,-3.803 -0.868,-6.223l0.397,-44.328l10.823,0.097Zm-13.236,-15.629l27.015,0.242l0.094,-10.56l-27.014,-0.242l-0.095,10.56Z" style="fill-rule:nonzero;"/><path d="M432.389,8.532l-0.867,96.796l-73.477,-0.658l0.867,-96.796l73.477,0.658Zm-63.851,84.021l52.445,0.47l0.648,-72.267l-52.446,-0.47l-0.647,72.267Zm22.103,-40.943l0.046,-5.06c3.598,-2.168 6.994,-4.741 10.189,-7.719l-26.223,-0.235l0.113,-12.54l42.766,0.383l-0.113,12.54c-4.967,4.356 -10.195,8.379 -15.684,12.07l-0.006,0.66l17.863,0.16l-0.113,12.649l-17.864,-0.16l-0.092,10.34c-0.019,2.127 -0.168,3.977 -0.446,5.551c-0.278,1.574 -0.774,2.908 -1.488,4.002c-0.714,1.094 -1.675,1.965 -2.883,2.614c-1.209,0.65 -2.724,1.113 -4.545,1.39c-1.704,0.278 -3.451,0.464 -5.241,0.558c-1.79,0.094 -3.565,0.059 -5.323,-0.103l-1.818,-13.217c1.348,0.159 2.564,0.28 3.649,0.363c1.084,0.083 2.272,0.094 3.564,0.032c1.349,0.012 2.261,-0.273 2.735,-0.856c0.475,-0.582 0.721,-1.827 0.738,-3.733l0.063,-7.04l-19.711,-0.176l0.113,-12.65l19.711,0.177Z" style="fill-rule:nonzero;"/><path d="M494.077,67.717l-0.245,27.389l2.816,0.025c1.173,0.011 2.112,-0.036 2.817,-0.14c0.705,-0.103 1.236,-0.392 1.592,-0.866c0.356,-0.473 0.582,-1.149 0.678,-2.029c0.096,-0.879 0.151,-2.088 0.165,-3.628l0.22,-24.639l-57.989,-0.52l0.105,-11.769l78.581,0.704l-0.106,11.769l-9.327,-0.083l-0.24,26.729c-0.027,3.006 -0.225,5.498 -0.595,7.475c-0.369,1.976 -0.941,3.566 -1.714,4.769c-0.774,1.204 -1.809,2.129 -3.105,2.778c-1.297,0.648 -2.856,1.111 -4.677,1.388c-1.116,0.137 -2.276,0.255 -3.479,0.354c-1.204,0.099 -2.378,0.162 -3.522,0.188c-1.144,0.027 -2.215,0.035 -3.213,0.026c-0.997,-0.009 -1.818,-0.016 -2.463,-0.022l-1.755,-10.466l-37.486,-0.336l0.264,-29.478l42.678,0.382Zm27.548,-59.266l-0.104,11.66l-7.744,-0.07l-0.271,30.249l-11.352,-0.101l0.271,-30.249l-55.085,-0.494l0.104,-11.659l74.181,0.664Zm-27.062,14.828l-0.227,25.409l-41.975,-0.376l0.228,-25.409l41.974,0.376Zm-32.682,62.63l21.383,0.192l0.067,-7.48l-21.383,-0.192l-0.067,7.48Zm0.866,-47.514l21.471,0.192l0.048,-5.389l-21.471,-0.193l-0.048,5.39Z" style="fill-rule:nonzero;"/></svg>