<?xml version="1.0" encoding="UTF-8" standalone="no"?><!DOCTYPE svg PUBLIC "-//W3C//DTD SVG 1.1//EN" "http://www.w3.org/Graphics/SVG/1.1/DTD/svg11.dtd"><svg width="100%" height="100%" viewBox="0 0 294 66" version="1.1" xmlns="http://www.w3.org/2000/svg" xmlns:xlink="http://www.w3.org/1999/xlink" xml:space="preserve" xmlns:serif="http://www.serif.com/" style="fill-rule:evenodd;clip-rule:evenodd;stroke-linejoin:round;stroke-miterlimit:2;"><path d="M28.088,0.907c0.003,-0.873 0.418,-1.024 1.246,-0.455l3.66,2.563c0.871,0.657 1.109,1.422 0.714,2.294l-1.448,2.942c-0.308,0.698 -0.112,1.048 0.586,1.05l4.125,0.01c0.699,0.002 1.049,-0.346 1.051,-1.045c0.001,-0.698 0.439,-1.046 1.312,-1.044l2.03,0.006c0.873,0.002 1.308,0.439 1.306,1.312l-0.019,7.203c-0.002,0.873 -0.243,0.981 -0.721,0.325c-0.522,-0.7 -0.871,-0.984 -1.046,-0.854c-0.349,0.218 -0.655,0.326 -0.917,0.325c-0.349,-0.001 -0.612,0.108 -0.787,0.326c-0.175,0.436 -0.329,0.872 -0.461,1.308c-0.352,0.872 -0.571,1.264 -0.658,1.177l-0.062,-1.441l0.01,-3.994c0.002,-0.698 -0.346,-1.048 -1.044,-1.05l-11.982,-0.031c-0.742,-0.002 -1.114,0.346 -1.116,1.044l-0.008,2.816c-0.002,0.916 -0.44,1.374 -1.313,1.371l-2.029,-0.005c-0.917,-0.002 -1.374,-0.44 -1.372,-1.313l0.019,-7.268c0.002,-0.873 0.44,-1.308 1.313,-1.306l2.095,0.006c0.873,0.002 1.309,0.33 1.307,0.985c-0.002,0.742 0.346,1.114 1.045,1.116l4.649,0.012c0.698,0.002 0.83,-0.434 0.396,-1.308c-0.739,-1.443 -1.237,-2.754 -1.496,-3.933c-0.215,-1.048 -0.344,-2.096 -0.385,-3.144Zm-20.562,1.256c0.089,-0.873 0.571,-1.308 1.444,-1.306l2.619,0.007c0.873,0.002 1.243,0.44 1.109,1.313c-0.664,3.752 -1.612,7.241 -2.842,10.468c-1.362,3.14 -3.356,6.299 -5.983,9.479c-0.657,0.74 -0.549,1.068 0.324,0.983l2.555,-0.452c1.31,-0.215 2.84,-0.909 4.589,-2.083c0.262,-0.218 0.416,-0.414 0.46,-0.588l0.408,-5.761c0.133,-0.873 0.636,-1.308 1.509,-1.306l2.03,0.006c0.873,0.002 1.286,0.439 1.24,1.312c-0.403,4.146 -0.914,7.637 -1.533,10.472c-1.013,3.359 -3.117,6.736 -6.312,10.133c-0.918,0.608 -2.45,1.979 -4.594,4.113c-0.744,0.74 -0.723,1.067 0.063,0.982c1.965,-0.431 3.603,-0.929 4.914,-1.493l5.573,-2.867c0.874,-0.434 1.42,-0.585 1.638,-0.454c0.174,0.175 -0.132,0.698 -0.92,1.569l-4.795,5.619c-0.306,0.348 -0.744,0.631 -1.312,0.848c-0.874,0.39 -1.748,0.824 -2.622,1.302c-1.049,0.696 -2.535,1.216 -4.456,1.56c-0.918,0.216 -1.419,-0.156 -1.503,-1.117c-0.129,-0.83 -0.388,-1.922 -0.778,-3.276c-0.433,-1.005 -0.41,-1.507 0.07,-1.506c0.567,0.002 1.223,-0.346 1.967,-1.042c3.982,-3.656 6.654,-7.534 8.018,-11.634c0.44,-1.221 0.837,-2.748 1.191,-4.58c0.133,-0.698 -0.239,-0.677 -1.114,0.063c-2.8,2.568 -5.512,4.656 -8.135,6.264c-1.049,0.608 -1.573,0.498 -1.57,-0.331c0.044,-0.35 0.002,-0.742 -0.128,-1.179l-0.583,-2.555c-0.216,-0.83 0.135,-1.331 1.052,-1.504c0.829,-0.172 1.398,-0.629 1.706,-1.37c1.492,-3.314 2.592,-6.716 3.3,-10.206c0.577,-3.621 1.044,-6.916 1.401,-9.883Zm13.695,20.988c0.002,-0.873 0.44,-1.308 1.313,-1.306l16.172,0.042c0.873,0.002 1.309,0.418 1.306,1.248c-0.002,0.873 -0.439,1.308 -1.312,1.306l-16.173,-0.043c-0.873,-0.002 -1.308,-0.418 -1.306,-1.247Zm-2.641,8.374c0.002,-0.873 0.44,-1.308 1.313,-1.306l21.934,0.057c0.873,0.002 1.309,0.418 1.306,1.248c-0.002,0.873 -0.439,1.308 -1.312,1.306l-8.054,-0.021c-0.742,-0.002 -1.114,0.346 -1.116,1.044l-0.062,23.964c-0.135,1.353 -0.836,2.617 -2.105,3.792c-0.788,0.871 -1.532,1.502 -2.232,1.893c-0.874,0.478 -1.376,0.542 -1.506,0.193c-0.477,-1.093 -1.284,-1.444 -2.42,-1.054l-2.423,0.321c-0.874,0.129 -1.463,0.018 -1.767,-0.332c-0.349,-0.35 -0.086,-0.677 0.788,-0.98c0.874,-0.303 1.748,-0.563 2.621,-0.779c1.18,-0.346 2.054,-0.737 2.622,-1.172c1.881,-1.348 2.647,-2.459 2.301,-3.333l0.058,-22.523c0.002,-0.699 -0.346,-1.049 -1.045,-1.051l-7.595,-0.02c-0.873,-0.002 -1.308,-0.418 -1.306,-1.247Zm17.729,5.874c0.046,-0.917 0.156,-1.375 0.331,-1.374c0.174,0 0.326,0.502 0.454,1.507c0.342,2.838 1.033,5.459 2.075,7.862c0.651,1.355 1.847,2.908 3.589,4.658c0.958,0.789 1.305,1.619 1.041,2.491c-0.794,2.966 -1.192,5.017 -1.195,6.152c-0.046,0.873 -0.373,0.872 -0.982,-0.003c-1.087,-1.618 -2.196,-3.236 -3.327,-4.854c-0.695,-1.093 -1.15,-2.404 -1.364,-3.932c-0.043,-0.218 -0.13,-0.437 -0.26,-0.655c-0.391,-0.918 -0.671,-2.228 -0.841,-3.931l0.479,-7.921Zm-16.178,2.118c0.002,-0.96 0.44,-1.439 1.313,-1.437l1.506,0.004c0.873,0.002 1.286,0.44 1.24,1.313c-0.183,3.448 -0.716,6.938 -1.598,10.472c-0.794,3.053 -3.356,6.451 -7.688,10.194c-0.7,0.653 -1.312,0.979 -1.835,0.977c-0.524,-0.001 -0.479,-0.438 0.134,-1.309c2.584,-3.354 4.383,-6.842 5.396,-10.462c0.794,-3.01 1.304,-6.26 1.532,-9.752Zm-5.06,6.796c0.919,-0.958 1.466,-1.262 1.64,-0.912c0.173,0.306 -0.003,0.96 -0.529,1.963c-0.965,1.787 -2.083,3.53 -3.353,5.229c-2.235,3.268 -5.45,5.857 -9.646,7.767c-0.961,0.434 -1.572,0.214 -1.831,-0.66l-1.235,-3.604c-0.303,-0.874 -0.018,-1.397 0.856,-1.569c2.008,-0.388 3.646,-0.82 4.914,-1.297c2.927,-1.04 5.988,-3.346 9.184,-6.917Z" style="fill:#c0272d;fill-rule:nonzero;"/><path d="M80.308,1.436c0.221,-0.959 0.746,-1.438 1.575,-1.436l3.143,0.008c0.873,0.002 1.309,0.331 1.307,0.986c-0.133,0.698 0.083,1.484 0.648,2.359c1.476,3.234 2.975,5.857 4.498,7.868c1.218,1.619 2.981,3.26 5.29,4.925c2.963,2.016 6.014,3.77 9.153,5.262c0.872,0.439 1.067,1.094 0.584,1.966c-1.183,2.004 -1.69,3.727 -1.519,5.168c0.129,0.874 -0.265,0.982 -1.179,0.325l-5.883,-3.879c-0.392,-0.263 -0.938,-0.395 -1.636,-0.397l-22.196,-0.058c-0.873,-0.002 -1.331,-0.069 -1.375,-0.2c0.001,-0.175 -0.349,-0.023 -1.048,0.456l-5.773,4.175c-0.656,0.522 -1.334,0.782 -2.032,0.78c-0.698,-0.001 -0.61,-0.394 0.265,-1.177c3.982,-3.613 7.112,-7.206 9.391,-10.779c3.2,-5.23 5.463,-10.681 6.787,-16.352Zm5.82,2.766l-0.195,-0.459c-0.131,-0.001 -0.372,0.435 -0.724,1.307c-2.111,6.019 -5.29,11.467 -9.537,16.344c-0.613,0.741 -0.57,1.112 0.129,1.114l18.333,0.048c0.698,0.001 0.721,-0.435 0.069,-1.31c-4.047,-5.161 -6.738,-10.843 -8.075,-17.044Zm-15.529,29.554c0.002,-0.873 0.44,-1.308 1.313,-1.306l2.619,0.007c0.873,0.002 1.308,0.44 1.306,1.313l-0.002,0.72c-0.002,0.742 0.346,1.114 1.044,1.116l15.715,0.041c0.698,0.002 1.048,-0.347 1.05,-1.045l0.002,-0.786c0.002,-0.873 0.44,-1.308 1.313,-1.306l2.553,0.007c0.873,0.002 1.309,0.44 1.306,1.313l-0.073,28.154c-0.002,0.917 -0.44,1.374 -1.313,1.372l-2.488,-0.007c-0.917,-0.002 -1.374,-0.44 -1.372,-1.313l0.006,-2.357c0.002,-0.698 -0.346,-1.049 -1.044,-1.05l-15.649,-0.041c-0.742,-0.002 -1.114,0.346 -1.116,1.044l-0.006,2.292c-0.002,0.917 -0.44,1.374 -1.313,1.372l-2.553,-0.007c-0.917,-0.002 -1.374,-0.44 -1.372,-1.313l0.074,-28.22Zm23.033,5.56c0.001,-0.742 -0.325,-1.114 -0.98,-1.116l-15.714,-0.041c-0.742,-0.001 -1.114,0.347 -1.116,1.045l-0.041,15.714c-0.002,0.742 0.347,1.114 1.045,1.116l15.714,0.041c0.699,0.002 1.049,-0.346 1.051,-1.045l0.041,-15.714Z" style="fill:#c0272d;fill-rule:nonzero;"/><path d="M150.991,2.079c0.003,-0.916 0.44,-1.374 1.313,-1.371l2.554,0.006c0.873,0.003 1.308,0.44 1.306,1.313l-0.02,7.53c-0.002,0.742 0.347,1.114 1.045,1.116l10.738,0.028c0.873,0.002 1.308,0.418 1.306,1.247c-0.002,0.873 -0.44,1.308 -1.313,1.306l-10.607,-0.027c-0.742,-0.002 -1.092,0.433 -1.051,1.306c-0.007,2.576 0.03,5.195 0.111,7.858l-0.015,5.565c0.251,4.278 0.743,8.208 1.475,11.79c0.26,0.699 0.434,1.026 0.522,0.983c1.935,-5.844 2.955,-11.756 3.058,-17.736c0.002,-0.873 0.44,-1.308 1.313,-1.306l3.077,0.008c0.873,0.002 1.287,0.44 1.241,1.313c-0.275,4.888 -1.205,10.102 -2.791,15.641c-0.968,2.748 -2.196,5.254 -3.686,7.52c-0.526,0.785 -0.572,1.57 -0.138,2.357c0.913,1.574 2.304,3.607 4.175,6.1c0.653,0.744 1.068,0.658 1.245,-0.258c0.794,-3.447 1.633,-6.915 2.515,-10.405c0.264,-0.872 0.462,-1.308 0.593,-1.307c0.131,0 0.173,0.436 0.127,1.309c-0.096,3.23 -0.276,5.631 -0.542,7.201c-0.048,1.528 0.167,2.816 0.644,3.865c0.348,0.437 0.521,1.093 0.519,1.966l-0.015,5.696c-0.002,0.873 -0.439,1.068 -1.311,0.586c-4.795,-2.719 -8.67,-6.287 -11.627,-10.703c-0.478,-0.7 -1.155,-0.614 -2.03,0.257c-1.532,1.392 -3.172,2.719 -4.921,3.981c-2.406,2.045 -4.593,3.654 -6.56,4.828c-0.875,0.521 -1.399,0.673 -1.573,0.454c-0.174,-0.131 0.242,-0.632 1.248,-1.503c4.55,-3.829 8.161,-7.726 10.834,-11.692c0.526,-0.697 0.659,-1.482 0.399,-2.356c-1.6,-5.722 -2.499,-12.73 -2.695,-21.024c-0.209,-3.755 -0.373,-7.509 -0.495,-11.263c-0.041,-0.699 -0.412,-1.049 -1.11,-1.051l-13.03,-0.034c-0.742,-0.002 -1.114,0.346 -1.115,1.045l-0.026,9.952c-0.002,0.742 0.346,1.114 1.044,1.116l3.732,0.01c0.699,0.001 1.049,-0.347 1.051,-1.045l0.002,-0.786c0.002,-0.873 0.44,-1.308 1.313,-1.306l2.03,0.005c0.873,0.002 1.308,0.44 1.306,1.313l-0.07,26.714c-0.267,1.745 -1.384,3.227 -3.351,4.444c-0.875,0.608 -1.399,0.803 -1.573,0.585c-0.784,-0.788 -1.984,-0.9 -3.6,-0.337c-0.874,0.478 -1.398,0.455 -1.571,-0.07c-0.217,-0.48 0.177,-0.916 1.182,-1.306l1.31,-0.455c2.141,-0.78 3.127,-2.131 2.957,-4.052l0.054,-20.624c0.002,-0.699 -0.346,-1.049 -1.045,-1.051l-3.601,-0.009c-0.698,-0.002 -1.114,0.433 -1.247,1.306c-0.226,2.662 -0.385,5.346 -0.48,8.052l-0.019,7.268c-0.048,1.921 -0.163,3.863 -0.342,5.827c-0.579,4.319 -2.73,8.788 -6.452,13.405c-0.744,0.871 -1.269,1.219 -1.574,1.044c-0.349,-0.176 -0.282,-0.699 0.2,-1.571c1.756,-3.662 2.747,-7.152 2.974,-10.468c0.27,-3.012 0.452,-5.958 0.547,-8.838l0.092,-35.095c0.002,-0.873 0.44,-1.308 1.313,-1.306l2.553,0.007c0.873,0.002 1.308,0.439 1.306,1.312l-0.003,1.245c-0.002,0.742 0.346,1.114 1.045,1.115l13.16,0.035c0.699,0.002 1.049,-0.347 1.051,-1.045l0.019,-7.53Zm9.034,0.548c-0.434,-0.918 -0.476,-1.377 -0.127,-1.376c0.349,0.001 0.959,0.352 1.831,1.053l3.658,3.021c0.871,0.744 0.978,1.552 0.321,2.423l-1.248,1.569c-0.613,0.871 -1.159,0.826 -1.636,-0.136c-0.565,-1.049 -0.934,-1.923 -1.107,-2.622c-0.52,-1.31 -1.084,-2.621 -1.692,-3.932Z" style="fill:#c0272d;fill-rule:nonzero;"/><path d="M216.635,1.727c0.003,-0.917 0.419,-1.374 1.248,-1.372l2.161,0.006c0.873,0.002 1.308,0.439 1.306,1.312l-0.01,3.864c-0.002,0.742 0.346,1.114 1.044,1.115l8.578,0.023c0.873,0.002 1.308,0.331 1.307,0.985c-0.002,0.699 -0.44,1.047 -1.313,1.044l-8.511,-0.022c-0.742,-0.002 -1.114,0.347 -1.116,1.045l-0.01,3.667c-0.002,0.742 0.347,1.114 1.045,1.115l6.024,0.016c0.873,0.002 1.308,0.331 1.307,0.986c-0.002,0.698 -0.44,1.046 -1.313,1.044l-5.958,-0.016c-0.742,-0.002 -1.114,0.347 -1.116,1.045l-0.011,4.19c-0.002,0.742 0.347,1.114 1.045,1.116l9.625,0.025c0.873,0.003 1.308,0.418 1.306,1.248c-0.002,0.873 -0.44,1.308 -1.313,1.306l-25.011,-0.065c-0.917,-0.003 -1.374,-0.419 -1.372,-1.248c0.002,-0.873 0.44,-1.308 1.313,-1.306l8.643,0.022c0.698,0.002 1.048,-0.346 1.05,-1.044l0.011,-4.256c0.002,-0.699 -0.346,-1.049 -1.045,-1.051l-5.434,-0.014c-0.917,-0.002 -1.374,-0.331 -1.373,-0.986c0.002,-0.698 0.44,-1.046 1.313,-1.044l5.5,0.015c0.698,0.001 1.048,-0.347 1.05,-1.045l0.01,-3.732c0.001,-0.699 -0.347,-1.049 -1.045,-1.051l-7.53,-0.019c-0.917,-0.003 -1.374,-0.331 -1.372,-0.986c0.001,-0.698 0.439,-1.047 1.312,-1.044l7.595,0.02c0.698,0.001 1.049,-0.347 1.05,-1.045l0.01,-3.863Zm-20.953,0.469c0.002,-0.917 0.44,-1.374 1.313,-1.372l3.077,0.008c0.873,0.003 1.243,0.44 1.11,1.313c-0.576,3.403 -1.589,6.892 -3.039,10.468c-1.317,2.877 -3.463,5.687 -6.439,8.429c-0.875,0.784 -0.876,1.111 -0.002,0.983c0.917,-0.129 1.812,-0.301 2.686,-0.517c1.091,-0.216 2.905,-0.888 5.439,-2.016c0.699,-0.26 1.094,-0.848 1.183,-1.765c0.048,-1.309 0.138,-2.64 0.273,-3.993c0.133,-0.96 0.593,-1.439 1.379,-1.437l3.142,0.008c0.873,0.003 1.2,0.44 0.979,1.313l-2.974,10.468c-0.923,2.704 -2.218,5.319 -3.883,7.847c-0.439,0.741 -1.161,1.481 -2.167,2.22l-4.593,3.982c-0.831,0.566 -0.876,0.937 -0.134,1.113c0.697,0.351 1.679,0.376 2.946,0.073c2.402,-0.343 5.133,-1.558 8.194,-3.645c0.874,-0.521 1.311,-0.629 1.31,-0.324c-0.001,0.349 -0.439,0.959 -1.314,1.83l-3.151,3.135c-0.875,0.87 -1.531,1.392 -1.968,1.566c-1.748,0.65 -3.496,1.344 -5.244,2.081c-1.049,0.391 -2.119,0.737 -3.211,1.04c-0.873,0.128 -1.309,-0.244 -1.306,-1.117c0.045,-0.829 -0.039,-1.921 -0.254,-3.274c-0.128,-1.048 0.135,-1.571 0.79,-1.57c0.698,0.002 1.42,-0.432 2.164,-1.304c1.577,-2.003 2.825,-3.746 3.746,-5.228c1.622,-2.702 3.028,-6.19 4.218,-10.465c0.308,-0.916 0.09,-1.069 -0.654,-0.46c-2.625,2.35 -5.511,4.263 -8.658,5.739c-0.874,0.391 -1.31,0.15 -1.307,-0.723c0.045,-0.48 -0.04,-1.397 -0.255,-2.751c-0.172,-1.048 -0.105,-1.572 0.2,-1.571c0.393,0.001 0.853,-0.434 1.379,-1.306c1.842,-3.225 3.16,-6.714 3.956,-10.466c0.663,-3.184 1.019,-5.955 1.069,-8.312Zm11.454,26.678c0.002,-0.873 0.44,-1.308 1.313,-1.306l2.095,0.006c0.873,0.002 1.309,0.418 1.306,1.247c-0.002,0.917 0.346,1.376 1.044,1.378l12.572,0.033c0.698,0.001 1.048,-0.434 1.051,-1.307c0.002,-0.873 0.44,-1.308 1.313,-1.306l2.095,0.005c0.873,0.003 1.308,0.44 1.306,1.313l-0.046,17.744c-0.003,0.873 -0.135,1.527 -0.398,1.963l-1.906,2.614c-0.482,0.61 -1.334,1.197 -2.558,1.761c-0.306,0.131 -0.59,0.239 -0.852,0.326c-0.743,0.303 -0.766,0.696 -0.069,1.178c1.917,1.358 3.922,2.498 6.015,3.42c0.872,0.352 1.067,1.029 0.584,2.032c-0.397,1.483 -0.465,2.574 -0.205,3.273c0.216,1.004 -0.091,1.331 -0.919,0.98c-2.791,-1.099 -5.099,-2.982 -6.926,-5.649c-1.478,-2.318 -2.454,-4.743 -2.927,-7.276c-0.217,-0.699 -0.369,-1.005 -0.456,-0.918c-0.132,0.48 -0.243,0.96 -0.331,1.44c-0.927,3.752 -3.597,6.844 -8.012,9.277c-2.536,1.564 -4.918,2.78 -7.147,3.648c-0.786,0.303 -1.354,0.367 -1.703,0.192c-0.349,-0.132 -0.086,-0.437 0.788,-0.915c6.951,-3.736 10.782,-8.287 11.494,-13.654c0.619,-2.836 0.954,-5.782 1.005,-8.837l0.01,-3.536l-0.061,-1.768c0.002,-0.873 0.44,-1.308 1.313,-1.306l2.03,0.006c0.873,0.002 1.308,0.439 1.306,1.312l-0.02,7.334c-0.047,1.44 -0.182,2.924 -0.404,4.451c-0.133,0.698 0.083,1.484 0.649,2.359c0.521,0.743 1.152,1.509 1.892,2.296c0.653,0.7 1.134,0.614 1.442,-0.258c0.525,-0.566 1.007,-1.372 1.446,-2.419c0.132,-0.261 0.199,-0.741 0.2,-1.44l0.04,-15.255c0.002,-0.699 -0.346,-1.049 -1.045,-1.051l-12.505,-0.032c-0.742,-0.002 -1.114,0.346 -1.116,1.044l-0.05,19.054c-0.002,0.916 -0.44,1.374 -1.313,1.371l-2.03,-0.005c-0.916,-0.002 -1.374,-0.44 -1.371,-1.313l0.061,-23.506Zm-2.528,15.184c0.658,-1.002 0.964,-1.329 0.92,-0.98c-0.045,0.175 -0.176,0.48 -0.396,0.916c-1.537,3.488 -3.728,6.952 -6.574,10.393c-2.407,2.308 -4.922,4.374 -7.546,6.201c-0.831,0.565 -1.245,0.411 -1.243,-0.462c0.001,-0.349 -0.042,-0.698 -0.128,-1.048c-0.259,-1.31 -0.474,-2.62 -0.645,-3.93c-0.172,-1.004 0.157,-1.571 0.987,-1.7c1.528,-0.258 3.254,-0.799 5.177,-1.623c3.495,-1.257 6.645,-3.846 9.448,-7.767Z" style="fill:#c0272d;fill-rule:nonzero;"/><path d="M268.659,1.862c0.003,-0.916 0.419,-1.373 1.248,-1.371l2.619,0.007c0.873,0.002 1.308,0.439 1.306,1.312l-0.036,13.75c-0.002,0.742 0.347,1.114 1.045,1.116l12.637,0.033c0.698,0.002 1.048,-0.346 1.05,-1.045l0.006,-2.291c0.002,-0.873 0.44,-1.309 1.313,-1.307l2.553,0.007c0.874,0.002 1.309,0.44 1.307,1.313l-0.11,42.166l-0.728,2.617c-0.352,1.396 -1.251,2.703 -2.694,3.922c-0.7,0.522 -1.552,0.956 -2.557,1.303c-0.874,0.303 -1.333,0.389 -1.376,0.258c-0.303,-0.787 -0.848,-1.072 -1.635,-0.856c-1.091,0.085 -2.183,0.191 -3.274,0.319c-0.873,0.085 -1.397,-0.025 -1.571,-0.331c-0.173,-0.35 0.177,-0.72 1.051,-1.111c1.267,-0.476 2.906,-1.236 4.916,-2.278c1.924,-1.13 2.823,-2.59 2.696,-4.38l0.091,-34.637c0.002,-0.698 -0.347,-1.048 -1.045,-1.05l-12.506,-0.033c-0.742,-0.002 -1.114,0.347 -1.116,1.045l-0.014,5.566c-0.098,3.884 -0.304,7.79 -0.62,11.718c-0.186,4.452 -1.245,8.814 -3.177,13.087c-1.492,3.008 -3.398,5.578 -5.717,7.711l-7.542,4.957c-0.875,0.608 -1.487,0.825 -1.835,0.65c-0.349,-0.176 -0.13,-0.59 0.658,-1.243c3.98,-3.263 6.936,-6.791 8.867,-10.584c2.194,-4.534 3.56,-9.637 4.099,-15.31l0.043,-16.566c0.002,-0.698 -0.346,-1.048 -1.045,-1.05l-11.196,-0.029c-0.917,-0.002 -1.374,-0.44 -1.371,-1.313c0.002,-0.873 0.439,-1.309 1.312,-1.306l11.262,0.029c0.699,0.002 1.049,-0.346 1.051,-1.045l0.035,-13.75Zm-10.674,0.824c0.044,-0.087 0.523,0.263 1.437,1.051l5.225,5.317c0.87,0.876 1.065,1.749 0.582,2.621l-1.645,3.138c-0.482,0.872 -0.941,0.805 -1.374,-0.2c-1.563,-3.539 -2.907,-7.035 -4.033,-10.486c-0.26,-0.568 -0.324,-1.049 -0.192,-1.441Zm19.316,24.8c0.044,-0.131 0.501,0.176 1.372,0.92l6.335,6.368c0.871,0.875 1.065,1.749 0.582,2.62l-2.105,3.924c-0.57,1.002 -1.05,1.066 -1.441,0.192c-1.91,-4.021 -3.491,-8.695 -4.743,-14.024Z" style="fill:#c0272d;fill-rule:nonzero;"/></svg>