<?xml version="1.0" encoding="UTF-8" standalone="no"?><!DOCTYPE svg PUBLIC "-//W3C//DTD SVG 1.1//EN" "http://www.w3.org/Graphics/SVG/1.1/DTD/svg11.dtd"><svg width="100%" height="100%" viewBox="0 0 46 27" version="1.1" xmlns="http://www.w3.org/2000/svg" xmlns:xlink="http://www.w3.org/1999/xlink" xml:space="preserve" xmlns:serif="http://www.serif.com/" style="fill-rule:evenodd;clip-rule:evenodd;stroke-linejoin:round;stroke-miterlimit:2;"><path d="M10.886,0.68c0.001,-0.37 0.037,-0.554 0.108,-0.554c0.088,0.018 0.175,0.203 0.262,0.556c0.416,1.481 1.054,2.892 1.911,4.234c0.841,1.236 2.192,2.597 4.053,4.084c0.386,0.301 0.446,0.609 0.181,0.925l-0.478,0.527c-0.265,0.298 -0.398,0.588 -0.399,0.87l-0.002,0.502c-0.002,0.352 -0.169,0.369 -0.503,0.051c-1.105,-1.079 -1.955,-1.998 -2.551,-2.758c-0.526,-0.706 -0.902,-1.412 -1.128,-2.117l-0.652,-2.116c-0.523,-1.411 -0.79,-2.812 -0.802,-4.204Zm-6.45,0.926c0.073,-0.44 0.285,-0.659 0.637,-0.658l1.664,0.007c0.352,0.001 0.484,0.178 0.394,0.53c-0.608,2.533 -1.418,4.643 -2.428,6.33c-0.567,0.896 -1.214,1.765 -1.939,2.608c-0.265,0.298 -0.257,0.448 0.025,0.449l8.691,0.034c0.281,0.001 0.423,-0.175 0.424,-0.527c0.002,-0.37 0.179,-0.554 0.531,-0.552l1.03,0.004c0.352,0.001 0.528,0.178 0.526,0.53l-0.045,11.65c0.122,0.352 -0.136,0.968 -0.774,1.846c-0.372,0.562 -0.831,0.956 -1.378,1.183c-0.353,0.14 -0.573,0.148 -0.66,0.024c-0.088,-0.194 -0.246,-0.292 -0.475,-0.293c-0.053,0.035 -0.229,0.052 -0.528,0.051c-0.406,0.034 -0.846,0.103 -1.322,0.206c-0.388,0.14 -0.617,0.13 -0.687,-0.029c-0.052,-0.123 0.125,-0.281 0.53,-0.473c0.353,-0.14 0.706,-0.306 1.059,-0.498c0.494,-0.227 0.847,-0.41 1.059,-0.551c0.406,-0.297 0.751,-0.727 1.035,-1.29c0.036,-0.07 0.054,-0.246 0.055,-0.528l0.037,-9.299c0.001,-0.281 -0.14,-0.423 -0.421,-0.424l-4.201,-0.016c-0.299,-0.002 -0.449,0.174 -0.451,0.526c-0.025,1.973 -0.129,3.839 -0.312,5.599c-0.165,1.532 -0.663,2.939 -1.496,4.221c-0.496,0.65 -1.212,1.307 -2.148,1.973l-2.119,1.524c-0.053,0.052 -0.15,0.078 -0.291,0.078c-0.141,-0.001 -0.043,-0.168 0.293,-0.501c2.298,-2.227 3.539,-4.415 3.724,-6.563c0.219,-2.112 0.307,-4.225 0.262,-6.339c-0.016,-0.352 -0.165,-0.529 -0.447,-0.53l-1.347,-0.005c-0.37,-0.002 -0.554,-0.135 -0.553,-0.399c0.001,-0.282 -0.175,-0.291 -0.528,-0.028c-0.301,0.351 -0.69,0.693 -1.167,1.025c-0.3,0.299 -0.512,0.412 -0.635,0.341c-0.141,-0.053 -0.034,-0.282 0.32,-0.685c1.822,-2.247 2.977,-4.708 3.463,-7.383c0.233,-0.986 0.431,-2.041 0.593,-3.168Z" style="fill:#c0272d;fill-rule:nonzero;"/><path d="M32.256,0.553c0.002,-0.37 0.17,-0.554 0.504,-0.553l0.846,0.003c0.352,0.002 0.527,0.179 0.526,0.531l-0.014,3.46c-0.001,0.282 0.007,0.458 0.025,0.529c0.052,0.088 0.185,-0.017 0.397,-0.316c0.514,-0.843 1.037,-1.686 1.569,-2.53c0.248,-0.404 0.539,-0.447 0.872,-0.128l0.237,0.238c0.351,0.372 0.349,0.724 -0.004,1.057l-2.44,2.421c-0.283,0.298 -0.284,0.448 -0.002,0.449l2.193,0.008c0.352,0.002 0.527,0.17 0.526,0.504c-0.001,0.353 -0.178,0.528 -0.53,0.527l-2.404,-0.01c-0.3,-0.001 -0.45,0.166 -0.451,0.5c-0.002,0.353 0.173,0.653 0.524,0.901l2.372,1.462c0.334,0.213 0.554,0.169 0.661,-0.13c0.927,-2.761 1.51,-5.664 1.751,-8.71c0.037,-0.352 0.231,-0.528 0.584,-0.526l0.792,0.003c0.352,0.001 0.528,0.178 0.526,0.53c-0.041,1.479 -0.284,2.993 -0.731,4.541c-0.071,0.282 0.034,0.423 0.316,0.424l4.332,0.017c0.352,0.001 0.528,0.169 0.526,0.504c-0.001,0.352 -0.178,0.528 -0.53,0.526l-0.951,-0.004c-0.3,-0.001 -0.45,0.14 -0.451,0.421l-0.026,6.684c-0.061,2.13 -0.421,4.049 -1.079,5.754c-0.142,0.299 -0.055,0.572 0.261,0.82c0.685,0.496 1.387,0.957 2.108,1.382c0.386,0.266 0.482,0.566 0.287,0.899c-0.143,0.334 -0.232,0.801 -0.27,1.399c-0.002,0.405 0.015,0.696 0.049,0.872c0.069,0.388 -0.072,0.458 -0.423,0.21c-1.352,-1.062 -2.405,-2.07 -3.158,-3.024c-0.211,-0.282 -0.492,-0.284 -0.846,-0.003c-0.653,0.526 -1.307,1.034 -1.96,1.524c-0.707,0.473 -1.59,1.13 -2.65,1.971c-0.389,0.333 -0.644,0.464 -0.767,0.393c-0.159,-0.088 -0.052,-0.317 0.319,-0.685l1.06,-0.762c0.335,-0.228 0.354,-0.483 0.056,-0.766l-1.659,-1.512c-0.28,-0.265 -0.597,-0.231 -0.951,0.102c-1.573,1.561 -3.304,2.699 -5.191,3.414c-0.423,0.192 -0.661,0.252 -0.714,0.182c-0.088,-0.071 0.036,-0.212 0.371,-0.422c0.565,-0.35 1.272,-0.875 2.12,-1.576c1.042,-0.771 1.856,-1.675 2.441,-2.712c0.16,-0.298 0.117,-0.58 -0.129,-0.845l-0.684,-0.664c-0.281,-0.282 -0.457,-0.239 -0.529,0.13c0,0.053 -0.009,0.115 -0.027,0.185c-0.054,0.352 -0.257,0.528 -0.61,0.526l-0.607,-0.002c-0.352,-0.002 -0.493,-0.178 -0.421,-0.53c0.269,-1.232 0.556,-2.463 0.86,-3.695c0.054,-0.282 -0.06,-0.423 -0.342,-0.424l-1.77,-0.007c-0.369,-0.001 -0.554,-0.178 -0.552,-0.531c0.001,-0.352 0.178,-0.527 0.53,-0.526l1.981,0.008c0.282,0.001 0.45,-0.174 0.504,-0.526l0.109,-0.819c0.037,-0.352 0.161,-0.528 0.372,-0.527c0.211,0.001 0.318,-0.139 0.319,-0.421l0.012,-3.012c0.001,-0.281 -0.008,-0.44 -0.025,-0.475c-0.017,-0.053 -0.141,0.087 -0.372,0.421c-0.673,1.16 -1.637,2.239 -2.892,3.238c-0.318,0.28 -0.521,0.421 -0.609,0.42c-0.088,0 -0.017,-0.202 0.214,-0.607c1.4,-2.231 2.305,-4.067 2.716,-5.51c0.072,-0.281 -0.034,-0.423 -0.315,-0.424l-1.955,-0.008c-0.37,-0.001 -0.554,-0.169 -0.553,-0.504c0.001,-0.352 0.178,-0.527 0.53,-0.526l2.853,0.011c0.282,0.001 0.424,-0.139 0.425,-0.421l0.018,-4.728Zm-2.698,0.861c-0.033,-0.37 0.09,-0.396 0.371,-0.078l1.367,1.591c0.351,0.424 0.411,0.811 0.18,1.163l-0.558,0.816c-0.248,0.352 -0.432,0.351 -0.554,-0.002c-0.417,-1.446 -0.686,-2.609 -0.806,-3.49Zm12.393,5.913c-0.016,-0.37 -0.156,-0.555 -0.42,-0.556l-1.057,-0.004c-0.282,-0.002 -0.485,0.068 -0.609,0.208c-0.071,0.141 -0.115,0.247 -0.133,0.317c-0.213,0.351 -0.293,0.536 -0.24,0.554c0.071,0 0.088,0.194 0.051,0.581l-0.163,1.162l-0.006,1.373c0.148,2.66 0.764,5.067 1.848,7.219c0.157,0.283 0.272,0.274 0.343,-0.025c0.252,-1.284 0.407,-2.737 0.466,-4.357l0.006,-1.532c-0.064,-1.567 -0.093,-3.214 -0.086,-4.94Zm-7.482,1.609c-0.245,-0.354 -0.369,-0.381 -0.37,-0.081l-0.014,3.672c-0.002,0.37 -0.064,0.554 -0.187,0.554c-0.123,-0.001 -0.256,0.175 -0.399,0.526l-0.32,0.924c-0.107,0.299 -0.02,0.449 0.262,0.45l1.295,0.005c0.281,0.001 0.423,-0.166 0.424,-0.5c0.002,-0.352 0.178,-0.528 0.531,-0.527l0.819,0.004c0.352,0.001 0.527,0.178 0.526,0.53c-0.062,2.201 -0.483,4.19 -1.265,5.965c-0.142,0.282 -0.037,0.52 0.314,0.715l0.976,0.506c0.404,0.212 0.57,0.495 0.498,0.847c-0.089,0.369 -0.17,0.739 -0.242,1.108c-0.054,0.317 0.087,0.327 0.423,0.028c0.989,-0.947 1.794,-1.859 2.414,-2.737c0.177,-0.264 0.205,-0.546 0.083,-0.845c-0.489,-1.218 -0.835,-2.593 -1.041,-4.126c-0.118,-1.233 -0.201,-2.66 -0.247,-4.28l0.009,-2.404c0.018,-0.105 0.028,-0.229 0.028,-0.37c0.001,-0.281 -0.166,-0.247 -0.502,0.104l-0.451,0.527c-0.354,0.403 -0.566,0.605 -0.637,0.605c-0.088,-0.001 -0.176,0.184 -0.266,0.553c-0.125,0.405 -0.241,0.818 -0.348,1.241c-0.09,0.352 -0.248,0.325 -0.475,-0.081c-0.508,-0.883 -1.12,-1.854 -1.838,-2.913Zm0.446,7.556c0.036,-0.299 -0.087,-0.449 -0.368,-0.45l-1.268,-0.005c-0.282,-0.001 -0.468,0.174 -0.557,0.526c-0.162,0.722 -0.314,1.452 -0.458,2.191c-0.054,0.281 0.06,0.502 0.341,0.662l0.791,0.425c0.316,0.16 0.545,0.073 0.688,-0.261c0.426,-0.949 0.703,-1.979 0.831,-3.088Z" style="fill:#c0272d;fill-rule:nonzero;"/></svg>