<?xml version="1.0" encoding="UTF-8" standalone="no"?><!DOCTYPE svg PUBLIC "-//W3C//DTD SVG 1.1//EN" "http://www.w3.org/Graphics/SVG/1.1/DTD/svg11.dtd"><svg width="100%" height="100%" viewBox="0 0 512 321" version="1.1" xmlns="http://www.w3.org/2000/svg" xmlns:xlink="http://www.w3.org/1999/xlink" xml:space="preserve" xmlns:serif="http://www.serif.com/" style="fill-rule:evenodd;clip-rule:evenodd;stroke-linejoin:round;stroke-miterlimit:2;"><path d="M27.009,4.764c0.414,-3.176 1.795,-4.764 4.142,-4.764l10.15,0c2.762,0 3.59,1.381 2.486,4.143c-1.381,3.59 -2.693,7.18 -3.936,10.771c-0.414,2.209 0.483,3.314 2.693,3.314l28.585,0c2.761,0 4.142,1.312 4.142,3.936c0,2.761 -1.381,4.142 -4.142,4.142l-21.957,0c-2.209,0 -2.14,1.381 0.207,4.143l7.457,8.285c2.486,2.762 2.969,5.524 1.45,8.286c-2.071,3.59 -4.073,7.181 -6.007,10.771c-1.104,2.209 -0.552,3.314 1.657,3.314l51.37,0c2.21,0 3.314,-0.483 3.314,-1.45c0,-1.105 1.105,-1.657 3.314,-1.657c2.348,0 2.831,-1.381 1.45,-4.143c-3.314,-7.18 -6.283,-15.19 -8.906,-24.027c-0.553,-2.348 -1.865,-3.522 -3.936,-3.522c-2.209,0 -4.281,1.381 -6.214,4.143c-4.557,6.766 -12.981,15.397 -25.271,25.892c-2.209,2.071 -3.866,2.831 -4.971,2.278c-1.243,-0.552 -0.828,-2.071 1.243,-4.557c12.704,-15.604 19.402,-32.244 20.092,-49.919c0,-2.762 1.381,-4.143 4.143,-4.143l9.735,0c2.762,0 3.936,1.381 3.521,4.143l-1.864,10.771c-0.276,2.209 0.691,3.314 2.9,3.314l28.792,0c2.762,0 4.143,1.312 4.143,3.936c0,2.761 -1.381,4.142 -4.143,4.142l-21.128,0c-2.209,0 -1.864,1.036 1.036,3.107c3.866,2.762 7.733,5.662 11.599,8.7c2.762,2.071 3.246,4.488 1.45,7.25l-6.628,9.321c-1.381,2.209 -0.967,3.314 1.243,3.314c2.209,0 3.314,1.381 3.314,4.143l0,39.356c0,2.9 -1.381,4.349 -4.143,4.349l-6.421,0c-2.9,0 -4.35,-0.828 -4.35,-2.485c0,-1.657 -1.104,-2.486 -3.314,-2.486l-24.856,0c-2.348,0 -3.522,1.105 -3.522,3.314l0,14.914c0,2.348 1.105,3.521 3.315,3.521l31.691,0c2.21,0 3.315,-0.552 3.315,-1.657c0,-1.104 1.381,-1.657 4.142,-1.657l6.422,0c2.761,0 4.142,1.381 4.142,4.143l0,36.042c-0.69,4.004 -3.866,10.218 -9.528,18.642c-0.414,0.552 -1.036,0.967 -1.864,1.243c-2.072,0.828 -4.074,1.726 -6.007,2.692c-2.762,1.105 -5.455,0.346 -8.078,-2.278c-2.348,-1.243 -6.491,-1.243 -12.429,0c-3.314,0.414 -4.971,0.414 -4.971,0c0.138,-0.552 1.588,-1.519 4.35,-2.9c7.043,-3.314 12.083,-6.076 15.121,-8.285c2.762,-2.486 5.316,-5.593 7.664,-9.321c0.69,-1.381 1.036,-3.177 1.036,-5.386l0,-19.885c0,-2.209 -1.105,-3.314 -3.315,-3.314l-31.484,0c-2.348,0 -3.522,1.105 -3.522,3.314l0,61.934c0,2.899 -1.38,4.349 -4.142,4.349l-6.214,0c-2.9,0 -4.35,-1.38 -4.35,-4.142l0,-47.434c0,-2.348 -1.036,-2.072 -3.107,0.828c-3.176,4.971 -7.595,10.495 -13.257,16.571c-4.833,4.419 -10.357,8.907 -16.571,13.464c-2.071,1.933 -4.833,3.59 -8.285,4.971c-2.762,1.657 -5.524,3.452 -8.286,5.386c-2.209,1.657 -4.764,3.038 -7.664,4.142c-2.761,0.829 -4.419,0.967 -4.971,0.415c-0.414,-0.553 0.76,-1.865 3.521,-3.936c13.257,-9.804 23.476,-20.023 30.656,-30.656c5.938,-8.285 11.393,-16.916 16.364,-25.892c1.105,-2.209 0.553,-3.314 -1.657,-3.314l-16.364,0c-2.209,0 -3.659,1.035 -4.349,3.107c-0.553,2.347 -2.141,3.521 -4.765,3.521l-4.971,0c-2.762,0 -4.004,-1.381 -3.728,-4.143l7.042,-44.534c0.553,-2.762 2.21,-4.143 4.972,-4.143l4.557,0c2.761,0 3.935,1.381 3.521,4.143c-0.414,2.762 0.483,4.143 2.693,4.143l21.335,0c2.209,0 3.314,-1.105 3.314,-3.314l0,-16.778c0,-2.21 -1.105,-3.314 -3.314,-3.314l-38.735,0c-2.9,0 -4.35,-1.381 -4.35,-4.143c0,-2.762 1.381,-4.143 4.143,-4.143l27.135,0c2.209,0 2.969,-1.381 2.278,-4.143c-2.347,-9.114 -4.902,-18.228 -7.664,-27.342c-0.828,-2.209 -2.002,-3.314 -3.521,-3.314c-1.519,0 -3.314,1.381 -5.385,4.143c-5.248,6.905 -10.357,12.014 -15.329,15.328l-8.285,6.214c-2.071,1.657 -3.659,2.486 -4.764,2.486c-1.105,0 -0.552,-1.381 1.657,-4.143c12.152,-15.466 19.126,-30.656 20.921,-45.57Zm81.611,67.941c0,-2.21 -1.104,-3.314 -3.314,-3.314l-24.856,0c-2.348,0 -3.522,1.104 -3.522,3.314l0,16.571c0,2.347 1.105,3.521 3.315,3.521l25.063,0c2.21,0 3.314,-1.105 3.314,-3.314l0,-16.778Zm-46.398,31.692c0,-2.348 -1.036,-3.522 -3.107,-3.522l-21.542,0c-2.21,0 -3.729,1.381 -4.557,4.143l-3.315,14.292c-0.414,2.21 0.484,3.314 2.693,3.314l26.514,0c2.209,0 3.314,-1.104 3.314,-3.314l0,-14.913Z" style="fill:#c5172b;fill-rule:nonzero;"/><path d="M191.806,88.654c0,-2.762 1.381,-4.143 4.143,-4.143l125.731,0c2.762,0 4.143,1.381 4.143,4.143l0,1.243c0,2.9 -1.381,4.35 -4.143,4.35l-125.731,0c-2.762,0 -4.143,-1.381 -4.143,-4.143l0,-1.45Z" style="fill:#c5172b;fill-rule:nonzero;"/><path d="M399.273,4.143c0,-2.762 1.381,-4.143 4.143,-4.143l4.971,0c2.762,0 4.143,1.312 4.143,3.936c0,2.761 1.105,4.142 3.314,4.142l74.569,0c2.21,0 3.314,-1.312 3.314,-3.935c0,-2.762 1.381,-4.143 4.143,-4.143l6.628,0c2.762,0 4.143,1.381 4.143,4.143l0,52.612c0,2.9 -1.381,4.35 -4.143,4.35l-6.421,0c-2.9,0 -4.35,-1.381 -4.35,-4.143c0,-2.761 -1.104,-4.142 -3.314,-4.142l-74.362,0c-2.347,0 -3.521,1.104 -3.521,3.314l0,84.304c-0.138,6.629 -0.621,12.428 -1.45,17.4c-1.795,11.737 -7.457,23.889 -16.985,36.456c-2.071,2.761 -3.59,3.935 -4.557,3.521c-1.243,-0.553 -1.312,-2.21 -0.207,-4.971c4.143,-10.91 6.766,-21.888 7.871,-32.935c1.243,-10.633 1.933,-21.611 2.071,-32.935l0,-122.831Zm94.454,15.742c0,-2.347 -1.035,-3.521 -3.107,-3.521l-74.569,0c-2.347,0 -3.521,1.104 -3.521,3.314l0,23.199c0,2.348 1.105,3.521 3.314,3.521l74.569,0c2.21,0 3.314,-1.104 3.314,-3.314l0,-23.199Zm-34.798,45.363c0,-2.762 1.38,-4.143 4.142,-4.143l6.629,0c2.761,0 4.142,1.381 4.142,4.143l0,24.028c0,2.347 1.105,3.521 3.315,3.521l16.57,0c2.21,0 3.315,-1.105 3.315,-3.314c0,-2.21 1.381,-3.314 4.142,-3.314l6.422,0c2.761,0 4.142,1.38 4.142,4.142l0,102.325c0,2.9 -1.381,4.35 -4.142,4.35l-6.215,0c-2.899,0 -4.349,-1.381 -4.349,-4.142l0,-2.486c0,-2.21 -1.105,-3.314 -3.315,-3.314l-53.026,0c-2.348,0 -3.522,1.104 -3.522,3.314l0,2.278c0,2.9 -1.381,4.35 -4.142,4.35l-6.214,0c-2.9,0 -4.35,-1.381 -4.35,-4.142l0,-102.533c0,-2.762 1.381,-4.142 4.142,-4.142l6.422,0c2.761,0 4.142,1.035 4.142,3.107c0,2.347 1.105,3.521 3.314,3.521l15.121,0c2.21,0 3.315,-1.105 3.315,-3.314l0,-24.235Zm0,39.149c0,-2.348 -1.036,-3.522 -3.107,-3.522l-15.121,0c-2.348,0 -3.522,1.105 -3.522,3.314l0,28.171c0,2.347 1.105,3.521 3.314,3.521l15.121,0c2.21,0 3.315,-1.105 3.315,-3.314l0,-28.17Zm38.113,0c0,-2.348 -1.036,-3.522 -3.107,-3.522l-16.571,0c-2.348,0 -3.522,1.105 -3.522,3.314l0,28.171c0,2.347 1.105,3.521 3.315,3.521l16.57,0c2.21,0 3.315,-1.105 3.315,-3.314l0,-28.17Zm-38.113,42.877c0,-2.21 -1.105,-3.315 -3.315,-3.315l-14.913,0c-2.348,0 -3.522,1.105 -3.522,3.315l0,28.17c0,2.348 1.105,3.521 3.314,3.521l15.121,0c2.21,0 3.315,-1.104 3.315,-3.314l0,-28.377Zm38.113,0c0,-2.21 -1.105,-3.315 -3.315,-3.315l-16.363,0c-2.348,0 -3.522,1.105 -3.522,3.315l0,28.17c0,2.348 1.105,3.521 3.315,3.521l16.57,0c2.21,0 3.315,-1.104 3.315,-3.314l0,-28.377Z" style="fill:#c5172b;fill-rule:nonzero;"/><path d="M17.768,213.208c-0.746,-1.864 -0.932,-2.796 -0.559,-2.796c0.298,0.075 0.82,0.41 1.566,1.007l8.948,6.263c1.566,1.119 1.901,2.387 1.006,3.803l-3.467,5.481c-0.969,1.417 -1.827,1.305 -2.573,-0.335c-0.969,-2.461 -2.61,-6.935 -4.921,-13.423Zm14.988,2.125c0,-1.416 0.746,-2.125 2.237,-2.125l41.945,0c1.492,0 2.237,0.709 2.237,2.125c0,1.492 -0.745,2.238 -2.237,2.238l-41.833,0c-1.566,0 -2.349,-0.746 -2.349,-2.238Zm5.369,14.541c0,-1.566 0.709,-2.349 2.125,-2.349l3.691,0c1.492,0 2.238,0.411 2.238,1.231c0,0.895 0.596,1.342 1.789,1.342l17.002,0c1.193,0 1.79,-0.41 1.79,-1.23c0,-0.895 0.745,-1.343 2.237,-1.343l2.572,0c1.492,0 2.237,0.746 2.237,2.238l0,25.726c0,1.566 -0.745,2.349 -2.237,2.349l-2.461,0c-1.565,0 -2.348,-0.746 -2.348,-2.237c0,-1.492 -0.597,-2.237 -1.79,-2.237l-16.89,0c-1.268,0 -1.901,0.708 -1.901,2.125c0,1.566 -0.746,2.349 -2.238,2.349l-3.467,0c-1.566,0 -2.349,-0.746 -2.349,-2.237l0,-25.727Zm-16.107,4.363c0,-1.492 0.709,-2.237 2.125,-2.237l4.475,0c1.491,0 2.125,0.745 1.901,2.237c-0.895,5.965 -2.572,12.08 -5.033,18.344c-0.448,1.193 0.074,2.274 1.566,3.243l6.711,4.139c1.64,1.044 2.125,2.274 1.454,3.691l-2.349,5.369c-0.671,1.491 -1.491,1.417 -2.461,-0.224l-4.586,-8.948c-0.373,-0.82 -0.708,-1.044 -1.006,-0.671l-0.112,2.125l0,55.032c0,1.566 -0.746,2.349 -2.237,2.349l-2.573,0c-1.566,0 -2.349,-0.746 -2.349,-2.237l0,-48.545c0,-1.193 -0.746,-1.193 -2.237,0c-1.864,1.641 -3.728,3.319 -5.593,5.034c-1.342,1.268 -2.125,1.901 -2.348,1.901c-0.224,0 0.186,-0.745 1.23,-2.237c4.698,-6.114 7.867,-11.931 9.507,-17.449c1.194,-3.803 2.126,-7.979 2.797,-12.527c0.074,-1.193 -0.485,-1.79 -1.678,-1.79l-9.172,0c-1.566,0 -2.349,-0.708 -2.349,-2.125c0,-1.492 0.746,-2.237 2.237,-2.237l10.291,0c1.193,0 1.789,-0.746 1.789,-2.237Zm44.742,2.237c0,-1.268 -0.56,-1.902 -1.678,-1.902l-17.002,0c-1.268,0 -1.901,0.597 -1.901,1.79l0,10.738c0,1.267 0.596,1.901 1.789,1.901l17.002,0c1.193,0 1.79,-0.596 1.79,-1.789l0,-10.738Zm-30.425,28.187c0,-1.492 0.746,-2.237 2.238,-2.237l3.579,0c1.491,0 2.237,0.559 2.237,1.677c0,1.194 0.596,1.79 1.79,1.79l21.475,0c1.193,0 1.79,-0.559 1.79,-1.678c0,-1.193 0.746,-1.789 2.237,-1.789l3.579,0c1.492,0 2.237,0.745 2.237,2.237l0,51.676c0,1.566 -0.745,2.349 -2.237,2.349l-3.467,0c-1.566,0 -2.349,-0.746 -2.349,-2.237l0,-3.132c0,-1.193 -0.597,-1.79 -1.79,-1.79l-21.364,0c-1.267,0 -1.901,0.597 -1.901,1.79l0,3.02c0,1.566 -0.746,2.349 -2.237,2.349l-3.468,0c-1.566,0 -2.349,-0.746 -2.349,-2.237l0,-51.788Zm17.002,7.606c0,-1.268 -0.559,-1.902 -1.678,-1.902l-5.369,0c-1.267,0 -1.901,0.597 -1.901,1.79l0,11.633c0,1.267 0.596,1.901 1.79,1.901l5.369,0c1.193,0 1.789,-0.596 1.789,-1.79l0,-11.632Zm16.107,0c0,-1.268 -0.559,-1.902 -1.678,-1.902l-6.375,0c-1.268,0 -1.902,0.597 -1.902,1.79l0,11.633c0,1.267 0.597,1.901 1.79,1.901l6.375,0c1.193,0 1.79,-0.596 1.79,-1.79l0,-11.632Zm-16.107,19.574c0,-1.193 -0.596,-1.79 -1.789,-1.79l-5.258,0c-1.267,0 -1.901,0.597 -1.901,1.79l0,14.317c0,1.268 0.596,1.902 1.79,1.902l5.369,0c1.193,0 1.789,-0.597 1.789,-1.79l0,-14.429Zm16.107,0c0,-1.193 -0.597,-1.79 -1.79,-1.79l-6.263,0c-1.268,0 -1.902,0.597 -1.902,1.79l0,14.317c0,1.268 0.597,1.902 1.79,1.902l6.375,0c1.193,0 1.79,-0.597 1.79,-1.79l0,-14.429Z" style="fill:#c5172b;fill-rule:nonzero;"/><path d="M133.263,213.656c0,-1.492 0.746,-2.237 2.237,-2.237l3.467,0c1.492,0 2.238,0.745 2.238,2.237l0,27.292c0,1.193 0.298,2.162 0.894,2.908l9.62,12.304c1.342,1.64 1.64,3.169 0.895,4.586l-3.803,6.599c-0.821,1.417 -1.455,1.305 -1.902,-0.335l-4.922,-17.002c-0.522,-1.268 -0.782,-1.156 -0.782,0.336l0,34.003c-0.15,2.833 -0.448,5.816 -0.895,8.948c-0.821,7.83 -5.295,16.032 -13.423,24.608c-1.715,1.715 -2.833,2.423 -3.355,2.125c-0.597,-0.298 -0.448,-1.193 0.447,-2.684c3.505,-5.966 5.966,-11.745 7.382,-17.338c1.194,-5.294 1.827,-12.937 1.902,-22.93l0,-63.42Zm21.476,0c0,-1.492 0.745,-2.237 2.237,-2.237l4.474,0c1.491,0 2.237,0.745 2.237,2.237l0,28.187c0,1.193 0.634,2.535 1.901,4.026l8.725,10.626c1.193,1.492 1.38,2.983 0.559,4.475l-3.579,6.151c-0.895,1.566 -1.715,1.604 -2.461,0.112c-1.864,-4.25 -3.02,-7.233 -3.467,-8.948c-0.522,-2.312 -1.007,-5.071 -1.454,-8.277c-0.149,0 -0.224,0.522 -0.224,1.566l0,60.289c0,1.566 -0.746,2.349 -2.237,2.349l-4.362,0c-1.566,0 -2.349,-0.746 -2.349,-2.237l0,-98.319Zm21.476,0c0,-1.492 0.745,-2.237 2.237,-2.237l3.467,0c1.491,0 2.237,0.745 2.237,2.237l0,102.681c0,1.566 -0.746,2.349 -2.237,2.349l-3.356,0c-1.565,0 -2.348,-0.746 -2.348,-2.237l0,-102.793Zm-53.69,25.167c0,-1.566 0.708,-2.349 2.125,-2.349l3.691,0c1.492,0 2.237,0.745 2.237,2.237l0,6.04c-0.223,3.803 -0.484,6.86 -0.783,9.172c-0.82,6.711 -4.325,13.012 -10.514,18.903c-0.745,0.671 -1.267,1.044 -1.566,1.119c-0.372,0 -0.261,-0.821 0.336,-2.461c0.596,-1.492 1.305,-2.983 2.125,-4.474c0.97,-2.088 1.491,-3.58 1.566,-4.475c0.373,-3.057 0.634,-6.189 0.783,-9.395l0,-14.317Z" style="fill:#c5172b;fill-rule:nonzero;"/><path d="M252.114,220.591c9.172,-2.237 18.12,-5.295 26.844,-9.172c1.492,-0.597 2.983,-0.373 4.474,0.671l7.159,5.033c1.342,0.895 1.156,1.454 -0.559,1.678c-1.492,0.149 -2.983,0.373 -4.474,0.671c-3.356,0.447 -6.339,0.895 -8.949,1.342c-1.193,0.299 -1.789,1.044 -1.789,2.237l0,17.785c0,1.268 0.596,1.901 1.789,1.901l16.667,0c1.491,0 2.237,0.709 2.237,2.126c0,1.491 -0.746,2.237 -2.237,2.237l-16.443,0c-1.193,0 -1.901,0.745 -2.125,2.237c-0.522,3.057 -1.23,6.04 -2.125,8.948c-0.895,3.356 -2.722,7.121 -5.481,11.297c-0.746,1.193 -0.522,1.79 0.671,1.79l11.633,0c1.193,0 1.789,-0.746 1.789,-2.237c0,-1.492 0.746,-2.237 2.237,-2.237l3.468,0c1.491,0 2.237,0.745 2.237,2.237l0,46.307c0,1.566 -0.746,2.349 -2.237,2.349l-2.461,0c-1.566,0 -2.349,-0.746 -2.349,-2.237l0,-3.132c0,-1.193 -0.596,-1.79 -1.789,-1.79l-16.89,0c-1.268,0 -1.902,0.597 -1.902,1.79l0,3.02c0,1.566 -0.745,2.349 -2.237,2.349l-2.572,0c-1.566,0 -2.349,-0.746 -2.349,-2.237l0,-21.923l0,-2.126c-0.149,-0.223 -0.299,-0.335 -0.448,-0.335c-0.447,0.447 -1.044,1.268 -1.789,2.461c-5.146,7.158 -11.335,12.49 -18.568,15.995c-2.386,1.267 -4.81,2.274 -7.27,3.02c-1.492,0.447 -2.163,-0.075 -2.014,-1.566l0.559,-3.915l-0.559,-3.244c-0.224,-1.417 0.485,-1.976 2.125,-1.678c1.343,0.671 3.207,0.373 5.593,-0.894c1.193,-0.448 1.79,-1.268 1.79,-2.461l0,-47.314c0,-1.193 -0.597,-1.79 -1.79,-1.79l-7.494,0c-1.566,0 -2.349,-0.745 -2.349,-2.237l0,-0.895c0,-1.491 0.746,-2.237 2.237,-2.237l7.606,0c1.193,0 1.79,-0.708 1.79,-2.125c0,-1.491 0.745,-2.237 2.237,-2.237l3.467,0c1.492,0 2.237,0.746 2.237,2.237l0,54.025c0,1.193 0.746,1.268 2.237,0.224l8.501,-6.823c1.268,-1.044 1.902,-2.088 1.902,-3.132l0,-17.449c0,-1.492 0.745,-2.237 2.237,-2.237l2.684,0c1.492,0 2.237,0.708 2.237,2.125c0,1.566 0.597,2.349 1.79,2.349c1.193,0 2.013,-0.746 2.461,-2.237c0.671,-2.983 1.044,-5.779 1.118,-8.389l0,-11.857c0,-1.193 -0.596,-1.789 -1.789,-1.789l-14.653,0c-1.566,0 -2.349,-0.709 -2.349,-2.125c0,-1.492 0.746,-2.238 2.237,-2.238l14.765,0c1.193,0 1.789,-0.596 1.789,-1.789l0,-17.002c0,-1.193 -0.745,-1.752 -2.237,-1.678l-12.527,0.56c-1.492,0 -2.237,-0.261 -2.237,-0.783c0,-0.522 0.745,-1.007 2.237,-1.454Zm-20.134,-6.488c-0.298,-1.566 -0.373,-2.386 -0.224,-2.461c0.224,0.075 1.082,0.783 2.573,2.126l6.935,6.934c1.491,1.492 1.864,2.983 1.118,4.475l-3.02,6.263c-0.745,1.492 -1.379,1.492 -1.901,0c-2.312,-6.114 -4.139,-11.893 -5.481,-17.337Zm50.11,63.421c0,-1.193 -0.596,-1.79 -1.789,-1.79l-16.89,0c-1.268,0 -1.902,0.597 -1.902,1.79l0,26.845c0,1.267 0.597,1.901 1.79,1.901l17.002,0c1.193,0 1.789,-0.596 1.789,-1.79l0,-26.956Z" style="fill:#c5172b;fill-rule:nonzero;"/><path d="M360.003,211.978c-0.448,-1.566 -0.522,-2.349 -0.224,-2.349c0.298,0 0.82,0.186 1.566,0.559l8.948,4.363c1.566,0.82 1.902,1.938 1.007,3.355l-2.014,3.244c-0.671,1.193 -0.41,1.789 0.783,1.789l29.865,0c1.492,0 2.237,0.709 2.237,2.126c0,1.566 -0.745,2.349 -2.237,2.349l-67.783,0c-1.566,0 -2.349,-0.746 -2.349,-2.237c0,-1.492 0.746,-2.238 2.237,-2.238l31.655,0c1.193,0 1.305,-0.745 0.335,-2.237c-1.938,-3.653 -3.281,-6.562 -4.026,-8.724Zm-14.989,24.048c0,-1.491 0.746,-2.237 2.237,-2.237l2.573,0c1.491,0 2.237,0.41 2.237,1.231c0,0.969 0.597,1.454 1.79,1.454l24.272,0c1.193,0 1.789,-0.448 1.789,-1.343c0,-0.894 0.746,-1.342 2.238,-1.342l2.572,0c1.492,0 2.237,0.746 2.237,2.237l0,23.937c0,1.566 -0.745,2.349 -2.237,2.349l-2.461,0c-1.566,0 -2.349,-0.746 -2.349,-2.237c0,-1.492 -0.596,-2.237 -1.789,-2.237l-24.16,0c-1.268,0 -1.902,0.708 -1.902,2.125c0,1.566 -0.746,2.349 -2.237,2.349l-2.461,0c-1.566,0 -2.349,-0.746 -2.349,-2.237l0,-24.049Zm34.898,6.6c0,-1.193 -0.596,-1.79 -1.789,-1.79l-24.16,0c-1.268,0 -1.902,0.597 -1.902,1.79l0,8.948c0,1.268 0.597,1.901 1.79,1.901l24.272,0c1.193,0 1.789,-0.596 1.789,-1.789l0,-9.06Zm11.633,23.377c0,-1.193 0.709,-1.79 2.125,-1.79l3.58,0c1.491,0 2.237,0.746 2.237,2.237l0,42.057c-0.671,4.176 -3.766,7.569 -9.284,10.179c-1.491,0.522 -2.237,0.223 -2.237,-0.895c0,-1.119 -0.746,-1.566 -2.237,-1.342l-5.369,0.895c-1.491,0.298 -2.386,0.149 -2.685,-0.448c-0.298,-0.596 0.261,-1.156 1.678,-1.678c1.342,-0.596 2.759,-1.118 4.251,-1.566c2.833,-0.522 5.294,-2.386 7.382,-5.592c0.373,-0.671 0.559,-1.604 0.559,-2.797l0,-31.318c0,-1.194 -0.596,-1.79 -1.789,-1.79l-46.531,0c-1.268,0 -1.902,0.596 -1.902,1.79l0,41.497c0,1.566 -0.746,2.349 -2.237,2.349l-3.355,0c-1.566,0 -2.349,-0.746 -2.349,-2.237l0,-48.209c0,-1.491 0.745,-2.237 2.237,-2.237l3.467,0c1.491,0 2.237,0.41 2.237,1.231c0,0.969 0.597,1.454 1.79,1.454l46.643,0c1.193,0 1.789,-0.597 1.789,-1.79Zm-39.372,13.982c0,-1.566 0.746,-2.349 2.237,-2.349l2.573,0c1.491,0 2.237,0.559 2.237,1.677c0,1.268 0.596,1.902 1.789,1.902l9.955,0c1.193,0 1.79,-0.597 1.79,-1.79c0,-1.193 0.746,-1.789 2.237,-1.789l3.467,0c1.492,0 2.237,0.745 2.237,2.237l0,23.041c0,1.566 -0.745,2.349 -2.237,2.349l-3.355,0c-1.566,0 -2.349,-0.745 -2.349,-2.237c0,-1.491 -0.597,-2.237 -1.79,-2.237l-9.843,0c-1.268,0 -1.901,0.709 -1.901,2.125c0,1.566 -0.746,2.349 -2.237,2.349l-2.573,0c-1.491,0 -2.237,-0.745 -2.237,-2.237l0,-23.041Zm20.581,7.382c0,-1.193 -0.597,-1.79 -1.79,-1.79l-9.843,0c-1.268,0 -1.901,0.597 -1.901,1.79l0,7.158c0,1.268 0.596,1.902 1.789,1.902l9.955,0c1.193,0 1.79,-0.597 1.79,-1.79l0,-7.27Z" style="fill:#c5172b;fill-rule:nonzero;"/><path d="M463.418,213.656c0,-1.492 0.745,-2.237 2.237,-2.237l4.474,0c1.491,0 2.237,0.745 2.237,2.237l0,11.073c0,1.268 0.596,1.902 1.789,1.902l11.074,0c1.491,0 2.237,0.708 2.237,2.125c0,1.491 -0.746,2.237 -2.237,2.237l-10.962,0c-1.267,0 -1.901,0.596 -1.901,1.79l0,12.527c0,1.268 0.596,1.902 1.789,1.902l5.258,0c1.193,0 2.125,-0.746 2.796,-2.237c1.268,-2.983 2.498,-5.966 3.691,-8.949c1.268,-2.684 2.834,-7.755 4.698,-15.212c0.447,-1.491 1.417,-2.237 2.908,-2.237l6.04,0c1.491,0 2.013,0.746 1.566,2.237c-2.088,8.128 -5.108,16.331 -9.06,24.608c-0.522,1.193 -0.186,1.79 1.007,1.79l16.33,0c1.492,0 2.237,0.708 2.237,2.125c0,1.491 -0.745,2.237 -2.237,2.237l-20.022,0c-1.193,0 -2.423,0.746 -3.691,2.237c-2.833,2.834 -5.592,5.704 -8.277,8.613c-0.895,1.193 -0.745,1.789 0.448,1.789l27.068,0c1.491,0 2.237,0.56 2.237,1.678c0,1.193 -0.746,1.79 -2.237,1.79l-26.174,0c-1.193,0 -2.013,0.745 -2.46,2.237l-1.007,2.237c-0.671,1.491 -2.684,3.542 -6.04,6.152c-1.491,1.267 -1.641,1.901 -0.447,1.901l18.791,0c1.193,0 1.789,-0.708 1.789,-2.125c0,-1.491 0.746,-2.237 2.238,-2.237l4.474,0c1.491,0 2.237,0.746 2.237,2.237l0,26.845c0,1.491 -0.224,2.61 -0.671,3.355c-1.79,3.132 -4.475,6.115 -8.054,8.949c-1.342,1.193 -2.461,1.827 -3.355,1.901l-2.237,0.559c-1.79,0.522 -2.648,0.672 -2.573,0.448c0,-0.597 -0.261,-1.119 -0.783,-1.566c-1.417,-0.895 -2.908,-1.193 -4.474,-0.895c-1.939,0.075 -3.915,0.112 -5.928,0.112c-1.566,0 -2.349,-0.298 -2.349,-0.895c0,-0.671 0.783,-1.156 2.349,-1.454c2.908,-0.671 5.853,-1.491 8.836,-2.461c3.43,-0.895 6.226,-2.311 8.389,-4.25c1.268,-1.119 1.901,-2.237 1.901,-3.356l0,-18.903c0,-1.193 -0.596,-1.79 -1.789,-1.79l-18.903,0c-1.193,0 -2.163,0.261 -2.909,0.783c-0.969,0.672 -1.454,0.299 -1.454,-1.118c-0.074,-2.61 0.746,-5.518 2.461,-8.725l0.783,-3.243c0.149,-1.194 -0.522,-1.268 -2.013,-0.224c-8.203,6.189 -16.778,11.782 -25.726,16.778c-1.492,0.82 -2.536,1.081 -3.132,0.783c-0.671,-0.373 -0.299,-1.081 1.118,-2.125c5.891,-4.251 11.857,-8.986 17.897,-14.206c4.474,-3.877 11.483,-10.551 21.028,-20.021c1.193,-1.194 1.193,-1.79 0,-1.79l-36.911,0c-1.566,0 -2.349,-0.709 -2.349,-2.125c0,-1.492 0.745,-2.237 2.237,-2.237l21.923,0c1.193,0 1.79,-0.597 1.79,-1.79l0,-12.639c0,-1.194 -0.597,-1.79 -1.79,-1.79l-14.653,0c-1.566,0 -2.349,-0.708 -2.349,-2.125c0,-1.492 0.746,-2.237 2.237,-2.237l14.765,0c1.193,0 1.79,-0.597 1.79,-1.79l0,-11.185Z" style="fill:#c5172b;fill-rule:nonzero;"/></svg>