<?xml version="1.0" encoding="UTF-8" standalone="no"?><!DOCTYPE svg PUBLIC "-//W3C//DTD SVG 1.1//EN" "http://www.w3.org/Graphics/SVG/1.1/DTD/svg11.dtd"><svg width="100%" height="100%" viewBox="0 0 191 70" version="1.1" xmlns="http://www.w3.org/2000/svg" xmlns:xlink="http://www.w3.org/1999/xlink" xml:space="preserve" xmlns:serif="http://www.serif.com/" style="fill-rule:evenodd;clip-rule:evenodd;stroke-linejoin:round;stroke-miterlimit:2;"><path d="M38.391,1.266c1.031,-0.469 1.898,-0.305 2.601,0.492l1.617,1.758c0.797,0.937 0.727,1.523 -0.211,1.757c-5.484,1.079 -10.406,1.571 -14.765,1.477c-0.797,0 -1.195,0.375 -1.195,1.125l0,12.305c0,0.797 0.375,1.195 1.125,1.195l16.523,0c0.937,0 1.406,0.445 1.406,1.336c0,0.937 -0.469,1.406 -1.406,1.406l-4.641,0c-0.797,0 -1.195,0.375 -1.195,1.125l0,41.836c0,0.984 -0.469,1.477 -1.406,1.477l-2.18,0c-0.984,0 -1.477,-0.469 -1.477,-1.407l0,-41.906c0,-0.75 -0.375,-1.125 -1.125,-1.125l-4.429,0c-0.797,0 -1.172,0.469 -1.125,1.406c0,1.5 0.023,3.047 0.07,4.641l0,7.875c0.047,4.781 -0.375,9.305 -1.266,13.57c-0.468,1.922 -1.101,3.797 -1.898,5.625c-1.031,2.063 -2.039,3.516 -3.023,4.36l-5.204,5.554c-0.75,0.938 -1.406,1.407 -1.968,1.407c-0.516,0 -0.469,-0.469 0.14,-1.407c4.219,-6.234 6.657,-11.859 7.313,-16.875c0.422,-2.765 0.656,-5.414 0.703,-7.945l0,-38.109c0,-0.938 0.469,-1.407 1.406,-1.407l2.25,0c0.938,0 1.406,0.446 1.406,1.336c0,0.938 0.469,1.289 1.407,1.055c4.781,-1.594 8.297,-2.906 10.547,-3.937Zm-38.391,4.078c0,-0.985 0.445,-1.477 1.336,-1.477l2.25,0c0.937,0 1.406,0.469 1.406,1.406l0,1.407c0,0.797 0.375,1.195 1.125,1.195l4.008,0c0.75,0 1.125,-0.375 1.125,-1.125l0,-1.477c0,-0.937 0.469,-1.406 1.406,-1.406l2.18,0c0.937,0 1.406,0.469 1.406,1.406l0,42.118c0,0.984 -0.469,1.476 -1.406,1.476l-2.109,0c-0.985,0 -1.477,-0.469 -1.477,-1.406l0,-1.406c0,-0.75 -0.375,-1.125 -1.125,-1.125l-3.938,0c-0.796,0 -1.195,0.375 -1.195,1.125l0,2.461c0,0.984 -0.469,1.476 -1.406,1.476l-2.109,0c-0.985,0 -1.477,-0.469 -1.477,-1.406l0,-43.242Zm11.25,5.906c0,-0.797 -0.352,-1.195 -1.055,-1.195l-4.008,0c-0.796,0 -1.195,0.375 -1.195,1.125l0,29.812c0,0.797 0.375,1.195 1.125,1.195l4.008,0c0.75,0 1.125,-0.375 1.125,-1.125l0,-29.812Z" style="fill:#c5172b;fill-rule:nonzero;"/><path d="M90,2.039c0,-0.984 0.469,-1.477 1.406,-1.477l3.305,0c0.937,0 1.406,0.469 1.406,1.407l0,12.023c0,0.797 0.375,1.196 1.125,1.196l11.883,0c0.75,0 1.125,-0.375 1.125,-1.125l0,-1.407c0,-0.937 0.469,-1.406 1.406,-1.406l3.375,0c0.938,0 1.406,0.469 1.406,1.406l0,44.93c0,0.937 -0.117,1.641 -0.351,2.109c-1.172,2.578 -3.07,4.782 -5.695,6.61c-0.469,0.515 -1.172,0.797 -2.11,0.843c-0.937,0.141 -1.406,0.118 -1.406,-0.07c-0.234,-0.984 -0.914,-1.453 -2.039,-1.406c-0.234,0.094 -0.469,0.164 -0.703,0.211c-0.844,0.047 -1.688,0.117 -2.531,0.211c-0.938,0.14 -1.524,-0.071 -1.758,-0.633c-0.188,-0.516 0.234,-0.938 1.265,-1.266c0.938,-0.328 1.875,-0.609 2.813,-0.843c1.406,-0.235 3.047,-1.055 4.922,-2.461c0.937,-0.844 1.406,-1.641 1.406,-2.391l0,-38.883c0,-0.75 -0.375,-1.125 -1.125,-1.125l-12.305,0c-0.797,0 -1.195,0.375 -1.195,1.125l0,17.016c-0.141,5.109 -0.891,9.914 -2.25,14.414c-1.219,2.859 -3.867,6.609 -7.945,11.25c-0.328,0.422 -0.727,0.773 -1.196,1.055l-9.14,5.273c-0.516,0.328 -0.961,0.492 -1.336,0.492c-0.375,0 -0.094,-0.445 0.844,-1.336c1.875,-1.734 3.75,-3.422 5.625,-5.062c1.921,-1.735 3.562,-3.657 4.921,-5.766c3.516,-7.641 5.18,-15.422 4.993,-23.344l0,-10.054c-0.094,-1.313 -0.141,-2.625 -0.141,-3.938c0,-0.75 -0.375,-1.125 -1.125,-1.125l-12.023,0c-0.985,0 -1.477,-0.469 -1.477,-1.406l0,-0.492c0,-0.938 0.469,-1.407 1.406,-1.407l12.094,0c0.75,0 1.125,-0.375 1.125,-1.125l0,-12.023Z" style="fill:#c5172b;fill-rule:nonzero;"/><path d="M146.25,1.477c0,-0.985 0.445,-1.477 1.336,-1.477l2.25,0c0.937,0 1.406,0.445 1.406,1.336c0,0.984 0.375,1.477 1.125,1.477l5.695,-0.001c0.75,0 1.125,-0.468 1.125,-1.406c0,-0.937 0.469,-1.406 1.407,-1.406l1.617,0c0.937,0 1.406,0.469 1.406,1.406l0,24.047c0,0.985 -0.469,1.477 -1.406,1.477l-1.547,0c-0.984,0 -1.477,-0.469 -1.477,-1.407c0,-0.937 -0.375,-1.406 -1.125,-1.406l-5.625,0c-0.796,0 -1.195,0.445 -1.195,1.336c0,0.985 -0.469,1.477 -1.406,1.477l-2.109,0c-0.985,0 -1.477,-0.469 -1.477,-1.407l0,-24.046Zm19.688,2.109c0,-0.891 0.468,-1.336 1.406,-1.336l21.375,0c0.937,0 1.406,0.445 1.406,1.336c0,0.937 -0.469,1.406 -1.406,1.406l-6.961,0c-0.75,0 -1.313,0.469 -1.688,1.406c-1.218,3.141 -2.437,5.485 -3.656,7.032c-0.984,1.078 -1.476,1.148 -1.476,0.211l0,-7.524c0,-0.75 -0.375,-1.125 -1.125,-1.125l-6.399,0c-0.984,0 -1.476,-0.469 -1.476,-1.406Zm-6.75,3.094c0,-0.75 -0.375,-1.125 -1.125,-1.125l-5.625,0c-0.797,0 -1.196,0.375 -1.196,1.125l0,4.5c0,0.797 0.375,1.195 1.125,1.195l1.969,0c0.937,0 1.406,0.445 1.406,1.336c0,0.937 -0.469,1.406 -1.406,1.406l-1.898,0c-0.797,0 -1.196,0.375 -1.196,1.125l0,3.938c0,0.797 0.375,1.195 1.125,1.195l5.696,0c0.75,0 1.125,-0.375 1.125,-1.125l0,-13.57Zm8.437,7.101c0,-0.937 0.469,-1.406 1.406,-1.406l1.688,0c0.937,0 1.406,0.445 1.406,1.336c0,0.984 0.375,1.476 1.125,1.476l7.875,0c0.75,0 1.125,-0.468 1.125,-1.406c0,-0.937 0.469,-1.406 1.406,-1.406l1.688,0c0.937,0 1.406,0.469 1.406,1.406l0,27.282c-0.609,2.624 -1.43,4.968 -2.461,7.031c-0.141,0.656 -0.609,1.078 -1.406,1.265c-0.844,0.422 -0.797,0.797 0.14,1.125c1.313,0.61 2.649,1.172 4.008,1.688c0.938,0.469 1.407,1.172 1.407,2.109c0.046,0.938 0,1.594 -0.141,1.969c0,0.844 0.07,1.828 0.211,2.953c0.281,0.938 -0.047,1.125 -0.985,0.563c-5.484,-3.282 -8.46,-7.243 -8.929,-11.883c-0.047,-1.172 0.258,-1.313 0.914,-0.422c0.375,0.562 0.703,0.984 0.984,1.266c0.75,0.515 1.196,0.304 1.336,-0.633l0.422,-2.953l0,-26.086c0,-0.75 -0.375,-1.125 -1.125,-1.125l-7.805,0c-0.797,0 -1.195,0.375 -1.195,1.125l0,27.211c0,0.984 -0.469,1.476 -1.406,1.476l-1.617,0c-0.985,0 -1.477,-0.469 -1.477,-1.406l0,-32.555Zm7.313,9.141c0.046,-1.031 0.468,-1.547 1.265,-1.547l1.195,0c0.938,0 1.407,0.469 1.407,1.406l0,14.063c-0.047,2.531 -0.188,5.226 -0.422,8.086c-1.031,5.39 -4.922,10.5 -11.672,15.328c-0.844,0.656 -1.453,0.89 -1.828,0.703c-0.422,-0.188 -0.188,-0.703 0.703,-1.547c3.984,-3.844 6.703,-7.664 8.156,-11.461c0.61,-1.406 0.914,-4.125 0.914,-8.156l0,-7.242c0.188,-4.735 0.282,-7.946 0.282,-9.633Zm-32.063,8.789c0,-0.891 0.469,-1.336 1.406,-1.336l20.25,0c0.938,0 1.406,0.445 1.406,1.336c0,0.937 -0.468,1.406 -1.406,1.406l-4.219,0c-0.796,0 -1.195,0.375 -1.195,1.125l0,7.313c0,0.797 0.375,1.195 1.125,1.195l3.094,0c0.937,0 1.406,0.445 1.406,1.336c0,0.937 -0.469,1.406 -1.406,1.406l-3.024,0c-0.796,0 -1.195,0.375 -1.195,1.125l0,13.992c0,0.75 0.469,1.219 1.406,1.407c2.719,0.468 6.446,0.796 11.18,0.984c1.875,0 3.774,-0.047 5.695,-0.141c4.125,-0.187 8.25,-0.328 12.375,-0.422c0.938,0 1.079,0.469 0.422,1.407c-0.609,0.703 -1.031,1.64 -1.265,2.812c-0.047,0.422 0.14,0.867 0.562,1.336c0.328,0.375 0.024,0.563 -0.914,0.563l-5.273,0c-4.266,-0.141 -8.508,-0.235 -12.727,-0.282c-4.219,-0.187 -8.437,-0.773 -12.656,-1.757c-0.797,0 -1.735,-0.563 -2.813,-1.688c-1.781,-1.594 -3.07,-3.469 -3.867,-5.625c-0.328,-0.891 -0.633,-1.781 -0.914,-2.672c-0.141,-0.234 -0.375,0.141 -0.703,1.125c-0.609,2.531 -2.32,5.696 -5.133,9.492c-0.703,0.938 -1.242,1.407 -1.617,1.407c-0.375,0 -0.352,-0.469 0.07,-1.407c0.797,-1.031 1.5,-2.203 2.11,-3.515c0.656,-3.235 1.054,-6.844 1.195,-10.828l0,-13.149c0,-0.937 0.469,-1.406 1.406,-1.406l2.18,0c0.937,0 1.406,0.469 1.406,1.406c-0.187,4.641 -0.328,9.281 -0.422,13.922c-0.047,0.516 0.141,1.219 0.563,2.109c0.562,0.844 1.195,1.665 1.898,2.461c0.938,0.938 1.406,1.032 1.406,0.282l0,-24.188c0,-0.75 -0.375,-1.125 -1.125,-1.125l-9.21,0c-0.985,0 -1.477,-0.469 -1.477,-1.406Z" style="fill:#c5172b;fill-rule:nonzero;"/></svg>