<?xml version="1.0" encoding="UTF-8" standalone="no"?><!DOCTYPE svg PUBLIC "-//W3C//DTD SVG 1.1//EN" "http://www.w3.org/Graphics/SVG/1.1/DTD/svg11.dtd"><svg width="100%" height="100%" viewBox="0 0 190 69" version="1.1" xmlns="http://www.w3.org/2000/svg" xmlns:xlink="http://www.w3.org/1999/xlink" xml:space="preserve" xmlns:serif="http://www.serif.com/" style="fill-rule:evenodd;clip-rule:evenodd;stroke-linejoin:round;stroke-miterlimit:2;"><path d="M10.492,2.039c0,-0.984 0.469,-1.477 1.406,-1.477l2.18,0c0.938,0 1.406,0.469 1.406,1.407l0,17.156l0.071,1.336c0.047,0.141 0.117,0.187 0.211,0.141c0.281,-0.469 0.703,-1.454 1.265,-2.954c1.735,-4.453 3.492,-8.906 5.274,-13.359c0.328,-1.031 0.75,-1.055 1.265,-0.07c0.657,1.265 1.289,2.554 1.899,3.867c0.468,0.937 0.351,1.875 -0.352,2.812l-9.351,12.305c-0.235,0.235 -0.305,0.516 -0.211,0.844c0.047,0.094 0.445,0.141 1.195,0.141l6.961,0c0.937,0 1.406,0.445 1.406,1.335c0,0.938 -0.469,1.407 -1.406,1.407l-7.031,0c-0.797,0 -1.196,0.375 -1.196,1.125l0,7.875c0,0.75 0.469,1.031 1.407,0.843c2.437,-0.937 4.898,-1.804 7.382,-2.601c0.938,-0.328 1.5,-0.328 1.688,0c0.141,0.375 -0.258,0.891 -1.195,1.547c-2.672,1.687 -5.368,3.398 -8.086,5.133c-0.797,0.515 -1.219,1.218 -1.266,2.109c-0.234,3.75 -1.055,7.477 -2.461,11.18c-1.781,4.781 -5.437,9.211 -10.969,13.289c-0.75,0.703 -1.406,1.078 -1.968,1.125c-0.094,0 0.234,-0.469 0.984,-1.407c3.516,-4.031 5.953,-7.781 7.312,-11.25c0.563,-1.359 0.961,-3.234 1.196,-5.625c0.234,-1.968 0.492,-3.914 0.773,-5.835c0.141,-0.75 -0.258,-1.032 -1.195,-0.844c-2.625,0.469 -5.227,0.984 -7.805,1.547c-0.937,0.234 -1.359,-0.118 -1.265,-1.055c0.234,-1.359 0.351,-2.297 0.351,-2.813l-0.281,-1.406c-0.188,-1.078 0.164,-1.617 1.055,-1.617l8.226,0c0.75,0 1.125,-0.375 1.125,-1.125l0,-9.07c0,-0.75 -0.375,-1.125 -1.125,-1.125l-7.523,0c-0.985,0 -1.477,-0.446 -1.477,-1.336c0,-0.938 0.469,-1.406 1.406,-1.406l7.594,0c0.75,0 1.125,-0.375 1.125,-1.125l0,-21.024Zm27.563,0c0,-0.984 0.468,-1.476 1.406,-1.476l2.25,0c0.937,0 1.406,0.468 1.406,1.406l0,57.304c0,0.938 -0.117,1.641 -0.351,2.11c-0.516,1.078 -1.149,2.25 -1.899,3.515c-0.375,0.563 -0.75,0.938 -1.125,1.125l-2.461,1.266c-0.937,0.469 -1.547,0.516 -1.828,0.141c-0.187,-0.516 -0.539,-0.75 -1.055,-0.703l-3.937,0.492c-0.938,0.093 -1.406,-0.117 -1.406,-0.633c0,-0.516 0.468,-0.938 1.406,-1.266l4.219,-1.687c1.312,-0.422 2.343,-1.36 3.093,-2.813c0.188,-0.422 0.282,-1.008 0.282,-1.758l0,-57.023Zm-37.407,1.617c-0.187,-0.937 -0.187,-1.406 0,-1.406c0.141,-0.047 0.516,0.398 1.125,1.336l6.188,10.125c0.516,0.891 0.516,1.851 0,2.883c-0.609,1.078 -1.195,2.156 -1.758,3.234c-0.516,0.938 -0.937,0.938 -1.266,0c-1.921,-5.25 -3.351,-10.641 -4.289,-16.172Zm27.844,6.117c0,-0.937 0.469,-1.406 1.406,-1.406l1.618,0c0.937,0 1.406,0.469 1.406,1.406l0,41.555c0,0.984 -0.469,1.477 -1.406,1.477l-1.547,0c-0.985,0 -1.477,-0.469 -1.477,-1.407l0,-41.625Z" style="fill:#c5172b;fill-rule:nonzero;"/><path d="M108.508,1.758c0.984,-0.797 1.922,-0.844 2.812,-0.141c0.938,0.703 1.875,1.43 2.813,2.18c0.984,0.797 1.008,1.265 0.07,1.406c-4.219,0.609 -8.437,1.242 -12.656,1.899c-0.75,0.14 -1.125,0.585 -1.125,1.335l0,11.18c0,0.797 0.375,1.195 1.125,1.195l12.656,0c0.938,0 1.406,0.446 1.406,1.336c0,0.938 -0.468,1.407 -1.406,1.407l-1.898,0c-0.797,0 -1.196,0.375 -1.196,1.125l0,42.398c0,0.984 -0.468,1.477 -1.406,1.477l-2.109,0c-0.985,0 -1.477,-0.469 -1.477,-1.407l0,-42.468c0,-0.75 -0.375,-1.125 -1.125,-1.125l-3.375,0c-0.797,0 -1.195,0.375 -1.195,1.125l0,15.398l0.07,0.703l0,4.571c-0.094,3.703 -0.68,7.453 -1.758,11.25c-0.984,3.234 -3.164,6.75 -6.539,10.546c-0.843,0.938 -1.429,1.407 -1.758,1.407c-0.375,0 -0.328,-0.469 0.141,-1.407c0.469,-0.656 0.914,-1.312 1.336,-1.968c0.469,-0.75 0.328,-1.125 -0.422,-1.125l-13.992,0c-0.797,0 -1.195,0.375 -1.195,1.125l0,1.336c0,0.984 -0.469,1.476 -1.407,1.476l-1.617,0c-0.984,0 -1.476,-0.469 -1.476,-1.406l0,-62.93c0,-0.937 0.468,-1.406 1.406,-1.406l1.687,0c0.938,0 1.407,0.469 1.407,1.406l0,0.914c0.047,0.938 0.117,1.43 0.211,1.477l0.281,-0.281c0.047,-0.094 0.445,0.328 1.195,1.265c1.125,1.5 2.274,3.024 3.445,4.571c0.704,0.937 1.055,1.007 1.055,0.211l0,-9.282c0,-0.937 0.469,-1.406 1.406,-1.406l2.18,0c0.938,0 1.406,0.469 1.406,1.406l0,14.907l0.071,1.335c0.047,0.141 0.117,0.188 0.211,0.141c0.89,-1.922 1.711,-3.844 2.461,-5.766c0.562,-1.406 1.148,-2.812 1.757,-4.218c0.422,-1.078 0.914,-1.172 1.477,-0.282l1.125,1.688c0.562,0.937 0.492,1.875 -0.211,2.812l-5.977,8.086c-0.75,0.75 -1.054,1.336 -0.914,1.758c0,0.422 0.375,0.633 1.125,0.633l3.657,0c0.937,0 1.406,0.445 1.406,1.336c0,0.937 -0.469,1.406 -1.406,1.406l-3.586,0c-0.797,0 -1.196,0.375 -1.196,1.125l0,2.18c0,0.75 0.118,1.148 0.352,1.195c0.187,0 0.703,0.492 1.547,1.477l4.922,6.047c0.75,0.937 0.843,1.875 0.281,2.812l-2.18,3.445c-0.609,0.938 -1.031,0.938 -1.265,0l-2.813,-10.898c-0.187,-0.656 -0.398,-1.336 -0.633,-2.039c-0.14,-0.141 -0.211,0.258 -0.211,1.195l0,24.61c0,0.984 -0.468,1.476 -1.406,1.476l-2.109,0c-0.985,0 -1.477,-0.469 -1.477,-1.406l0,-12.094l0,-1.336c-0.094,-0.14 -0.187,-0.211 -0.281,-0.211c-0.094,0.094 -0.281,0.375 -0.563,0.844c-1.781,3.797 -3.023,6.563 -3.726,8.297c-0.328,0.937 -0.656,1.312 -0.985,1.125c-0.421,-0.234 -0.632,0 -0.632,0.703l0,5.766c0,0.797 0.375,1.195 1.125,1.195l14.273,0c0.938,0 1.406,0.094 1.406,0.281c0.047,0.375 0.305,0.117 0.774,-0.773c1.312,-3.328 1.969,-6.938 1.969,-10.828l0.14,-7.524l0,-39.375c0,-0.937 0.469,-1.406 1.406,-1.406l1.618,0c0.937,0 1.406,0.469 1.406,1.406l0,0.774c0,0.75 0.469,0.984 1.406,0.703c2.578,-0.844 4.805,-1.969 6.68,-3.375Zm-31.641,6.82c-0.281,-0.797 -0.445,-1.148 -0.492,-1.055l-0.07,1.266l0,13.641c0,0.797 0.375,1.195 1.125,1.195l3.937,0c0.75,0 1.125,-0.375 1.125,-1.125l0,-4.008l0,-1.336c-0.094,-0.14 -0.187,-0.211 -0.281,-0.211c-0.422,0.469 -1.008,1.43 -1.758,2.883c-0.516,0.938 -0.891,0.938 -1.125,0l-2.461,-11.25Zm5.625,18.985c0,-0.797 -0.351,-1.196 -1.055,-1.196l-3.937,0c-0.797,0 -1.195,0.375 -1.195,1.125l0,24.258l0.07,1.266c0.047,0.093 0.234,-0.328 0.562,-1.266c2.86,-9.656 4.641,-17.062 5.344,-22.219l0.211,-1.968Z" style="fill:#c5172b;fill-rule:nonzero;"/><path d="M144.93,1.477c0,-0.985 0.445,-1.477 1.336,-1.477l2.25,0c0.937,0 1.406,0.445 1.406,1.336c0,0.984 0.375,1.477 1.125,1.477l5.695,-0.001c0.75,0 1.125,-0.468 1.125,-1.406c0,-0.937 0.469,-1.406 1.406,-1.406l1.618,0c0.937,0 1.406,0.469 1.406,1.406l0,24.047c0,0.985 -0.469,1.477 -1.406,1.477l-1.547,0c-0.985,0 -1.477,-0.469 -1.477,-1.407c0,-0.937 -0.375,-1.406 -1.125,-1.406l-5.625,0c-0.797,0 -1.195,0.445 -1.195,1.336c0,0.985 -0.469,1.477 -1.406,1.477l-2.11,0c-0.984,0 -1.476,-0.469 -1.476,-1.407l0,-24.046Zm19.687,2.109c0,-0.891 0.469,-1.336 1.406,-1.336l21.375,0c0.938,0 1.407,0.445 1.407,1.336c0,0.937 -0.469,1.406 -1.407,1.406l-6.961,0c-0.75,0 -1.312,0.469 -1.687,1.406c-1.219,3.141 -2.438,5.485 -3.656,7.032c-0.985,1.078 -1.477,1.148 -1.477,0.211l0,-7.524c0,-0.75 -0.375,-1.125 -1.125,-1.125l-6.398,0c-0.985,0 -1.477,-0.469 -1.477,-1.406Zm-6.75,3.094c0,-0.75 -0.375,-1.125 -1.125,-1.125l-5.625,0c-0.797,0 -1.195,0.375 -1.195,1.125l0,4.5c0,0.797 0.375,1.195 1.125,1.195l1.969,0c0.937,0 1.406,0.445 1.406,1.336c0,0.937 -0.469,1.406 -1.406,1.406l-1.899,0c-0.797,0 -1.195,0.375 -1.195,1.125l0,3.938c0,0.797 0.375,1.195 1.125,1.195l5.695,0c0.75,0 1.125,-0.375 1.125,-1.125l0,-13.57Zm8.438,7.101c0,-0.937 0.468,-1.406 1.406,-1.406l1.687,0c0.938,0 1.407,0.445 1.407,1.336c0,0.984 0.375,1.476 1.125,1.476l7.875,0c0.75,0 1.125,-0.468 1.125,-1.406c0,-0.937 0.468,-1.406 1.406,-1.406l1.687,0c0.938,0 1.407,0.469 1.407,1.406l0,27.282c-0.61,2.624 -1.43,4.968 -2.461,7.031c-0.141,0.656 -0.61,1.078 -1.407,1.265c-0.843,0.422 -0.796,0.797 0.141,1.125c1.313,0.61 2.649,1.172 4.008,1.688c0.937,0.469 1.406,1.172 1.406,2.109c0.047,0.938 0,1.594 -0.14,1.969c0,0.844 0.07,1.828 0.21,2.953c0.282,0.938 -0.046,1.125 -0.984,0.563c-5.484,-3.282 -8.461,-7.243 -8.93,-11.883c-0.046,-1.172 0.258,-1.313 0.914,-0.422c0.375,0.562 0.704,0.984 0.985,1.266c0.75,0.515 1.195,0.304 1.336,-0.633l0.422,-2.953l0,-26.086c0,-0.75 -0.375,-1.125 -1.125,-1.125l-7.805,0c-0.797,0 -1.195,0.375 -1.195,1.125l0,27.211c0,0.984 -0.469,1.476 -1.407,1.476l-1.617,0c-0.984,0 -1.476,-0.469 -1.476,-1.406l0,-32.555Zm7.312,9.141c0.047,-1.031 0.469,-1.547 1.266,-1.547l1.195,0c0.938,0 1.406,0.469 1.406,1.406l0,14.063c-0.047,2.531 -0.187,5.226 -0.422,8.086c-1.031,5.39 -4.921,10.5 -11.671,15.328c-0.844,0.656 -1.454,0.89 -1.829,0.703c-0.421,-0.188 -0.187,-0.703 0.704,-1.547c3.984,-3.844 6.703,-7.664 8.156,-11.461c0.609,-1.406 0.914,-4.125 0.914,-8.156l0,-7.242c0.187,-4.735 0.281,-7.946 0.281,-9.633Zm-32.062,8.789c0,-0.891 0.468,-1.336 1.406,-1.336l20.25,0c0.937,0 1.406,0.445 1.406,1.336c0,0.937 -0.469,1.406 -1.406,1.406l-4.219,0c-0.797,0 -1.195,0.375 -1.195,1.125l0,7.313c0,0.797 0.375,1.195 1.125,1.195l3.094,0c0.937,0 1.406,0.445 1.406,1.336c0,0.937 -0.469,1.406 -1.406,1.406l-3.024,0c-0.797,0 -1.195,0.375 -1.195,1.125l0,13.992c0,0.75 0.469,1.219 1.406,1.407c2.719,0.468 6.445,0.796 11.18,0.984c1.875,0 3.773,-0.047 5.695,-0.141c4.125,-0.187 8.25,-0.328 12.375,-0.422c0.938,0 1.078,0.469 0.422,1.407c-0.609,0.703 -1.031,1.64 -1.266,2.812c-0.047,0.422 0.141,0.867 0.563,1.336c0.328,0.375 0.023,0.563 -0.914,0.563l-5.274,0c-4.265,-0.141 -8.507,-0.235 -12.726,-0.282c-4.219,-0.187 -8.438,-0.773 -12.656,-1.757c-0.797,0 -1.735,-0.563 -2.813,-1.688c-1.781,-1.594 -3.07,-3.469 -3.867,-5.625c-0.328,-0.891 -0.633,-1.781 -0.914,-2.672c-0.141,-0.234 -0.375,0.141 -0.703,1.125c-0.61,2.531 -2.321,5.696 -5.133,9.492c-0.703,0.938 -1.242,1.407 -1.617,1.407c-0.375,0 -0.352,-0.469 0.07,-1.407c0.797,-1.031 1.5,-2.203 2.109,-3.515c0.657,-3.235 1.055,-6.844 1.196,-10.828l0,-13.149c0,-0.937 0.468,-1.406 1.406,-1.406l2.18,0c0.937,0 1.406,0.469 1.406,1.406c-0.188,4.641 -0.328,9.281 -0.422,13.922c-0.047,0.516 0.141,1.219 0.562,2.109c0.563,0.844 1.196,1.665 1.899,2.461c0.937,0.938 1.406,1.032 1.406,0.282l0,-24.188c0,-0.75 -0.375,-1.125 -1.125,-1.125l-9.211,0c-0.984,0 -1.476,-0.469 -1.476,-1.406Z" style="fill:#c5172b;fill-rule:nonzero;"/></svg>